<?xml version="1.0" encoding="UTF-8"?>
<svg id="Livello_1" xmlns="http://www.w3.org/2000/svg" xmlns:serif="http://www.serif.com/" version="1.1" viewBox="0 0 1000 1000">
  <!-- Generator: Adobe Illustrator 29.5.0, SVG Export Plug-In . SVG Version: 2.1.0 Build 137)  -->
  <defs>
    <style>
      .st0 {
        fill: #f5f1ef;
        fill-rule: evenodd;
      }
    </style>
  </defs>
  <path class="st0" d="M500,0c276,0,500,224,500,500s-224,500-500,500S0,776,0,500,224,0,500,0ZM500,187.5c-84.9,0-95.5.4-128.8,1.9-33.3,1.5-56,6.8-75.9,14.5-20.5,8-38,18.7-55.3,36-17.4,17.4-28.1,34.8-36,55.3-7.7,19.9-13,42.6-14.5,75.9-1.5,33.3-1.9,44-1.9,128.8s.4,95.5,1.9,128.8c1.5,33.3,6.8,56,14.5,75.9,8,20.5,18.7,38,36,55.4,17.4,17.4,34.8,28.1,55.3,36,19.9,7.7,42.6,13,75.9,14.5,33.3,1.5,44,1.9,128.8,1.9s95.5-.4,128.8-1.9c33.3-1.5,56-6.8,75.9-14.5,20.5-8,38-18.7,55.4-36,17.4-17.4,28.1-34.8,36-55.4,7.7-19.9,13-42.6,14.5-75.9,1.5-33.3,1.9-44,1.9-128.8s-.4-95.5-1.9-128.8c-1.5-33.3-6.8-56-14.5-75.9-8-20.5-18.7-38-36-55.3-17.4-17.4-34.8-28.1-55.4-36-19.9-7.7-42.6-13-75.9-14.5-33.3-1.5-44-1.9-128.8-1.9ZM500,243.8c83.4,0,93.3.3,126.3,1.8,30.5,1.4,47,6.5,58,10.8,14.6,5.7,25,12.4,35.9,23.4,10.9,10.9,17.7,21.3,23.4,35.9,4.3,11,9.4,27.6,10.8,58,1.5,33,1.8,42.8,1.8,126.3s-.3,93.3-1.8,126.3c-1.4,30.5-6.5,47-10.8,58-5.7,14.6-12.4,25-23.4,35.9-10.9,10.9-21.3,17.7-35.9,23.4-11,4.3-27.6,9.4-58,10.8-32.9,1.5-42.8,1.8-126.3,1.8s-93.3-.3-126.3-1.8c-30.5-1.4-47-6.5-58-10.8-14.6-5.7-25-12.4-35.9-23.4-10.9-10.9-17.7-21.3-23.4-35.9-4.3-11-9.4-27.6-10.8-58-1.5-33-1.8-42.8-1.8-126.3s.3-93.3,1.8-126.3c1.4-30.5,6.5-47,10.8-58,5.7-14.6,12.4-25,23.4-35.9,10.9-10.9,21.3-17.7,35.9-23.4,11-4.3,27.6-9.4,58-10.8,33-1.5,42.8-1.8,126.3-1.8h0ZM500,339.5c-88.6,0-160.5,71.8-160.5,160.5s71.8,160.5,160.5,160.5,160.5-71.8,160.5-160.5-71.8-160.5-160.5-160.5h0ZM500,604.2c-57.5,0-104.2-46.6-104.2-104.2s46.6-104.2,104.2-104.2,104.2,46.6,104.2,104.2-46.6,104.2-104.2,104.2ZM704.3,333.2c0,20.7-16.8,37.5-37.5,37.5s-37.5-16.8-37.5-37.5,16.8-37.5,37.5-37.5,37.5,16.8,37.5,37.5Z"/>
</svg>