<?xml version="1.0" encoding="UTF-8"?>
<svg id="Livello_1" xmlns="http://www.w3.org/2000/svg" xmlns:serif="http://www.serif.com/" version="1.1" viewBox="0 0 1000 1000">
  <!-- Generator: Adobe Illustrator 29.5.0, SVG Export Plug-In . SVG Version: 2.1.0 Build 137)  -->
  <defs>
    <style>
      .st0 {
        fill: #f5f1ef;
        fill-rule: evenodd;
      }
    </style>
  </defs>
  <path class="st0" d="M500,0c276,0,500,224,500,500s-224,500-500,500S0,776,0,500,224,0,500,0ZM343.7,781v-390.5h-129.8v390.5h129.8ZM811.7,781v-223.9c0-119.9-64-175.7-149.4-175.7s-99.7,37.9-117,64.5v-55.3h-129.8c1.7,36.6,0,390.5,0,390.5h129.8v-218.1c0-11.7.8-23.3,4.3-31.7,9.4-23.3,30.7-47.5,66.6-47.5s65.7,35.8,65.7,88.3v208.9h129.8ZM279.6,202.2c-44.4,0-73.4,29.2-73.4,67.5s28.1,67.5,71.7,67.5h.8c45.3,0,73.4-30,73.4-67.5-.8-38.3-28.2-67.5-72.6-67.5h0Z"/>
</svg>