<?xml version="1.0" encoding="UTF-8"?>
<svg id="Livello_1" data-name="Livello 1" xmlns="http://www.w3.org/2000/svg" viewBox="0 0 678.29 244.41">
  <defs>
    <style>
      .cls-1 {
        fill: #8472ac;
      }
    </style>
  </defs>
  <path class="cls-1" d="M678.29,91.81c0-7.49-2.66-14.37-7.08-19.73-5.05-6.13-5.4-14.95-.26-21.01,5.04-5.95,7.88-13.84,7.26-22.39-1.14-15.47-13.88-27.88-29.37-28.64-8.42-.42-16.14,2.53-21.96,7.6-5.99,5.22-15.01,5.02-21.03-.16-5.43-4.67-12.49-7.48-20.21-7.48s-14.78,2.82-20.21,7.49c-6.09,5.24-15.11,5.24-21.2,0-5.43-4.67-12.49-7.49-20.21-7.49s-14.78,2.82-20.21,7.49c-6.09,5.24-15.11,5.24-21.2,0-5.43-4.67-12.49-7.49-20.21-7.49s-14.78,2.82-20.21,7.49c-6.09,5.24-15.11,5.24-21.2,0-5.43-4.67-12.49-7.49-20.21-7.49s-14.78,2.82-20.21,7.49c-6.09,5.24-15.11,5.24-21.2,0-5.43-4.67-12.49-7.49-20.21-7.49s-14.78,2.82-20.21,7.49c-6.09,5.24-15.11,5.24-21.2,0-5.43-4.67-12.49-7.49-20.21-7.49s-14.78,2.82-20.21,7.49c-6.09,5.24-15.11,5.24-21.2,0-5.43-4.67-12.49-7.49-20.21-7.49s-14.78,2.82-20.21,7.49c-6.09,5.24-15.11,5.24-21.2,0-5.43-4.67-12.49-7.49-20.21-7.49s-14.78,2.82-20.21,7.49c-6.09,5.24-15.11,5.24-21.2,0-5.43-4.67-12.49-7.49-20.21-7.49s-14.78,2.82-20.21,7.48c-6.02,5.18-15.05,5.38-21.03.16C45.6,2.57,37.87-.38,29.46.04,13.96.8,1.22,13.21.09,28.68c-.63,8.55,2.21,16.43,7.26,22.39,5.13,6.06,4.79,14.89-.26,21.01C2.66,77.44,0,84.32,0,91.81s2.66,14.37,7.08,19.73c5.15,6.25,5.15,15.08,0,21.33C2.66,138.23,0,145.1,0,152.6s2.66,14.37,7.08,19.73c5.05,6.13,5.4,14.95.26,21.01-5.04,5.95-7.88,13.84-7.26,22.39,1.14,15.47,13.88,27.88,29.37,28.64,8.42.42,16.14-2.53,21.96-7.6s15.01-5.02,21.03.16c5.43,4.67,12.49,7.48,20.21,7.48s14.78-2.82,20.21-7.49c6.09-5.24,15.11-5.24,21.2,0,5.43,4.67,12.49,7.49,20.21,7.49s14.78-2.82,20.21-7.49c6.09-5.24,15.11-5.24,21.2,0,5.43,4.67,12.49,7.49,20.21,7.49s14.78-2.82,20.21-7.49c6.09-5.24,15.11-5.24,21.2,0,5.43,4.67,12.49,7.49,20.21,7.49s14.78-2.82,20.21-7.49c6.09-5.24,15.11-5.24,21.2,0,5.43,4.67,12.49,7.49,20.21,7.49s14.78-2.82,20.21-7.49c6.09-5.24,15.11-5.24,21.2,0,5.43,4.67,12.49,7.49,20.21,7.49s14.78-2.82,20.21-7.49c6.09-5.24,15.11-5.24,21.2,0,5.43,4.67,12.49,7.49,20.21,7.49s14.78-2.82,20.21-7.49c6.09-5.24,15.11-5.24,21.2,0,5.43,4.67,12.49,7.49,20.21,7.49s14.78-2.82,20.21-7.49c6.09-5.24,15.11-5.24,21.2,0,5.43,4.67,12.49,7.49,20.21,7.49s14.78-2.82,20.21-7.48c6.02-5.18,15.05-5.38,21.03-.16,5.81,5.08,13.54,8.02,21.96,7.6,15.49-.76,28.23-13.17,29.37-28.64.63-8.55-2.21-16.43-7.26-22.39-5.13-6.06-4.79-14.89.26-21.01,4.42-5.36,7.08-12.24,7.08-19.73s-2.66-14.37-7.08-19.73c-5.15-6.25-5.15-15.08,0-21.33,4.42-5.36,7.08-12.24,7.08-19.73Z"/>
</svg>