<?xml version="1.0" encoding="UTF-8"?>
<svg id="Livello_1" data-name="Livello 1" xmlns="http://www.w3.org/2000/svg" viewBox="0 0 1120.79 211.89">
  <defs>
    <style>
      .cls-1 {
        fill: #8472ac;
      }
    </style>
  </defs>
  <path class="cls-1" d="M1120.79,132.29c0-6.5-2.3-12.46-6.14-17.1-4.47-5.41-4.47-13.07,0-18.49,3.83-4.65,6.14-10.61,6.14-17.1s-2.3-12.46-6.14-17.1c-4.38-5.31-4.68-12.96-.23-18.22,4.37-5.16,6.83-12,6.29-19.41-.98-13.41-12.03-24.17-25.46-24.83-7.3-.36-13.99,2.19-19.03,6.59-5.19,4.53-13.01,4.35-18.23-.14-4.71-4.04-10.82-6.49-17.52-6.49s-12.81,2.45-17.52,6.49c-5.28,4.54-13.1,4.54-18.38,0-4.71-4.05-10.83-6.49-17.52-6.49s-12.82,2.45-17.52,6.49c-5.28,4.54-13.1,4.54-18.38,0-4.71-4.05-10.83-6.49-17.52-6.49s-12.82,2.45-17.52,6.49c-5.28,4.54-13.1,4.54-18.38,0-4.71-4.05-10.83-6.49-17.52-6.49s-12.81,2.45-17.52,6.49c-5.28,4.54-13.1,4.54-18.38,0-4.71-4.05-10.83-6.49-17.52-6.49s-12.82,2.45-17.52,6.49c-5.28,4.54-13.1,4.54-18.38,0-4.71-4.05-10.83-6.49-17.52-6.49s-12.82,2.45-17.52,6.49c-5.28,4.54-13.1,4.54-18.38,0-4.71-4.05-10.83-6.49-17.52-6.49s-12.81,2.45-17.52,6.49c-5.28,4.54-13.1,4.54-18.38,0-4.71-4.05-10.83-6.49-17.52-6.49s-12.82,2.45-17.52,6.49c-5.28,4.54-13.1,4.54-18.38,0-4.71-4.05-10.83-6.49-17.52-6.49s-12.81,2.44-17.52,6.49c-4.08,3.5-9.73,4.37-14.49,2.43-4.66-5.15-11.25-8.52-18.57-8.88-.51-.02-1,0-1.5,0-.2,0-.4,0-.6,0-.2,0-.4,0-.6,0-.5,0-1-.02-1.5,0-7.32.36-13.91,3.73-18.57,8.88-4.75,1.94-10.41,1.07-14.49-2.43-4.71-4.04-10.82-6.49-17.52-6.49s-12.82,2.45-17.52,6.49c-5.28,4.54-13.1,4.54-18.38,0-4.71-4.05-10.83-6.49-17.52-6.49s-12.82,2.45-17.52,6.49c-5.28,4.54-13.1,4.54-18.38,0-4.71-4.05-10.83-6.49-17.52-6.49s-12.82,2.45-17.52,6.49c-5.28,4.54-13.1,4.54-18.38,0-4.71-4.05-10.83-6.49-17.52-6.49s-12.82,2.45-17.52,6.49c-5.28,4.54-13.1,4.54-18.38,0-4.71-4.05-10.83-6.49-17.52-6.49s-12.82,2.45-17.52,6.49c-5.28,4.54-13.1,4.54-18.38,0-4.71-4.05-10.83-6.49-17.52-6.49s-12.82,2.45-17.52,6.49c-5.28,4.54-13.1,4.54-18.38,0-4.71-4.05-10.83-6.49-17.52-6.49s-12.82,2.45-17.52,6.49c-5.28,4.54-13.1,4.54-18.38,0-4.71-4.05-10.83-6.49-17.52-6.49s-12.82,2.45-17.52,6.49c-5.28,4.54-13.1,4.54-18.38,0-4.71-4.05-10.83-6.49-17.52-6.49s-12.81,2.44-17.52,6.49c-5.22,4.49-13.05,4.67-18.23.14C39.53,2.22,32.83-.33,25.54.03,12.1.7,1.06,11.45.07,24.87c-.54,7.41,1.92,14.24,6.29,19.41,4.45,5.25,4.15,12.91-.23,18.22C2.3,67.14,0,73.1,0,79.59s2.3,12.46,6.14,17.1c4.47,5.41,4.47,13.07,0,18.49C2.3,119.84,0,125.79,0,132.29s2.3,12.46,6.14,17.1c4.38,5.31,4.68,12.96.23,18.22-4.37,5.16-6.83,12-6.29,19.41.98,13.41,12.03,24.17,25.46,24.83,7.3.36,13.99-2.19,19.03-6.59,5.19-4.53,13.01-4.35,18.23.14,4.7,4.04,10.82,6.49,17.52,6.49s12.82-2.45,17.52-6.49c5.28-4.54,13.1-4.54,18.38,0,4.71,4.05,10.83,6.49,17.52,6.49s12.82-2.45,17.52-6.49c5.28-4.54,13.1-4.54,18.38,0,4.71,4.05,10.83,6.49,17.52,6.49s12.82-2.45,17.52-6.49c5.28-4.54,13.1-4.54,18.38,0,4.71,4.05,10.83,6.49,17.52,6.49s12.82-2.45,17.52-6.49c5.28-4.54,13.1-4.54,18.38,0,4.71,4.05,10.83,6.49,17.52,6.49s12.82-2.45,17.52-6.49c5.28-4.54,13.1-4.54,18.38,0,4.71,4.05,10.83,6.49,17.52,6.49s12.82-2.45,17.52-6.49c5.28-4.54,13.1-4.54,18.38,0,4.71,4.05,10.83,6.49,17.52,6.49s12.82-2.45,17.52-6.49c5.28-4.54,13.1-4.54,18.38,0,4.71,4.05,10.83,6.49,17.52,6.49s12.82-2.45,17.52-6.49c5.28-4.54,13.1-4.54,18.38,0,4.71,4.05,10.83,6.49,17.52,6.49s12.81-2.44,17.52-6.49c4.08-3.5,9.73-4.37,14.49-2.43,4.66,5.15,11.25,8.52,18.57,8.88.51.02,1,0,1.5,0,.2,0,.4,0,.6,0,.2,0,.4,0,.6,0,.5,0,1,.02,1.5,0,7.32-.36,13.91-3.73,18.57-8.88,4.75-1.94,10.41-1.07,14.49,2.43,4.71,4.04,10.82,6.49,17.52,6.49s12.81-2.45,17.52-6.49c5.28-4.54,13.1-4.54,18.38,0,4.71,4.05,10.83,6.49,17.52,6.49s12.81-2.45,17.52-6.49c5.28-4.54,13.1-4.54,18.38,0,4.71,4.05,10.83,6.49,17.52,6.49s12.82-2.45,17.52-6.49c5.28-4.54,13.1-4.54,18.38,0,4.71,4.05,10.83,6.49,17.52,6.49s12.81-2.45,17.52-6.49c5.28-4.54,13.1-4.54,18.38,0,4.71,4.05,10.83,6.49,17.52,6.49s12.81-2.45,17.52-6.49c5.28-4.54,13.1-4.54,18.38,0,4.71,4.05,10.83,6.49,17.52,6.49s12.82-2.45,17.52-6.49c5.28-4.54,13.1-4.54,18.38,0,4.71,4.05,10.83,6.49,17.52,6.49s12.81-2.45,17.52-6.49c5.28-4.54,13.1-4.54,18.38,0,4.71,4.05,10.83,6.49,17.52,6.49s12.81-2.45,17.52-6.49c5.28-4.54,13.1-4.54,18.38,0,4.71,4.05,10.83,6.49,17.52,6.49s12.81-2.44,17.52-6.49c5.22-4.49,13.05-4.67,18.23-.14,5.04,4.4,11.74,6.95,19.03,6.59,13.43-.66,24.48-11.42,25.46-24.83.54-7.41-1.92-14.24-6.29-19.41-4.45-5.25-4.15-12.91.23-18.22,3.83-4.65,6.14-10.61,6.14-17.1Z"/>
</svg>