<?xml version="1.0" encoding="UTF-8"?>
<svg id="Layer_1" xmlns="http://www.w3.org/2000/svg" version="1.1" viewBox="0 0 1000 1000">
  <!-- Generator: Adobe Illustrator 29.5.0, SVG Export Plug-In . SVG Version: 2.1.0 Build 137)  -->
  <defs>
    <style>
      .st0 {
        fill: #f5f1ef;
      }
    </style>
  </defs>
  <path class="st0" d="M695,448.8c-64.3,0-73.2,64.2-73.2,64.2h136.7s.9-64.2-63.5-64.2Z"/>
  <path class="st0" d="M384.9,513h-121.2v111.3h107.3c1.8,0,4.6,0,7.8,0,17.3-.4,50-5.4,50-54.1,0-57.8-43.8-57.2-43.8-57.2Z"/>
  <path class="st0" d="M498.8,0C223.3,0,0,223.3,0,498.8s223.3,498.8,498.8,498.8,498.8-223.3,498.8-498.8S774.3,0,498.8,0ZM603.8,306.5h171.7v51.3h-171.7v-51.3ZM517,575.4c0,127-132.2,122.8-132.2,122.8h-216.6v-416.2h216.6c65.8,0,117.7,36.3,117.7,110.8s-63.5,79.2-63.5,79.2c83.7,0,78,103.4,78,103.4ZM838.3,568.6h-215.7c0,77.3,73.2,72.4,73.2,72.4,69.2,0,66.7-44.8,66.7-44.8h73.3c0,118.9-142.5,110.7-142.5,110.7-170.9,0-159.9-159.1-159.9-159.1,0,0-.2-159.9,159.9-159.9,168.5,0,144.9,180.7,144.9,180.7Z"/>
  <path class="st0" d="M414.3,399.3c0-43.3-29.4-43.3-29.4-43.3h-121.2v92.9h113.7c19.6,0,37-6.3,37-49.6Z"/>
</svg>