<?xml version="1.0" encoding="UTF-8"?>
<svg id="PROGETTI" xmlns="http://www.w3.org/2000/svg" viewBox="0 0 1393.91 426.25">
  <defs>
    <style>
      .cls-1 {
        fill: #fff;
      }

      .cls-2 {
        fill: #ffca6c;
      }
    </style>
  </defs>
  <path class="cls-1" d="M73.35,37.34c0,3.52.38,7.12,1.15,10.8.77,3.68,1.98,7.09,3.65,10.22,1.66,3.14,3.81,5.65,6.43,7.54,2.62,1.89,5.79,2.83,9.5,2.83,1.41,0,2.96-.18,4.66-.53,1.69-.35,3.17-.96,4.42-1.82s1.87-2.03,1.87-3.5v-4.99c0-3.65-.51-6.24-1.54-7.78-1.02-1.54-2.32-2.46-3.89-2.78-1.57-.32-3.18-.48-4.85-.48h-.67c-.96,0-1.44-.48-1.44-1.44v-2.88c0-.96.48-1.44,1.44-1.44h30.24c.96,0,1.44.48,1.44,1.44v2.88c0,.96-.48,1.44-1.44,1.44h-.77c-1.67,0-2.5,1.06-2.5,3.17v10.37c-2.18,5.12-5.79,9.34-10.85,12.67-5.06,3.33-11.23,4.99-18.53,4.99-5.38,0-10.21-.93-14.5-2.78-4.29-1.86-7.94-4.45-10.94-7.78-3.01-3.33-5.31-7.2-6.91-11.62-1.6-4.42-2.4-9.18-2.4-14.3,0-3.2.35-6.56,1.06-10.08.7-3.52,1.87-6.93,3.5-10.22,1.63-3.3,3.81-6.27,6.53-8.93,2.72-2.65,6.08-4.77,10.08-6.34,4-1.57,8.75-2.35,14.26-2.35,4.61,0,8.59.58,11.95,1.73,3.36,1.15,6.16,2.62,8.4,4.42,2.24,1.79,4.02,3.65,5.33,5.57,1.31,1.92,2.26,3.7,2.83,5.33.58,1.63.86,2.86.86,3.7,0,.58-.14.99-.43,1.25-.29.26-.69.48-1.2.67l-11.71,4.13c-.26.06-.53.14-.82.24-.29.1-.59.14-.91.14-.26,0-.51-.05-.77-.14-.26-.1-.38-.37-.38-.82,0-.32.03-.72.1-1.2.06-.48.1-1.14.1-1.97,0-4.42-1.17-8.1-3.5-11.04-2.34-2.94-5.87-4.42-10.61-4.42-3.65,0-6.85,1.1-9.6,3.31-2.75,2.21-4.88,5.27-6.38,9.17-1.5,3.9-2.26,8.45-2.26,13.63Z"/>
  <path class="cls-1" d="M154.66,38.88c1.73-3.71,4.13-6.53,7.2-8.45,3.07-1.92,6.3-2.88,9.7-2.88,3.01,0,5.57.83,7.68,2.5,2.11,1.67,3.17,4.13,3.17,7.39,0,1.41-.13,2.66-.38,3.74-.26,1.09-.96,1.89-2.11,2.4l-9.02,3.65c-.38.13-.67.19-.86.19-.58,0-.86-.29-.86-.86,0-.19.06-.48.19-.86.38-.9.62-1.76.72-2.59.1-.83.14-1.57.14-2.21,0-1.73-.43-2.99-1.3-3.79-.86-.8-1.94-1.2-3.22-1.2-1.47,0-2.85.45-4.13,1.34-1.28.9-2.4,1.98-3.36,3.26-.96,1.28-1.67,2.53-2.11,3.74v17.66c0,2.56.58,4.72,1.73,6.48,1.15,1.76,2.91,2.64,5.28,2.64h.19c.96,0,1.44.48,1.44,1.44v2.88c0,.96-.48,1.44-1.44,1.44h-27.94c-.96,0-1.44-.48-1.44-1.44v-2.88c0-.96.48-1.44,1.44-1.44h.19c2.37,0,4.13-.88,5.28-2.64,1.15-1.76,1.73-3.92,1.73-6.48v-12.1c0-1.73-.11-3.39-.34-4.99-.22-1.6-.72-2.96-1.49-4.08-.77-1.12-2.05-1.78-3.84-1.97-.77-.06-1.15-.48-1.15-1.25v-3.26c0-.64.48-1.06,1.44-1.25,4.54-.7,8.53-1.82,11.95-3.36,3.42-1.54,5.74-2.75,6.96-3.65.19-.13.35-.19.48-.19h.19c.13,0,.19.06.19.19,0,.06-.08.54-.24,1.44-.16.9-.35,2.03-.58,3.41-.22,1.38-.48,2.78-.77,4.22-.29,1.44-.53,2.7-.72,3.79Z"/>
  <path class="cls-1" d="M237.89,59.04c0,2.3.35,4.37,1.06,6.19.7,1.82,2.24,2.9,4.61,3.22.77.06,1.15.48,1.15,1.25v3.17c0,.9-.48,1.34-1.44,1.34-3.14,0-5.75.18-7.82.53-2.08.35-3.87.8-5.38,1.34-1.5.54-2.99,1.14-4.46,1.78-.26.13-.48.19-.67.19h-.29c-.13,0-.19-.13-.19-.38s.06-.88.19-1.87c.13-.99.27-2.11.43-3.36.16-1.25.3-2.32.43-3.22-.32.83-1.01,1.95-2.06,3.36-1.06,1.41-2.59,2.67-4.61,3.79-2.02,1.12-4.66,1.68-7.92,1.68-2.18,0-4.5-.45-6.96-1.34-2.46-.9-4.79-2.34-6.96-4.32-2.18-1.98-3.95-4.59-5.33-7.82-1.38-3.23-2.06-7.18-2.06-11.86,0-5.95,1.07-10.77,3.22-14.45,2.14-3.68,4.93-6.38,8.35-8.11,3.42-1.73,7.06-2.59,10.9-2.59,3.13,0,6.01.48,8.64,1.44,2.62.96,4.93,2.34,6.91,4.13,1.66-.7,3.09-1.36,4.27-1.97,1.18-.61,2.19-1.23,3.02-1.87.32-.25.66-.51,1.01-.77.35-.25.75-.51,1.2-.77.19-.13.35-.19.48-.19h.1c.13,0,.19.06.19.19v31.3ZM224.45,43.97c-.19-1.28-.66-2.7-1.39-4.27-.74-1.57-1.84-2.91-3.31-4.03-1.47-1.12-3.46-1.68-5.95-1.68-3.07,0-5.47.75-7.2,2.26-1.73,1.5-2.93,3.44-3.6,5.81-.67,2.37-1.01,4.9-1.01,7.58,0,6.14,1.23,11.01,3.7,14.59,2.46,3.58,5.65,5.38,9.55,5.38,2.3,0,4.11-.5,5.42-1.49,1.31-.99,2.26-2,2.83-3.02.58-1.02.9-1.63.96-1.82v-19.3Z"/>
  <path class="cls-1" d="M317.95,71.04c.96,0,1.44.48,1.44,1.44v2.88c0,.96-.54,1.44-1.63,1.44h-27.17c-1.02,0-1.54-.48-1.54-1.44v-2.98c0-.9.48-1.34,1.44-1.34h.1c2.37,0,4.13-.88,5.28-2.64,1.15-1.76,1.73-3.92,1.73-6.48v-16.9c0-1.47-.14-2.91-.43-4.32-.29-1.41-.94-2.58-1.97-3.5-1.02-.93-2.66-1.39-4.9-1.39h-13.82v26.11c0,2.56.58,4.72,1.73,6.48,1.15,1.76,2.91,2.64,5.28,2.64.96,0,1.44.48,1.44,1.44v2.88c0,.96-.48,1.44-1.44,1.44h-27.55c-.96,0-1.44-.48-1.44-1.44v-2.88c0-.96.48-1.44,1.44-1.44,2.37,0,4.13-.88,5.28-2.64,1.15-1.76,1.73-3.92,1.73-6.48v-16.42c0-1.73-.1-3.44-.29-5.14-.19-1.7-.77-3.09-1.73-4.18-.96-1.09-2.62-1.63-4.99-1.63-.96,0-1.44-.48-1.44-1.44v-2.88c0-.96.48-1.44,1.44-1.44h7.1v-.77c0-2.88.48-5.94,1.44-9.17.96-3.23,2.51-6.27,4.66-9.12,2.14-2.85,4.94-5.18,8.4-7.01s7.65-2.74,12.58-2.74c6.72,0,11.84,1.3,15.36,3.89,3.52,2.59,5.28,5.9,5.28,9.94,0,1.22-.29,2.56-.86,4.03-.19.45-.46.83-.82,1.15-.35.32-.88.54-1.58.67l-10.08,2.21c-.64.13-.96-.16-.96-.86,0-.32.1-.67.29-1.06,1.09-2.11,1.63-3.97,1.63-5.57,0-3.01-.9-5.28-2.69-6.82-1.79-1.54-4.13-2.3-7.01-2.3s-5.31.77-7.1,2.3c-1.79,1.54-3.1,3.6-3.94,6.19-.83,2.59-1.25,5.49-1.25,8.69v6.34h13.92c2.75,0,5.42-.18,8.02-.53,2.59-.35,4.86-.75,6.82-1.2,1.95-.45,3.38-.8,4.27-1.06.38-.13.67-.19.86-.19h.19c.13,0,.19.06.19.19v35.9c0,2.56.59,4.72,1.78,6.48,1.18,1.76,2.96,2.64,5.33,2.64h.19Z"/>
  <path class="cls-1" d="M368.74,63.84c.51.38.77.8.77,1.25,0,.13-.06.38-.19.77-1.86,4.1-4.59,7.15-8.21,9.17-3.62,2.02-7.57,3.02-11.86,3.02-3.58,0-6.85-.78-9.79-2.35-2.94-1.57-5.44-3.66-7.49-6.29-2.05-2.62-3.55-5.57-4.51-8.83-.96-3.26-1.31-6.62-1.06-10.08.45-5.31,1.92-9.66,4.42-13.06,2.5-3.39,5.52-5.89,9.07-7.49,3.55-1.6,7.12-2.4,10.7-2.4,4.22,0,7.65.64,10.27,1.92,2.62,1.28,4.64,2.94,6.05,4.99,1.41,2.05,2.37,4.19,2.88,6.43.06.26.1.48.1.67,0,.51-.38.86-1.15,1.06l-11.04,2.88c-.38.13-.67.19-.86.19-.45,0-.67-.22-.67-.67,0-.26.01-.51.05-.77.03-.26.05-.61.05-1.06,0-2.05-.64-3.87-1.92-5.47-1.28-1.6-3.26-2.4-5.95-2.4-2.43,0-4.35.77-5.76,2.3-1.41,1.54-2.42,3.5-3.02,5.9-.61,2.4-.91,4.91-.91,7.54,0,3.14.42,6.11,1.25,8.93.83,2.82,2.19,5.1,4.08,6.86,1.89,1.76,4.46,2.64,7.73,2.64,2.56,0,4.93-.62,7.1-1.87s3.97-2.96,5.38-5.14c.26-.45.64-.67,1.15-.67.32,0,.61.1.86.29l2.5,1.73Z"/>
  <path class="cls-1" d="M427.1,59.04c0,2.3.35,4.37,1.06,6.19.7,1.82,2.24,2.9,4.61,3.22.77.06,1.15.48,1.15,1.25v3.17c0,.9-.48,1.34-1.44,1.34-3.14,0-5.75.18-7.82.53-2.08.35-3.87.8-5.38,1.34-1.5.54-2.99,1.14-4.46,1.78-.26.13-.48.19-.67.19h-.29c-.13,0-.19-.13-.19-.38s.06-.88.19-1.87c.13-.99.27-2.11.43-3.36.16-1.25.3-2.32.43-3.22-.32.83-1.01,1.95-2.06,3.36-1.06,1.41-2.59,2.67-4.61,3.79-2.02,1.12-4.66,1.68-7.92,1.68-2.18,0-4.5-.45-6.96-1.34-2.46-.9-4.79-2.34-6.96-4.32-2.18-1.98-3.95-4.59-5.33-7.82-1.38-3.23-2.06-7.18-2.06-11.86,0-5.95,1.07-10.77,3.22-14.45,2.14-3.68,4.93-6.38,8.35-8.11,3.42-1.73,7.06-2.59,10.9-2.59,3.13,0,6.01.48,8.64,1.44,2.62.96,4.93,2.34,6.91,4.13,1.66-.7,3.09-1.36,4.27-1.97,1.18-.61,2.19-1.23,3.02-1.87.32-.25.66-.51,1.01-.77.35-.25.75-.51,1.2-.77.19-.13.35-.19.48-.19h.1c.13,0,.19.06.19.19v31.3ZM413.66,43.97c-.19-1.28-.66-2.7-1.39-4.27-.74-1.57-1.84-2.91-3.31-4.03-1.47-1.12-3.46-1.68-5.95-1.68-3.07,0-5.47.75-7.2,2.26-1.73,1.5-2.93,3.44-3.6,5.81-.67,2.37-1.01,4.9-1.01,7.58,0,6.14,1.23,11.01,3.7,14.59,2.46,3.58,5.65,5.38,9.55,5.38,2.3,0,4.11-.5,5.42-1.49,1.31-.99,2.26-2,2.83-3.02.58-1.02.9-1.63.96-1.82v-19.3Z"/>
  <path class="cls-1" d="M485.76,59.62c1.09,2.69,2.83,5.09,5.23,7.2,2.4,2.11,5.46,3.17,9.17,3.17,2.05,0,4.19-.58,6.43-1.73,2.24-1.15,4.19-2.94,5.86-5.38.19-.32.45-.48.77-.48s.66.1,1.01.29c.35.19,1.3.74,2.83,1.63.25.19.38.45.38.77,0,.45-.19.99-.58,1.63-1.79,3.33-4.22,6.05-7.3,8.16-3.07,2.11-7.07,3.17-12,3.17-5.31,0-9.89-1.19-13.73-3.55-3.84-2.37-6.8-5.5-8.88-9.41-2.08-3.9-3.12-8.16-3.12-12.77s.66-8.21,1.97-11.38c1.31-3.17,3.05-5.73,5.23-7.68,2.17-1.95,4.62-3.39,7.34-4.32,2.72-.93,5.49-1.39,8.3-1.39,3.2,0,6.01.62,8.45,1.87,2.43,1.25,4.5,2.83,6.19,4.75,1.7,1.92,2.98,3.95,3.84,6.1.86,2.15,1.3,4.14,1.3,6,0,.51-.29.9-.86,1.15l-27.84,12.19ZM500.06,45.89c0-3.07-.74-5.6-2.21-7.58-1.47-1.98-3.33-2.98-5.57-2.98-2.62,0-4.7,1.04-6.24,3.12-1.54,2.08-2.3,4.69-2.3,7.82,0,.96.05,2.15.14,3.55.1,1.41.34,2.69.72,3.84l15.46-7.78Z"/>
  <path class="cls-1" d="M582.43,71.04c.96,0,1.44.48,1.44,1.44v2.88c0,.96-.54,1.44-1.63,1.44h-27.17c-1.09,0-1.63-.48-1.63-1.44v-2.88c0-.96.48-1.44,1.44-1.44h.19c2.37,0,4.11-.88,5.23-2.64,1.12-1.76,1.68-3.92,1.68-6.48v-10.18c0-1.47-.11-2.94-.34-4.42-.23-1.47-.72-2.75-1.49-3.84-.77-1.09-2.05-1.73-3.84-1.92-.77-.06-1.15-.48-1.15-1.25v-3.26c0-.38.13-.66.38-.82.26-.16.61-.3,1.06-.43,5.05-1.66,8.94-3.38,11.66-5.14,2.72-1.76,4.72-3.31,6-4.66.13-.13.25-.19.38-.19h.29c.13,0,.19.06.19.19v35.81c0,2.56.58,4.74,1.73,6.53,1.15,1.79,2.91,2.69,5.28,2.69h.29ZM568.7,5.76c1.66,0,3.3.8,4.9,2.4,1.6,1.6,2.4,3.2,2.4,4.8s-.8,3.2-2.4,4.8c-1.6,1.6-3.23,2.4-4.9,2.4-1.54,0-3.14-.8-4.8-2.4-1.6-1.54-2.4-3.14-2.4-4.8s.8-3.2,2.4-4.8c1.6-1.6,3.2-2.4,4.8-2.4Z"/>
  <path class="cls-1" d="M620.54,71.04c.96,0,1.44.48,1.44,1.44v2.88c0,.96-.54,1.44-1.63,1.44h-27.17c-1.09,0-1.63-.48-1.63-1.44v-2.88c0-.96.48-1.44,1.44-1.44h.19c2.37,0,4.11-.88,5.23-2.64,1.12-1.76,1.68-3.92,1.68-6.48V25.92c0-1.79-.11-3.49-.34-5.09-.23-1.6-.72-2.96-1.49-4.08-.77-1.12-2.05-1.78-3.84-1.97-.77-.06-1.15-.48-1.15-1.25v-3.26c0-.38.13-.64.38-.77.26-.13.61-.29,1.06-.48,4.54-1.66,8.17-3.22,10.9-4.66,2.72-1.44,4.98-2.83,6.77-4.18.13-.13.25-.19.38-.19h.29c.13,0,.19.06.19.19v61.63c0,2.56.58,4.74,1.73,6.53,1.15,1.79,2.91,2.69,5.28,2.69h.29Z"/>
  <path class="cls-1" d="M658.65,71.04c.96,0,1.44.48,1.44,1.44v2.88c0,.96-.54,1.44-1.63,1.44h-27.17c-1.09,0-1.63-.48-1.63-1.44v-2.88c0-.96.48-1.44,1.44-1.44h.19c2.37,0,4.11-.88,5.23-2.64,1.12-1.76,1.68-3.92,1.68-6.48V25.92c0-1.79-.11-3.49-.34-5.09-.23-1.6-.72-2.96-1.49-4.08-.77-1.12-2.05-1.78-3.84-1.97-.77-.06-1.15-.48-1.15-1.25v-3.26c0-.38.13-.64.38-.77.26-.13.61-.29,1.06-.48,4.54-1.66,8.17-3.22,10.9-4.66,2.72-1.44,4.98-2.83,6.77-4.18.13-.13.25-.19.38-.19h.29c.13,0,.19.06.19.19v61.63c0,2.56.58,4.74,1.73,6.53,1.15,1.79,2.91,2.69,5.28,2.69h.29Z"/>
  <path class="cls-1" d="M718.36,57.41c0,1.67.11,3.31.34,4.94.22,1.63.73,3.01,1.54,4.13.8,1.12,2.06,1.78,3.79,1.97.51.06.82.21.91.43.1.22.14.5.14.82v3.17c0,.9-.45,1.34-1.34,1.34-3.14,0-5.75.18-7.82.53-2.08.35-3.87.8-5.38,1.34-1.5.54-2.99,1.14-4.46,1.78-.26.13-.51.19-.77.19h-.19c-.13,0-.19-.1-.19-.29s.11-1.17.34-2.93c.22-1.76.62-4.81,1.2-9.17-.9,1.79-2.14,3.65-3.74,5.57-1.6,1.92-3.54,3.54-5.81,4.85-2.27,1.31-4.88,1.97-7.82,1.97-3.46,0-6.26-.53-8.4-1.58-2.15-1.06-3.79-2.46-4.94-4.22-1.15-1.76-1.94-3.74-2.35-5.95-.42-2.21-.62-4.46-.62-6.77v-15.84c0-2.62-.59-4.8-1.78-6.53-1.19-1.73-2.96-2.59-5.33-2.59h-.38c-.96,0-1.44-.48-1.44-1.44v-2.88c0-.96.48-1.44,1.44-1.44h19.49c.96,0,1.44.48,1.44,1.44v29.86c0,1.73.16,3.31.48,4.75.32,1.44.97,2.59,1.97,3.46.99.86,2.48,1.3,4.46,1.3,1.6,0,3.2-.4,4.8-1.2,1.6-.8,3.02-1.82,4.27-3.07,1.25-1.25,2.13-2.54,2.64-3.89v-17.76c0-2.62-.59-4.8-1.78-6.53-1.18-1.73-2.93-2.59-5.23-2.59h-.19c-.96,0-1.44-.48-1.44-1.44v-2.88c0-.96.48-1.44,1.44-1.44h19.3c.96,0,1.44.48,1.44,1.44v27.17Z"/>
  <path class="cls-1" d="M772.7,43.68c-.38.19-.71.29-.96.29-.45,0-.86-.22-1.25-.67-2.88-3.65-5.89-6.21-9.02-7.68-3.14-1.47-5.86-2.21-8.16-2.21-1.67,0-3.2.35-4.61,1.06-1.41.7-2.11,1.98-2.11,3.84,0,1.41.53,2.58,1.58,3.5,1.06.93,2.42,1.68,4.08,2.26,1.66.58,3.36,1.09,5.09,1.54,2.5.58,5.01,1.25,7.54,2.02,2.53.77,4.85,1.78,6.96,3.02,2.11,1.25,3.82,2.8,5.14,4.66,1.31,1.86,1.97,4.19,1.97,7.01,0,3.01-.82,5.7-2.45,8.06-1.63,2.37-3.95,4.24-6.96,5.62-3.01,1.38-6.59,2.06-10.75,2.06-1.98,0-3.92-.24-5.81-.72-1.89-.48-3.67-1.1-5.33-1.87-.38-.19-.67-.29-.86-.29-.45,0-.67.23-.67.67,0,.13.06.38.19.77.13.38.19.64.19.77,0,.51-.38.77-1.15.77h-3.46c-.71,0-1.25-.32-1.63-.96l-8.26-15.46c-.19-.38-.29-.67-.29-.86,0-.45.25-.83.77-1.15l2.98-1.73c.38-.19.67-.29.86-.29.38,0,.74.29,1.06.86,3.13,4.67,6.58,8,10.32,9.98,3.74,1.98,7.57,2.98,11.47,2.98,6.14,0,9.22-1.82,9.22-5.47,0-1.66-.75-3.04-2.26-4.13-1.5-1.09-3.36-1.98-5.57-2.69-2.21-.7-4.43-1.31-6.67-1.82-4.1-1.02-7.36-2.19-9.79-3.5-2.43-1.31-4.26-2.72-5.47-4.22-1.22-1.5-2.03-3.01-2.45-4.51-.42-1.5-.62-2.96-.62-4.37,0-3.84,1.47-7.01,4.42-9.5,2.94-2.5,6.94-3.74,12-3.74,3.01,0,5.66.4,7.97,1.2,2.3.8,3.9,1.46,4.8,1.97.25.13.45.19.58.19.19,0,.29-.13.29-.38,0-.19-.1-.58-.29-1.15-.06-.32-.11-.56-.14-.72-.03-.16-.05-.3-.05-.43,0-.64.42-.96,1.25-.96h2.5c.83,0,1.38.35,1.63,1.06l4.8,12.19c.19.38.29.71.29.96,0,.45-.26.8-.77,1.06l-2.11,1.15Z"/>
  <path class="cls-1" d="M821.66,69.89c.19.26.29.54.29.86,0,.38-.26.74-.77,1.06l-2.88,1.82c-1.73,1.09-3.81,2.1-6.24,3.02-2.43.93-4.86,1.39-7.3,1.39-1.92,0-3.73-.45-5.42-1.34-1.7-.9-3.06-2.42-4.08-4.56-1.02-2.14-1.54-5.1-1.54-8.88v-17.76c0-1.73-.1-3.44-.29-5.14-.19-1.7-.78-3.09-1.78-4.18-.99-1.09-2.64-1.63-4.94-1.63-.96,0-1.44-.48-1.44-1.44v-2.88c0-.96.48-1.44,1.44-1.44h7.01v-6.43c0-.83.29-1.41.86-1.73,1.41-.77,3.26-1.84,5.57-3.22,2.3-1.38,4.35-2.96,6.14-4.75.13-.13.29-.19.48-.19h.19c.13,0,.19.1.19.29v16.03h12.86c.96,0,1.44.48,1.44,1.44v4.13c0,.96-.48,1.44-1.44,1.44h-12.86v27.46c0,2.5.38,4.21,1.15,5.14.77.93,1.73,1.39,2.88,1.39,1.09,0,2.24-.3,3.46-.91,1.22-.61,2.34-1.23,3.36-1.87.45-.26.8-.38,1.06-.38.38,0,.74.26,1.06.77l1.54,2.5Z"/>
  <path class="cls-1" d="M850.94,38.88c1.73-3.71,4.13-6.53,7.2-8.45,3.07-1.92,6.3-2.88,9.7-2.88,3.01,0,5.57.83,7.68,2.5,2.11,1.67,3.17,4.13,3.17,7.39,0,1.41-.13,2.66-.38,3.74-.26,1.09-.96,1.89-2.11,2.4l-9.02,3.65c-.38.13-.67.19-.86.19-.58,0-.86-.29-.86-.86,0-.19.06-.48.19-.86.38-.9.62-1.76.72-2.59.1-.83.14-1.57.14-2.21,0-1.73-.43-2.99-1.3-3.79-.86-.8-1.94-1.2-3.22-1.2-1.47,0-2.85.45-4.13,1.34-1.28.9-2.4,1.98-3.36,3.26-.96,1.28-1.66,2.53-2.11,3.74v17.66c0,2.56.58,4.72,1.73,6.48,1.15,1.76,2.91,2.64,5.28,2.64h.19c.96,0,1.44.48,1.44,1.44v2.88c0,.96-.48,1.44-1.44,1.44h-27.94c-.96,0-1.44-.48-1.44-1.44v-2.88c0-.96.48-1.44,1.44-1.44h.19c2.37,0,4.13-.88,5.28-2.64,1.15-1.76,1.73-3.92,1.73-6.48v-12.1c0-1.73-.11-3.39-.34-4.99-.23-1.6-.72-2.96-1.49-4.08-.77-1.12-2.05-1.78-3.84-1.97-.77-.06-1.15-.48-1.15-1.25v-3.26c0-.64.48-1.06,1.44-1.25,4.54-.7,8.53-1.82,11.95-3.36,3.42-1.54,5.74-2.75,6.96-3.65.19-.13.35-.19.48-.19h.19c.13,0,.19.06.19.19,0,.06-.08.54-.24,1.44-.16.9-.35,2.03-.58,3.41-.22,1.38-.48,2.78-.77,4.22-.29,1.44-.53,2.7-.72,3.79Z"/>
  <path class="cls-1" d="M934.17,59.04c0,2.3.35,4.37,1.06,6.19.7,1.82,2.24,2.9,4.61,3.22.77.06,1.15.48,1.15,1.25v3.17c0,.9-.48,1.34-1.44,1.34-3.14,0-5.75.18-7.82.53-2.08.35-3.87.8-5.38,1.34-1.5.54-2.99,1.14-4.46,1.78-.26.13-.48.19-.67.19h-.29c-.13,0-.19-.13-.19-.38s.06-.88.19-1.87c.13-.99.27-2.11.43-3.36.16-1.25.3-2.32.43-3.22-.32.83-1.01,1.95-2.06,3.36-1.06,1.41-2.59,2.67-4.61,3.79-2.02,1.12-4.66,1.68-7.92,1.68-2.18,0-4.5-.45-6.96-1.34-2.46-.9-4.79-2.34-6.96-4.32-2.18-1.98-3.95-4.59-5.33-7.82-1.38-3.23-2.06-7.18-2.06-11.86,0-5.95,1.07-10.77,3.22-14.45,2.14-3.68,4.93-6.38,8.35-8.11,3.42-1.73,7.06-2.59,10.9-2.59,3.13,0,6.02.48,8.64,1.44,2.62.96,4.93,2.34,6.91,4.13,1.66-.7,3.09-1.36,4.27-1.97,1.18-.61,2.19-1.23,3.02-1.87.32-.25.66-.51,1.01-.77.35-.25.75-.51,1.2-.77.19-.13.35-.19.48-.19h.1c.13,0,.19.06.19.19v31.3ZM920.73,43.97c-.19-1.28-.66-2.7-1.39-4.27-.74-1.57-1.84-2.91-3.31-4.03-1.47-1.12-3.46-1.68-5.95-1.68-3.07,0-5.47.75-7.2,2.26-1.73,1.5-2.93,3.44-3.6,5.81-.67,2.37-1.01,4.9-1.01,7.58,0,6.14,1.23,11.01,3.7,14.59,2.46,3.58,5.65,5.38,9.55,5.38,2.3,0,4.11-.5,5.42-1.49,1.31-.99,2.26-2,2.83-3.02.58-1.02.9-1.63.96-1.82v-19.3Z"/>
  <path class="cls-1" d="M999.16,62.59c.58.26.86.64.86,1.15,0,.26-.1.54-.29.86l-7.49,12.67c-.32.51-.71.77-1.15.77-.26,0-.71-.26-1.34-.77-.26-.26-.53-.4-.82-.43-.29-.03-.59-.05-.91-.05h-36.96c-.96,0-1.44-.48-1.44-1.44v-4.13c0-.45.1-.8.29-1.06l30.24-34.75h-9.22c-6.4,0-11.2,2.75-14.4,8.26l-.38.67c-.13.26-.27.48-.43.67-.16.19-.37.29-.62.29-.19,0-.51-.13-.96-.38l-3.26-1.92c-.19-.13-.37-.27-.53-.43-.16-.16-.24-.4-.24-.72,0-.19.1-.48.29-.86l7.87-12.58c.32-.58.7-.86,1.15-.86.32,0,.74.26,1.25.77.25.26.53.4.82.43.29.03.59.05.91.05h35.52c.83,0,1.25.29,1.25.86,0,.32-.13.61-.38.86l-33.79,39.65h7.39c2.24,0,4.72-.13,7.44-.38,2.72-.25,5.36-.97,7.92-2.16,2.56-1.18,4.64-3.09,6.24-5.71l.29-.48c.32-.51.7-.77,1.15-.77.38,0,.7.1.96.29l2.78,1.63Z"/>
  <path class="cls-1" d="M1036.02,71.04c.96,0,1.44.48,1.44,1.44v2.88c0,.96-.54,1.44-1.63,1.44h-27.17c-1.09,0-1.63-.48-1.63-1.44v-2.88c0-.96.48-1.44,1.44-1.44h.19c2.37,0,4.11-.88,5.23-2.64,1.12-1.76,1.68-3.92,1.68-6.48v-10.18c0-1.47-.11-2.94-.34-4.42-.23-1.47-.72-2.75-1.49-3.84-.77-1.09-2.05-1.73-3.84-1.92-.77-.06-1.15-.48-1.15-1.25v-3.26c0-.38.13-.66.38-.82.25-.16.61-.3,1.06-.43,5.05-1.66,8.94-3.38,11.66-5.14,2.72-1.76,4.72-3.31,6-4.66.13-.13.25-.19.38-.19h.29c.13,0,.19.06.19.19v35.81c0,2.56.58,4.74,1.73,6.53,1.15,1.79,2.91,2.69,5.28,2.69h.29ZM1022.29,5.76c1.66,0,3.29.8,4.9,2.4,1.6,1.6,2.4,3.2,2.4,4.8s-.8,3.2-2.4,4.8c-1.6,1.6-3.23,2.4-4.9,2.4-1.54,0-3.14-.8-4.8-2.4-1.6-1.54-2.4-3.14-2.4-4.8s.8-3.2,2.4-4.8c1.6-1.6,3.2-2.4,4.8-2.4Z"/>
  <path class="cls-1" d="M1068.47,27.55c3.65,0,7.02.72,10.13,2.16,3.1,1.44,5.78,3.39,8.02,5.86,2.24,2.46,3.98,5.22,5.23,8.26,1.25,3.04,1.87,6.19,1.87,9.46,0,4.74-1.12,8.98-3.36,12.72-2.24,3.74-5.18,6.69-8.83,8.83-3.65,2.14-7.62,3.22-11.9,3.22-3.65,0-7.01-.71-10.08-2.11s-5.75-3.31-8.02-5.71c-2.27-2.4-4.03-5.15-5.28-8.26-1.25-3.1-1.87-6.35-1.87-9.74,0-4.67,1.09-8.86,3.26-12.58,2.18-3.71,5.09-6.66,8.74-8.83,3.65-2.18,7.68-3.26,12.1-3.26ZM1072.6,70.27c1.22,0,2.56-.32,4.03-.96,1.47-.64,2.77-1.76,3.89-3.36,1.12-1.6,1.68-3.81,1.68-6.62,0-2.24-.43-4.72-1.3-7.44-.86-2.72-2.05-5.34-3.55-7.87-1.5-2.53-3.26-4.61-5.28-6.24-2.02-1.63-4.21-2.45-6.58-2.45-2.62,0-4.9.98-6.82,2.93-1.92,1.95-2.88,4.62-2.88,8.02,0,2.18.43,4.64,1.3,7.39.86,2.75,2.05,5.39,3.55,7.92,1.5,2.53,3.28,4.61,5.33,6.24,2.05,1.63,4.25,2.45,6.62,2.45Z"/>
  <path class="cls-1" d="M1156.02,45.5v16.42c0,3.52.56,5.92,1.68,7.2,1.12,1.28,2.61,1.92,4.46,1.92h.77c.96,0,1.44.48,1.44,1.44v2.88c0,.96-.48,1.44-1.44,1.44h-25.54c-.96,0-1.44-.48-1.44-1.44v-2.88c0-.96.48-1.44,1.44-1.44h.67c1.34,0,2.43-.64,3.26-1.92.83-1.28,1.25-3.68,1.25-7.2v-16.42c0-3.07-.48-5.42-1.44-7.06-.96-1.63-2.78-2.45-5.47-2.45-1.6,0-3.2.4-4.8,1.2-1.6.8-3.01,1.82-4.22,3.07-1.22,1.25-2.11,2.58-2.69,3.98v17.66c0,2.56.56,4.72,1.68,6.48,1.12,1.76,2.61,2.64,4.46,2.64h.19c.96,0,1.44.48,1.44,1.44v2.88c0,.96-.48,1.44-1.44,1.44h-26.98c-.96,0-1.44-.48-1.44-1.44v-2.88c0-.96.48-1.44,1.44-1.44h.19c2.37,0,4.13-.88,5.28-2.64,1.15-1.76,1.73-3.92,1.73-6.48v-12.1c0-1.73-.11-3.39-.34-4.99-.23-1.6-.74-2.96-1.54-4.08-.8-1.12-2.1-1.78-3.89-1.97-.71-.06-1.06-.48-1.06-1.25v-3.26c0-.64.45-1.06,1.34-1.25,4.61-.7,8.56-1.79,11.86-3.26,3.3-1.47,5.58-2.66,6.86-3.55.32-.25.58-.38.77-.38h.1c.13,0,.19.06.19.19s-.03.38-.1.77l-1.63,11.81c.9-1.47,2.08-3.06,3.55-4.75,1.47-1.7,3.3-3.17,5.47-4.42s4.7-1.87,7.58-1.87c3.46,0,6.27.51,8.45,1.54,2.17,1.02,3.82,2.4,4.94,4.13,1.12,1.73,1.89,3.65,2.3,5.76.42,2.11.62,4.29.62,6.53Z"/>
  <path class="cls-1" d="M1183.67,59.62c1.09,2.69,2.83,5.09,5.23,7.2,2.4,2.11,5.46,3.17,9.17,3.17,2.05,0,4.19-.58,6.43-1.73,2.24-1.15,4.19-2.94,5.86-5.38.19-.32.45-.48.77-.48s.66.1,1.01.29c.35.19,1.3.74,2.83,1.63.25.19.38.45.38.77,0,.45-.19.99-.58,1.63-1.79,3.33-4.22,6.05-7.3,8.16-3.07,2.11-7.07,3.17-12,3.17-5.31,0-9.89-1.19-13.73-3.55s-6.8-5.5-8.88-9.41c-2.08-3.9-3.12-8.16-3.12-12.77s.66-8.21,1.97-11.38c1.31-3.17,3.06-5.73,5.23-7.68,2.17-1.95,4.62-3.39,7.34-4.32,2.72-.93,5.49-1.39,8.3-1.39,3.2,0,6.02.62,8.45,1.87,2.43,1.25,4.5,2.83,6.19,4.75,1.7,1.92,2.98,3.95,3.84,6.1.86,2.15,1.3,4.14,1.3,6,0,.51-.29.9-.86,1.15l-27.84,12.19ZM1197.97,45.89c0-3.07-.74-5.6-2.21-7.58-1.47-1.98-3.33-2.98-5.57-2.98-2.62,0-4.7,1.04-6.24,3.12-1.54,2.08-2.3,4.69-2.3,7.82,0,.96.05,2.15.14,3.55.1,1.41.34,2.69.72,3.84l15.46-7.78Z"/>
  <path class="cls-1" d="M1293.3,43.68c-.38.19-.71.29-.96.29-.45,0-.86-.22-1.25-.67-2.88-3.65-5.89-6.21-9.02-7.68-3.14-1.47-5.86-2.21-8.16-2.21-1.67,0-3.2.35-4.61,1.06-1.41.7-2.11,1.98-2.11,3.84,0,1.41.53,2.58,1.58,3.5,1.06.93,2.42,1.68,4.08,2.26,1.66.58,3.36,1.09,5.09,1.54,2.5.58,5.01,1.25,7.54,2.02,2.53.77,4.85,1.78,6.96,3.02,2.11,1.25,3.82,2.8,5.14,4.66,1.31,1.86,1.97,4.19,1.97,7.01,0,3.01-.82,5.7-2.45,8.06-1.63,2.37-3.95,4.24-6.96,5.62-3.01,1.38-6.59,2.06-10.75,2.06-1.98,0-3.92-.24-5.81-.72-1.89-.48-3.67-1.1-5.33-1.87-.38-.19-.67-.29-.86-.29-.45,0-.67.23-.67.67,0,.13.06.38.19.77.13.38.19.64.19.77,0,.51-.38.77-1.15.77h-3.46c-.71,0-1.25-.32-1.63-.96l-8.26-15.46c-.19-.38-.29-.67-.29-.86,0-.45.25-.83.77-1.15l2.98-1.73c.38-.19.67-.29.86-.29.38,0,.74.29,1.06.86,3.13,4.67,6.58,8,10.32,9.98,3.74,1.98,7.57,2.98,11.47,2.98,6.14,0,9.22-1.82,9.22-5.47,0-1.66-.75-3.04-2.26-4.13-1.5-1.09-3.36-1.98-5.57-2.69-2.21-.7-4.43-1.31-6.67-1.82-4.1-1.02-7.36-2.19-9.79-3.5-2.43-1.31-4.26-2.72-5.47-4.22-1.22-1.5-2.03-3.01-2.45-4.51-.42-1.5-.62-2.96-.62-4.37,0-3.84,1.47-7.01,4.42-9.5,2.94-2.5,6.94-3.74,12-3.74,3.01,0,5.66.4,7.97,1.2,2.3.8,3.9,1.46,4.8,1.97.25.13.45.19.58.19.19,0,.29-.13.29-.38,0-.19-.1-.58-.29-1.15-.06-.32-.11-.56-.14-.72-.03-.16-.05-.3-.05-.43,0-.64.42-.96,1.25-.96h2.5c.83,0,1.38.35,1.63,1.06l4.8,12.19c.19.38.29.71.29.96,0,.45-.26.8-.77,1.06l-2.11,1.15Z"/>
  <path class="cls-1" d="M1336.98,71.04c.96,0,1.44.48,1.44,1.44v2.88c0,.96-.54,1.44-1.63,1.44h-27.17c-1.09,0-1.63-.48-1.63-1.44v-2.88c0-.96.48-1.44,1.44-1.44h.19c2.37,0,4.11-.88,5.23-2.64,1.12-1.76,1.68-3.92,1.68-6.48v-10.18c0-1.47-.11-2.94-.34-4.42-.23-1.47-.72-2.75-1.49-3.84-.77-1.09-2.05-1.73-3.84-1.92-.77-.06-1.15-.48-1.15-1.25v-3.26c0-.38.13-.66.38-.82.25-.16.61-.3,1.06-.43,5.05-1.66,8.94-3.38,11.66-5.14,2.72-1.76,4.72-3.31,6-4.66.13-.13.25-.19.38-.19h.29c.13,0,.19.06.19.19v35.81c0,2.56.58,4.74,1.73,6.53,1.15,1.79,2.91,2.69,5.28,2.69h.29ZM1323.25,5.76c1.66,0,3.29.8,4.9,2.4,1.6,1.6,2.4,3.2,2.4,4.8s-.8,3.2-2.4,4.8c-1.6,1.6-3.23,2.4-4.9,2.4-1.54,0-3.14-.8-4.8-2.4-1.6-1.54-2.4-3.14-2.4-4.8s.8-3.2,2.4-4.8c1.6-1.6,3.2-2.4,4.8-2.4Z"/>
  <path class="cls-1" d="M28.99,167.04c.96,0,1.44.48,1.44,1.44v2.88c0,.96-.54,1.44-1.63,1.44H1.63c-1.09,0-1.63-.48-1.63-1.44v-2.88c0-.96.48-1.44,1.44-1.44h.19c2.37,0,4.11-.88,5.23-2.64,1.12-1.76,1.68-3.92,1.68-6.48v-10.18c0-1.47-.11-2.94-.34-4.42-.22-1.47-.72-2.75-1.49-3.84-.77-1.09-2.05-1.73-3.84-1.92-.77-.06-1.15-.48-1.15-1.25v-3.26c0-.38.13-.66.38-.82.25-.16.61-.3,1.06-.43,5.06-1.66,8.94-3.38,11.66-5.14,2.72-1.76,4.72-3.31,6-4.66.13-.13.25-.19.38-.19h.29c.13,0,.19.06.19.19v35.81c0,2.56.58,4.74,1.73,6.53,1.15,1.79,2.91,2.69,5.28,2.69h.29ZM15.26,101.76c1.66,0,3.29.8,4.9,2.4,1.6,1.6,2.4,3.2,2.4,4.8s-.8,3.2-2.4,4.8c-1.6,1.6-3.23,2.4-4.9,2.4-1.54,0-3.14-.8-4.8-2.4-1.6-1.54-2.4-3.14-2.4-4.8s.8-3.2,2.4-4.8c1.6-1.6,3.2-2.4,4.8-2.4Z"/>
  <path class="cls-1" d="M93.41,141.5v16.42c0,3.52.56,5.92,1.68,7.2,1.12,1.28,2.61,1.92,4.46,1.92h.77c.96,0,1.44.48,1.44,1.44v2.88c0,.96-.48,1.44-1.44,1.44h-25.54c-.96,0-1.44-.48-1.44-1.44v-2.88c0-.96.48-1.44,1.44-1.44h.67c1.34,0,2.43-.64,3.26-1.92.83-1.28,1.25-3.68,1.25-7.2v-16.42c0-3.07-.48-5.42-1.44-7.06-.96-1.63-2.78-2.45-5.47-2.45-1.6,0-3.2.4-4.8,1.2-1.6.8-3.01,1.82-4.22,3.07-1.22,1.25-2.11,2.58-2.69,3.98v17.66c0,2.56.56,4.72,1.68,6.48,1.12,1.76,2.61,2.64,4.46,2.64h.19c.96,0,1.44.48,1.44,1.44v2.88c0,.96-.48,1.44-1.44,1.44h-26.98c-.96,0-1.44-.48-1.44-1.44v-2.88c0-.96.48-1.44,1.44-1.44h.19c2.37,0,4.13-.88,5.28-2.64,1.15-1.76,1.73-3.92,1.73-6.48v-12.1c0-1.73-.11-3.39-.34-4.99-.23-1.6-.74-2.96-1.54-4.08-.8-1.12-2.1-1.78-3.89-1.97-.7-.06-1.06-.48-1.06-1.25v-3.26c0-.64.45-1.06,1.34-1.25,4.61-.7,8.56-1.79,11.86-3.26,3.29-1.47,5.58-2.66,6.86-3.55.32-.25.58-.38.77-.38h.1c.13,0,.19.06.19.19s-.03.38-.1.77l-1.63,11.81c.9-1.47,2.08-3.06,3.55-4.75,1.47-1.7,3.29-3.17,5.47-4.42,2.17-1.25,4.7-1.87,7.58-1.87,3.46,0,6.27.51,8.45,1.54,2.17,1.02,3.82,2.4,4.94,4.13,1.12,1.73,1.89,3.65,2.3,5.76.42,2.11.62,4.29.62,6.53Z"/>
  <path class="cls-1" d="M141.31,165.89c.19.26.29.54.29.86,0,.38-.26.74-.77,1.06l-2.88,1.82c-1.73,1.09-3.81,2.1-6.24,3.02-2.43.93-4.87,1.39-7.3,1.39-1.92,0-3.73-.45-5.42-1.34-1.7-.9-3.06-2.42-4.08-4.56-1.02-2.14-1.54-5.1-1.54-8.88v-17.76c0-1.73-.1-3.44-.29-5.14-.19-1.7-.79-3.09-1.78-4.18-.99-1.09-2.64-1.63-4.94-1.63-.96,0-1.44-.48-1.44-1.44v-2.88c0-.96.48-1.44,1.44-1.44h7.01v-6.43c0-.83.29-1.41.86-1.73,1.41-.77,3.26-1.84,5.57-3.22,2.3-1.38,4.35-2.96,6.14-4.75.13-.13.29-.19.48-.19h.19c.13,0,.19.1.19.29v16.03h12.86c.96,0,1.44.48,1.44,1.44v4.13c0,.96-.48,1.44-1.44,1.44h-12.86v27.46c0,2.5.38,4.21,1.15,5.14.77.93,1.73,1.39,2.88,1.39,1.09,0,2.24-.3,3.46-.91,1.21-.61,2.33-1.23,3.36-1.87.45-.26.8-.38,1.06-.38.38,0,.73.26,1.06.77l1.54,2.5Z"/>
  <path class="cls-1" d="M170.59,134.88c1.73-3.71,4.13-6.53,7.2-8.45,3.07-1.92,6.3-2.88,9.7-2.88,3.01,0,5.57.83,7.68,2.5,2.11,1.67,3.17,4.13,3.17,7.39,0,1.41-.13,2.66-.38,3.74-.26,1.09-.96,1.89-2.11,2.4l-9.02,3.65c-.38.13-.67.19-.86.19-.58,0-.86-.29-.86-.86,0-.19.06-.48.19-.86.38-.9.62-1.76.72-2.59.1-.83.14-1.57.14-2.21,0-1.73-.43-2.99-1.3-3.79-.86-.8-1.94-1.2-3.22-1.2-1.47,0-2.85.45-4.13,1.34-1.28.9-2.4,1.98-3.36,3.26-.96,1.28-1.67,2.53-2.11,3.74v17.66c0,2.56.58,4.72,1.73,6.48,1.15,1.76,2.91,2.64,5.28,2.64h.19c.96,0,1.44.48,1.44,1.44v2.88c0,.96-.48,1.44-1.44,1.44h-27.94c-.96,0-1.44-.48-1.44-1.44v-2.88c0-.96.48-1.44,1.44-1.44h.19c2.37,0,4.13-.88,5.28-2.64,1.15-1.76,1.73-3.92,1.73-6.48v-12.1c0-1.73-.11-3.39-.34-4.99-.23-1.6-.72-2.96-1.49-4.08-.77-1.12-2.05-1.78-3.84-1.97-.77-.06-1.15-.48-1.15-1.25v-3.26c0-.64.48-1.06,1.44-1.25,4.54-.7,8.53-1.82,11.95-3.36,3.42-1.54,5.74-2.75,6.96-3.65.19-.13.35-.19.48-.19h.19c.13,0,.19.06.19.19,0,.06-.08.54-.24,1.44-.16.9-.35,2.03-.58,3.41-.23,1.38-.48,2.78-.77,4.22-.29,1.44-.53,2.7-.72,3.79Z"/>
  <path class="cls-1" d="M219.45,155.62c1.09,2.69,2.83,5.09,5.23,7.2,2.4,2.11,5.46,3.17,9.17,3.17,2.05,0,4.19-.58,6.43-1.73,2.24-1.15,4.19-2.94,5.86-5.38.19-.32.45-.48.77-.48s.66.1,1.01.29c.35.19,1.3.74,2.83,1.63.25.19.38.45.38.77,0,.45-.19.99-.58,1.63-1.79,3.33-4.22,6.05-7.3,8.16-3.07,2.11-7.07,3.17-12,3.17-5.31,0-9.89-1.19-13.73-3.55s-6.8-5.5-8.88-9.41c-2.08-3.9-3.12-8.16-3.12-12.77s.66-8.21,1.97-11.38c1.31-3.17,3.06-5.73,5.23-7.68,2.17-1.95,4.62-3.39,7.34-4.32,2.72-.93,5.49-1.39,8.3-1.39,3.2,0,6.02.62,8.45,1.87,2.43,1.25,4.5,2.83,6.19,4.75,1.69,1.92,2.98,3.95,3.84,6.1.86,2.15,1.3,4.14,1.3,6,0,.51-.29.9-.86,1.15l-27.84,12.19ZM233.76,141.89c0-3.07-.74-5.6-2.21-7.58-1.47-1.98-3.33-2.98-5.57-2.98-2.62,0-4.7,1.04-6.24,3.12-1.54,2.08-2.3,4.69-2.3,7.82,0,.96.05,2.15.14,3.55.1,1.41.34,2.69.72,3.84l15.46-7.78Z"/>
  <path class="cls-1" d="M300.29,159.84c.51.38.77.8.77,1.25,0,.13-.06.38-.19.77-1.86,4.1-4.59,7.15-8.21,9.17-3.62,2.02-7.57,3.02-11.86,3.02-3.58,0-6.85-.78-9.79-2.35-2.94-1.57-5.44-3.66-7.49-6.29-2.05-2.62-3.55-5.57-4.51-8.83-.96-3.26-1.31-6.62-1.06-10.08.45-5.31,1.92-9.66,4.42-13.06,2.5-3.39,5.52-5.89,9.07-7.49,3.55-1.6,7.12-2.4,10.7-2.4,4.22,0,7.65.64,10.27,1.92,2.62,1.28,4.64,2.94,6.05,4.99,1.41,2.05,2.37,4.19,2.88,6.43.06.26.1.48.1.67,0,.51-.38.86-1.15,1.06l-11.04,2.88c-.38.13-.67.19-.86.19-.45,0-.67-.22-.67-.67,0-.26.01-.51.05-.77.03-.26.05-.61.05-1.06,0-2.05-.64-3.87-1.92-5.47-1.28-1.6-3.26-2.4-5.95-2.4-2.43,0-4.35.77-5.76,2.3-1.41,1.54-2.42,3.5-3.02,5.9-.61,2.4-.91,4.91-.91,7.54,0,3.14.42,6.11,1.25,8.93.83,2.82,2.19,5.1,4.08,6.86,1.89,1.76,4.46,2.64,7.73,2.64,2.56,0,4.93-.62,7.1-1.87s3.97-2.96,5.38-5.14c.26-.45.64-.67,1.15-.67.32,0,.61.1.86.29l2.5,1.73Z"/>
  <path class="cls-1" d="M352.8,159.84c.51.38.77.8.77,1.25,0,.13-.06.38-.19.77-1.86,4.1-4.59,7.15-8.21,9.17-3.62,2.02-7.57,3.02-11.86,3.02-3.59,0-6.85-.78-9.79-2.35-2.95-1.57-5.44-3.66-7.49-6.29-2.05-2.62-3.55-5.57-4.51-8.83-.96-3.26-1.31-6.62-1.06-10.08.45-5.31,1.92-9.66,4.42-13.06,2.5-3.39,5.52-5.89,9.07-7.49,3.55-1.6,7.12-2.4,10.7-2.4,4.22,0,7.65.64,10.27,1.92,2.62,1.28,4.64,2.94,6.05,4.99,1.41,2.05,2.37,4.19,2.88,6.43.06.26.1.48.1.67,0,.51-.38.86-1.15,1.06l-11.04,2.88c-.38.13-.67.19-.86.19-.45,0-.67-.22-.67-.67,0-.26.02-.51.05-.77.03-.26.05-.61.05-1.06,0-2.05-.64-3.87-1.92-5.47-1.28-1.6-3.26-2.4-5.95-2.4-2.43,0-4.35.77-5.76,2.3-1.41,1.54-2.42,3.5-3.02,5.9-.61,2.4-.91,4.91-.91,7.54,0,3.14.42,6.11,1.25,8.93.83,2.82,2.19,5.1,4.08,6.86,1.89,1.76,4.46,2.64,7.73,2.64,2.56,0,4.93-.62,7.1-1.87,2.17-1.25,3.97-2.96,5.38-5.14.25-.45.64-.67,1.15-.67.32,0,.61.1.86.29l2.5,1.73Z"/>
  <path class="cls-1" d="M391.58,167.04c.96,0,1.44.48,1.44,1.44v2.88c0,.96-.54,1.44-1.63,1.44h-27.17c-1.09,0-1.63-.48-1.63-1.44v-2.88c0-.96.48-1.44,1.44-1.44h.19c2.37,0,4.11-.88,5.23-2.64,1.12-1.76,1.68-3.92,1.68-6.48v-10.18c0-1.47-.11-2.94-.34-4.42-.23-1.47-.72-2.75-1.49-3.84-.77-1.09-2.05-1.73-3.84-1.92-.77-.06-1.15-.48-1.15-1.25v-3.26c0-.38.13-.66.38-.82.26-.16.61-.3,1.06-.43,5.05-1.66,8.94-3.38,11.66-5.14,2.72-1.76,4.72-3.31,6-4.66.13-.13.25-.19.38-.19h.29c.13,0,.19.06.19.19v35.81c0,2.56.58,4.74,1.73,6.53,1.15,1.79,2.91,2.69,5.28,2.69h.29ZM377.85,101.76c1.66,0,3.3.8,4.9,2.4,1.6,1.6,2.4,3.2,2.4,4.8s-.8,3.2-2.4,4.8c-1.6,1.6-3.23,2.4-4.9,2.4-1.54,0-3.14-.8-4.8-2.4-1.6-1.54-2.4-3.14-2.4-4.8s.8-3.2,2.4-4.8c1.6-1.6,3.2-2.4,4.8-2.4Z"/>
  <path class="cls-1" d="M448.22,155.04c0,2.3.35,4.37,1.06,6.19.7,1.82,2.24,2.9,4.61,3.22.77.06,1.15.48,1.15,1.25v3.17c0,.9-.48,1.34-1.44,1.34-3.14,0-5.75.18-7.82.53-2.08.35-3.87.8-5.38,1.34-1.5.54-2.99,1.14-4.46,1.78-.26.13-.48.19-.67.19h-.29c-.13,0-.19-.13-.19-.38s.06-.88.19-1.87c.13-.99.27-2.11.43-3.36.16-1.25.3-2.32.43-3.22-.32.83-1.01,1.95-2.06,3.36-1.06,1.41-2.59,2.67-4.61,3.79-2.02,1.12-4.66,1.68-7.92,1.68-2.18,0-4.5-.45-6.96-1.34-2.46-.9-4.79-2.34-6.96-4.32-2.18-1.98-3.95-4.59-5.33-7.82-1.38-3.23-2.06-7.18-2.06-11.86,0-5.95,1.07-10.77,3.22-14.45,2.14-3.68,4.93-6.38,8.35-8.11,3.42-1.73,7.06-2.59,10.9-2.59,3.13,0,6.01.48,8.64,1.44,2.62.96,4.93,2.34,6.91,4.13,1.66-.7,3.09-1.36,4.27-1.97,1.18-.61,2.19-1.23,3.02-1.87.32-.25.66-.51,1.01-.77.35-.25.75-.51,1.2-.77.19-.13.35-.19.48-.19h.1c.13,0,.19.06.19.19v31.3ZM434.78,139.97c-.19-1.28-.66-2.7-1.39-4.27-.74-1.57-1.84-2.91-3.31-4.03-1.47-1.12-3.46-1.68-5.95-1.68-3.07,0-5.47.75-7.2,2.26-1.73,1.5-2.93,3.44-3.6,5.81-.67,2.37-1.01,4.9-1.01,7.58,0,6.14,1.23,11.01,3.7,14.59,2.46,3.58,5.65,5.38,9.55,5.38,2.3,0,4.11-.5,5.42-1.49,1.31-.99,2.26-2,2.83-3.02.58-1.02.9-1.63.96-1.82v-19.3Z"/>
  <path class="cls-1" d="M518.01,141.5v16.42c0,3.52.56,5.92,1.68,7.2,1.12,1.28,2.61,1.92,4.46,1.92h.77c.96,0,1.44.48,1.44,1.44v2.88c0,.96-.48,1.44-1.44,1.44h-25.54c-.96,0-1.44-.48-1.44-1.44v-2.88c0-.96.48-1.44,1.44-1.44h.67c1.34,0,2.43-.64,3.26-1.92.83-1.28,1.25-3.68,1.25-7.2v-16.42c0-3.07-.48-5.42-1.44-7.06-.96-1.63-2.78-2.45-5.47-2.45-1.6,0-3.2.4-4.8,1.2-1.6.8-3.01,1.82-4.22,3.07-1.22,1.25-2.11,2.58-2.69,3.98v17.66c0,2.56.56,4.72,1.68,6.48,1.12,1.76,2.61,2.64,4.46,2.64h.19c.96,0,1.44.48,1.44,1.44v2.88c0,.96-.48,1.44-1.44,1.44h-26.98c-.96,0-1.44-.48-1.44-1.44v-2.88c0-.96.48-1.44,1.44-1.44h.19c2.37,0,4.13-.88,5.28-2.64,1.15-1.76,1.73-3.92,1.73-6.48v-12.1c0-1.73-.11-3.39-.34-4.99-.22-1.6-.74-2.96-1.54-4.08-.8-1.12-2.1-1.78-3.89-1.97-.71-.06-1.06-.48-1.06-1.25v-3.26c0-.64.45-1.06,1.34-1.25,4.61-.7,8.56-1.79,11.86-3.26,3.3-1.47,5.58-2.66,6.86-3.55.32-.25.58-.38.77-.38h.1c.13,0,.19.06.19.19s-.03.38-.1.77l-1.63,11.81c.9-1.47,2.08-3.06,3.55-4.75,1.47-1.7,3.3-3.17,5.47-4.42,2.17-1.25,4.7-1.87,7.58-1.87,3.46,0,6.27.51,8.45,1.54,2.18,1.02,3.82,2.4,4.94,4.13,1.12,1.73,1.89,3.65,2.3,5.76.42,2.11.62,4.29.62,6.53Z"/>
  <path class="cls-1" d="M555.84,123.55c3.65,0,7.02.72,10.13,2.16,3.1,1.44,5.78,3.39,8.02,5.86,2.24,2.46,3.98,5.22,5.23,8.26,1.25,3.04,1.87,6.19,1.87,9.46,0,4.74-1.12,8.98-3.36,12.72-2.24,3.74-5.18,6.69-8.83,8.83-3.65,2.14-7.62,3.22-11.9,3.22-3.65,0-7.01-.71-10.08-2.11s-5.75-3.31-8.02-5.71c-2.27-2.4-4.03-5.15-5.28-8.26-1.25-3.1-1.87-6.35-1.87-9.74,0-4.67,1.09-8.86,3.26-12.58,2.17-3.71,5.09-6.66,8.74-8.83,3.65-2.18,7.68-3.26,12.1-3.26ZM559.96,166.27c1.21,0,2.56-.32,4.03-.96,1.47-.64,2.77-1.76,3.89-3.36,1.12-1.6,1.68-3.81,1.68-6.62,0-2.24-.43-4.72-1.3-7.44-.86-2.72-2.05-5.34-3.55-7.87-1.5-2.53-3.26-4.61-5.28-6.24-2.02-1.63-4.21-2.45-6.58-2.45-2.62,0-4.9.98-6.82,2.93-1.92,1.95-2.88,4.62-2.88,8.02,0,2.18.43,4.64,1.3,7.39.86,2.75,2.05,5.39,3.55,7.92,1.5,2.53,3.28,4.61,5.33,6.24,2.05,1.63,4.26,2.45,6.62,2.45Z"/>
  <path class="cls-1" d="M639.36,132.29c.38-.9,1.09-2.03,2.11-3.41,1.02-1.38,2.56-2.61,4.61-3.7,2.05-1.09,4.7-1.63,7.97-1.63,2.17,0,4.48.45,6.91,1.34,2.43.9,4.74,2.34,6.91,4.32,2.17,1.98,3.95,4.58,5.33,7.78,1.38,3.2,2.06,7.14,2.06,11.81,0,5.89-1.06,10.7-3.17,14.45-2.11,3.74-4.86,6.48-8.26,8.21-3.39,1.73-7.04,2.59-10.94,2.59-4.87,0-9.02-1.54-12.48-4.61v7.68c0,2.56.58,4.72,1.73,6.48,1.15,1.76,2.91,2.64,5.28,2.64.96,0,1.44.48,1.44,1.44v2.88c0,.96-.48,1.44-1.44,1.44h-27.46c-.96,0-1.44-.48-1.44-1.44v-2.88c0-.96.51-1.44,1.54-1.44,2.37,0,4.11-.88,5.23-2.64,1.12-1.76,1.68-3.92,1.68-6.48v-33.02c0-1.73-.1-3.39-.29-4.99-.19-1.6-.69-2.96-1.49-4.08-.8-1.12-2.1-1.78-3.89-1.97-.45-.06-.74-.21-.86-.43-.13-.22-.19-.49-.19-.82v-3.26c0-.83.45-1.25,1.34-1.25,3.2,0,5.82-.14,7.87-.43,2.05-.29,3.82-.72,5.33-1.3,1.5-.58,2.99-1.22,4.46-1.92.19-.13.37-.19.53-.19h.43c.13,0,.19.1.19.29,0,.06-.02.22-.05.48-.03.26-.11.98-.24,2.16-.13,1.19-.38,3.15-.77,5.9ZM640.41,155.71c.25,1.98.82,3.9,1.68,5.76.86,1.86,2.06,3.36,3.6,4.51,1.54,1.15,3.36,1.73,5.47,1.73,3.07,0,5.47-.77,7.2-2.3,1.73-1.54,2.93-3.52,3.6-5.95.67-2.43,1.01-4.96,1.01-7.58,0-6.14-1.23-11.01-3.7-14.59-2.46-3.58-5.68-5.38-9.65-5.38-2.56,0-4.62.72-6.19,2.16-1.57,1.44-2.58,2.83-3.02,4.18v17.47Z"/>
  <path class="cls-1" d="M699.74,155.62c1.09,2.69,2.83,5.09,5.23,7.2,2.4,2.11,5.46,3.17,9.17,3.17,2.05,0,4.19-.58,6.43-1.73,2.24-1.15,4.19-2.94,5.86-5.38.19-.32.45-.48.77-.48s.66.1,1.01.29c.35.19,1.3.74,2.83,1.63.25.19.38.45.38.77,0,.45-.19.99-.58,1.63-1.79,3.33-4.22,6.05-7.3,8.16-3.07,2.11-7.07,3.17-12,3.17-5.31,0-9.89-1.19-13.73-3.55s-6.8-5.5-8.88-9.41c-2.08-3.9-3.12-8.16-3.12-12.77s.66-8.21,1.97-11.38c1.31-3.17,3.05-5.73,5.23-7.68,2.17-1.95,4.62-3.39,7.34-4.32,2.72-.93,5.49-1.39,8.3-1.39,3.2,0,6.02.62,8.45,1.87,2.43,1.25,4.5,2.83,6.19,4.75,1.7,1.92,2.98,3.95,3.84,6.1.86,2.15,1.3,4.14,1.3,6,0,.51-.29.9-.86,1.15l-27.84,12.19ZM714.04,141.89c0-3.07-.74-5.6-2.21-7.58-1.47-1.98-3.33-2.98-5.57-2.98-2.62,0-4.7,1.04-6.24,3.12-1.54,2.08-2.3,4.69-2.3,7.82,0,.96.05,2.15.14,3.55.1,1.41.33,2.69.72,3.84l15.46-7.78Z"/>
  <path class="cls-1" d="M759.35,134.88c1.73-3.71,4.13-6.53,7.2-8.45,3.07-1.92,6.3-2.88,9.7-2.88,3.01,0,5.57.83,7.68,2.5,2.11,1.67,3.17,4.13,3.17,7.39,0,1.41-.13,2.66-.38,3.74-.26,1.09-.96,1.89-2.11,2.4l-9.02,3.65c-.38.13-.67.19-.86.19-.58,0-.86-.29-.86-.86,0-.19.06-.48.19-.86.38-.9.62-1.76.72-2.59.1-.83.14-1.57.14-2.21,0-1.73-.43-2.99-1.3-3.79-.86-.8-1.94-1.2-3.22-1.2-1.47,0-2.85.45-4.13,1.34-1.28.9-2.4,1.98-3.36,3.26-.96,1.28-1.66,2.53-2.11,3.74v17.66c0,2.56.58,4.72,1.73,6.48,1.15,1.76,2.91,2.64,5.28,2.64h.19c.96,0,1.44.48,1.44,1.44v2.88c0,.96-.48,1.44-1.44,1.44h-27.94c-.96,0-1.44-.48-1.44-1.44v-2.88c0-.96.48-1.44,1.44-1.44h.19c2.37,0,4.13-.88,5.28-2.64,1.15-1.76,1.73-3.92,1.73-6.48v-12.1c0-1.73-.11-3.39-.34-4.99-.23-1.6-.72-2.96-1.49-4.08-.77-1.12-2.05-1.78-3.84-1.97-.77-.06-1.15-.48-1.15-1.25v-3.26c0-.64.48-1.06,1.44-1.25,4.54-.7,8.53-1.82,11.95-3.36,3.42-1.54,5.74-2.75,6.96-3.65.19-.13.35-.19.48-.19h.19c.13,0,.19.06.19.19,0,.06-.08.54-.24,1.44-.16.9-.35,2.03-.58,3.41-.22,1.38-.48,2.78-.77,4.22-.29,1.44-.53,2.7-.72,3.79Z"/>
  <path class="cls-1" d="M872.83,155.04c0,2.3.35,4.37,1.06,6.19.7,1.82,2.24,2.9,4.61,3.22.77.06,1.15.48,1.15,1.25v3.17c0,.9-.48,1.34-1.44,1.34-3.14,0-5.75.18-7.82.53-2.08.35-3.87.8-5.38,1.34-1.5.54-2.99,1.14-4.46,1.78-.26.13-.48.19-.67.19h-.19c-.19,0-.29-.1-.29-.29.13-1.47.27-2.91.43-4.32.16-1.41.37-2.82.62-4.22-.32.83-1.01,1.95-2.06,3.36-1.06,1.41-2.59,2.67-4.61,3.79-2.02,1.12-4.66,1.68-7.92,1.68-2.18,0-4.5-.45-6.96-1.34-2.46-.9-4.79-2.34-6.96-4.32-2.18-1.98-3.95-4.59-5.33-7.82-1.38-3.23-2.06-7.18-2.06-11.86,0-5.95,1.07-10.77,3.22-14.45,2.14-3.68,4.93-6.38,8.35-8.11,3.42-1.73,7.06-2.59,10.9-2.59,4.86,0,8.99,1.5,12.38,4.51v-6.14c0-1.73-.11-3.39-.34-4.99-.22-1.6-.72-2.96-1.49-4.08-.77-1.12-2.05-1.78-3.84-1.97-.77-.06-1.15-.48-1.15-1.25v-3.26c0-.38.13-.66.38-.82.25-.16.61-.3,1.06-.43,5.06-1.66,9.01-3.33,11.86-4.99,2.85-1.66,4.91-2.98,6.19-3.94.19-.13.35-.19.48-.19h.1c.13,0,.19.06.19.19v58.85ZM859.39,141.7c0-3.01-.98-5.57-2.93-7.68-1.95-2.11-4.53-3.17-7.73-3.17s-5.47.67-7.2,2.02c-1.73,1.34-2.93,3.14-3.6,5.38-.67,2.24-1.01,4.7-1.01,7.39,0,6.14,1.23,11.01,3.7,14.59,2.46,3.58,5.65,5.38,9.55,5.38,1.73,0,3.23-.43,4.51-1.3,1.28-.86,2.32-1.93,3.12-3.22.8-1.28,1.33-2.5,1.58-3.65v-15.74Z"/>
  <path class="cls-1" d="M934.84,155.04c0,2.3.35,4.37,1.06,6.19.7,1.82,2.24,2.9,4.61,3.22.77.06,1.15.48,1.15,1.25v3.17c0,.9-.48,1.34-1.44,1.34-3.14,0-5.75.18-7.82.53-2.08.35-3.87.8-5.38,1.34-1.5.54-2.99,1.14-4.46,1.78-.26.13-.48.19-.67.19h-.29c-.13,0-.19-.13-.19-.38s.06-.88.19-1.87c.13-.99.27-2.11.43-3.36.16-1.25.3-2.32.43-3.22-.32.83-1.01,1.95-2.06,3.36-1.06,1.41-2.59,2.67-4.61,3.79-2.02,1.12-4.66,1.68-7.92,1.68-2.18,0-4.5-.45-6.96-1.34-2.46-.9-4.79-2.34-6.96-4.32-2.18-1.98-3.95-4.59-5.33-7.82-1.38-3.23-2.06-7.18-2.06-11.86,0-5.95,1.07-10.77,3.22-14.45,2.14-3.68,4.93-6.38,8.35-8.11,3.42-1.73,7.06-2.59,10.9-2.59,3.13,0,6.02.48,8.64,1.44,2.62.96,4.93,2.34,6.91,4.13,1.66-.7,3.09-1.36,4.27-1.97,1.18-.61,2.19-1.23,3.02-1.87.32-.25.66-.51,1.01-.77.35-.25.75-.51,1.2-.77.19-.13.35-.19.48-.19h.1c.13,0,.19.06.19.19v31.3ZM921.4,139.97c-.19-1.28-.66-2.7-1.39-4.27-.74-1.57-1.84-2.91-3.31-4.03-1.47-1.12-3.46-1.68-5.95-1.68-3.07,0-5.47.75-7.2,2.26-1.73,1.5-2.93,3.44-3.6,5.81-.67,2.37-1.01,4.9-1.01,7.58,0,6.14,1.23,11.01,3.7,14.59,2.46,3.58,5.65,5.38,9.55,5.38,2.3,0,4.11-.5,5.42-1.49,1.31-.99,2.26-2,2.83-3.02.58-1.02.9-1.63.96-1.82v-19.3Z"/>
  <path class="cls-1" d="M971.22,134.88c1.73-3.71,4.13-6.53,7.2-8.45,3.07-1.92,6.3-2.88,9.7-2.88,3.01,0,5.57.83,7.68,2.5,2.11,1.67,3.17,4.13,3.17,7.39,0,1.41-.13,2.66-.38,3.74-.26,1.09-.96,1.89-2.11,2.4l-9.02,3.65c-.38.13-.67.19-.86.19-.58,0-.86-.29-.86-.86,0-.19.06-.48.19-.86.38-.9.62-1.76.72-2.59.1-.83.14-1.57.14-2.21,0-1.73-.43-2.99-1.3-3.79-.86-.8-1.94-1.2-3.22-1.2-1.47,0-2.85.45-4.13,1.34-1.28.9-2.4,1.98-3.36,3.26-.96,1.28-1.66,2.53-2.11,3.74v17.66c0,2.56.58,4.72,1.73,6.48,1.15,1.76,2.91,2.64,5.28,2.64h.19c.96,0,1.44.48,1.44,1.44v2.88c0,.96-.48,1.44-1.44,1.44h-27.94c-.96,0-1.44-.48-1.44-1.44v-2.88c0-.96.48-1.44,1.44-1.44h.19c2.37,0,4.13-.88,5.28-2.64,1.15-1.76,1.73-3.92,1.73-6.48v-12.1c0-1.73-.11-3.39-.34-4.99-.23-1.6-.72-2.96-1.49-4.08-.77-1.12-2.05-1.78-3.84-1.97-.77-.06-1.15-.48-1.15-1.25v-3.26c0-.64.48-1.06,1.44-1.25,4.54-.7,8.53-1.82,11.95-3.36,3.42-1.54,5.74-2.75,6.96-3.65.19-.13.35-.19.48-.19h.19c.13,0,.19.06.19.19,0,.06-.08.54-.24,1.44-.16.9-.35,2.03-.58,3.41-.22,1.38-.48,2.78-.77,4.22-.29,1.44-.53,2.7-.72,3.79Z"/>
  <path class="cls-1" d="M1020.09,155.62c1.09,2.69,2.83,5.09,5.23,7.2,2.4,2.11,5.46,3.17,9.17,3.17,2.05,0,4.19-.58,6.43-1.73,2.24-1.15,4.19-2.94,5.86-5.38.19-.32.45-.48.77-.48s.66.1,1.01.29c.35.19,1.3.74,2.83,1.63.25.19.38.45.38.77,0,.45-.19.99-.58,1.63-1.79,3.33-4.22,6.05-7.3,8.16-3.07,2.11-7.07,3.17-12,3.17-5.31,0-9.89-1.19-13.73-3.55s-6.8-5.5-8.88-9.41c-2.08-3.9-3.12-8.16-3.12-12.77s.66-8.21,1.97-11.38c1.31-3.17,3.06-5.73,5.23-7.68,2.17-1.95,4.62-3.39,7.34-4.32,2.72-.93,5.49-1.39,8.3-1.39,3.2,0,6.02.62,8.45,1.87,2.43,1.25,4.5,2.83,6.19,4.75,1.7,1.92,2.98,3.95,3.84,6.1.86,2.15,1.3,4.14,1.3,6,0,.51-.29.9-.86,1.15l-27.84,12.19ZM1034.39,141.89c0-3.07-.74-5.6-2.21-7.58-1.47-1.98-3.33-2.98-5.57-2.98-2.62,0-4.7,1.04-6.24,3.12-1.54,2.08-2.3,4.69-2.3,7.82,0,.96.05,2.15.14,3.55.1,1.41.34,2.69.72,3.84l15.46-7.78Z"/>
  <path class="cls-2" d="M1131.64,159.84c.51.38.77.8.77,1.25,0,.13-.06.38-.19.77-1.86,4.1-4.59,7.15-8.21,9.17-3.62,2.02-7.57,3.02-11.86,3.02-3.58,0-6.85-.78-9.79-2.35-2.94-1.57-5.44-3.66-7.49-6.29-2.05-2.62-3.55-5.57-4.51-8.83-.96-3.26-1.31-6.62-1.06-10.08.45-5.31,1.92-9.66,4.42-13.06,2.5-3.39,5.52-5.89,9.07-7.49,3.55-1.6,7.12-2.4,10.7-2.4,4.22,0,7.65.64,10.27,1.92,2.62,1.28,4.64,2.94,6.05,4.99,1.41,2.05,2.37,4.19,2.88,6.43.06.26.1.48.1.67,0,.51-.38.86-1.15,1.06l-11.04,2.88c-.38.13-.67.19-.86.19-.45,0-.67-.22-.67-.67,0-.26.01-.51.05-.77.03-.26.05-.61.05-1.06,0-2.05-.64-3.87-1.92-5.47-1.28-1.6-3.26-2.4-5.95-2.4-2.43,0-4.35.77-5.76,2.3-1.41,1.54-2.42,3.5-3.02,5.9-.61,2.4-.91,4.91-.91,7.54,0,3.14.42,6.11,1.25,8.93.83,2.82,2.19,5.1,4.08,6.86,1.89,1.76,4.46,2.64,7.73,2.64,2.56,0,4.93-.62,7.1-1.87,2.17-1.25,3.97-2.96,5.38-5.14.25-.45.64-.67,1.15-.67.32,0,.61.1.86.29l2.5,1.73Z"/>
  <path class="cls-2" d="M1165.81,123.55c3.65,0,7.02.72,10.13,2.16,3.1,1.44,5.78,3.39,8.02,5.86,2.24,2.46,3.98,5.22,5.23,8.26,1.25,3.04,1.87,6.19,1.87,9.46,0,4.74-1.12,8.98-3.36,12.72-2.24,3.74-5.18,6.69-8.83,8.83-3.65,2.14-7.62,3.22-11.9,3.22-3.65,0-7.01-.71-10.08-2.11s-5.75-3.31-8.02-5.71c-2.27-2.4-4.03-5.15-5.28-8.26-1.25-3.1-1.87-6.35-1.87-9.74,0-4.67,1.09-8.86,3.26-12.58,2.18-3.71,5.09-6.66,8.74-8.83,3.65-2.18,7.68-3.26,12.1-3.26ZM1169.94,166.27c1.22,0,2.56-.32,4.03-.96,1.47-.64,2.77-1.76,3.89-3.36,1.12-1.6,1.68-3.81,1.68-6.62,0-2.24-.43-4.72-1.3-7.44-.86-2.72-2.05-5.34-3.55-7.87-1.5-2.53-3.26-4.61-5.28-6.24-2.02-1.63-4.21-2.45-6.58-2.45-2.62,0-4.9.98-6.82,2.93-1.92,1.95-2.88,4.62-2.88,8.02,0,2.18.43,4.64,1.3,7.39.86,2.75,2.05,5.39,3.55,7.92,1.5,2.53,3.28,4.61,5.33,6.24,2.05,1.63,4.25,2.45,6.62,2.45Z"/>
  <path class="cls-2" d="M1226.78,167.04c.96,0,1.44.48,1.44,1.44v2.88c0,.96-.54,1.44-1.63,1.44h-27.17c-1.09,0-1.63-.48-1.63-1.44v-2.88c0-.96.48-1.44,1.44-1.44h.19c2.37,0,4.11-.88,5.23-2.64,1.12-1.76,1.68-3.92,1.68-6.48v-36c0-1.79-.11-3.49-.34-5.09-.23-1.6-.72-2.96-1.49-4.08-.77-1.12-2.05-1.78-3.84-1.97-.77-.06-1.15-.48-1.15-1.25v-3.26c0-.38.13-.64.38-.77.25-.13.61-.29,1.06-.48,4.54-1.66,8.17-3.22,10.9-4.66,2.72-1.44,4.98-2.83,6.77-4.18.13-.13.25-.19.38-.19h.29c.13,0,.19.06.19.19v61.63c0,2.56.58,4.74,1.73,6.53,1.15,1.79,2.91,2.69,5.28,2.69h.29Z"/>
  <path class="cls-2" d="M1259.22,123.55c3.65,0,7.02.72,10.13,2.16,3.1,1.44,5.78,3.39,8.02,5.86,2.24,2.46,3.98,5.22,5.23,8.26,1.25,3.04,1.87,6.19,1.87,9.46,0,4.74-1.12,8.98-3.36,12.72-2.24,3.74-5.18,6.69-8.83,8.83-3.65,2.14-7.62,3.22-11.9,3.22-3.65,0-7.01-.71-10.08-2.11s-5.75-3.31-8.02-5.71c-2.27-2.4-4.03-5.15-5.28-8.26-1.25-3.1-1.87-6.35-1.87-9.74,0-4.67,1.09-8.86,3.26-12.58,2.18-3.71,5.09-6.66,8.74-8.83,3.65-2.18,7.68-3.26,12.1-3.26ZM1263.35,166.27c1.22,0,2.56-.32,4.03-.96,1.47-.64,2.77-1.76,3.89-3.36,1.12-1.6,1.68-3.81,1.68-6.62,0-2.24-.43-4.72-1.3-7.44-.86-2.72-2.05-5.34-3.55-7.87-1.5-2.53-3.26-4.61-5.28-6.24-2.02-1.63-4.21-2.45-6.58-2.45-2.62,0-4.9.98-6.82,2.93-1.92,1.95-2.88,4.62-2.88,8.02,0,2.18.43,4.64,1.3,7.39.86,2.75,2.05,5.39,3.55,7.92,1.5,2.53,3.28,4.61,5.33,6.24,2.05,1.63,4.25,2.45,6.62,2.45Z"/>
  <path class="cls-2" d="M1313.37,134.88c1.73-3.71,4.13-6.53,7.2-8.45,3.07-1.92,6.3-2.88,9.7-2.88,3.01,0,5.57.83,7.68,2.5,2.11,1.67,3.17,4.13,3.17,7.39,0,1.41-.13,2.66-.38,3.74-.26,1.09-.96,1.89-2.11,2.4l-9.02,3.65c-.38.13-.67.19-.86.19-.58,0-.86-.29-.86-.86,0-.19.06-.48.19-.86.38-.9.62-1.76.72-2.59.1-.83.14-1.57.14-2.21,0-1.73-.43-2.99-1.3-3.79-.86-.8-1.94-1.2-3.22-1.2-1.47,0-2.85.45-4.13,1.34-1.28.9-2.4,1.98-3.36,3.26-.96,1.28-1.66,2.53-2.11,3.74v17.66c0,2.56.58,4.72,1.73,6.48,1.15,1.76,2.91,2.64,5.28,2.64h.19c.96,0,1.44.48,1.44,1.44v2.88c0,.96-.48,1.44-1.44,1.44h-27.94c-.96,0-1.44-.48-1.44-1.44v-2.88c0-.96.48-1.44,1.44-1.44h.19c2.37,0,4.13-.88,5.28-2.64,1.15-1.76,1.73-3.92,1.73-6.48v-12.1c0-1.73-.11-3.39-.34-4.99-.23-1.6-.72-2.96-1.49-4.08-.77-1.12-2.05-1.78-3.84-1.97-.77-.06-1.15-.48-1.15-1.25v-3.26c0-.64.48-1.06,1.44-1.25,4.54-.7,8.53-1.82,11.95-3.36,3.42-1.54,5.74-2.75,6.96-3.65.19-.13.35-.19.48-.19h.19c.13,0,.19.06.19.19,0,.06-.08.54-.24,1.44-.16.9-.35,2.03-.58,3.41-.22,1.38-.48,2.78-.77,4.22-.29,1.44-.53,2.7-.72,3.79Z"/>
  <path class="cls-2" d="M1362.23,155.62c1.09,2.69,2.83,5.09,5.23,7.2,2.4,2.11,5.46,3.17,9.17,3.17,2.05,0,4.19-.58,6.43-1.73,2.24-1.15,4.19-2.94,5.86-5.38.19-.32.45-.48.77-.48s.66.1,1.01.29c.35.19,1.3.74,2.83,1.63.25.19.38.45.38.77,0,.45-.19.99-.58,1.63-1.79,3.33-4.22,6.05-7.3,8.16-3.07,2.11-7.07,3.17-12,3.17-5.31,0-9.89-1.19-13.73-3.55s-6.8-5.5-8.88-9.41c-2.08-3.9-3.12-8.16-3.12-12.77s.66-8.21,1.97-11.38c1.31-3.17,3.06-5.73,5.23-7.68,2.17-1.95,4.62-3.39,7.34-4.32,2.72-.93,5.49-1.39,8.3-1.39,3.2,0,6.02.62,8.45,1.87,2.43,1.25,4.5,2.83,6.19,4.75,1.7,1.92,2.98,3.95,3.84,6.1.86,2.15,1.3,4.14,1.3,6,0,.51-.29.9-.86,1.15l-27.84,12.19ZM1376.53,141.89c0-3.07-.74-5.6-2.21-7.58-1.47-1.98-3.33-2.98-5.57-2.98-2.62,0-4.7,1.04-6.24,3.12-1.54,2.08-2.3,4.69-2.3,7.82,0,.96.05,2.15.14,3.55.1,1.41.34,2.69.72,3.84l15.46-7.78Z"/>
  <path class="cls-2" d="M177.89,251.62c1.09,2.69,2.83,5.09,5.23,7.2,2.4,2.11,5.46,3.17,9.17,3.17,2.05,0,4.19-.58,6.43-1.73,2.24-1.15,4.19-2.94,5.86-5.38.19-.32.45-.48.77-.48s.66.1,1.01.29c.35.19,1.3.74,2.83,1.63.25.19.38.45.38.77,0,.45-.19.99-.58,1.63-1.79,3.33-4.22,6.05-7.3,8.16-3.07,2.11-7.07,3.17-12,3.17-5.31,0-9.89-1.19-13.73-3.55s-6.8-5.5-8.88-9.41c-2.08-3.9-3.12-8.16-3.12-12.77s.66-8.21,1.97-11.38c1.31-3.17,3.06-5.73,5.23-7.68,2.17-1.95,4.62-3.39,7.34-4.32,2.72-.93,5.49-1.39,8.3-1.39,3.2,0,6.02.62,8.45,1.87,2.43,1.25,4.5,2.83,6.19,4.75,1.69,1.92,2.98,3.95,3.84,6.1.86,2.15,1.3,4.14,1.3,6,0,.51-.29.9-.86,1.15l-27.84,12.19ZM192.19,237.89c0-3.07-.74-5.6-2.21-7.58-1.47-1.98-3.33-2.98-5.57-2.98-2.62,0-4.7,1.04-6.24,3.12-1.54,2.08-2.3,4.69-2.3,7.82,0,.96.05,2.15.14,3.55.1,1.41.34,2.69.72,3.84l15.46-7.78Z"/>
  <path class="cls-2" d="M289.44,255.84c.51.38.77.8.77,1.25,0,.13-.06.38-.19.77-1.86,4.1-4.59,7.15-8.21,9.17-3.62,2.02-7.57,3.02-11.86,3.02-3.59,0-6.85-.78-9.79-2.35-2.95-1.57-5.44-3.66-7.49-6.29-2.05-2.62-3.55-5.57-4.51-8.83-.96-3.26-1.31-6.62-1.06-10.08.45-5.31,1.92-9.66,4.42-13.06,2.5-3.39,5.52-5.89,9.07-7.49,3.55-1.6,7.12-2.4,10.7-2.4,4.22,0,7.65.64,10.27,1.92,2.62,1.28,4.64,2.94,6.05,4.99,1.41,2.05,2.37,4.19,2.88,6.43.06.26.1.48.1.67,0,.51-.38.86-1.15,1.06l-11.04,2.88c-.38.13-.67.19-.86.19-.45,0-.67-.22-.67-.67,0-.26.02-.51.05-.77.03-.26.05-.61.05-1.06,0-2.05-.64-3.87-1.92-5.47-1.28-1.6-3.26-2.4-5.95-2.4-2.43,0-4.35.77-5.76,2.3-1.41,1.54-2.42,3.5-3.02,5.9-.61,2.4-.91,4.91-.91,7.54,0,3.14.42,6.11,1.25,8.93.83,2.82,2.19,5.1,4.08,6.86,1.89,1.76,4.46,2.64,7.73,2.64,2.56,0,4.93-.62,7.1-1.87,2.17-1.25,3.97-2.96,5.38-5.14.25-.45.64-.67,1.15-.67.32,0,.61.1.86.29l2.5,1.73Z"/>
  <path class="cls-2" d="M347.81,251.04c0,2.3.35,4.37,1.06,6.19.7,1.82,2.24,2.9,4.61,3.22.77.06,1.15.48,1.15,1.25v3.17c0,.9-.48,1.34-1.44,1.34-3.14,0-5.75.18-7.82.53-2.08.35-3.87.8-5.38,1.34-1.5.54-2.99,1.14-4.46,1.78-.26.13-.48.19-.67.19h-.29c-.13,0-.19-.13-.19-.38s.06-.88.19-1.87c.13-.99.27-2.11.43-3.36.16-1.25.3-2.32.43-3.22-.32.83-1.01,1.95-2.06,3.36-1.06,1.41-2.59,2.67-4.61,3.79-2.02,1.12-4.66,1.68-7.92,1.68-2.18,0-4.5-.45-6.96-1.34-2.46-.9-4.79-2.34-6.96-4.32-2.18-1.98-3.95-4.59-5.33-7.82-1.38-3.23-2.06-7.18-2.06-11.86,0-5.95,1.07-10.77,3.22-14.45,2.14-3.68,4.93-6.38,8.35-8.11,3.42-1.73,7.06-2.59,10.9-2.59,3.13,0,6.01.48,8.64,1.44,2.62.96,4.93,2.34,6.91,4.13,1.66-.7,3.09-1.36,4.27-1.97,1.18-.61,2.19-1.23,3.02-1.87.32-.25.66-.51,1.01-.77.35-.25.75-.51,1.2-.77.19-.13.35-.19.48-.19h.1c.13,0,.19.06.19.19v31.3ZM334.37,235.97c-.19-1.28-.66-2.7-1.39-4.27-.74-1.57-1.84-2.91-3.31-4.03-1.47-1.12-3.46-1.68-5.95-1.68-3.07,0-5.47.75-7.2,2.26-1.73,1.5-2.93,3.44-3.6,5.81-.67,2.37-1.01,4.9-1.01,7.58,0,6.14,1.23,11.01,3.7,14.59,2.46,3.58,5.65,5.38,9.55,5.38,2.3,0,4.11-.5,5.42-1.49,1.31-.99,2.26-2,2.83-3.02.58-1.02.9-1.63.96-1.82v-19.3Z"/>
  <path class="cls-2" d="M384.19,230.88c1.73-3.71,4.13-6.53,7.2-8.45,3.07-1.92,6.3-2.88,9.7-2.88,3.01,0,5.57.83,7.68,2.5,2.11,1.67,3.17,4.13,3.17,7.39,0,1.41-.13,2.66-.38,3.74-.26,1.09-.96,1.89-2.11,2.4l-9.02,3.65c-.38.13-.67.19-.86.19-.58,0-.86-.29-.86-.86,0-.19.06-.48.19-.86.38-.9.62-1.76.72-2.59.1-.83.14-1.57.14-2.21,0-1.73-.43-2.99-1.3-3.79-.86-.8-1.94-1.2-3.22-1.2-1.47,0-2.85.45-4.13,1.34-1.28.9-2.4,1.98-3.36,3.26-.96,1.28-1.67,2.53-2.11,3.74v17.66c0,2.56.58,4.72,1.73,6.48,1.15,1.76,2.91,2.64,5.28,2.64h.19c.96,0,1.44.48,1.44,1.44v2.88c0,.96-.48,1.44-1.44,1.44h-27.94c-.96,0-1.44-.48-1.44-1.44v-2.88c0-.96.48-1.44,1.44-1.44h.19c2.37,0,4.13-.88,5.28-2.64,1.15-1.76,1.73-3.92,1.73-6.48v-12.1c0-1.73-.11-3.39-.34-4.99-.23-1.6-.72-2.96-1.49-4.08-.77-1.12-2.05-1.78-3.84-1.97-.77-.06-1.15-.48-1.15-1.25v-3.26c0-.64.48-1.06,1.44-1.25,4.54-.7,8.53-1.82,11.95-3.36,3.42-1.54,5.74-2.75,6.96-3.65.19-.13.35-.19.48-.19h.19c.13,0,.19.06.19.19,0,.06-.08.54-.24,1.44-.16.9-.35,2.03-.58,3.41-.23,1.38-.48,2.78-.77,4.22-.29,1.44-.53,2.7-.72,3.79Z"/>
  <path class="cls-2" d="M467.42,251.04c0,2.3.35,4.37,1.06,6.19.7,1.82,2.24,2.9,4.61,3.22.77.06,1.15.48,1.15,1.25v3.17c0,.9-.48,1.34-1.44,1.34-3.14,0-5.75.18-7.82.53-2.08.35-3.87.8-5.38,1.34-1.5.54-2.99,1.14-4.46,1.78-.26.13-.48.19-.67.19h-.29c-.13,0-.19-.13-.19-.38s.06-.88.19-1.87c.13-.99.27-2.11.43-3.36.16-1.25.3-2.32.43-3.22-.32.83-1.01,1.95-2.06,3.36-1.06,1.41-2.59,2.67-4.61,3.79-2.02,1.12-4.66,1.68-7.92,1.68-2.18,0-4.5-.45-6.96-1.34-2.46-.9-4.79-2.34-6.96-4.32-2.18-1.98-3.95-4.59-5.33-7.82-1.38-3.23-2.06-7.18-2.06-11.86,0-5.95,1.07-10.77,3.22-14.45,2.14-3.68,4.93-6.38,8.35-8.11,3.42-1.73,7.06-2.59,10.9-2.59,3.13,0,6.01.48,8.64,1.44,2.62.96,4.93,2.34,6.91,4.13,1.66-.7,3.09-1.36,4.27-1.97,1.18-.61,2.19-1.23,3.02-1.87.32-.25.66-.51,1.01-.77.35-.25.75-.51,1.2-.77.19-.13.35-.19.48-.19h.1c.13,0,.19.06.19.19v31.3ZM453.98,235.97c-.19-1.28-.66-2.7-1.39-4.27-.74-1.57-1.84-2.91-3.31-4.03-1.47-1.12-3.46-1.68-5.95-1.68-3.07,0-5.47.75-7.2,2.26-1.73,1.5-2.93,3.44-3.6,5.81-.67,2.37-1.01,4.9-1.01,7.58,0,6.14,1.23,11.01,3.7,14.59,2.46,3.58,5.65,5.38,9.55,5.38,2.3,0,4.11-.5,5.42-1.49,1.31-.99,2.26-2,2.83-3.02.58-1.02.9-1.63.96-1.82v-19.3Z"/>
  <path class="cls-2" d="M516.67,261.89c.19.26.29.54.29.86,0,.38-.26.74-.77,1.06l-2.88,1.82c-1.73,1.09-3.81,2.1-6.24,3.02-2.43.93-4.87,1.39-7.3,1.39-1.92,0-3.73-.45-5.42-1.34-1.7-.9-3.06-2.42-4.08-4.56-1.02-2.14-1.54-5.1-1.54-8.88v-17.76c0-1.73-.1-3.44-.29-5.14-.19-1.7-.79-3.09-1.78-4.18-.99-1.09-2.64-1.63-4.94-1.63-.96,0-1.44-.48-1.44-1.44v-2.88c0-.96.48-1.44,1.44-1.44h7.01v-6.43c0-.83.29-1.41.86-1.73,1.41-.77,3.26-1.84,5.57-3.22,2.3-1.38,4.35-2.96,6.14-4.75.13-.13.29-.19.48-.19h.19c.13,0,.19.1.19.29v16.03h12.86c.96,0,1.44.48,1.44,1.44v4.13c0,.96-.48,1.44-1.44,1.44h-12.86v27.46c0,2.5.38,4.21,1.15,5.14.77.93,1.73,1.39,2.88,1.39,1.09,0,2.24-.3,3.46-.91,1.21-.61,2.33-1.23,3.36-1.87.45-.26.8-.38,1.06-.38.38,0,.73.26,1.06.77l1.54,2.5Z"/>
  <path class="cls-2" d="M561.79,261.89c.19.26.29.54.29.86,0,.38-.26.74-.77,1.06l-2.88,1.82c-1.73,1.09-3.81,2.1-6.24,3.02-2.43.93-4.86,1.39-7.3,1.39-1.92,0-3.73-.45-5.42-1.34-1.7-.9-3.06-2.42-4.08-4.56-1.02-2.14-1.54-5.1-1.54-8.88v-17.76c0-1.73-.1-3.44-.29-5.14-.19-1.7-.78-3.09-1.78-4.18-.99-1.09-2.64-1.63-4.94-1.63-.96,0-1.44-.48-1.44-1.44v-2.88c0-.96.48-1.44,1.44-1.44h7.01v-6.43c0-.83.29-1.41.86-1.73,1.41-.77,3.26-1.84,5.57-3.22,2.3-1.38,4.35-2.96,6.14-4.75.13-.13.29-.19.48-.19h.19c.13,0,.19.1.19.29v16.03h12.86c.96,0,1.44.48,1.44,1.44v4.13c0,.96-.48,1.44-1.44,1.44h-12.86v27.46c0,2.5.38,4.21,1.15,5.14.77.93,1.73,1.39,2.88,1.39,1.09,0,2.24-.3,3.46-.91,1.21-.61,2.34-1.23,3.36-1.87.45-.26.8-.38,1.06-.38.38,0,.74.26,1.06.77l1.54,2.5Z"/>
  <path class="cls-2" d="M583.87,251.62c1.09,2.69,2.83,5.09,5.23,7.2,2.4,2.11,5.46,3.17,9.17,3.17,2.05,0,4.19-.58,6.43-1.73,2.24-1.15,4.19-2.94,5.86-5.38.19-.32.45-.48.77-.48s.66.1,1.01.29c.35.19,1.3.74,2.83,1.63.25.19.38.45.38.77,0,.45-.19.99-.58,1.63-1.79,3.33-4.22,6.05-7.3,8.16-3.07,2.11-7.07,3.17-12,3.17-5.31,0-9.89-1.19-13.73-3.55-3.84-2.37-6.8-5.5-8.88-9.41-2.08-3.9-3.12-8.16-3.12-12.77s.66-8.21,1.97-11.38c1.31-3.17,3.05-5.73,5.23-7.68,2.17-1.95,4.62-3.39,7.34-4.32,2.72-.93,5.49-1.39,8.3-1.39,3.2,0,6.01.62,8.45,1.87,2.43,1.25,4.5,2.83,6.19,4.75,1.7,1.92,2.98,3.95,3.84,6.1.86,2.15,1.3,4.14,1.3,6,0,.51-.29.9-.86,1.15l-27.84,12.19ZM598.17,237.89c0-3.07-.74-5.6-2.21-7.58-1.47-1.98-3.33-2.98-5.57-2.98-2.62,0-4.7,1.04-6.24,3.12-1.54,2.08-2.3,4.69-2.3,7.82,0,.96.05,2.15.14,3.55.1,1.41.34,2.69.72,3.84l15.46-7.78Z"/>
  <path class="cls-2" d="M643.48,230.88c1.73-3.71,4.13-6.53,7.2-8.45,3.07-1.92,6.3-2.88,9.7-2.88,3.01,0,5.57.83,7.68,2.5,2.11,1.67,3.17,4.13,3.17,7.39,0,1.41-.13,2.66-.38,3.74-.26,1.09-.96,1.89-2.11,2.4l-9.02,3.65c-.38.13-.67.19-.86.19-.58,0-.86-.29-.86-.86,0-.19.06-.48.19-.86.38-.9.62-1.76.72-2.59.1-.83.14-1.57.14-2.21,0-1.73-.43-2.99-1.3-3.79-.86-.8-1.94-1.2-3.22-1.2-1.47,0-2.85.45-4.13,1.34-1.28.9-2.4,1.98-3.36,3.26-.96,1.28-1.67,2.53-2.11,3.74v17.66c0,2.56.58,4.72,1.73,6.48,1.15,1.76,2.91,2.64,5.28,2.64h.19c.96,0,1.44.48,1.44,1.44v2.88c0,.96-.48,1.44-1.44,1.44h-27.94c-.96,0-1.44-.48-1.44-1.44v-2.88c0-.96.48-1.44,1.44-1.44h.19c2.37,0,4.13-.88,5.28-2.64,1.15-1.76,1.73-3.92,1.73-6.48v-12.1c0-1.73-.11-3.39-.34-4.99-.22-1.6-.72-2.96-1.49-4.08-.77-1.12-2.05-1.78-3.84-1.97-.77-.06-1.15-.48-1.15-1.25v-3.26c0-.64.48-1.06,1.44-1.25,4.54-.7,8.53-1.82,11.95-3.36,3.42-1.54,5.74-2.75,6.96-3.65.19-.13.35-.19.48-.19h.19c.13,0,.19.06.19.19,0,.06-.08.54-.24,1.44-.16.9-.35,2.03-.58,3.41-.22,1.38-.48,2.78-.77,4.22-.29,1.44-.53,2.7-.72,3.79Z"/>
  <path class="cls-2" d="M692.35,251.62c1.09,2.69,2.83,5.09,5.23,7.2,2.4,2.11,5.46,3.17,9.17,3.17,2.05,0,4.19-.58,6.43-1.73,2.24-1.15,4.19-2.94,5.86-5.38.19-.32.45-.48.77-.48s.66.1,1.01.29c.35.19,1.3.74,2.83,1.63.26.19.38.45.38.77,0,.45-.19.99-.58,1.63-1.79,3.33-4.22,6.05-7.29,8.16-3.07,2.11-7.07,3.17-12,3.17-5.31,0-9.89-1.19-13.73-3.55s-6.8-5.5-8.88-9.41c-2.08-3.9-3.12-8.16-3.12-12.77s.66-8.21,1.97-11.38c1.31-3.17,3.06-5.73,5.23-7.68,2.17-1.95,4.62-3.39,7.34-4.32,2.72-.93,5.49-1.39,8.3-1.39,3.2,0,6.02.62,8.45,1.87s4.5,2.83,6.19,4.75c1.7,1.92,2.97,3.95,3.84,6.1.86,2.15,1.29,4.14,1.29,6,0,.51-.29.9-.86,1.15l-27.84,12.19ZM706.65,237.89c0-3.07-.74-5.6-2.21-7.58-1.47-1.98-3.33-2.98-5.57-2.98-2.62,0-4.7,1.04-6.24,3.12-1.54,2.08-2.3,4.69-2.3,7.82,0,.96.05,2.15.14,3.55.1,1.41.34,2.69.72,3.84l15.46-7.78Z"/>
  <path class="cls-2" d="M809.75,251.04c0,2.3.35,4.37,1.06,6.19.7,1.82,2.24,2.9,4.61,3.22.77.06,1.15.48,1.15,1.25v3.17c0,.9-.48,1.34-1.44,1.34-3.14,0-5.75.18-7.82.53-2.08.35-3.87.8-5.38,1.34-1.5.54-2.99,1.14-4.46,1.78-.26.13-.48.19-.67.19h-.29c-.13,0-.19-.13-.19-.38s.06-.88.19-1.87c.13-.99.27-2.11.43-3.36.16-1.25.3-2.32.43-3.22-.32.83-1.01,1.95-2.06,3.36-1.06,1.41-2.59,2.67-4.61,3.79-2.02,1.12-4.66,1.68-7.92,1.68-2.18,0-4.5-.45-6.96-1.34-2.46-.9-4.79-2.34-6.96-4.32-2.18-1.98-3.95-4.59-5.33-7.82-1.38-3.23-2.06-7.18-2.06-11.86,0-5.95,1.07-10.77,3.22-14.45,2.14-3.68,4.93-6.38,8.35-8.11,3.42-1.73,7.06-2.59,10.9-2.59,3.13,0,6.02.48,8.64,1.44,2.62.96,4.93,2.34,6.91,4.13,1.66-.7,3.09-1.36,4.27-1.97,1.18-.61,2.19-1.23,3.02-1.87.32-.25.66-.51,1.01-.77.35-.25.75-.51,1.2-.77.19-.13.35-.19.48-.19h.1c.13,0,.19.06.19.19v31.3ZM796.31,235.97c-.19-1.28-.66-2.7-1.39-4.27-.74-1.57-1.84-2.91-3.31-4.03-1.47-1.12-3.46-1.68-5.95-1.68-3.07,0-5.47.75-7.2,2.26-1.73,1.5-2.93,3.44-3.6,5.81-.67,2.37-1.01,4.9-1.01,7.58,0,6.14,1.23,11.01,3.7,14.59,2.46,3.58,5.65,5.38,9.55,5.38,2.3,0,4.11-.5,5.42-1.49,1.31-.99,2.26-2,2.83-3.02.58-1.02.9-1.63.96-1.82v-19.3Z"/>
  <path class="cls-2" d="M853.24,263.04c.96,0,1.44.48,1.44,1.44v2.88c0,.96-.54,1.44-1.63,1.44h-27.17c-1.09,0-1.63-.48-1.63-1.44v-2.88c0-.96.48-1.44,1.44-1.44h.19c2.37,0,4.11-.88,5.23-2.64,1.12-1.76,1.68-3.92,1.68-6.48v-10.18c0-1.47-.11-2.94-.34-4.42-.23-1.47-.72-2.75-1.49-3.84-.77-1.09-2.05-1.73-3.84-1.92-.77-.06-1.15-.48-1.15-1.25v-3.26c0-.38.13-.66.38-.82.25-.16.61-.3,1.06-.43,5.05-1.66,8.94-3.38,11.66-5.14,2.72-1.76,4.72-3.31,6-4.66.13-.13.25-.19.38-.19h.29c.13,0,.19.06.19.19v35.81c0,2.56.58,4.74,1.73,6.53,1.15,1.79,2.91,2.69,5.28,2.69h.29ZM839.51,197.76c1.66,0,3.29.8,4.9,2.4,1.6,1.6,2.4,3.2,2.4,4.8s-.8,3.2-2.4,4.8c-1.6,1.6-3.23,2.4-4.9,2.4-1.54,0-3.14-.8-4.8-2.4-1.6-1.54-2.4-3.14-2.4-4.8s.8-3.2,2.4-4.8c1.6-1.6,3.2-2.4,4.8-2.4Z"/>
  <path class="cls-2" d="M897.02,217.92c0-1.73-.11-3.39-.34-4.99-.22-1.6-.72-2.96-1.49-4.08-.77-1.12-2.05-1.78-3.84-1.97-.77-.06-1.15-.48-1.15-1.25v-3.26c0-.38.11-.66.34-.82.22-.16.56-.3,1.01-.43,5.12-1.66,9.09-3.33,11.9-4.99,2.82-1.66,4.86-2.98,6.14-3.94.19-.13.35-.19.48-.19h.1c.13,0,.19.06.19.19v32.06c.9-1.28,2.38-2.38,4.46-3.31,2.08-.93,4.46-1.39,7.15-1.39s5.29.45,8.02,1.34c2.72.9,5.23,2.34,7.54,4.32,2.3,1.98,4.18,4.59,5.62,7.82,1.44,3.23,2.16,7.19,2.16,11.86s-1.01,9.2-3.02,13.01c-2.02,3.81-4.91,6.78-8.69,8.93-3.78,2.14-8.26,3.22-13.44,3.22-4.22,0-8.1-.72-11.62-2.16-3.52-1.44-6.32-3.78-8.4-7.01-2.08-3.23-3.12-7.47-3.12-12.72v-30.24ZM910.36,250.18c0,3.14.51,5.7,1.54,7.68,1.02,1.98,2.37,3.46,4.03,4.42,1.66.96,3.39,1.44,5.18,1.44,3.14,0,5.55-.75,7.25-2.26,1.7-1.5,2.88-3.47,3.55-5.9.67-2.43,1.01-4.96,1.01-7.58,0-6.14-1.3-11.01-3.89-14.59-2.59-3.58-6.35-5.38-11.28-5.38-2.69,0-5.15.83-7.39,2.5v19.68Z"/>
  <path class="cls-2" d="M974.2,230.88c1.73-3.71,4.13-6.53,7.2-8.45,3.07-1.92,6.3-2.88,9.7-2.88,3.01,0,5.57.83,7.68,2.5,2.11,1.67,3.17,4.13,3.17,7.39,0,1.41-.13,2.66-.38,3.74-.26,1.09-.96,1.89-2.11,2.4l-9.02,3.65c-.38.13-.67.19-.86.19-.58,0-.86-.29-.86-.86,0-.19.06-.48.19-.86.38-.9.62-1.76.72-2.59.1-.83.14-1.57.14-2.21,0-1.73-.43-2.99-1.3-3.79-.86-.8-1.94-1.2-3.22-1.2-1.47,0-2.85.45-4.13,1.34-1.28.9-2.4,1.98-3.36,3.26-.96,1.28-1.66,2.53-2.11,3.74v17.66c0,2.56.58,4.72,1.73,6.48,1.15,1.76,2.91,2.64,5.28,2.64h.19c.96,0,1.44.48,1.44,1.44v2.88c0,.96-.48,1.44-1.44,1.44h-27.94c-.96,0-1.44-.48-1.44-1.44v-2.88c0-.96.48-1.44,1.44-1.44h.19c2.37,0,4.13-.88,5.28-2.64,1.15-1.76,1.73-3.92,1.73-6.48v-12.1c0-1.73-.11-3.39-.34-4.99-.23-1.6-.72-2.96-1.49-4.08-.77-1.12-2.05-1.78-3.84-1.97-.77-.06-1.15-.48-1.15-1.25v-3.26c0-.64.48-1.06,1.44-1.25,4.54-.7,8.53-1.82,11.95-3.36,3.42-1.54,5.74-2.75,6.96-3.65.19-.13.35-.19.48-.19h.19c.13,0,.19.06.19.19,0,.06-.08.54-.24,1.44-.16.9-.35,2.03-.58,3.41-.22,1.38-.48,2.78-.77,4.22-.29,1.44-.53,2.7-.72,3.79Z"/>
  <path class="cls-2" d="M1057.43,251.04c0,2.3.35,4.37,1.06,6.19.7,1.82,2.24,2.9,4.61,3.22.77.06,1.15.48,1.15,1.25v3.17c0,.9-.48,1.34-1.44,1.34-3.14,0-5.75.18-7.82.53-2.08.35-3.87.8-5.38,1.34-1.5.54-2.99,1.14-4.46,1.78-.26.13-.48.19-.67.19h-.29c-.13,0-.19-.13-.19-.38s.06-.88.19-1.87c.13-.99.27-2.11.43-3.36.16-1.25.3-2.32.43-3.22-.32.83-1.01,1.95-2.06,3.36-1.06,1.41-2.59,2.67-4.61,3.79-2.02,1.12-4.66,1.68-7.92,1.68-2.18,0-4.5-.45-6.96-1.34-2.46-.9-4.79-2.34-6.96-4.32-2.18-1.98-3.95-4.59-5.33-7.82-1.38-3.23-2.06-7.18-2.06-11.86,0-5.95,1.07-10.77,3.22-14.45,2.14-3.68,4.93-6.38,8.35-8.11,3.42-1.73,7.06-2.59,10.9-2.59,3.13,0,6.02.48,8.64,1.44,2.62.96,4.93,2.34,6.91,4.13,1.66-.7,3.09-1.36,4.27-1.97,1.18-.61,2.19-1.23,3.02-1.87.32-.25.66-.51,1.01-.77.35-.25.75-.51,1.2-.77.19-.13.35-.19.48-.19h.1c.13,0,.19.06.19.19v31.3ZM1043.99,235.97c-.19-1.28-.66-2.7-1.39-4.27-.74-1.57-1.84-2.91-3.31-4.03-1.47-1.12-3.46-1.68-5.95-1.68-3.07,0-5.47.75-7.2,2.26-1.73,1.5-2.93,3.44-3.6,5.81-.67,2.37-1.01,4.9-1.01,7.58,0,6.14,1.23,11.01,3.7,14.59,2.46,3.58,5.65,5.38,9.55,5.38,2.3,0,4.11-.5,5.42-1.49,1.31-.99,2.26-2,2.83-3.02.58-1.02.9-1.63.96-1.82v-19.3Z"/>
  <path class="cls-2" d="M1127.22,237.5v16.42c0,3.52.56,5.92,1.68,7.2,1.12,1.28,2.61,1.92,4.46,1.92h.77c.96,0,1.44.48,1.44,1.44v2.88c0,.96-.48,1.44-1.44,1.44h-25.54c-.96,0-1.44-.48-1.44-1.44v-2.88c0-.96.48-1.44,1.44-1.44h.67c1.34,0,2.43-.64,3.26-1.92.83-1.28,1.25-3.68,1.25-7.2v-16.42c0-3.07-.48-5.42-1.44-7.06-.96-1.63-2.78-2.45-5.47-2.45-1.6,0-3.2.4-4.8,1.2-1.6.8-3.01,1.82-4.22,3.07-1.22,1.25-2.11,2.58-2.69,3.98v17.66c0,2.56.56,4.72,1.68,6.48,1.12,1.76,2.61,2.64,4.46,2.64h.19c.96,0,1.44.48,1.44,1.44v2.88c0,.96-.48,1.44-1.44,1.44h-26.98c-.96,0-1.44-.48-1.44-1.44v-2.88c0-.96.48-1.44,1.44-1.44h.19c2.37,0,4.13-.88,5.28-2.64,1.15-1.76,1.73-3.92,1.73-6.48v-12.1c0-1.73-.11-3.39-.34-4.99-.23-1.6-.74-2.96-1.54-4.08-.8-1.12-2.1-1.78-3.89-1.97-.71-.06-1.06-.48-1.06-1.25v-3.26c0-.64.45-1.06,1.34-1.25,4.61-.7,8.56-1.79,11.86-3.26,3.3-1.47,5.58-2.66,6.86-3.55.32-.25.58-.38.77-.38h.1c.13,0,.19.06.19.19s-.03.38-.1.77l-1.63,11.81c.9-1.47,2.08-3.06,3.55-4.75,1.47-1.7,3.3-3.17,5.47-4.42s4.7-1.87,7.58-1.87c3.46,0,6.27.51,8.45,1.54,2.17,1.02,3.82,2.4,4.94,4.13,1.12,1.73,1.89,3.65,2.3,5.76.42,2.11.62,4.29.62,6.53Z"/>
  <path class="cls-2" d="M1189.24,251.04c0,2.3.35,4.37,1.06,6.19.7,1.82,2.24,2.9,4.61,3.22.77.06,1.15.48,1.15,1.25v3.17c0,.9-.48,1.34-1.44,1.34-3.14,0-5.75.18-7.82.53-2.08.35-3.87.8-5.38,1.34-1.5.54-2.99,1.14-4.46,1.78-.26.13-.48.19-.67.19h-.19c-.19,0-.29-.1-.29-.29.13-1.47.27-2.91.43-4.32.16-1.41.37-2.82.62-4.22-.32.83-1.01,1.95-2.06,3.36-1.06,1.41-2.59,2.67-4.61,3.79-2.02,1.12-4.66,1.68-7.92,1.68-2.18,0-4.5-.45-6.96-1.34-2.46-.9-4.79-2.34-6.96-4.32-2.18-1.98-3.95-4.59-5.33-7.82-1.38-3.23-2.06-7.18-2.06-11.86,0-5.95,1.07-10.77,3.22-14.45,2.14-3.68,4.93-6.38,8.35-8.11,3.42-1.73,7.06-2.59,10.9-2.59,4.86,0,8.99,1.5,12.38,4.51v-6.14c0-1.73-.11-3.39-.34-4.99-.22-1.6-.72-2.96-1.49-4.08-.77-1.12-2.05-1.78-3.84-1.97-.77-.06-1.15-.48-1.15-1.25v-3.26c0-.38.13-.66.38-.82.25-.16.61-.3,1.06-.43,5.06-1.66,9.01-3.33,11.86-4.99,2.85-1.66,4.91-2.98,6.19-3.94.19-.13.35-.19.48-.19h.1c.13,0,.19.06.19.19v58.85ZM1175.8,237.7c0-3.01-.98-5.57-2.93-7.68-1.95-2.11-4.53-3.17-7.73-3.17s-5.47.67-7.2,2.02c-1.73,1.34-2.93,3.14-3.6,5.38-.67,2.24-1.01,4.7-1.01,7.39,0,6.14,1.23,11.01,3.7,14.59,2.46,3.58,5.65,5.38,9.55,5.38,1.73,0,3.23-.43,4.51-1.3,1.28-.86,2.32-1.93,3.12-3.22.8-1.28,1.33-2.5,1.58-3.65v-15.74Z"/>
  <path class="cls-2" d="M1213.62,253.82c1.21-1.21,2.43-1.82,3.65-1.82,1.28,0,2.53.61,3.74,1.82l3.74,3.74c1.21,1.22,1.82,2.46,1.82,3.74s-.61,2.53-1.82,3.74l-3.74,3.74c-1.22,1.22-2.46,1.82-3.74,1.82s-2.43-.61-3.65-1.82l-3.84-3.74c-1.15-1.15-1.73-2.4-1.73-3.74s.58-2.59,1.73-3.74l3.84-3.74Z"/>
  <path class="cls-1" d="M396.82,395.65c2.61,0,4.86.53,6.75,1.6,1.89,1.07,3.46,2.63,4.72,4.7l-3.01,2.34c-1.11-1.92-2.36-3.28-3.76-4.07-1.39-.79-3.08-1.19-5.06-1.19-1.59,0-2.9.22-3.94.67-1.04.45-1.79,1.04-2.27,1.78-.48.74-.72,1.57-.72,2.5,0,1.05.33,1.97.99,2.77.66.8,1.98,1.42,3.96,1.87l6.43,1.44c2.85.63,4.84,1.58,5.96,2.86,1.12,1.28,1.69,2.86,1.69,4.75,0,1.68-.47,3.17-1.42,4.48-.94,1.3-2.27,2.32-3.98,3.04-1.71.72-3.72,1.08-6.03,1.08-2.16,0-4.06-.29-5.69-.88s-3.04-1.37-4.21-2.36-2.13-2.1-2.88-3.33l3.15-2.56c.57,1.14,1.31,2.15,2.21,3.02.9.87,1.99,1.55,3.26,2.02,1.27.48,2.74.72,4.39.72,1.53,0,2.86-.19,3.98-.56,1.12-.37,1.99-.93,2.59-1.67.6-.73.9-1.63.9-2.68,0-.96-.31-1.82-.95-2.59-.63-.77-1.82-1.34-3.55-1.73l-6.97-1.58c-1.83-.42-3.31-1-4.43-1.73-1.12-.73-1.94-1.6-2.43-2.61-.49-1-.74-2.09-.74-3.26,0-1.59.44-3.05,1.33-4.39.88-1.33,2.16-2.41,3.82-3.22s3.64-1.21,5.92-1.21Z"/>
  <path class="cls-1" d="M419.5,425.8v-29.7h10.58c3.51,0,6.07.74,7.69,2.2,1.62,1.47,2.43,3.47,2.43,5.99,0,1.5-.44,2.86-1.31,4.07s-2.1,1.99-3.69,2.32v.05c1.77.33,3.17,1.13,4.21,2.41,1.04,1.28,1.55,2.72,1.55,4.34,0,2.52-.95,4.54-2.83,6.05-1.89,1.52-4.59,2.27-8.1,2.27h-10.53ZM423.1,409.15h7.02c4.2,0,6.3-1.62,6.3-4.86s-2.1-4.81-6.3-4.81h-7.02v9.68ZM423.1,422.43h7.79c2.13,0,3.71-.43,4.75-1.3,1.03-.87,1.55-2.08,1.55-3.65s-.52-2.81-1.55-3.67c-1.04-.85-2.62-1.28-4.75-1.28h-7.79v9.9Z"/>
  <path class="cls-1" d="M455.86,396.1v29.7h-3.6v-29.7h3.6Z"/>
  <path class="cls-1" d="M480.2,396.1c3.03,0,5.46.78,7.29,2.34,1.83,1.56,2.75,3.68,2.75,6.35s-.92,4.75-2.77,6.23c-1.84,1.48-4.28,2.23-7.31,2.23l-.32.22h-7.29v12.33h-3.6v-29.7h11.25ZM480.16,410.09c2.13,0,3.71-.44,4.75-1.33,1.04-.88,1.55-2.21,1.55-3.98s-.52-3.1-1.55-3.98c-1.04-.88-2.62-1.33-4.75-1.33h-7.61v10.62h7.61ZM482.22,410.81l9.81,14.99h-4.28l-8.55-13,3.01-1.98Z"/>
  <path class="cls-1" d="M525.92,418.2c-.63,1.68-1.53,3.13-2.7,4.34-1.17,1.21-2.54,2.14-4.12,2.77-1.58.63-3.29.95-5.15.95-2.82,0-5.26-.62-7.31-1.87-2.06-1.24-3.65-3.01-4.77-5.29-1.12-2.28-1.69-4.99-1.69-8.15s.56-5.86,1.69-8.15c1.12-2.28,2.71-4.04,4.77-5.29,2.05-1.24,4.46-1.87,7.22-1.87,1.92,0,3.63.26,5.13.79,1.5.53,2.78,1.3,3.85,2.34,1.07,1.03,1.91,2.3,2.54,3.8l-3.55,1.67c-.66-1.71-1.61-3.01-2.86-3.89-1.25-.88-2.86-1.33-4.84-1.33s-3.78.47-5.31,1.42c-1.53.94-2.72,2.3-3.58,4.07-.85,1.77-1.28,3.91-1.28,6.43s.41,4.63,1.21,6.41c.81,1.79,1.96,3.15,3.46,4.09s3.27,1.42,5.31,1.42,3.7-.5,5.17-1.51c1.47-1,2.53-2.51,3.2-4.52l3.6,1.35Z"/>
  <path class="cls-1" d="M539.82,396.1v29.7h-3.6v-29.7h3.6Z"/>
  <path class="cls-1" d="M576.59,425.8h-3.83l-3.15-8.24h-13.46l-3.15,8.24h-3.78l11.57-29.7h4.27l11.52,29.7ZM557.46,414.19h10.84l-5.44-14.62-5.4,14.62Z"/>
  <path class="cls-1" d="M606.51,396.1v29.7h-3.6v-29.7h3.6Z"/>
  <path class="cls-1" d="M667.04,396.1v29.7h-3.42v-18.68l.41-7.83h-.05l-9.76,26.5h-3.06l-9.77-26.5h-.04l.41,7.83v18.68h-3.42v-29.7h5.54l6.52,18.04,2.25,7.43h.09l2.3-7.38,6.48-18.09h5.54Z"/>
  <path class="cls-1" d="M683.73,396.1v29.7h-3.6v-29.7h3.6Z"/>
  <path class="cls-1" d="M696.83,425.8v-29.7h20.83v3.38h-17.24v9.58h13.41v3.38h-13.41v9.99h17.91v3.38h-21.51Z"/>
  <path class="cls-1" d="M732.51,396.1v29.7h-3.6v-29.7h3.6Z"/>
  <path class="cls-1" d="M776.38,396.1c2.43,0,4.5.39,6.21,1.17,1.71.78,3.01,1.91,3.92,3.38.9,1.47,1.35,3.26,1.35,5.35s-.45,3.89-1.35,5.35c-.9,1.47-2.21,2.6-3.92,3.38-1.71.78-3.78,1.17-6.21,1.17h-5.89v9.9h-7.74v-29.7h13.63ZM775.17,410.09c1.62,0,2.84-.34,3.67-1.01s1.24-1.7,1.24-3.08-.41-2.41-1.24-3.08-2.05-1.01-3.67-1.01h-4.68v8.19h4.68Z"/>
  <path class="cls-1" d="M810.36,396.1c3.54,0,6.29.83,8.26,2.5,1.96,1.66,2.95,3.88,2.95,6.64,0,3.03-.98,5.34-2.92,6.93-1.95,1.59-4.7,2.39-8.24,2.39l-.72.41h-5.9v10.84h-7.6v-29.7h14.17ZM809.28,409.47c1.5,0,2.62-.3,3.38-.9.75-.6,1.12-1.56,1.12-2.88s-.38-2.23-1.12-2.83c-.75-.6-1.88-.9-3.38-.9h-5.49v7.52h5.49ZM813.82,411.08l9.5,14.72h-8.55l-7.61-13,6.66-1.71Z"/>
  <path class="cls-1" d="M843.57,395.65c3,0,5.59.61,7.76,1.82,2.17,1.21,3.85,2.96,5.02,5.24,1.17,2.28,1.75,5.03,1.75,8.23s-.58,5.96-1.75,8.24c-1.17,2.28-2.84,4.03-5.02,5.24-2.17,1.22-4.76,1.82-7.76,1.82s-5.6-.61-7.79-1.82c-2.19-1.21-3.87-2.96-5.04-5.24-1.17-2.28-1.75-5.02-1.75-8.24s.58-5.95,1.75-8.23c1.17-2.28,2.85-4.03,5.04-5.24,2.19-1.22,4.78-1.82,7.79-1.82ZM843.57,401.73c-1.44,0-2.66.35-3.65,1.03-.99.69-1.74,1.72-2.25,3.08-.51,1.37-.76,3.07-.76,5.11s.25,3.71.76,5.09c.51,1.38,1.26,2.42,2.25,3.1.99.69,2.21,1.03,3.65,1.03s2.65-.34,3.62-1.03c.97-.69,1.72-1.72,2.23-3.1.51-1.38.76-3.07.76-5.09s-.25-3.74-.76-5.11c-.51-1.36-1.25-2.39-2.23-3.08-.98-.69-2.18-1.03-3.62-1.03Z"/>
  <path class="cls-1" d="M879.07,426.25c-2.64,0-4.99-.58-7.04-1.75-2.05-1.17-3.65-2.89-4.79-5.18-1.14-2.28-1.71-5.05-1.71-8.32s.6-5.95,1.8-8.24c1.2-2.28,2.92-4.03,5.15-5.26,2.23-1.23,4.87-1.84,7.9-1.84,3.36,0,6.08.61,8.14,1.82,2.07,1.21,3.67,3.14,4.82,5.78l-7.16,2.83c-.39-1.53-1.08-2.64-2.07-3.33-.99-.69-2.22-1.03-3.69-1.03s-2.73.35-3.78,1.06c-1.05.71-1.84,1.74-2.38,3.1-.54,1.37-.81,3.05-.81,5.06s.28,3.86.83,5.27c.55,1.41,1.38,2.45,2.48,3.13,1.09.68,2.45,1.01,4.07,1.01.87,0,1.67-.1,2.38-.31.72-.21,1.35-.52,1.89-.92.54-.4.96-.91,1.26-1.53.3-.61.45-1.34.45-2.18v-.45h-6.79v-5.18h13.37v16.02h-5.26l-.58-6.98,1.26,1.08c-.63,2.04-1.76,3.61-3.4,4.7-1.64,1.1-3.74,1.64-6.32,1.64Z"/>
  <path class="cls-1" d="M902.7,425.8v-29.7h23.13v5.98h-15.39v6.03h12.24v5.62h-12.24v6.07h15.97v5.99h-23.71Z"/>
  <path class="cls-1" d="M959.44,396.1v5.98h-9.67v23.72h-7.74v-23.72h-9.72v-5.98h27.13Z"/>
  <path class="cls-1" d="M992.2,396.1v5.98h-9.67v23.72h-7.74v-23.72h-9.72v-5.98h27.13Z"/>
  <path class="cls-1" d="M1007.73,396.1v29.7h-7.74v-29.7h7.74Z"/>
</svg>