<?xml version="1.0" encoding="UTF-8"?>
<svg id="Livello_1" data-name="Livello 1" xmlns="http://www.w3.org/2000/svg" viewBox="0 0 1403.5 148.25">
  <defs>
    <style>
      .cls-1 {
        fill: #fff;
      }
    </style>
  </defs>
  <path class="cls-1" d="M23.9,61.92c0,2.56.48,4.72,1.44,6.48.96,1.76,2.62,2.64,4.99,2.64h.58c.96,0,1.44.48,1.44,1.44v2.88c0,.96-.48,1.44-1.44,1.44H1.44c-.96,0-1.44-.48-1.44-1.44v-2.88c0-.96.48-1.44,1.44-1.44h.67c2.43,0,4.11-.88,5.04-2.64.93-1.76,1.39-3.92,1.39-6.48V19.68c0-2.62-.5-4.8-1.49-6.53s-2.8-2.59-5.42-2.59h-.1c-.96,0-1.44-.48-1.44-1.44v-2.88c0-.96.48-1.44,1.44-1.44h35.23c5.18,0,9.7,1.01,13.54,3.02,3.84,2.02,6.82,4.64,8.93,7.87,2.11,3.23,3.17,6.67,3.17,10.32,0,4.1-.99,7.79-2.97,11.09-1.99,3.3-5.25,5.9-9.79,7.82-4.54,1.92-10.72,2.88-18.53,2.88h-7.2v14.11ZM29.47,40.99c6.4,0,11.09-1.17,14.06-3.5,2.98-2.34,4.46-6.16,4.46-11.47,0-4.42-1.38-8.1-4.13-11.04-2.75-2.94-6.53-4.42-11.33-4.42h-9.22v30.43h6.14Z"/>
  <path class="cls-1" d="M89.86,38.88c1.73-3.71,4.13-6.53,7.2-8.45,3.07-1.92,6.3-2.88,9.7-2.88,3.01,0,5.57.83,7.68,2.5,2.11,1.67,3.17,4.13,3.17,7.39,0,1.41-.13,2.66-.38,3.74-.26,1.09-.96,1.89-2.11,2.4l-9.02,3.65c-.38.13-.67.19-.86.19-.58,0-.86-.29-.86-.86,0-.19.06-.48.19-.86.38-.9.62-1.76.72-2.59.1-.83.14-1.57.14-2.21,0-1.73-.43-2.99-1.29-3.79-.87-.8-1.94-1.2-3.22-1.2-1.47,0-2.85.45-4.13,1.34-1.28.9-2.4,1.98-3.36,3.26-.96,1.28-1.66,2.53-2.11,3.74v17.66c0,2.56.58,4.72,1.73,6.48,1.15,1.76,2.91,2.64,5.28,2.64h.19c.96,0,1.44.48,1.44,1.44v2.88c0,.96-.48,1.44-1.44,1.44h-27.94c-.96,0-1.44-.48-1.44-1.44v-2.88c0-.96.48-1.44,1.44-1.44h.19c2.37,0,4.13-.88,5.28-2.64,1.15-1.76,1.73-3.92,1.73-6.48v-12.1c0-1.73-.11-3.39-.34-4.99-.23-1.6-.72-2.96-1.49-4.08-.77-1.12-2.05-1.78-3.84-1.97-.77-.06-1.15-.48-1.15-1.25v-3.26c0-.64.48-1.06,1.44-1.25,4.54-.7,8.53-1.82,11.95-3.36,3.42-1.54,5.74-2.75,6.96-3.65.19-.13.35-.19.48-.19h.19c.13,0,.19.06.19.19,0,.06-.08.54-.24,1.44-.16.9-.35,2.03-.58,3.41-.23,1.38-.48,2.78-.77,4.22-.29,1.44-.53,2.7-.72,3.79Z"/>
  <path class="cls-1" d="M148.9,27.55c3.65,0,7.02.72,10.13,2.16,3.1,1.44,5.77,3.39,8.02,5.86,2.24,2.46,3.98,5.22,5.23,8.26,1.25,3.04,1.87,6.19,1.87,9.46,0,4.74-1.12,8.98-3.36,12.72-2.24,3.74-5.18,6.69-8.83,8.83s-7.62,3.22-11.9,3.22c-3.65,0-7.01-.71-10.08-2.11-3.07-1.41-5.74-3.31-8.02-5.71-2.27-2.4-4.03-5.15-5.28-8.26-1.25-3.1-1.87-6.35-1.87-9.74,0-4.67,1.09-8.86,3.26-12.58,2.18-3.71,5.09-6.66,8.74-8.83,3.65-2.18,7.68-3.26,12.1-3.26ZM153.02,70.27c1.21,0,2.56-.32,4.03-.96,1.47-.64,2.77-1.76,3.89-3.36,1.12-1.6,1.68-3.81,1.68-6.62,0-2.24-.43-4.72-1.3-7.44-.86-2.72-2.05-5.34-3.55-7.87-1.5-2.53-3.26-4.61-5.28-6.24-2.02-1.63-4.21-2.45-6.58-2.45-2.62,0-4.9.98-6.82,2.93-1.92,1.95-2.88,4.62-2.88,8.02,0,2.18.43,4.64,1.3,7.39.86,2.75,2.05,5.39,3.55,7.92,1.5,2.53,3.28,4.61,5.33,6.24,2.05,1.63,4.26,2.45,6.62,2.45Z"/>
  <path class="cls-1" d="M230.4,25.92c.25-.06.51-.1.77-.1.32,0,.48.48.48,1.44,0,3.14-.59,5.57-1.78,7.3-1.18,1.73-2.86,2.59-5.04,2.59,1.54,2.56,2.3,5.5,2.3,8.83s-.85,6.48-2.54,9.26c-1.7,2.78-4.11,4.99-7.25,6.62-3.14,1.63-6.91,2.45-11.33,2.45s-8.35-.9-11.62-2.69c-.83.64-1.25,1.44-1.25,2.4s.35,1.78,1.05,2.45c.7.67,2.06,1.22,4.08,1.63,2.02.42,4.98.72,8.88.91,2.82.13,5.55.42,8.21.86,2.66.45,5.04,1.17,7.15,2.16,2.11.99,3.79,2.39,5.04,4.18s1.87,4.13,1.87,7.01c0,2.62-.69,4.85-2.06,6.67-1.38,1.82-3.23,3.28-5.57,4.37-2.34,1.09-4.91,1.89-7.73,2.4-2.82.51-5.66.77-8.54.77-3.9,0-7.5-.42-10.8-1.25-3.3-.83-5.95-2.11-7.97-3.84s-3.02-3.94-3.02-6.62c0-2.11.56-3.92,1.68-5.42,1.12-1.5,2.48-2.7,4.08-3.6-3.26-2.05-4.9-4.96-4.9-8.74,0-2.18.56-4.03,1.68-5.57,1.12-1.54,2.54-2.66,4.27-3.36-3.78-3.46-5.66-7.81-5.66-13.06,0-3.39.85-6.48,2.54-9.26,1.7-2.78,4.13-5.01,7.3-6.67,3.17-1.66,6.93-2.5,11.28-2.5,2.69,0,5.14.34,7.34,1.01,2.21.67,4.18,1.58,5.9,2.74.32.19.59.3.82.34.22.03.4.05.53.05.51,0,.93-.18,1.25-.53.32-.35.48-1.01.48-1.97v-.29c0-.83.35-1.31,1.06-1.44l7.01-1.54ZM205.63,90.82c4.74,0,8.37-.45,10.9-1.34,2.53-.9,3.79-2.08,3.79-3.55,0-2.05-1.34-3.41-4.03-4.08-2.69-.67-6.46-1.14-11.33-1.39-3.46-.19-6.43-.58-8.93-1.15-1.79,1.21-2.69,2.91-2.69,5.09,0,.96.35,1.94,1.06,2.93.7.99,1.95,1.82,3.74,2.5,1.79.67,4.29,1.01,7.49,1.01ZM206.01,33.31c-2.43,0-4.34.67-5.71,2.02-1.38,1.34-2.34,2.99-2.88,4.94-.54,1.95-.82,3.86-.82,5.71s.27,3.76.82,5.71c.54,1.95,1.5,3.6,2.88,4.94,1.38,1.34,3.28,2.02,5.71,2.02s4.27-.67,5.52-2.02c1.25-1.34,2.1-2.99,2.54-4.94.45-1.95.67-3.85.67-5.71s-.22-3.76-.67-5.71c-.45-1.95-1.3-3.6-2.54-4.94-1.25-1.34-3.09-2.02-5.52-2.02Z"/>
  <path class="cls-1" d="M252.57,59.62c1.09,2.69,2.83,5.09,5.23,7.2,2.4,2.11,5.46,3.17,9.17,3.17,2.05,0,4.19-.58,6.43-1.73,2.24-1.15,4.19-2.94,5.86-5.38.19-.32.45-.48.77-.48s.66.1,1.01.29c.35.19,1.3.74,2.83,1.63.26.19.38.45.38.77,0,.45-.19.99-.58,1.63-1.79,3.33-4.22,6.05-7.3,8.16-3.07,2.11-7.07,3.17-12,3.17-5.31,0-9.89-1.19-13.73-3.55-3.84-2.37-6.8-5.5-8.88-9.41-2.08-3.9-3.12-8.16-3.12-12.77s.66-8.21,1.97-11.38c1.31-3.17,3.06-5.73,5.23-7.68,2.17-1.95,4.62-3.39,7.34-4.32,2.72-.93,5.49-1.39,8.3-1.39,3.2,0,6.01.62,8.45,1.87,2.43,1.25,4.5,2.83,6.19,4.75,1.69,1.92,2.98,3.95,3.84,6.1.86,2.15,1.3,4.14,1.3,6,0,.51-.29.9-.86,1.15l-27.84,12.19ZM266.88,45.89c0-3.07-.74-5.6-2.21-7.58-1.47-1.98-3.33-2.98-5.57-2.98-2.62,0-4.7,1.04-6.24,3.12-1.54,2.08-2.3,4.69-2.3,7.82,0,.96.05,2.15.14,3.55.1,1.41.34,2.69.72,3.84l15.46-7.78Z"/>
  <path class="cls-1" d="M328.13,69.89c.19.26.29.54.29.86,0,.38-.26.74-.77,1.06l-2.88,1.82c-1.73,1.09-3.81,2.1-6.24,3.02-2.43.93-4.87,1.39-7.3,1.39-1.92,0-3.73-.45-5.42-1.34s-3.06-2.42-4.08-4.56c-1.02-2.14-1.54-5.1-1.54-8.88v-17.76c0-1.73-.1-3.44-.29-5.14-.19-1.7-.78-3.09-1.78-4.18-.99-1.09-2.64-1.63-4.94-1.63-.96,0-1.44-.48-1.44-1.44v-2.88c0-.96.48-1.44,1.44-1.44h7.01v-6.43c0-.83.29-1.41.86-1.73,1.41-.77,3.26-1.84,5.57-3.22,2.3-1.38,4.35-2.96,6.14-4.75.13-.13.29-.19.48-.19h.19c.13,0,.19.1.19.29v16.03h12.86c.96,0,1.44.48,1.44,1.44v4.13c0,.96-.48,1.44-1.44,1.44h-12.86v27.46c0,2.5.38,4.21,1.15,5.14.77.93,1.73,1.39,2.88,1.39,1.09,0,2.24-.3,3.46-.91,1.21-.61,2.34-1.23,3.36-1.87.45-.26.8-.38,1.06-.38.38,0,.73.26,1.06.77l1.54,2.5Z"/>
  <path class="cls-1" d="M373.24,69.89c.19.26.29.54.29.86,0,.38-.26.74-.77,1.06l-2.88,1.82c-1.73,1.09-3.81,2.1-6.24,3.02-2.43.93-4.86,1.39-7.3,1.39-1.92,0-3.73-.45-5.42-1.34-1.7-.9-3.06-2.42-4.08-4.56-1.03-2.14-1.54-5.1-1.54-8.88v-17.76c0-1.73-.1-3.44-.29-5.14-.19-1.7-.79-3.09-1.78-4.18-.99-1.09-2.64-1.63-4.94-1.63-.96,0-1.44-.48-1.44-1.44v-2.88c0-.96.48-1.44,1.44-1.44h7.01v-6.43c0-.83.29-1.41.87-1.73,1.41-.77,3.26-1.84,5.57-3.22,2.3-1.38,4.35-2.96,6.14-4.75.13-.13.29-.19.48-.19h.19c.13,0,.19.1.19.29v16.03h12.86c.96,0,1.44.48,1.44,1.44v4.13c0,.96-.48,1.44-1.44,1.44h-12.86v27.46c0,2.5.38,4.21,1.15,5.14.77.93,1.73,1.39,2.88,1.39,1.09,0,2.24-.3,3.46-.91,1.21-.61,2.33-1.23,3.36-1.87.45-.26.8-.38,1.06-.38.38,0,.74.26,1.06.77l1.54,2.5Z"/>
  <path class="cls-1" d="M405.5,27.55c3.65,0,7.02.72,10.13,2.16,3.1,1.44,5.78,3.39,8.02,5.86,2.24,2.46,3.98,5.22,5.23,8.26,1.25,3.04,1.87,6.19,1.87,9.46,0,4.74-1.12,8.98-3.36,12.72-2.24,3.74-5.18,6.69-8.83,8.83s-7.62,3.22-11.9,3.22c-3.65,0-7.01-.71-10.08-2.11-3.07-1.41-5.74-3.31-8.02-5.71-2.27-2.4-4.03-5.15-5.28-8.26-1.25-3.1-1.87-6.35-1.87-9.74,0-4.67,1.09-8.86,3.26-12.58,2.17-3.71,5.09-6.66,8.74-8.83,3.65-2.18,7.68-3.26,12.1-3.26ZM409.63,70.27c1.21,0,2.56-.32,4.03-.96,1.47-.64,2.77-1.76,3.89-3.36,1.12-1.6,1.68-3.81,1.68-6.62,0-2.24-.43-4.72-1.29-7.44-.87-2.72-2.05-5.34-3.55-7.87-1.5-2.53-3.26-4.61-5.28-6.24-2.02-1.63-4.21-2.45-6.58-2.45-2.62,0-4.9.98-6.82,2.93-1.92,1.95-2.88,4.62-2.88,8.02,0,2.18.43,4.64,1.3,7.39.86,2.75,2.05,5.39,3.55,7.92,1.5,2.53,3.28,4.61,5.33,6.24,2.05,1.63,4.25,2.45,6.62,2.45Z"/>
  <path class="cls-1" d="M484.03,59.62c1.09,2.69,2.83,5.09,5.23,7.2,2.4,2.11,5.46,3.17,9.17,3.17,2.05,0,4.19-.58,6.43-1.73,2.24-1.15,4.19-2.94,5.86-5.38.19-.32.45-.48.77-.48s.66.1,1.01.29c.35.19,1.3.74,2.83,1.63.25.19.38.45.38.77,0,.45-.19.99-.58,1.63-1.79,3.33-4.22,6.05-7.3,8.16-3.07,2.11-7.07,3.17-12,3.17-5.31,0-9.89-1.19-13.73-3.55-3.84-2.37-6.8-5.5-8.88-9.41-2.08-3.9-3.12-8.16-3.12-12.77s.66-8.21,1.97-11.38c1.31-3.17,3.05-5.73,5.23-7.68,2.17-1.95,4.62-3.39,7.34-4.32,2.72-.93,5.49-1.39,8.3-1.39,3.2,0,6.01.62,8.45,1.87,2.43,1.25,4.5,2.83,6.19,4.75,1.7,1.92,2.98,3.95,3.84,6.1.86,2.15,1.3,4.14,1.3,6,0,.51-.29.9-.86,1.15l-27.84,12.19ZM498.33,45.89c0-3.07-.74-5.6-2.21-7.58-1.47-1.98-3.33-2.98-5.57-2.98-2.62,0-4.71,1.04-6.24,3.12-1.54,2.08-2.3,4.69-2.3,7.82,0,.96.05,2.15.14,3.55.1,1.41.34,2.69.72,3.84l15.46-7.78Z"/>
  <path class="cls-1" d="M601.43,59.04c0,2.3.35,4.37,1.06,6.19.7,1.82,2.24,2.9,4.61,3.22.77.06,1.15.48,1.15,1.25v3.17c0,.9-.48,1.34-1.44,1.34-3.14,0-5.75.18-7.82.53-2.08.35-3.87.8-5.38,1.34-1.5.54-2.99,1.14-4.46,1.78-.26.13-.48.19-.67.19h-.19c-.19,0-.29-.1-.29-.29.13-1.47.27-2.91.43-4.32.16-1.41.37-2.82.62-4.22-.32.83-1.01,1.95-2.06,3.36-1.06,1.41-2.59,2.67-4.61,3.79-2.02,1.12-4.66,1.68-7.92,1.68-2.18,0-4.5-.45-6.96-1.34-2.46-.9-4.79-2.34-6.96-4.32-2.18-1.98-3.95-4.59-5.33-7.82-1.38-3.23-2.06-7.18-2.06-11.86,0-5.95,1.07-10.77,3.22-14.45,2.14-3.68,4.93-6.38,8.35-8.11,3.42-1.73,7.06-2.59,10.9-2.59,4.86,0,8.99,1.5,12.38,4.51v-6.14c0-1.73-.11-3.39-.34-4.99-.23-1.6-.72-2.96-1.49-4.08-.77-1.12-2.05-1.78-3.84-1.97-.77-.06-1.15-.48-1.15-1.25v-3.26c0-.38.13-.66.38-.82.25-.16.61-.3,1.06-.43,5.06-1.66,9.01-3.33,11.86-4.99,2.85-1.66,4.91-2.98,6.19-3.94.19-.13.35-.19.48-.19h.1c.13,0,.19.06.19.19v58.85ZM588,45.7c0-3.01-.98-5.57-2.93-7.68-1.95-2.11-4.53-3.17-7.73-3.17s-5.47.67-7.2,2.02c-1.73,1.34-2.93,3.14-3.6,5.38-.67,2.24-1.01,4.7-1.01,7.39,0,6.14,1.23,11.01,3.7,14.59,2.46,3.58,5.65,5.38,9.55,5.38,1.73,0,3.23-.43,4.51-1.3,1.28-.86,2.32-1.93,3.12-3.22.8-1.28,1.33-2.5,1.58-3.65v-15.74Z"/>
  <path class="cls-1" d="M644.92,71.04c.96,0,1.44.48,1.44,1.44v2.88c0,.96-.54,1.44-1.63,1.44h-27.17c-1.09,0-1.63-.48-1.63-1.44v-2.88c0-.96.48-1.44,1.44-1.44h.19c2.37,0,4.11-.88,5.23-2.64,1.12-1.76,1.68-3.92,1.68-6.48v-10.18c0-1.47-.11-2.94-.34-4.42-.22-1.47-.72-2.75-1.49-3.84-.77-1.09-2.05-1.73-3.84-1.92-.77-.06-1.15-.48-1.15-1.25v-3.26c0-.38.13-.66.38-.82.25-.16.61-.3,1.06-.43,5.06-1.66,8.94-3.38,11.66-5.14,2.72-1.76,4.72-3.31,6-4.66.13-.13.25-.19.38-.19h.29c.13,0,.19.06.19.19v35.81c0,2.56.58,4.74,1.73,6.53,1.15,1.79,2.91,2.69,5.28,2.69h.29ZM631.19,5.76c1.66,0,3.29.8,4.9,2.4,1.6,1.6,2.4,3.2,2.4,4.8s-.8,3.2-2.4,4.8c-1.6,1.6-3.23,2.4-4.9,2.4-1.54,0-3.14-.8-4.8-2.4-1.6-1.54-2.4-3.14-2.4-4.8s.8-3.2,2.4-4.8c1.6-1.6,3.2-2.4,4.8-2.4Z"/>
  <path class="cls-1" d="M693.88,43.68c-.38.19-.71.29-.96.29-.45,0-.86-.22-1.25-.67-2.88-3.65-5.89-6.21-9.02-7.68-3.14-1.47-5.86-2.21-8.16-2.21-1.67,0-3.2.35-4.61,1.06-1.41.7-2.11,1.98-2.11,3.84,0,1.41.53,2.58,1.58,3.5,1.06.93,2.42,1.68,4.08,2.26,1.66.58,3.36,1.09,5.09,1.54,2.5.58,5.01,1.25,7.54,2.02,2.53.77,4.85,1.78,6.96,3.02,2.11,1.25,3.82,2.8,5.14,4.66,1.31,1.86,1.97,4.19,1.97,7.01,0,3.01-.82,5.7-2.45,8.06-1.63,2.37-3.95,4.24-6.96,5.62-3.01,1.38-6.59,2.06-10.75,2.06-1.99,0-3.92-.24-5.81-.72-1.89-.48-3.66-1.1-5.33-1.87-.38-.19-.67-.29-.86-.29-.45,0-.67.23-.67.67,0,.13.06.38.19.77.13.38.19.64.19.77,0,.51-.38.77-1.15.77h-3.46c-.71,0-1.25-.32-1.63-.96l-8.26-15.46c-.19-.38-.29-.67-.29-.86,0-.45.25-.83.77-1.15l2.98-1.73c.38-.19.67-.29.86-.29.38,0,.74.29,1.06.86,3.13,4.67,6.58,8,10.32,9.98,3.74,1.98,7.57,2.98,11.47,2.98,6.14,0,9.22-1.82,9.22-5.47,0-1.66-.75-3.04-2.26-4.13-1.5-1.09-3.36-1.98-5.57-2.69-2.21-.7-4.43-1.31-6.67-1.82-4.1-1.02-7.36-2.19-9.79-3.5-2.43-1.31-4.26-2.72-5.47-4.22-1.22-1.5-2.03-3.01-2.45-4.51-.42-1.5-.62-2.96-.62-4.37,0-3.84,1.47-7.01,4.42-9.5,2.94-2.5,6.94-3.74,12-3.74,3.01,0,5.66.4,7.97,1.2,2.3.8,3.9,1.46,4.8,1.97.26.13.45.19.58.19.19,0,.29-.13.29-.38,0-.19-.1-.58-.29-1.15-.06-.32-.11-.56-.14-.72-.03-.16-.05-.3-.05-.43,0-.64.42-.96,1.25-.96h2.5c.83,0,1.38.35,1.63,1.06l4.8,12.19c.19.38.29.71.29.96,0,.45-.26.8-.77,1.06l-2.11,1.15Z"/>
  <path class="cls-1" d="M722.78,59.62c1.09,2.69,2.83,5.09,5.23,7.2,2.4,2.11,5.46,3.17,9.17,3.17,2.05,0,4.19-.58,6.43-1.73,2.24-1.15,4.19-2.94,5.86-5.38.19-.32.45-.48.77-.48s.65.1,1.01.29c.35.19,1.29.74,2.83,1.63.25.19.38.45.38.77,0,.45-.19.99-.58,1.63-1.79,3.33-4.22,6.05-7.3,8.16-3.07,2.11-7.07,3.17-12,3.17-5.31,0-9.89-1.19-13.73-3.55-3.84-2.37-6.8-5.5-8.88-9.41-2.08-3.9-3.12-8.16-3.12-12.77s.66-8.21,1.97-11.38c1.31-3.17,3.05-5.73,5.23-7.68,2.17-1.95,4.62-3.39,7.34-4.32,2.72-.93,5.49-1.39,8.3-1.39,3.2,0,6.02.62,8.45,1.87,2.43,1.25,4.5,2.83,6.19,4.75s2.98,3.95,3.84,6.1c.87,2.15,1.3,4.14,1.3,6,0,.51-.29.9-.87,1.15l-27.84,12.19ZM737.08,45.89c0-3.07-.74-5.6-2.21-7.58-1.47-1.98-3.33-2.98-5.57-2.98-2.62,0-4.71,1.04-6.24,3.12-1.54,2.08-2.3,4.69-2.3,7.82,0,.96.05,2.15.14,3.55.1,1.41.34,2.69.72,3.84l15.46-7.78Z"/>
  <path class="cls-1" d="M808.79,25.92c.25-.06.51-.1.77-.1.32,0,.48.48.48,1.44,0,3.14-.59,5.57-1.78,7.3s-2.87,2.59-5.04,2.59c1.54,2.56,2.3,5.5,2.3,8.83s-.85,6.48-2.54,9.26c-1.7,2.78-4.11,4.99-7.25,6.62-3.14,1.63-6.91,2.45-11.33,2.45s-8.35-.9-11.62-2.69c-.83.64-1.25,1.44-1.25,2.4s.35,1.78,1.05,2.45c.71.67,2.06,1.22,4.08,1.63,2.02.42,4.98.72,8.88.91,2.81.13,5.55.42,8.21.86,2.66.45,5.04,1.17,7.15,2.16,2.11.99,3.79,2.39,5.04,4.18s1.87,4.13,1.87,7.01c0,2.62-.69,4.85-2.06,6.67-1.38,1.82-3.23,3.28-5.57,4.37-2.34,1.09-4.91,1.89-7.73,2.4-2.82.51-5.66.77-8.54.77-3.9,0-7.5-.42-10.8-1.25-3.3-.83-5.95-2.11-7.97-3.84s-3.02-3.94-3.02-6.62c0-2.11.56-3.92,1.68-5.42,1.12-1.5,2.48-2.7,4.08-3.6-3.26-2.05-4.9-4.96-4.9-8.74,0-2.18.56-4.03,1.68-5.57,1.12-1.54,2.54-2.66,4.27-3.36-3.78-3.46-5.66-7.81-5.66-13.06,0-3.39.85-6.48,2.54-9.26,1.7-2.78,4.13-5.01,7.3-6.67,3.17-1.66,6.93-2.5,11.28-2.5,2.69,0,5.14.34,7.34,1.01,2.21.67,4.18,1.58,5.9,2.74.32.19.59.3.82.34.22.03.4.05.53.05.51,0,.93-.18,1.25-.53.32-.35.48-1.01.48-1.97v-.29c0-.83.35-1.31,1.06-1.44l7.01-1.54ZM784.02,90.82c4.74,0,8.37-.45,10.9-1.34,2.53-.9,3.79-2.08,3.79-3.55,0-2.05-1.34-3.41-4.03-4.08-2.69-.67-6.46-1.14-11.33-1.39-3.46-.19-6.43-.58-8.93-1.15-1.79,1.21-2.69,2.91-2.69,5.09,0,.96.35,1.94,1.06,2.93.7.99,1.95,1.82,3.74,2.5,1.79.67,4.29,1.01,7.49,1.01ZM784.41,33.31c-2.43,0-4.34.67-5.71,2.02-1.38,1.34-2.34,2.99-2.88,4.94-.54,1.95-.82,3.86-.82,5.71s.27,3.76.82,5.71c.54,1.95,1.5,3.6,2.88,4.94,1.38,1.34,3.28,2.02,5.71,2.02s4.27-.67,5.52-2.02c1.25-1.34,2.1-2.99,2.54-4.94.45-1.95.67-3.85.67-5.71s-.22-3.76-.67-5.71c-.45-1.95-1.3-3.6-2.54-4.94-1.25-1.34-3.09-2.02-5.52-2.02Z"/>
  <path class="cls-1" d="M871.58,45.5v16.42c0,3.52.56,5.92,1.68,7.2,1.12,1.28,2.61,1.92,4.46,1.92h.77c.96,0,1.44.48,1.44,1.44v2.88c0,.96-.48,1.44-1.44,1.44h-25.54c-.96,0-1.44-.48-1.44-1.44v-2.88c0-.96.48-1.44,1.44-1.44h.67c1.34,0,2.43-.64,3.27-1.92.83-1.28,1.25-3.68,1.25-7.2v-16.42c0-3.07-.48-5.42-1.44-7.06-.96-1.63-2.78-2.45-5.47-2.45-1.6,0-3.2.4-4.8,1.2-1.6.8-3.01,1.82-4.22,3.07-1.22,1.25-2.11,2.58-2.69,3.98v17.66c0,2.56.56,4.72,1.68,6.48,1.12,1.76,2.61,2.64,4.46,2.64h.19c.96,0,1.44.48,1.44,1.44v2.88c0,.96-.48,1.44-1.44,1.44h-26.98c-.96,0-1.44-.48-1.44-1.44v-2.88c0-.96.48-1.44,1.44-1.44h.19c2.37,0,4.13-.88,5.28-2.64,1.15-1.76,1.73-3.92,1.73-6.48v-12.1c0-1.73-.11-3.39-.34-4.99-.23-1.6-.74-2.96-1.54-4.08-.8-1.12-2.1-1.78-3.89-1.97-.71-.06-1.06-.48-1.06-1.25v-3.26c0-.64.45-1.06,1.34-1.25,4.61-.7,8.56-1.79,11.86-3.26,3.3-1.47,5.58-2.66,6.87-3.55.32-.25.58-.38.77-.38h.1c.13,0,.19.06.19.19s-.03.38-.1.77l-1.63,11.81c.89-1.47,2.08-3.06,3.55-4.75,1.47-1.7,3.3-3.17,5.47-4.42s4.7-1.87,7.58-1.87c3.46,0,6.27.51,8.45,1.54,2.18,1.02,3.82,2.4,4.95,4.13,1.12,1.73,1.89,3.65,2.3,5.76s.62,4.29.62,6.53Z"/>
  <path class="cls-1" d="M909.4,27.55c3.65,0,7.02.72,10.13,2.16,3.1,1.44,5.78,3.39,8.02,5.86,2.24,2.46,3.98,5.22,5.23,8.26,1.25,3.04,1.87,6.19,1.87,9.46,0,4.74-1.12,8.98-3.36,12.72-2.24,3.74-5.19,6.69-8.83,8.83-3.65,2.14-7.62,3.22-11.9,3.22-3.65,0-7.01-.71-10.08-2.11-3.07-1.41-5.75-3.31-8.02-5.71-2.27-2.4-4.03-5.15-5.28-8.26-1.25-3.1-1.87-6.35-1.87-9.74,0-4.67,1.09-8.86,3.26-12.58,2.18-3.71,5.09-6.66,8.74-8.83,3.65-2.18,7.68-3.26,12.1-3.26ZM913.53,70.27c1.22,0,2.56-.32,4.03-.96,1.47-.64,2.77-1.76,3.89-3.36,1.12-1.6,1.68-3.81,1.68-6.62,0-2.24-.43-4.72-1.3-7.44-.86-2.72-2.05-5.34-3.55-7.87-1.51-2.53-3.27-4.61-5.28-6.24-2.02-1.63-4.21-2.45-6.58-2.45-2.62,0-4.9.98-6.82,2.93-1.92,1.95-2.88,4.62-2.88,8.02,0,2.18.43,4.64,1.29,7.39.87,2.75,2.05,5.39,3.55,7.92,1.5,2.53,3.28,4.61,5.33,6.24,2.05,1.63,4.26,2.45,6.62,2.45Z"/>
  <path class="cls-1" d="M1016.44,63.84c.51.38.77.8.77,1.25,0,.13-.06.38-.19.77-1.86,4.1-4.59,7.15-8.21,9.17-3.62,2.02-7.57,3.02-11.86,3.02-3.58,0-6.85-.78-9.79-2.35-2.95-1.57-5.44-3.66-7.49-6.29-2.05-2.62-3.55-5.57-4.51-8.83-.96-3.26-1.31-6.62-1.06-10.08.45-5.31,1.92-9.66,4.42-13.06,2.5-3.39,5.52-5.89,9.07-7.49,3.55-1.6,7.12-2.4,10.7-2.4,4.22,0,7.65.64,10.27,1.92,2.62,1.28,4.64,2.94,6.05,4.99,1.41,2.05,2.37,4.19,2.88,6.43.06.26.1.48.1.67,0,.51-.38.86-1.15,1.06l-11.04,2.88c-.38.13-.67.19-.87.19-.45,0-.67-.22-.67-.67,0-.26.02-.51.05-.77.03-.26.05-.61.05-1.06,0-2.05-.64-3.87-1.92-5.47-1.28-1.6-3.26-2.4-5.95-2.4-2.43,0-4.35.77-5.76,2.3-1.41,1.54-2.42,3.5-3.03,5.9-.61,2.4-.91,4.91-.91,7.54,0,3.14.42,6.11,1.25,8.93.83,2.82,2.19,5.1,4.08,6.86,1.89,1.76,4.46,2.64,7.73,2.64,2.56,0,4.93-.62,7.1-1.87s3.97-2.96,5.38-5.14c.25-.45.64-.67,1.15-.67.32,0,.61.1.86.29l2.5,1.73Z"/>
  <path class="cls-1" d="M1050.61,27.55c3.65,0,7.02.72,10.13,2.16,3.1,1.44,5.78,3.39,8.02,5.86,2.24,2.46,3.98,5.22,5.23,8.26,1.25,3.04,1.87,6.19,1.87,9.46,0,4.74-1.12,8.98-3.36,12.72-2.24,3.74-5.19,6.69-8.83,8.83-3.65,2.14-7.62,3.22-11.9,3.22-3.65,0-7.01-.71-10.08-2.11-3.07-1.41-5.75-3.31-8.02-5.71-2.27-2.4-4.03-5.15-5.28-8.26-1.25-3.1-1.87-6.35-1.87-9.74,0-4.67,1.09-8.86,3.26-12.58,2.18-3.71,5.09-6.66,8.74-8.83,3.65-2.18,7.68-3.26,12.1-3.26ZM1054.74,70.27c1.22,0,2.56-.32,4.03-.96,1.47-.64,2.77-1.76,3.89-3.36,1.12-1.6,1.68-3.81,1.68-6.62,0-2.24-.43-4.72-1.3-7.44-.86-2.72-2.05-5.34-3.55-7.87-1.51-2.53-3.27-4.61-5.28-6.24-2.02-1.63-4.21-2.45-6.58-2.45-2.62,0-4.9.98-6.82,2.93-1.92,1.95-2.88,4.62-2.88,8.02,0,2.18.43,4.64,1.29,7.39.87,2.75,2.05,5.39,3.55,7.92,1.5,2.53,3.28,4.61,5.33,6.24,2.05,1.63,4.26,2.45,6.62,2.45Z"/>
  <path class="cls-1" d="M1138.17,45.5v16.42c0,3.52.56,5.92,1.68,7.2,1.12,1.28,2.61,1.92,4.46,1.92h.77c.96,0,1.44.48,1.44,1.44v2.88c0,.96-.48,1.44-1.44,1.44h-25.54c-.96,0-1.44-.48-1.44-1.44v-2.88c0-.96.48-1.44,1.44-1.44h.67c1.34,0,2.43-.64,3.27-1.92.83-1.28,1.25-3.68,1.25-7.2v-16.42c0-3.07-.48-5.42-1.44-7.06-.96-1.63-2.78-2.45-5.47-2.45-1.6,0-3.2.4-4.8,1.2-1.6.8-3.01,1.82-4.22,3.07-1.22,1.25-2.11,2.58-2.69,3.98v17.66c0,2.56.56,4.72,1.68,6.48,1.12,1.76,2.61,2.64,4.46,2.64h.19c.96,0,1.44.48,1.44,1.44v2.88c0,.96-.48,1.44-1.44,1.44h-26.98c-.96,0-1.44-.48-1.44-1.44v-2.88c0-.96.48-1.44,1.44-1.44h.19c2.37,0,4.13-.88,5.28-2.64,1.15-1.76,1.73-3.92,1.73-6.48v-12.1c0-1.73-.11-3.39-.34-4.99-.23-1.6-.74-2.96-1.54-4.08-.8-1.12-2.1-1.78-3.89-1.97-.71-.06-1.06-.48-1.06-1.25v-3.26c0-.64.45-1.06,1.34-1.25,4.61-.7,8.56-1.79,11.86-3.26,3.3-1.47,5.58-2.66,6.87-3.55.32-.25.58-.38.77-.38h.1c.13,0,.19.06.19.19s-.03.38-.1.77l-1.63,11.81c.89-1.47,2.08-3.06,3.55-4.75,1.47-1.7,3.3-3.17,5.47-4.42s4.7-1.87,7.58-1.87c3.46,0,6.27.51,8.45,1.54,2.18,1.02,3.82,2.4,4.95,4.13,1.12,1.73,1.89,3.65,2.3,5.76s.62,4.29.62,6.53Z"/>
  <path class="cls-1" d="M1224.95,43.68c-.38.19-.71.29-.96.29-.45,0-.86-.22-1.25-.67-2.88-3.65-5.89-6.21-9.02-7.68-3.14-1.47-5.86-2.21-8.16-2.21-1.66,0-3.2.35-4.61,1.06-1.41.7-2.11,1.98-2.11,3.84,0,1.41.53,2.58,1.58,3.5,1.05.93,2.41,1.68,4.08,2.26,1.66.58,3.36,1.09,5.09,1.54,2.5.58,5.01,1.25,7.54,2.02,2.53.77,4.85,1.78,6.96,3.02,2.11,1.25,3.82,2.8,5.13,4.66,1.31,1.86,1.97,4.19,1.97,7.01,0,3.01-.82,5.7-2.45,8.06-1.63,2.37-3.95,4.24-6.96,5.62-3.01,1.38-6.59,2.06-10.75,2.06-1.98,0-3.92-.24-5.81-.72-1.89-.48-3.66-1.1-5.33-1.87-.38-.19-.67-.29-.86-.29-.45,0-.67.23-.67.67,0,.13.06.38.19.77.13.38.19.64.19.77,0,.51-.38.77-1.15.77h-3.46c-.71,0-1.25-.32-1.63-.96l-8.26-15.46c-.19-.38-.29-.67-.29-.86,0-.45.26-.83.77-1.15l2.98-1.73c.38-.19.67-.29.86-.29.38,0,.74.29,1.06.86,3.13,4.67,6.58,8,10.32,9.98,3.74,1.98,7.57,2.98,11.47,2.98,6.14,0,9.21-1.82,9.21-5.47,0-1.66-.75-3.04-2.26-4.13-1.5-1.09-3.36-1.98-5.57-2.69-2.21-.7-4.43-1.31-6.67-1.82-4.1-1.02-7.36-2.19-9.79-3.5-2.43-1.31-4.26-2.72-5.47-4.22-1.22-1.5-2.03-3.01-2.45-4.51-.42-1.5-.62-2.96-.62-4.37,0-3.84,1.47-7.01,4.42-9.5,2.94-2.5,6.94-3.74,12-3.74,3.01,0,5.66.4,7.97,1.2,2.3.8,3.9,1.46,4.8,1.97.26.13.45.19.58.19.19,0,.29-.13.29-.38,0-.19-.1-.58-.29-1.15-.06-.32-.11-.56-.14-.72-.03-.16-.05-.3-.05-.43,0-.64.42-.96,1.25-.96h2.5c.83,0,1.38.35,1.63,1.06l4.8,12.19c.19.38.29.71.29.96,0,.45-.26.8-.77,1.06l-2.11,1.15Z"/>
  <path class="cls-1" d="M1273.91,69.89c.19.26.29.54.29.86,0,.38-.26.74-.77,1.06l-2.88,1.82c-1.73,1.09-3.81,2.1-6.24,3.02-2.43.93-4.86,1.39-7.29,1.39-1.92,0-3.73-.45-5.42-1.34-1.7-.9-3.06-2.42-4.08-4.56-1.03-2.14-1.54-5.1-1.54-8.88v-17.76c0-1.73-.1-3.44-.29-5.14-.19-1.7-.79-3.09-1.78-4.18-.99-1.09-2.64-1.63-4.95-1.63-.96,0-1.44-.48-1.44-1.44v-2.88c0-.96.48-1.44,1.44-1.44h7.01v-6.43c0-.83.29-1.41.87-1.73,1.41-.77,3.26-1.84,5.57-3.22,2.3-1.38,4.35-2.96,6.14-4.75.13-.13.29-.19.48-.19h.19c.13,0,.19.1.19.29v16.03h12.86c.96,0,1.44.48,1.44,1.44v4.13c0,.96-.48,1.44-1.44,1.44h-12.86v27.46c0,2.5.38,4.21,1.15,5.14.77.93,1.73,1.39,2.88,1.39,1.09,0,2.24-.3,3.46-.91,1.22-.61,2.34-1.23,3.36-1.87.45-.26.8-.38,1.05-.38.38,0,.74.26,1.06.77l1.54,2.5Z"/>
  <path class="cls-1" d="M1311.44,71.04c.96,0,1.44.48,1.44,1.44v2.88c0,.96-.54,1.44-1.63,1.44h-27.17c-1.09,0-1.63-.48-1.63-1.44v-2.88c0-.96.48-1.44,1.44-1.44h.19c2.37,0,4.11-.88,5.23-2.64,1.12-1.76,1.68-3.92,1.68-6.48v-10.18c0-1.47-.11-2.94-.34-4.42-.22-1.47-.72-2.75-1.49-3.84-.77-1.09-2.05-1.73-3.84-1.92-.77-.06-1.15-.48-1.15-1.25v-3.26c0-.38.13-.66.38-.82.25-.16.61-.3,1.06-.43,5.05-1.66,8.94-3.38,11.66-5.14,2.72-1.76,4.72-3.31,6-4.66.13-.13.25-.19.38-.19h.29c.13,0,.19.06.19.19v35.81c0,2.56.58,4.74,1.73,6.53,1.15,1.79,2.91,2.69,5.28,2.69h.29ZM1297.72,5.76c1.66,0,3.29.8,4.89,2.4,1.6,1.6,2.4,3.2,2.4,4.8s-.8,3.2-2.4,4.8c-1.6,1.6-3.23,2.4-4.89,2.4-1.54,0-3.14-.8-4.8-2.4-1.6-1.54-2.4-3.14-2.4-4.8s.8-3.2,2.4-4.8c1.6-1.6,3.2-2.4,4.8-2.4Z"/>
  <path class="cls-1" d="M1349.55,71.04c.96,0,1.44.48,1.44,1.44v2.88c0,.96-.54,1.44-1.63,1.44h-27.17c-1.09,0-1.63-.48-1.63-1.44v-2.88c0-.96.48-1.44,1.44-1.44h.19c2.37,0,4.11-.88,5.23-2.64,1.12-1.76,1.68-3.92,1.68-6.48V25.92c0-1.79-.11-3.49-.34-5.09-.23-1.6-.72-2.96-1.49-4.08-.77-1.12-2.05-1.78-3.84-1.97-.77-.06-1.15-.48-1.15-1.25v-3.26c0-.38.13-.64.38-.77.26-.13.61-.29,1.06-.48,4.54-1.66,8.18-3.22,10.9-4.66,2.72-1.44,4.97-2.83,6.77-4.18.13-.13.26-.19.38-.19h.29c.13,0,.19.06.19.19v61.63c0,2.56.58,4.74,1.73,6.53,1.15,1.79,2.91,2.69,5.28,2.69h.29Z"/>
  <path class="cls-1" d="M1371.83,59.62c1.09,2.69,2.83,5.09,5.23,7.2,2.4,2.11,5.46,3.17,9.17,3.17,2.05,0,4.19-.58,6.43-1.73,2.24-1.15,4.19-2.94,5.86-5.38.19-.32.45-.48.77-.48s.66.1,1.01.29c.35.19,1.3.74,2.83,1.63.26.19.38.45.38.77,0,.45-.19.99-.58,1.63-1.79,3.33-4.22,6.05-7.29,8.16-3.07,2.11-7.07,3.17-12,3.17-5.31,0-9.89-1.19-13.73-3.55-3.84-2.37-6.8-5.5-8.88-9.41-2.08-3.9-3.12-8.16-3.12-12.77s.65-8.21,1.97-11.38,3.06-5.73,5.23-7.68c2.18-1.95,4.62-3.39,7.34-4.32,2.72-.93,5.49-1.39,8.3-1.39,3.2,0,6.02.62,8.45,1.87s4.5,2.83,6.19,4.75c1.7,1.92,2.97,3.95,3.84,6.1.86,2.15,1.29,4.14,1.29,6,0,.51-.29.9-.86,1.15l-27.84,12.19ZM1386.13,45.89c0-3.07-.74-5.6-2.21-7.58-1.47-1.98-3.33-2.98-5.57-2.98-2.62,0-4.7,1.04-6.24,3.12-1.54,2.08-2.3,4.69-2.3,7.82,0,.96.05,2.15.14,3.55.1,1.41.34,2.69.72,3.84l15.46-7.78Z"/>
  <path class="cls-1" d="M333.06,117.65c2.61,0,4.86.53,6.75,1.6,1.89,1.07,3.47,2.63,4.73,4.7l-3.01,2.34c-1.11-1.92-2.36-3.28-3.76-4.07-1.39-.79-3.08-1.19-5.06-1.19-1.59,0-2.9.22-3.94.67-1.04.45-1.79,1.04-2.27,1.78-.48.74-.72,1.57-.72,2.5,0,1.05.33,1.97.99,2.77.66.8,1.98,1.42,3.96,1.87l6.44,1.44c2.85.63,4.84,1.58,5.96,2.86,1.12,1.28,1.69,2.86,1.69,4.75,0,1.68-.47,3.17-1.42,4.48s-2.27,2.32-3.98,3.04c-1.71.72-3.72,1.08-6.03,1.08-2.16,0-4.06-.29-5.69-.88s-3.04-1.37-4.21-2.36c-1.17-.99-2.13-2.1-2.88-3.33l3.15-2.56c.57,1.14,1.3,2.15,2.21,3.02.9.87,1.99,1.55,3.26,2.02,1.27.48,2.74.72,4.39.72,1.53,0,2.86-.19,3.98-.56,1.12-.37,1.99-.93,2.59-1.67.6-.73.9-1.63.9-2.68,0-.96-.32-1.82-.95-2.59-.63-.77-1.82-1.34-3.55-1.73l-6.98-1.58c-1.83-.42-3.31-1-4.43-1.73-1.12-.73-1.94-1.6-2.43-2.61-.5-1-.74-2.09-.74-3.26,0-1.59.44-3.05,1.33-4.39.88-1.33,2.16-2.41,3.83-3.22s3.64-1.21,5.92-1.21Z"/>
  <path class="cls-1" d="M355.74,147.8v-29.7h20.84v3.38h-17.24v9.58h13.41v3.38h-13.41v9.99h17.91v3.38h-21.51Z"/>
  <path class="cls-1" d="M411.13,118.1v29.7h-4.46l-12.42-19.89-3.15-5.58h-.04l.18,4.5v20.97h-3.42v-29.7h4.46l12.38,19.8,3.19,5.71h.05l-.18-4.54v-20.97h3.42Z"/>
  <path class="cls-1" d="M425.13,145.73l-.63-1.3h20.75v3.38h-23.35v-3.2l19.53-24.43.63,1.3h-19.71v-3.38h22.32v3.2l-19.53,24.43Z"/>
  <path class="cls-1" d="M479.62,147.8h-3.83l-3.15-8.24h-13.46l-3.15,8.24h-3.78l11.57-29.7h4.27l11.52,29.7ZM460.5,136.19h10.84l-5.44-14.62-5.4,14.62Z"/>
  <path class="cls-1" d="M526.74,121.48h-17.19v9.58h13.41v3.38h-13.41v13.36h-3.6v-29.7h20.79v3.38Z"/>
  <path class="cls-1" d="M536.77,147.8v-29.7h20.83v3.38h-17.23v9.58h13.41v3.38h-13.41v9.99h17.91v3.38h-21.51Z"/>
  <path class="cls-1" d="M580.1,118.1c3.03,0,5.46.78,7.29,2.34,1.83,1.56,2.75,3.68,2.75,6.35s-.92,4.75-2.77,6.23c-1.84,1.48-4.28,2.23-7.31,2.23l-.31.22h-7.29v12.33h-3.6v-29.7h11.25ZM580.06,132.09c2.13,0,3.71-.44,4.75-1.33,1.04-.88,1.55-2.21,1.55-3.98s-.52-3.1-1.55-3.98c-1.04-.88-2.62-1.33-4.75-1.33h-7.61v10.62h7.61ZM582.13,132.81l9.81,14.99h-4.27l-8.55-13,3.02-1.98Z"/>
  <path class="cls-1" d="M622.14,118.1v3.38h-10.35v26.32h-3.6v-26.32h-10.35v-3.38h24.3Z"/>
  <path class="cls-1" d="M635.41,118.1v29.7h-3.6v-29.7h3.6Z"/>
  <path class="cls-1" d="M652.1,144.43h17.01v3.38h-20.61v-29.7h3.6v26.32Z"/>
  <path class="cls-1" d="M682.39,118.1v29.7h-3.6v-29.7h3.6Z"/>
  <path class="cls-1" d="M696.38,145.73l-.63-1.3h20.74v3.38h-23.35v-3.2l19.53-24.43.63,1.3h-19.71v-3.38h22.32v3.2l-19.53,24.43Z"/>
  <path class="cls-1" d="M728.11,145.73l-.63-1.3h20.74v3.38h-23.36v-3.2l19.53-24.43.63,1.3h-19.71v-3.38h22.32v3.2l-19.53,24.43Z"/>
  <path class="cls-1" d="M782.6,147.8h-3.83l-3.15-8.24h-13.46l-3.15,8.24h-3.78l11.57-29.7h4.27l11.52,29.7ZM763.48,136.19h10.84l-5.45-14.62-5.4,14.62Z"/>
  <path class="cls-1" d="M815.32,118.1v29.7h-4.46l-12.42-19.89-3.15-5.58h-.04l.18,4.5v20.97h-3.42v-29.7h4.46l12.38,19.8,3.19,5.71h.04l-.18-4.54v-20.97h3.42Z"/>
  <path class="cls-1" d="M849.29,118.1v3.38h-10.35v26.32h-3.6v-26.32h-10.35v-3.38h24.3Z"/>
  <path class="cls-1" d="M862.57,118.1v29.7h-3.6v-29.7h3.6Z"/>
  <path class="cls-1" d="M918.32,140.2c-.63,1.68-1.53,3.13-2.7,4.34-1.17,1.21-2.54,2.14-4.12,2.77-1.57.63-3.29.95-5.15.95-2.82,0-5.26-.62-7.31-1.87-2.05-1.24-3.64-3.01-4.77-5.29-1.12-2.28-1.69-4.99-1.69-8.15s.56-5.86,1.69-8.15c1.12-2.28,2.71-4.04,4.77-5.29,2.05-1.24,4.46-1.87,7.22-1.87,1.92,0,3.63.26,5.13.79,1.5.53,2.78,1.3,3.85,2.34,1.06,1.03,1.91,2.3,2.54,3.8l-3.55,1.67c-.66-1.71-1.61-3.01-2.86-3.89-1.24-.88-2.86-1.33-4.84-1.33s-3.78.47-5.31,1.42c-1.53.94-2.72,2.3-3.58,4.07-.86,1.77-1.28,3.91-1.28,6.43s.41,4.63,1.21,6.41c.81,1.79,1.96,3.15,3.46,4.09,1.5.95,3.27,1.42,5.31,1.42s3.71-.5,5.18-1.51c1.47-1,2.54-2.51,3.2-4.52l3.6,1.35Z"/>
  <path class="cls-1" d="M932.22,118.1v29.7h-3.6v-29.7h3.6ZM950,131.06v3.38h-19.49v-3.38h19.49ZM951.93,118.1v29.7h-3.6v-29.7h3.6Z"/>
  <path class="cls-1" d="M968.63,118.1v29.7h-3.6v-29.7h3.6Z"/>
  <path class="cls-1" d="M1010.43,118.1v29.7h-3.42v-18.68l.4-7.83h-.04l-9.77,26.5h-3.06l-9.76-26.5h-.04l.4,7.83v18.68h-3.42v-29.7h5.54l6.53,18.04,2.25,7.43h.09l2.29-7.38,6.48-18.09h5.54Z"/>
  <path class="cls-1" d="M1027.13,118.1v29.7h-3.6v-29.7h3.6Z"/>
  <path class="cls-1" d="M1064.16,140.2c-.63,1.68-1.53,3.13-2.7,4.34-1.17,1.21-2.54,2.14-4.12,2.77-1.57.63-3.29.95-5.15.95-2.82,0-5.26-.62-7.31-1.87-2.05-1.24-3.64-3.01-4.77-5.29-1.12-2.28-1.69-4.99-1.69-8.15s.56-5.86,1.69-8.15c1.12-2.28,2.71-4.04,4.77-5.29,2.05-1.24,4.46-1.87,7.22-1.87,1.92,0,3.63.26,5.13.79,1.5.53,2.78,1.3,3.85,2.34,1.06,1.03,1.91,2.3,2.54,3.8l-3.55,1.67c-.66-1.71-1.61-3.01-2.86-3.89-1.24-.88-2.86-1.33-4.84-1.33s-3.78.47-5.31,1.42c-1.53.94-2.72,2.3-3.58,4.07-.86,1.77-1.28,3.91-1.28,6.43s.41,4.63,1.21,6.41c.81,1.79,1.96,3.15,3.46,4.09,1.5.95,3.27,1.42,5.31,1.42s3.71-.5,5.18-1.51c1.47-1,2.54-2.51,3.2-4.52l3.6,1.35Z"/>
  <path class="cls-1" d="M1078.07,118.1v29.7h-3.6v-29.7h3.6Z"/>
</svg>