<?xml version="1.0" encoding="UTF-8"?>
<svg id="Livello_1" data-name="Livello 1" xmlns="http://www.w3.org/2000/svg" viewBox="0 0 865.71 329.12">
  <defs>
    <style>
      .cls-1 {
        fill: #fff;
      }
    </style>
  </defs>
  <path class="cls-1" d="M150.26,5.35c8.56,0,16.07,1.6,22.52,4.81,6.46,3.21,11.48,7.81,15.09,13.8,3.6,5.99,5.4,13.13,5.4,21.4s-1.64,15.75-4.92,21.77c-3.28,6.03-7.92,10.61-13.91,13.75-5.99,3.14-13.05,4.71-21.19,4.71h-35.95c-1.07,0-1.61-.53-1.61-1.6v-3.21c0-1.07.54-1.6,1.61-1.6h.75c2.35,0,4.14-.89,5.35-2.67,1.21-1.78,1.82-4.28,1.82-7.49V21.94c0-6.78-2.61-10.17-7.81-10.17h-.11c-1.07,0-1.61-.53-1.61-1.6v-3.21c0-1.07.54-1.6,1.61-1.6h32.96ZM142.24,69.55c0,2.78.46,4.99,1.39,6.63.93,1.64,3.1,2.46,6.53,2.46,8.49,0,15.09-2.64,19.79-7.92,4.71-5.28,7.06-13.73,7.06-25.36,0-10.34-2.43-18.53-7.28-24.56-4.85-6.03-12.34-9.04-22.47-9.04h-5.03v57.78Z"/>
  <path class="cls-1" d="M231.9,30.71c4.07,0,7.83.8,11.29,2.41,3.46,1.6,6.44,3.78,8.93,6.53,2.5,2.75,4.44,5.81,5.83,9.2,1.39,3.39,2.09,6.9,2.09,10.54,0,5.28-1.25,10-3.75,14.18-2.5,4.17-5.78,7.46-9.84,9.84-4.07,2.39-8.49,3.58-13.27,3.58-4.07,0-7.81-.79-11.23-2.35s-6.4-3.69-8.93-6.37c-2.53-2.67-4.49-5.74-5.88-9.2-1.39-3.46-2.09-7.08-2.09-10.86,0-5.21,1.21-9.88,3.64-14.02,2.42-4.14,5.67-7.42,9.74-9.84,4.07-2.42,8.56-3.64,13.48-3.64ZM236.5,78.32c1.35,0,2.85-.36,4.49-1.07,1.64-.71,3.08-1.96,4.33-3.75,1.25-1.78,1.87-4.24,1.87-7.38,0-2.5-.48-5.26-1.44-8.29-.96-3.03-2.28-5.96-3.96-8.77-1.68-2.82-3.64-5.14-5.89-6.96-2.25-1.82-4.69-2.73-7.33-2.73-2.93,0-5.46,1.09-7.6,3.26-2.14,2.18-3.21,5.15-3.21,8.93,0,2.43.48,5.17,1.44,8.24.96,3.07,2.28,6.01,3.96,8.83,1.67,2.82,3.65,5.14,5.94,6.96,2.28,1.82,4.74,2.73,7.38,2.73ZM241,23.75l-3.96,1.93c-.43.21-.79.32-1.07.32s-.59-.07-.91-.21c-.32-.14-.66-.28-1.02-.43-2.21-1-4.55-2.3-7.01-3.91s-4.57-3.49-6.31-5.67c-1.75-2.18-2.62-4.62-2.62-7.33,0-1.85.75-3.23,2.25-4.12,1.5-.89,3.25-1.34,5.24-1.34.78,0,1.57.09,2.35.27.78.18,1.32.59,1.6,1.23,1,2.28,1.93,4.33,2.78,6.15.86,1.82,1.94,3.73,3.26,5.72,1.32,2,3.12,4.46,5.4,7.38Z"/>
  <path class="cls-1" d="M312.37,31.24c0-3.21.39-6.62,1.18-10.22.78-3.6,2.09-6.99,3.91-10.17,1.82-3.17,4.28-5.78,7.38-7.81,3.1-2.03,7.01-3.05,11.72-3.05,5.71,0,9.93,1.09,12.68,3.26,2.75,2.18,4.12,4.87,4.12,8.08,0,1.86-.36,3.64-1.07,5.35-.21.5-.52.93-.91,1.28-.39.36-.98.61-1.76.75-1.28.29-2.8.63-4.55,1.02-1.75.39-3.32.73-4.71,1.02-1.39.29-2.19.43-2.41.43-.43,0-.64-.32-.64-.96,0-.36.11-.75.32-1.18,1.35-2.71,2.03-5.06,2.03-7.06s-.52-3.51-1.55-4.55c-1.04-1.03-2.19-1.55-3.48-1.55-1.71,0-3.21.79-4.49,2.35-1.36,1.57-2.27,3.75-2.73,6.53-.46,2.78-.7,6.21-.7,10.27v7.06h14.34c1.07,0,1.61.54,1.61,1.6v4.6c0,1.07-.54,1.6-1.61,1.6h-14.34v29.1c0,2.85.66,5.26,1.98,7.22,1.32,1.96,3.3,2.94,5.94,2.94,1.07,0,1.61.54,1.61,1.6v3.21c0,1.07-.54,1.6-1.61,1.6h-30.17c-1.07,0-1.61-.53-1.61-1.6v-3.21c0-1.07.54-1.6,1.61-1.6,2.64,0,4.6-.98,5.88-2.94,1.28-1.96,1.93-4.37,1.93-7.22v-18.3c0-1.93-.11-3.83-.32-5.72-.21-1.89-.88-3.44-1.98-4.65-1.11-1.21-2.94-1.82-5.51-1.82-1.07,0-1.61-.53-1.61-1.6v-3.21c0-1.07.54-1.6,1.61-1.6h7.92v-.86Z"/>
  <path class="cls-1" d="M383.41,30.71c4.07,0,7.83.8,11.29,2.41,3.46,1.6,6.44,3.78,8.93,6.53,2.5,2.75,4.44,5.81,5.83,9.2,1.39,3.39,2.09,6.9,2.09,10.54,0,5.28-1.25,10-3.75,14.18-2.5,4.17-5.78,7.46-9.84,9.84-4.07,2.39-8.49,3.58-13.27,3.58-4.07,0-7.81-.79-11.23-2.35s-6.4-3.69-8.93-6.37c-2.53-2.67-4.49-5.74-5.88-9.2-1.39-3.46-2.09-7.08-2.09-10.86,0-5.21,1.21-9.88,3.64-14.02,2.42-4.14,5.67-7.42,9.74-9.84,4.07-2.42,8.56-3.64,13.48-3.64ZM388.01,78.32c1.35,0,2.85-.36,4.49-1.07,1.64-.71,3.08-1.96,4.33-3.75,1.25-1.78,1.87-4.24,1.87-7.38,0-2.5-.48-5.26-1.44-8.29-.96-3.03-2.28-5.96-3.96-8.77-1.68-2.82-3.64-5.14-5.89-6.96-2.25-1.82-4.69-2.73-7.33-2.73-2.93,0-5.46,1.09-7.6,3.26-2.14,2.18-3.21,5.15-3.21,8.93,0,2.43.48,5.17,1.44,8.24.96,3.07,2.28,6.01,3.96,8.83,1.67,2.82,3.65,5.14,5.94,6.96,2.28,1.82,4.74,2.73,7.38,2.73Z"/>
  <path class="cls-1" d="M443.76,43.34c1.93-4.14,4.6-7.28,8.03-9.42,3.42-2.14,7.03-3.21,10.81-3.21,3.35,0,6.21.93,8.56,2.78,2.35,1.86,3.53,4.6,3.53,8.24,0,1.57-.14,2.96-.43,4.17-.29,1.21-1.07,2.1-2.35,2.67l-10.06,4.07c-.43.14-.75.21-.96.21-.64,0-.96-.32-.96-.96,0-.21.07-.53.21-.96.43-1,.7-1.96.8-2.89.11-.93.16-1.75.16-2.46,0-1.93-.48-3.33-1.44-4.23-.96-.89-2.16-1.34-3.58-1.34-1.64,0-3.18.5-4.6,1.5-1.43,1-2.67,2.21-3.75,3.64-1.07,1.43-1.86,2.82-2.35,4.17v19.69c0,2.85.64,5.26,1.93,7.22,1.28,1.96,3.25,2.94,5.88,2.94h.21c1.07,0,1.61.54,1.61,1.6v3.21c0,1.07-.54,1.6-1.61,1.6h-31.14c-1.07,0-1.6-.53-1.6-1.6v-3.21c0-1.07.53-1.6,1.6-1.6h.21c2.64,0,4.6-.98,5.88-2.94,1.28-1.96,1.93-4.37,1.93-7.22v-13.48c0-1.93-.13-3.78-.38-5.56-.25-1.78-.8-3.3-1.66-4.55-.86-1.25-2.28-1.98-4.28-2.19-.86-.07-1.28-.53-1.28-1.39v-3.64c0-.71.54-1.18,1.61-1.39,5.06-.78,9.5-2.03,13.32-3.75,3.82-1.71,6.4-3.07,7.76-4.07.21-.14.39-.21.54-.21h.21c.14,0,.21.07.21.21,0,.07-.09.61-.27,1.6-.18,1-.39,2.27-.64,3.8-.25,1.53-.54,3.1-.86,4.71s-.59,3.01-.8,4.23Z"/>
  <path class="cls-1" d="M588.43,79.18c1.07,0,1.61.54,1.61,1.6v3.21c0,1.07-.54,1.6-1.61,1.6h-30.17c-1.07,0-1.6-.53-1.6-1.6v-3.21c0-1.07.54-1.6,1.6-1.6h.54c2.28,0,3.78-.84,4.49-2.51.71-1.67,1.07-4.23,1.07-7.65v-18.3c0-1.93-.16-3.69-.48-5.3-.32-1.6-1.04-2.89-2.14-3.85-1.11-.96-2.8-1.44-5.08-1.44-3.07,0-5.76.96-8.08,2.89-2.32,1.93-4.26,4.35-5.83,7.28v18.73c0,3.92.62,6.6,1.87,8.02,1.25,1.43,2.91,2.14,4.98,2.14h.86c1.07,0,1.6.54,1.6,1.6v3.21c0,1.07-.54,1.6-1.6,1.6h-29.1c-1.07,0-1.6-.53-1.6-1.6v-3.21c0-1.07.54-1.6,1.6-1.6h.75c1.5,0,2.82-.71,3.96-2.14,1.14-1.43,1.71-4.1,1.71-8.02v-18.3c0-3.42-.45-6.05-1.34-7.86-.89-1.82-3.01-2.73-6.37-2.73-1.78,0-3.57.45-5.35,1.34-1.78.89-3.35,2.03-4.71,3.42-1.36,1.39-2.35,2.87-3,4.44v19.69c0,2.85.62,5.26,1.87,7.22,1.25,1.96,2.91,2.94,4.98,2.94h.21c1.07,0,1.6.54,1.6,1.6v3.21c0,1.07-.54,1.6-1.6,1.6h-30.07c-1.07,0-1.6-.53-1.6-1.6v-3.21c0-1.07.53-1.6,1.6-1.6h.21c2.64,0,4.6-.98,5.88-2.94,1.28-1.96,1.93-4.37,1.93-7.22v-13.48c0-1.93-.13-3.78-.38-5.56-.25-1.78-.82-3.3-1.71-4.55-.89-1.25-2.34-1.98-4.33-2.19-.79-.07-1.18-.53-1.18-1.39v-3.64c0-.71.5-1.18,1.5-1.39,5.14-.78,9.54-2,13.21-3.64,3.67-1.64,6.22-2.96,7.65-3.96.36-.28.64-.43.86-.43h.11c.14,0,.21.07.21.21s-.04.43-.11.86l-1.82,13.16c1-1.64,2.32-3.41,3.96-5.3,1.64-1.89,3.67-3.53,6.1-4.92,2.42-1.39,5.24-2.09,8.45-2.09,5.28,0,9.2.98,11.77,2.94,2.57,1.96,4.31,4.48,5.24,7.54,2.42-3.14,5.26-5.67,8.51-7.6,3.25-1.93,6.97-2.89,11.18-2.89,3.85,0,6.97.59,9.36,1.77,2.39,1.18,4.23,2.75,5.51,4.71,1.28,1.96,2.16,4.17,2.62,6.63.46,2.46.7,4.98.7,7.54v17.65c0,2.85.66,5.26,1.98,7.22,1.32,1.96,3.26,2.94,5.83,2.94h1.18Z"/>
  <path class="cls-1" d="M649.85,65.81c0,2.57.39,4.87,1.18,6.9.78,2.03,2.5,3.23,5.14,3.58.86.07,1.28.54,1.28,1.39v3.53c0,1-.54,1.5-1.6,1.5-3.5,0-6.4.2-8.72.59-2.32.39-4.32.89-5.99,1.5-1.68.61-3.33,1.27-4.98,1.98-.29.14-.54.21-.75.21h-.32c-.14,0-.21-.14-.21-.43s.07-.98.21-2.09c.14-1.1.3-2.35.48-3.74.18-1.39.34-2.58.48-3.58-.36.93-1.12,2.18-2.3,3.74-1.18,1.57-2.89,2.98-5.14,4.23-2.25,1.25-5.19,1.87-8.83,1.87-2.43,0-5.01-.5-7.76-1.5s-5.33-2.6-7.76-4.81c-2.43-2.21-4.41-5.12-5.94-8.72-1.54-3.6-2.3-8.01-2.3-13.21,0-6.63,1.19-12,3.58-16.1,2.39-4.1,5.49-7.12,9.31-9.04,3.82-1.93,7.86-2.89,12.14-2.89,3.49,0,6.7.54,9.63,1.61,2.92,1.07,5.49,2.6,7.7,4.6,1.85-.78,3.44-1.51,4.76-2.19,1.32-.68,2.44-1.37,3.37-2.09.36-.28.73-.57,1.12-.86.39-.28.84-.57,1.34-.86.21-.14.39-.21.54-.21h.11c.14,0,.21.07.21.21v34.88ZM634.86,49.01c-.21-1.43-.73-3.01-1.55-4.76-.82-1.75-2.05-3.25-3.69-4.49-1.64-1.25-3.85-1.87-6.63-1.87-3.42,0-6.1.84-8.02,2.51-1.93,1.68-3.26,3.84-4.01,6.47-.75,2.64-1.12,5.46-1.12,8.45,0,6.85,1.37,12.27,4.12,16.26,2.75,4,6.29,5.99,10.65,5.99,2.57,0,4.58-.55,6.04-1.66,1.46-1.1,2.51-2.23,3.16-3.37.64-1.14,1-1.82,1.07-2.03v-21.51Z"/>
  <path class="cls-1" d="M715.22,66.45c1.21,3,3.16,5.67,5.83,8.02s6.08,3.53,10.22,3.53c2.28,0,4.67-.64,7.17-1.93,2.5-1.28,4.67-3.28,6.53-5.99.21-.36.5-.54.86-.54s.73.11,1.12.32c.39.21,1.44.82,3.16,1.82.28.21.43.5.43.86,0,.5-.21,1.11-.64,1.82-2,3.71-4.71,6.74-8.13,9.1s-7.88,3.53-13.38,3.53c-5.92,0-11.02-1.32-15.3-3.96s-7.58-6.13-9.9-10.49c-2.32-4.35-3.48-9.1-3.48-14.23s.73-9.15,2.19-12.68c1.46-3.53,3.41-6.38,5.83-8.56,2.42-2.18,5.15-3.78,8.19-4.81,3.03-1.03,6.12-1.55,9.25-1.55,3.57,0,6.7.7,9.42,2.09,2.71,1.39,5.01,3.16,6.9,5.3,1.89,2.14,3.32,4.41,4.28,6.79.96,2.39,1.44,4.62,1.44,6.69,0,.57-.32,1-.96,1.28l-31.03,13.59ZM731.16,51.15c0-3.42-.82-6.24-2.46-8.45-1.64-2.21-3.71-3.32-6.21-3.32-2.93,0-5.24,1.16-6.96,3.48-1.71,2.32-2.57,5.23-2.57,8.72,0,1.07.05,2.39.16,3.96.11,1.57.37,3,.8,4.28l17.23-8.67Z"/>
  <path class="cls-1" d="M47.28,162.16c.57.43.86.89.86,1.39,0,.14-.07.43-.21.86-2.07,4.57-5.12,7.97-9.15,10.22-4.03,2.25-8.44,3.37-13.21,3.37-4,0-7.63-.87-10.91-2.62-3.28-1.75-6.06-4.08-8.35-7.01-2.28-2.92-3.96-6.21-5.03-9.84-1.07-3.64-1.46-7.38-1.18-11.23.5-5.92,2.14-10.77,4.92-14.55,2.78-3.78,6.15-6.56,10.11-8.35,3.96-1.78,7.93-2.68,11.93-2.68,4.71,0,8.52.71,11.45,2.14,2.92,1.43,5.17,3.28,6.74,5.56,1.57,2.28,2.64,4.67,3.21,7.17.07.29.11.54.11.75,0,.57-.43.96-1.28,1.18l-12.3,3.21c-.43.14-.75.21-.96.21-.5,0-.75-.25-.75-.75,0-.28.02-.57.05-.86.04-.28.05-.68.05-1.18,0-2.28-.71-4.32-2.14-6.1-1.43-1.78-3.64-2.68-6.63-2.68-2.71,0-4.85.86-6.42,2.57-1.57,1.71-2.69,3.91-3.37,6.58-.68,2.67-1.02,5.48-1.02,8.4,0,3.5.46,6.81,1.39,9.95.93,3.14,2.44,5.69,4.55,7.65,2.1,1.96,4.98,2.94,8.61,2.94,2.85,0,5.49-.7,7.92-2.09,2.42-1.39,4.42-3.3,5.99-5.72.28-.5.71-.75,1.28-.75.36,0,.68.11.96.32l2.78,1.93Z"/>
  <path class="cls-1" d="M85.37,121.71c4.07,0,7.83.8,11.29,2.41,3.46,1.6,6.44,3.78,8.93,6.53,2.5,2.75,4.44,5.81,5.83,9.2,1.39,3.39,2.09,6.9,2.09,10.54,0,5.28-1.25,10-3.75,14.18-2.5,4.17-5.78,7.46-9.84,9.84-4.07,2.39-8.49,3.58-13.27,3.58-4.07,0-7.81-.79-11.23-2.35s-6.4-3.69-8.93-6.37c-2.53-2.67-4.49-5.74-5.88-9.2-1.39-3.46-2.09-7.08-2.09-10.86,0-5.21,1.21-9.88,3.64-14.02,2.42-4.14,5.67-7.42,9.74-9.84,4.07-2.42,8.56-3.64,13.48-3.64ZM89.97,169.32c1.35,0,2.85-.36,4.49-1.07,1.64-.71,3.08-1.96,4.33-3.75,1.25-1.78,1.87-4.24,1.87-7.38,0-2.5-.48-5.26-1.44-8.29-.96-3.03-2.28-5.96-3.96-8.77-1.68-2.82-3.64-5.14-5.89-6.96-2.25-1.82-4.69-2.73-7.33-2.73-2.93,0-5.46,1.09-7.6,3.26-2.14,2.18-3.21,5.15-3.21,8.93,0,2.43.48,5.17,1.44,8.24.96,3.07,2.28,6.01,3.96,8.83,1.67,2.82,3.65,5.14,5.94,6.96,2.28,1.82,4.74,2.73,7.38,2.73Z"/>
  <path class="cls-1" d="M153.31,170.18c1.07,0,1.61.54,1.61,1.6v3.21c0,1.07-.61,1.6-1.82,1.6h-30.28c-1.21,0-1.82-.53-1.82-1.6v-3.21c0-1.07.53-1.6,1.6-1.6h.21c2.64,0,4.58-.98,5.83-2.94,1.25-1.96,1.87-4.37,1.87-7.22v-40.12c0-2-.12-3.89-.37-5.67-.25-1.78-.8-3.3-1.66-4.55-.86-1.25-2.28-1.98-4.28-2.19-.86-.07-1.28-.53-1.28-1.39v-3.64c0-.43.14-.71.43-.86.28-.14.68-.32,1.18-.54,5.06-1.85,9.11-3.58,12.14-5.19,3.03-1.6,5.55-3.16,7.54-4.65.14-.14.28-.21.43-.21h.32c.14,0,.21.07.21.21v68.69c0,2.85.64,5.28,1.93,7.28,1.28,2,3.25,3,5.88,3h.32Z"/>
  <path class="cls-1" d="M189.48,121.71c4.07,0,7.83.8,11.29,2.41,3.46,1.6,6.44,3.78,8.93,6.53,2.5,2.75,4.44,5.81,5.83,9.2,1.39,3.39,2.09,6.9,2.09,10.54,0,5.28-1.25,10-3.75,14.18-2.5,4.17-5.78,7.46-9.84,9.84-4.07,2.39-8.49,3.58-13.27,3.58-4.07,0-7.81-.79-11.23-2.35s-6.4-3.69-8.93-6.37c-2.53-2.67-4.49-5.74-5.88-9.2-1.39-3.46-2.09-7.08-2.09-10.86,0-5.21,1.21-9.88,3.64-14.02,2.42-4.14,5.67-7.42,9.74-9.84,4.07-2.42,8.56-3.64,13.48-3.64ZM194.08,169.32c1.35,0,2.85-.36,4.49-1.07,1.64-.71,3.08-1.96,4.33-3.75,1.25-1.78,1.87-4.24,1.87-7.38,0-2.5-.48-5.26-1.44-8.29-.96-3.03-2.28-5.96-3.96-8.77-1.68-2.82-3.64-5.14-5.89-6.96-2.25-1.82-4.69-2.73-7.33-2.73-2.93,0-5.46,1.09-7.6,3.26-2.14,2.18-3.21,5.15-3.21,8.93,0,2.43.48,5.17,1.44,8.24.96,3.07,2.28,6.01,3.96,8.83,1.67,2.82,3.65,5.14,5.94,6.96,2.28,1.82,4.74,2.73,7.38,2.73Z"/>
  <path class="cls-1" d="M249.82,134.34c1.93-4.14,4.6-7.28,8.03-9.42,3.42-2.14,7.03-3.21,10.81-3.21,3.35,0,6.21.93,8.56,2.78,2.35,1.86,3.53,4.6,3.53,8.24,0,1.57-.14,2.96-.43,4.17-.29,1.21-1.07,2.1-2.35,2.67l-10.06,4.07c-.43.14-.75.21-.96.21-.64,0-.96-.32-.96-.96,0-.21.07-.53.21-.96.43-1,.7-1.96.8-2.89.11-.93.16-1.75.16-2.46,0-1.93-.48-3.33-1.44-4.23-.96-.89-2.16-1.34-3.58-1.34-1.64,0-3.18.5-4.6,1.5-1.43,1-2.67,2.21-3.75,3.64-1.07,1.43-1.86,2.82-2.35,4.17v19.69c0,2.85.64,5.26,1.93,7.22,1.28,1.96,3.25,2.94,5.88,2.94h.21c1.07,0,1.61.54,1.61,1.6v3.21c0,1.07-.54,1.6-1.61,1.6h-31.14c-1.07,0-1.6-.53-1.6-1.6v-3.21c0-1.07.53-1.6,1.6-1.6h.21c2.64,0,4.6-.98,5.88-2.94,1.28-1.96,1.93-4.37,1.93-7.22v-13.48c0-1.93-.13-3.78-.38-5.56-.25-1.78-.8-3.3-1.66-4.55-.86-1.25-2.28-1.98-4.28-2.19-.86-.07-1.28-.53-1.28-1.39v-3.64c0-.71.54-1.18,1.61-1.39,5.06-.78,9.5-2.03,13.32-3.75,3.82-1.71,6.4-3.07,7.76-4.07.21-.14.39-.21.54-.21h.21c.14,0,.21.07.21.21,0,.07-.09.61-.27,1.6-.18,1-.39,2.27-.64,3.8-.25,1.53-.54,3.1-.86,4.71s-.59,3.01-.8,4.23Z"/>
  <path class="cls-1" d="M304.29,157.45c1.21,3,3.16,5.67,5.83,8.02s6.08,3.53,10.22,3.53c2.28,0,4.67-.64,7.17-1.93,2.5-1.28,4.67-3.28,6.53-5.99.21-.36.5-.54.86-.54s.73.11,1.12.32c.39.21,1.44.82,3.16,1.82.28.21.43.5.43.86,0,.5-.21,1.11-.64,1.82-2,3.71-4.71,6.74-8.13,9.1s-7.88,3.53-13.38,3.53c-5.92,0-11.02-1.32-15.3-3.96s-7.58-6.13-9.9-10.49c-2.32-4.35-3.48-9.1-3.48-14.23s.73-9.15,2.19-12.68c1.46-3.53,3.41-6.38,5.83-8.56,2.42-2.18,5.15-3.78,8.19-4.81,3.03-1.03,6.12-1.55,9.25-1.55,3.57,0,6.7.7,9.42,2.09,2.71,1.39,5.01,3.16,6.9,5.3,1.89,2.14,3.32,4.41,4.28,6.79.96,2.39,1.44,4.62,1.44,6.69,0,.57-.32,1-.96,1.28l-31.03,13.59ZM320.23,142.15c0-3.42-.82-6.24-2.46-8.45-1.64-2.21-3.71-3.32-6.21-3.32-2.93,0-5.24,1.16-6.96,3.48-1.71,2.32-2.57,5.23-2.57,8.72,0,1.07.05,2.39.16,3.96.11,1.57.37,3,.8,4.28l17.23-8.67Z"/>
  <path class="cls-1" d="M435.15,156.81c0,2.57.39,4.87,1.18,6.9.78,2.03,2.5,3.23,5.14,3.58.86.07,1.28.54,1.28,1.39v3.53c0,1-.54,1.5-1.6,1.5-3.5,0-6.4.2-8.72.59-2.32.39-4.32.89-5.99,1.5-1.68.61-3.33,1.27-4.98,1.98-.29.14-.54.21-.75.21h-.32c-.14,0-.21-.14-.21-.43s.07-.98.21-2.09c.14-1.1.3-2.35.48-3.74.18-1.39.34-2.58.48-3.58-.36.93-1.12,2.18-2.3,3.74-1.18,1.57-2.89,2.98-5.14,4.23-2.25,1.25-5.19,1.87-8.83,1.87-2.43,0-5.01-.5-7.76-1.5s-5.33-2.6-7.76-4.81c-2.43-2.21-4.41-5.12-5.94-8.72-1.54-3.6-2.3-8.01-2.3-13.21,0-6.63,1.19-12,3.58-16.1,2.39-4.1,5.49-7.12,9.31-9.04,3.82-1.93,7.86-2.89,12.14-2.89,3.49,0,6.7.54,9.63,1.61,2.92,1.07,5.49,2.6,7.7,4.6,1.85-.78,3.44-1.51,4.76-2.19,1.32-.68,2.44-1.37,3.37-2.09.36-.28.73-.57,1.12-.86.39-.28.84-.57,1.34-.86.21-.14.39-.21.54-.21h.11c.14,0,.21.07.21.21v34.88ZM420.17,140.01c-.21-1.43-.73-3.01-1.55-4.76-.82-1.75-2.05-3.25-3.69-4.49-1.64-1.25-3.85-1.87-6.63-1.87-3.42,0-6.1.84-8.02,2.51-1.93,1.68-3.26,3.84-4.01,6.47-.75,2.64-1.12,5.46-1.12,8.45,0,6.85,1.37,12.27,4.12,16.26,2.75,4,6.29,5.99,10.65,5.99,2.57,0,4.58-.55,6.04-1.66,1.46-1.1,2.51-2.23,3.16-3.37.64-1.14,1-1.82,1.07-2.03v-21.51Z"/>
  <path class="cls-1" d="M483.62,170.18c1.07,0,1.61.54,1.61,1.6v3.21c0,1.07-.61,1.6-1.82,1.6h-30.28c-1.21,0-1.82-.53-1.82-1.6v-3.21c0-1.07.53-1.6,1.6-1.6h.21c2.64,0,4.58-.98,5.83-2.94,1.25-1.96,1.87-4.37,1.87-7.22v-11.34c0-1.64-.12-3.28-.37-4.92-.25-1.64-.8-3.07-1.66-4.28-.86-1.21-2.28-1.93-4.28-2.14-.86-.07-1.28-.53-1.28-1.39v-3.64c0-.43.14-.73.43-.91.28-.18.68-.34,1.18-.48,5.63-1.85,9.97-3.76,13-5.72,3.03-1.96,5.26-3.69,6.69-5.19.14-.14.28-.21.43-.21h.32c.14,0,.21.07.21.21v39.91c0,2.85.64,5.28,1.93,7.28,1.28,2,3.25,3,5.88,3h.32ZM468.32,97.42c1.85,0,3.67.89,5.46,2.67,1.78,1.78,2.67,3.57,2.67,5.35s-.89,3.57-2.67,5.35c-1.78,1.78-3.6,2.67-5.46,2.67-1.71,0-3.5-.89-5.35-2.67-1.78-1.71-2.67-3.49-2.67-5.35s.89-3.57,2.67-5.35c1.78-1.78,3.57-2.67,5.35-2.67Z"/>
  <path class="cls-1" d="M532.41,119.89c0-1.93-.12-3.78-.37-5.56-.25-1.78-.8-3.3-1.66-4.55-.86-1.25-2.28-1.98-4.28-2.19-.86-.07-1.28-.54-1.28-1.39v-3.64c0-.43.12-.73.37-.91.25-.18.62-.34,1.12-.48,5.71-1.85,10.13-3.71,13.27-5.56,3.14-1.85,5.42-3.32,6.85-4.39.21-.14.39-.21.53-.21h.11c.14,0,.21.07.21.21v35.74c1-1.43,2.66-2.66,4.98-3.69,2.32-1.03,4.98-1.55,7.97-1.55s5.9.5,8.93,1.5c3.03,1,5.83,2.6,8.4,4.82,2.57,2.21,4.65,5.12,6.26,8.72,1.6,3.6,2.41,8.01,2.41,13.21s-1.12,10.26-3.37,14.5c-2.25,4.25-5.47,7.56-9.68,9.95-4.21,2.39-9.2,3.58-14.98,3.58-4.71,0-9.02-.8-12.95-2.41-3.92-1.6-7.04-4.21-9.36-7.81-2.32-3.6-3.48-8.33-3.48-14.18v-33.71ZM547.28,155.84c0,3.5.57,6.35,1.71,8.56,1.14,2.21,2.64,3.85,4.49,4.92,1.85,1.07,3.78,1.6,5.78,1.6,3.49,0,6.19-.84,8.08-2.51,1.89-1.68,3.21-3.87,3.96-6.58.75-2.71,1.12-5.53,1.12-8.45,0-6.85-1.45-12.27-4.33-16.26-2.89-3.99-7.08-5.99-12.57-5.99-3,0-5.74.93-8.24,2.78v21.94Z"/>
  <path class="cls-1" d="M618.44,134.34c1.93-4.14,4.6-7.28,8.03-9.42,3.42-2.14,7.03-3.21,10.81-3.21,3.35,0,6.21.93,8.56,2.78,2.35,1.86,3.53,4.6,3.53,8.24,0,1.57-.14,2.96-.43,4.17-.29,1.21-1.07,2.1-2.35,2.67l-10.06,4.07c-.43.14-.75.21-.96.21-.64,0-.96-.32-.96-.96,0-.21.07-.53.21-.96.43-1,.7-1.96.8-2.89.11-.93.16-1.75.16-2.46,0-1.93-.48-3.33-1.44-4.23-.96-.89-2.16-1.34-3.58-1.34-1.64,0-3.18.5-4.6,1.5-1.43,1-2.67,2.21-3.75,3.64-1.07,1.43-1.86,2.82-2.35,4.17v19.69c0,2.85.64,5.26,1.93,7.22,1.28,1.96,3.25,2.94,5.88,2.94h.21c1.07,0,1.61.54,1.61,1.6v3.21c0,1.07-.54,1.6-1.61,1.6h-31.14c-1.07,0-1.6-.53-1.6-1.6v-3.21c0-1.07.53-1.6,1.6-1.6h.21c2.64,0,4.6-.98,5.88-2.94,1.28-1.96,1.93-4.37,1.93-7.22v-13.48c0-1.93-.13-3.78-.38-5.56-.25-1.78-.8-3.3-1.66-4.55-.86-1.25-2.28-1.98-4.28-2.19-.86-.07-1.28-.53-1.28-1.39v-3.64c0-.71.54-1.18,1.61-1.39,5.06-.78,9.5-2.03,13.32-3.75,3.82-1.71,6.4-3.07,7.76-4.07.21-.14.39-.21.54-.21h.21c.14,0,.21.07.21.21,0,.07-.09.61-.27,1.6-.18,1-.39,2.27-.64,3.8-.25,1.53-.54,3.1-.86,4.71s-.59,3.01-.8,4.23Z"/>
  <path class="cls-1" d="M711.2,156.81c0,2.57.39,4.87,1.18,6.9.78,2.03,2.5,3.23,5.14,3.58.86.07,1.28.54,1.28,1.39v3.53c0,1-.54,1.5-1.6,1.5-3.5,0-6.4.2-8.72.59-2.32.39-4.32.89-5.99,1.5-1.68.61-3.33,1.27-4.98,1.98-.29.14-.54.21-.75.21h-.32c-.14,0-.21-.14-.21-.43s.07-.98.21-2.09c.14-1.1.3-2.35.48-3.74.18-1.39.34-2.58.48-3.58-.36.93-1.12,2.18-2.3,3.74-1.18,1.57-2.89,2.98-5.14,4.23-2.25,1.25-5.19,1.87-8.83,1.87-2.43,0-5.01-.5-7.76-1.5s-5.33-2.6-7.76-4.81c-2.43-2.21-4.41-5.12-5.94-8.72-1.54-3.6-2.3-8.01-2.3-13.21,0-6.63,1.19-12,3.58-16.1,2.39-4.1,5.49-7.12,9.31-9.04,3.82-1.93,7.86-2.89,12.14-2.89,3.49,0,6.7.54,9.63,1.61,2.92,1.07,5.49,2.6,7.7,4.6,1.85-.78,3.44-1.51,4.76-2.19,1.32-.68,2.44-1.37,3.37-2.09.36-.28.73-.57,1.12-.86.39-.28.84-.57,1.34-.86.21-.14.39-.21.54-.21h.11c.14,0,.21.07.21.21v34.88ZM696.22,140.01c-.21-1.43-.73-3.01-1.55-4.76-.82-1.75-2.05-3.25-3.69-4.49-1.64-1.25-3.85-1.87-6.63-1.87-3.42,0-6.1.84-8.02,2.51-1.93,1.68-3.26,3.84-4.01,6.47-.75,2.64-1.12,5.46-1.12,8.45,0,6.85,1.37,12.27,4.12,16.26,2.75,4,6.29,5.99,10.65,5.99,2.57,0,4.58-.55,6.04-1.66,1.46-1.1,2.51-2.23,3.16-3.37.64-1.14,1-1.82,1.07-2.03v-21.51Z"/>
  <path class="cls-1" d="M788.99,141.72v18.3c0,3.92.62,6.6,1.87,8.02,1.25,1.43,2.91,2.14,4.98,2.14h.86c1.07,0,1.6.54,1.6,1.6v3.21c0,1.07-.54,1.6-1.6,1.6h-28.46c-1.07,0-1.61-.53-1.61-1.6v-3.21c0-1.07.54-1.6,1.61-1.6h.75c1.5,0,2.71-.71,3.64-2.14.93-1.43,1.39-4.1,1.39-8.02v-18.3c0-3.42-.53-6.05-1.6-7.86-1.07-1.82-3.1-2.73-6.1-2.73-1.78,0-3.57.45-5.35,1.34-1.78.89-3.35,2.03-4.71,3.42-1.36,1.39-2.35,2.87-3,4.44v19.69c0,2.85.62,5.26,1.87,7.22,1.25,1.96,2.91,2.94,4.98,2.94h.21c1.07,0,1.6.54,1.6,1.6v3.21c0,1.07-.54,1.6-1.6,1.6h-30.07c-1.07,0-1.6-.53-1.6-1.6v-3.21c0-1.07.53-1.6,1.6-1.6h.21c2.64,0,4.6-.98,5.88-2.94,1.28-1.96,1.93-4.37,1.93-7.22v-13.48c0-1.93-.13-3.78-.38-5.56-.25-1.78-.82-3.3-1.71-4.55-.89-1.25-2.34-1.98-4.33-2.19-.79-.07-1.18-.53-1.18-1.39v-3.64c0-.71.5-1.18,1.5-1.39,5.14-.78,9.54-2,13.21-3.64,3.67-1.64,6.22-2.96,7.65-3.96.36-.28.64-.43.86-.43h.11c.14,0,.21.07.21.21s-.04.43-.11.86l-1.82,13.16c1-1.64,2.32-3.41,3.96-5.3,1.64-1.89,3.67-3.53,6.1-4.92,2.42-1.39,5.24-2.09,8.45-2.09,3.85,0,6.99.57,9.42,1.71,2.42,1.14,4.26,2.67,5.51,4.6,1.25,1.93,2.1,4.07,2.57,6.42.46,2.35.7,4.78.7,7.28Z"/>
  <path class="cls-1" d="M858.12,156.81c0,2.57.39,4.87,1.18,6.9.78,2.03,2.5,3.23,5.14,3.58.86.07,1.28.54,1.28,1.39v3.53c0,1-.54,1.5-1.6,1.5-3.5,0-6.4.2-8.72.59-2.32.39-4.32.89-5.99,1.5-1.68.61-3.33,1.27-4.98,1.98-.29.14-.54.21-.75.21h-.21c-.21,0-.32-.11-.32-.32.14-1.64.3-3.25.48-4.82.18-1.57.41-3.14.7-4.71-.36.93-1.12,2.18-2.3,3.74-1.18,1.57-2.89,2.98-5.14,4.23-2.25,1.25-5.19,1.87-8.83,1.87-2.43,0-5.01-.5-7.76-1.5s-5.33-2.6-7.76-4.81c-2.43-2.21-4.41-5.12-5.94-8.72-1.54-3.6-2.3-8.01-2.3-13.21,0-6.63,1.19-12,3.58-16.1,2.39-4.1,5.49-7.12,9.31-9.04,3.82-1.93,7.86-2.89,12.14-2.89,5.42,0,10.02,1.68,13.8,5.03v-6.85c0-1.93-.12-3.78-.37-5.56-.25-1.78-.8-3.3-1.66-4.55-.86-1.25-2.28-1.98-4.28-2.19-.86-.07-1.28-.54-1.28-1.39v-3.64c0-.43.14-.73.43-.91.28-.18.68-.34,1.18-.48,5.63-1.85,10.04-3.71,13.21-5.56,3.17-1.85,5.47-3.32,6.9-4.39.21-.14.39-.21.54-.21h.11c.14,0,.21.07.21.21v65.59ZM843.14,141.93c0-3.35-1.09-6.21-3.26-8.56-2.18-2.35-5.05-3.53-8.61-3.53s-6.1.75-8.02,2.25c-1.93,1.5-3.26,3.5-4.01,5.99-.75,2.5-1.12,5.24-1.12,8.24,0,6.85,1.37,12.27,4.12,16.26,2.75,4,6.29,5.99,10.65,5.99,1.93,0,3.6-.48,5.03-1.44,1.43-.96,2.58-2.16,3.48-3.58.89-1.43,1.48-2.78,1.77-4.07v-17.55Z"/>
  <path class="cls-1" d="M49.08,230.63h-17.57v9.8h13.71v3.45h-13.71v13.66h-3.68v-30.36h21.25v3.45Z"/>
  <path class="cls-1" d="M63.02,227.18v30.36h-3.68v-30.36h3.68Z"/>
  <path class="cls-1" d="M88.64,226.72c2.88,0,5.37.64,7.47,1.91,2.1,1.27,3.73,3.07,4.88,5.41,1.15,2.33,1.73,5.11,1.73,8.33s-.58,6-1.73,8.33c-1.15,2.33-2.78,4.13-4.88,5.4-2.1,1.27-4.59,1.91-7.47,1.91s-5.38-.64-7.48-1.91c-2.1-1.27-3.73-3.07-4.88-5.4-1.15-2.33-1.72-5.11-1.72-8.33s.58-6,1.72-8.33c1.15-2.33,2.78-4.13,4.88-5.41,2.1-1.27,4.59-1.91,7.48-1.91ZM88.64,230.17c-2.09,0-3.89.48-5.43,1.45-1.53.97-2.71,2.36-3.54,4.19-.83,1.82-1.24,4.01-1.24,6.55s.41,4.73,1.24,6.56c.83,1.82,2.01,3.22,3.54,4.19,1.53.97,3.34,1.45,5.43,1.45s3.93-.48,5.45-1.45c1.52-.97,2.69-2.36,3.52-4.19.83-1.82,1.24-4.01,1.24-6.56s-.41-4.73-1.24-6.55c-.83-1.82-2-3.22-3.52-4.19-1.52-.97-3.33-1.45-5.45-1.45Z"/>
  <path class="cls-1" d="M125.76,227.18c3.1,0,5.58.8,7.45,2.39,1.87,1.59,2.81,3.76,2.81,6.49s-.94,4.85-2.83,6.37c-1.89,1.52-4.38,2.28-7.48,2.28l-.32.23h-7.45v12.6h-3.68v-30.36h11.5ZM125.71,241.49c2.18,0,3.79-.45,4.85-1.36,1.06-.9,1.59-2.26,1.59-4.07s-.53-3.17-1.59-4.07c-1.06-.9-2.68-1.36-4.85-1.36h-7.77v10.86h7.77ZM127.83,242.22l10.03,15.32h-4.37l-8.74-13.29,3.08-2.02Z"/>
  <path class="cls-1" d="M151.98,227.18v30.36h-3.68v-30.36h3.68Z"/>
  <path class="cls-1" d="M186.71,227.18v3.45h-10.58v26.91h-3.68v-26.91h-10.58v-3.45h24.84Z"/>
  <path class="cls-1" d="M219.83,227.18v19.04c0,3.9-1.03,6.83-3.08,8.81-2.05,1.98-5,2.97-8.83,2.97s-6.74-.99-8.81-2.97c-2.07-1.98-3.1-4.91-3.1-8.81v-19.04h3.68v18.12c0,3.16.67,5.49,2,6.99,1.33,1.5,3.41,2.25,6.23,2.25s4.9-.75,6.23-2.25c1.33-1.5,2-3.83,2-6.99v-18.12h3.68Z"/>
  <path class="cls-1" d="M244.11,227.18c3.1,0,5.58.8,7.45,2.39,1.87,1.59,2.81,3.76,2.81,6.49s-.94,4.85-2.83,6.37c-1.89,1.52-4.38,2.28-7.48,2.28l-.32.23h-7.45v12.6h-3.68v-30.36h11.5ZM244.07,241.49c2.18,0,3.79-.45,4.85-1.36,1.06-.9,1.59-2.26,1.59-4.07s-.53-3.17-1.59-4.07c-1.06-.9-2.68-1.36-4.85-1.36h-7.77v10.86h7.77ZM246.18,242.22l10.03,15.32h-4.37l-8.74-13.29,3.08-2.02Z"/>
  <path class="cls-1" d="M290.85,257.54h-3.91l-3.22-8.42h-13.75l-3.22,8.42h-3.86l11.82-30.36h4.37l11.78,30.36ZM271.3,245.67h11.09l-5.57-14.95-5.52,14.95Z"/>
  <path class="cls-1" d="M329.99,258c-2.88,0-5.38-.64-7.48-1.91-2.1-1.27-3.73-3.07-4.88-5.4-1.15-2.33-1.72-5.11-1.72-8.33s.61-6,1.82-8.33c1.21-2.33,2.91-4.13,5.08-5.41,2.18-1.27,4.68-1.91,7.5-1.91,3,0,5.45.57,7.34,1.7,1.89,1.14,3.41,2.88,4.58,5.24l-3.36,1.84c-.67-1.75-1.74-3.07-3.2-3.98-1.46-.9-3.24-1.36-5.36-1.36s-3.87.48-5.45,1.45c-1.58.97-2.82,2.36-3.73,4.19-.9,1.82-1.36,4.01-1.36,6.55s.39,4.73,1.17,6.56c.78,1.82,1.95,3.22,3.5,4.19,1.55.97,3.44,1.45,5.68,1.45,1.26,0,2.43-.16,3.52-.48,1.09-.32,2.04-.8,2.85-1.45s1.45-1.46,1.91-2.44.69-2.13.69-3.45v-1.06h-9.66v-3.45h13.02v15.32h-2.9l-.18-5.66.78.14c-.8,1.9-2.05,3.37-3.77,4.42-1.72,1.04-3.85,1.56-6.39,1.56Z"/>
  <path class="cls-1" d="M378.71,257.54h-3.91l-3.22-8.42h-13.75l-3.22,8.42h-3.86l11.82-30.36h4.37l11.78,30.36ZM359.16,245.67h11.09l-5.57-14.95-5.52,14.95Z"/>
  <path class="cls-1" d="M399.82,227.18c3.1,0,5.58.8,7.45,2.39,1.87,1.59,2.81,3.76,2.81,6.49s-.94,4.85-2.83,6.37c-1.89,1.52-4.38,2.28-7.48,2.28l-.32.23h-7.45v12.6h-3.68v-30.36h11.5ZM399.78,241.49c2.18,0,3.79-.45,4.85-1.36,1.06-.9,1.59-2.26,1.59-4.07s-.53-3.17-1.59-4.07c-1.06-.9-2.68-1.36-4.85-1.36h-7.77v10.86h7.77ZM401.89,242.22l10.03,15.32h-4.37l-8.74-13.29,3.08-2.02Z"/>
  <path class="cls-1" d="M446.56,257.54h-3.91l-3.22-8.42h-13.75l-3.22,8.42h-3.86l11.82-30.36h4.37l11.78,30.36ZM427.01,245.67h11.09l-5.57-14.95-5.52,14.95Z"/>
  <path class="cls-1" d="M480,227.18v30.36h-4.55l-12.7-20.33-3.22-5.7h-.05l.18,4.6v21.44h-3.5v-30.36h4.55l12.65,20.24,3.27,5.84h.05l-.18-4.65v-21.44h3.5Z"/>
  <path class="cls-1" d="M514.73,227.18v3.45h-10.58v26.91h-3.68v-26.91h-10.58v-3.45h24.84Z"/>
  <path class="cls-1" d="M528.3,227.18v30.36h-3.68v-30.36h3.68Z"/>
  <path class="cls-1" d="M563.03,227.18v3.45h-10.58v26.91h-3.68v-26.91h-10.58v-3.45h24.84Z"/>
  <path class="cls-1" d="M592.97,257.54h-3.91l-3.22-8.42h-13.75l-3.22,8.42h-3.86l11.82-30.36h4.37l11.78,30.36ZM573.42,245.67h11.09l-5.57-14.95-5.52,14.95Z"/>
  <path class="cls-1" d="M627.56,220.88l2.12,2.12c-2.02,1.84-3.63,3.78-4.83,5.82-1.2,2.04-2.05,4.19-2.58,6.44-.52,2.25-.78,4.67-.78,7.25s.26,4.95.78,7.22c.52,2.27,1.38,4.42,2.58,6.44,1.2,2.02,2.81,3.97,4.83,5.84l-2.12,2.12c-3.25-2.82-5.7-6.05-7.36-9.68s-2.48-7.61-2.48-11.94.83-8.31,2.48-11.96c1.66-3.65,4.11-6.87,7.36-9.66Z"/>
  <path class="cls-1" d="M649.55,227.18c2.05,0,3.84.38,5.36,1.13,1.52.75,2.71,1.82,3.57,3.2.86,1.38,1.29,3.02,1.29,4.92s-.43,3.54-1.29,4.92c-.86,1.38-2.05,2.45-3.57,3.2-1.52.75-3.3,1.13-5.36,1.13h-7.04v11.87h-3.68v-30.36h10.72ZM649,242.22c2.39,0,4.14-.5,5.24-1.5,1.1-1,1.66-2.43,1.66-4.3s-.55-3.34-1.66-4.32c-1.1-.98-2.85-1.47-5.24-1.47h-6.49v11.59h6.49Z"/>
  <path class="cls-1" d="M674.02,227.18v30.36h-3.68v-30.36h3.68Z"/>
  <path class="cls-1" d="M699.64,226.72c2.88,0,5.37.64,7.47,1.91,2.1,1.27,3.73,3.07,4.88,5.41,1.15,2.33,1.73,5.11,1.73,8.33s-.58,6-1.73,8.33c-1.15,2.33-2.78,4.13-4.88,5.4-2.1,1.27-4.59,1.91-7.47,1.91s-5.38-.64-7.48-1.91c-2.1-1.27-3.73-3.07-4.88-5.4-1.15-2.33-1.72-5.11-1.72-8.33s.58-6,1.72-8.33c1.15-2.33,2.78-4.13,4.88-5.41,2.1-1.27,4.59-1.91,7.48-1.91ZM699.64,230.17c-2.09,0-3.89.48-5.43,1.45-1.53.97-2.71,2.36-3.54,4.19-.83,1.82-1.24,4.01-1.24,6.55s.41,4.73,1.24,6.56c.83,1.82,2.01,3.22,3.54,4.19,1.53.97,3.34,1.45,5.43,1.45s3.93-.48,5.45-1.45c1.52-.97,2.69-2.36,3.52-4.19.83-1.82,1.24-4.01,1.24-6.56s-.41-4.73-1.24-6.55c-.83-1.82-2-3.22-3.52-4.19-1.52-.97-3.33-1.45-5.45-1.45Z"/>
  <path class="cls-1" d="M737.5,258c-2.88,0-5.38-.64-7.48-1.91-2.1-1.27-3.73-3.07-4.88-5.4-1.15-2.33-1.72-5.11-1.72-8.33s.61-6,1.82-8.33c1.21-2.33,2.91-4.13,5.08-5.41,2.18-1.27,4.68-1.91,7.5-1.91,3,0,5.45.57,7.34,1.7,1.89,1.14,3.41,2.88,4.58,5.24l-3.36,1.84c-.67-1.75-1.74-3.07-3.2-3.98-1.46-.9-3.24-1.36-5.36-1.36s-3.87.48-5.45,1.45c-1.58.97-2.82,2.36-3.73,4.19-.9,1.82-1.36,4.01-1.36,6.55s.39,4.73,1.17,6.56c.78,1.82,1.95,3.22,3.5,4.19,1.55.97,3.44,1.45,5.68,1.45,1.26,0,2.43-.16,3.52-.48,1.09-.32,2.04-.8,2.85-1.45s1.45-1.46,1.91-2.44.69-2.13.69-3.45v-1.06h-9.66v-3.45h13.02v15.32h-2.9l-.18-5.66.78.14c-.8,1.9-2.05,3.37-3.77,4.42-1.72,1.04-3.85,1.56-6.39,1.56Z"/>
  <path class="cls-1" d="M774.25,258c-2.88,0-5.38-.64-7.48-1.91-2.1-1.27-3.73-3.07-4.88-5.4-1.15-2.33-1.72-5.11-1.72-8.33s.61-6,1.82-8.33c1.21-2.33,2.91-4.13,5.08-5.41,2.18-1.27,4.68-1.91,7.5-1.91,3,0,5.45.57,7.34,1.7,1.89,1.14,3.41,2.88,4.58,5.24l-3.36,1.84c-.67-1.75-1.74-3.07-3.2-3.98-1.46-.9-3.24-1.36-5.36-1.36s-3.87.48-5.45,1.45c-1.58.97-2.82,2.36-3.73,4.19-.9,1.82-1.36,4.01-1.36,6.55s.39,4.73,1.17,6.56c.78,1.82,1.95,3.22,3.5,4.19,1.55.97,3.44,1.45,5.68,1.45,1.26,0,2.43-.16,3.52-.48,1.09-.32,2.04-.8,2.85-1.45s1.45-1.46,1.91-2.44.69-2.13.69-3.45v-1.06h-9.66v-3.45h13.02v15.32h-2.9l-.18-5.66.78.14c-.8,1.9-2.05,3.37-3.77,4.42-1.72,1.04-3.85,1.56-6.39,1.56Z"/>
  <path class="cls-1" d="M802.45,227.18v30.36h-3.68v-30.36h3.68Z"/>
  <path class="cls-1" d="M840.03,257.54h-3.91l-3.22-8.42h-13.75l-3.22,8.42h-3.86l11.82-30.36h4.37l11.78,30.36ZM820.48,245.67h11.09l-5.57-14.95-5.52,14.95Z"/>
  <path class="cls-1" d="M242.32,292.18c2.05,0,3.84.38,5.36,1.13,1.52.75,2.71,1.82,3.57,3.2.86,1.38,1.29,3.02,1.29,4.92s-.43,3.54-1.29,4.92c-.86,1.38-2.05,2.45-3.57,3.2-1.52.75-3.3,1.13-5.36,1.13h-7.04v11.87h-3.68v-30.36h10.72ZM241.77,307.22c2.39,0,4.14-.5,5.24-1.5,1.1-1,1.66-2.43,1.66-4.3s-.55-3.34-1.66-4.32c-1.1-.98-2.85-1.47-5.24-1.47h-6.49v11.59h6.49Z"/>
  <path class="cls-1" d="M263.11,322.54v-30.36h21.3v3.45h-17.62v9.8h13.71v3.45h-13.71v10.21h18.31v3.45h-21.99Z"/>
  <path class="cls-1" d="M307.41,292.18c3.1,0,5.58.8,7.45,2.39,1.87,1.59,2.81,3.76,2.81,6.49s-.94,4.85-2.83,6.37c-1.89,1.52-4.38,2.28-7.48,2.28l-.32.23h-7.45v12.6h-3.68v-30.36h11.5ZM307.36,306.49c2.18,0,3.79-.45,4.85-1.36,1.06-.9,1.59-2.26,1.59-4.07s-.53-3.17-1.59-4.07c-1.06-.9-2.68-1.36-4.85-1.36h-7.77v10.86h7.77ZM309.48,307.22l10.03,15.32h-4.37l-8.74-13.29,3.08-2.02Z"/>
  <path class="cls-1" d="M359.3,292.18v30.36h-3.5v-19.09l.41-8h-.05l-9.98,27.09h-3.13l-9.98-27.09h-.05l.41,8v19.09h-3.5v-30.36h5.66l6.67,18.45,2.3,7.59h.09l2.35-7.54,6.62-18.49h5.66Z"/>
  <path class="cls-1" d="M372.68,322.54v-30.36h21.3v3.45h-17.62v9.8h13.71v3.45h-13.71v10.21h18.31v3.45h-21.99Z"/>
  <path class="cls-1" d="M426.82,292.18v3.45h-10.58v26.91h-3.68v-26.91h-10.58v-3.45h24.84Z"/>
  <path class="cls-1" d="M458.06,292.18v3.45h-10.58v26.91h-3.68v-26.91h-10.58v-3.45h24.84Z"/>
  <path class="cls-1" d="M467.95,322.54v-30.36h21.3v3.45h-17.62v9.8h13.71v3.45h-13.71v10.21h18.31v3.45h-21.99Z"/>
  <path class="cls-1" d="M524.57,292.18v30.36h-4.55l-12.7-20.33-3.22-5.7h-.05l.18,4.6v21.44h-3.5v-30.36h4.55l12.65,20.24,3.27,5.84h.05l-.18-4.65v-21.44h3.5Z"/>
  <path class="cls-1" d="M547.76,292.18c4.75,0,8.49,1.31,11.2,3.93,2.71,2.62,4.07,6.37,4.07,11.25s-1.36,8.62-4.07,11.25-6.45,3.93-11.2,3.93h-9.8v-30.36h9.8ZM548.12,319.09c3.46,0,6.17-1.03,8.12-3.1,1.95-2.07,2.92-4.94,2.92-8.62s-.97-6.55-2.92-8.62c-1.95-2.07-4.65-3.1-8.12-3.1h-6.49v23.46h6.49Z"/>
  <path class="cls-1" d="M586.81,291.72c2.88,0,5.37.64,7.47,1.91,2.1,1.27,3.73,3.07,4.88,5.41,1.15,2.33,1.73,5.11,1.73,8.33s-.58,6-1.73,8.33c-1.15,2.33-2.78,4.13-4.88,5.4-2.1,1.27-4.59,1.91-7.47,1.91s-5.38-.64-7.48-1.91c-2.1-1.27-3.73-3.07-4.88-5.4-1.15-2.33-1.72-5.11-1.72-8.33s.58-6,1.72-8.33c1.15-2.33,2.78-4.13,4.88-5.41,2.1-1.27,4.59-1.91,7.48-1.91ZM586.81,295.17c-2.09,0-3.89.48-5.43,1.45-1.53.97-2.71,2.36-3.54,4.19-.83,1.82-1.24,4.01-1.24,6.55s.41,4.73,1.24,6.56c.83,1.82,2.01,3.22,3.54,4.19,1.53.97,3.34,1.45,5.43,1.45s3.93-.48,5.45-1.45c1.52-.97,2.69-2.36,3.52-4.19.83-1.82,1.24-4.01,1.24-6.56s-.41-4.73-1.24-6.55c-.83-1.82-2-3.22-3.52-4.19-1.52-.97-3.33-1.45-5.45-1.45Z"/>
  <path class="cls-1" d="M609.12,329.12l-2.12-2.12c2.02-1.87,3.63-3.82,4.83-5.84s2.05-4.17,2.58-6.44c.52-2.27.78-4.68.78-7.22s-.26-4.99-.78-7.25c-.52-2.25-1.38-4.4-2.58-6.44-1.2-2.04-2.81-3.98-4.83-5.82l2.12-2.12c3.25,2.79,5.7,6.01,7.36,9.66,1.66,3.65,2.48,7.64,2.48,11.96s-.83,8.3-2.48,11.94c-1.66,3.63-4.11,6.86-7.36,9.68Z"/>
  <path class="cls-1" d="M631.34,317.02c.89,0,1.61.28,2.16.83.55.55.83,1.27.83,2.16s-.28,1.61-.83,2.16c-.55.55-1.27.83-2.16.83s-1.61-.28-2.16-.83c-.55-.55-.83-1.27-.83-2.16s.28-1.61.83-2.16c.55-.55,1.27-.83,2.16-.83Z"/>
</svg>