<?xml version="1.0" encoding="UTF-8"?>
<svg id="Livello_1" data-name="Livello 1" xmlns="http://www.w3.org/2000/svg" viewBox="0 0 1403.5 154.24">
  <defs>
    <style>
      .cls-1 {
        fill: #fff;
      }
    </style>
  </defs>
  <path class="cls-1" d="M40.89,4.8c7.68,0,14.42,1.44,20.21,4.32,5.79,2.88,10.3,7.01,13.54,12.38,3.23,5.38,4.85,11.78,4.85,19.2s-1.47,14.13-4.42,19.54c-2.94,5.41-7.1,9.52-12.48,12.34-5.38,2.82-11.71,4.22-19.01,4.22H11.32c-.96,0-1.44-.48-1.44-1.44v-2.88c0-.96.48-1.44,1.44-1.44h.67c2.11,0,3.71-.8,4.8-2.4,1.09-1.6,1.63-3.84,1.63-6.72V19.68c0-6.08-2.34-9.12-7.01-9.12h-.1c-.96,0-1.44-.48-1.44-1.44v-2.88c0-.96.48-1.44,1.44-1.44h29.57ZM33.69,62.4c0,2.5.42,4.48,1.25,5.95.83,1.47,2.78,2.21,5.86,2.21,7.62,0,13.54-2.37,17.76-7.1,4.22-4.74,6.34-12.32,6.34-22.75,0-9.28-2.18-16.62-6.53-22.03-4.35-5.41-11.07-8.11-20.16-8.11h-4.51v51.84Z"/>
  <path class="cls-1" d="M114.14,27.55c3.65,0,7.02.72,10.13,2.16,3.1,1.44,5.77,3.39,8.02,5.86,2.24,2.46,3.98,5.22,5.23,8.26,1.25,3.04,1.87,6.19,1.87,9.46,0,4.74-1.12,8.98-3.36,12.72-2.24,3.74-5.18,6.69-8.83,8.83-3.65,2.14-7.62,3.22-11.9,3.22-3.65,0-7.01-.71-10.08-2.11-3.07-1.41-5.75-3.31-8.02-5.71-2.27-2.4-4.03-5.15-5.28-8.26-1.25-3.1-1.87-6.35-1.87-9.74,0-4.67,1.09-8.86,3.26-12.58,2.17-3.71,5.09-6.66,8.74-8.83,3.65-2.18,7.68-3.26,12.1-3.26ZM118.27,70.27c1.21,0,2.56-.32,4.03-.96,1.47-.64,2.77-1.76,3.89-3.36,1.12-1.6,1.68-3.81,1.68-6.62,0-2.24-.43-4.72-1.3-7.44-.86-2.72-2.05-5.34-3.55-7.87-1.5-2.53-3.26-4.61-5.28-6.24-2.02-1.63-4.21-2.45-6.58-2.45-2.62,0-4.9.98-6.82,2.93-1.92,1.95-2.88,4.62-2.88,8.02,0,2.18.43,4.64,1.3,7.39.86,2.75,2.05,5.39,3.55,7.92,1.5,2.53,3.28,4.61,5.33,6.24,2.05,1.63,4.26,2.45,6.62,2.45ZM122.3,21.31l-3.55,1.73c-.38.19-.71.29-.96.29s-.53-.06-.82-.19c-.29-.13-.59-.25-.91-.38-1.98-.9-4.08-2.06-6.29-3.5s-4.1-3.14-5.66-5.09c-1.57-1.95-2.35-4.14-2.35-6.58,0-1.66.67-2.9,2.02-3.7,1.34-.8,2.91-1.2,4.7-1.2.7,0,1.41.08,2.11.24.7.16,1.18.53,1.44,1.1.9,2.05,1.73,3.89,2.5,5.52.77,1.63,1.74,3.34,2.93,5.14,1.18,1.79,2.8,4,4.85,6.62Z"/>
  <path class="cls-1" d="M186.33,28.03c0-2.88.35-5.94,1.06-9.17.7-3.23,1.87-6.27,3.5-9.12,1.63-2.85,3.84-5.18,6.62-7.01,2.78-1.82,6.29-2.74,10.51-2.74,5.12,0,8.91.98,11.38,2.93,2.46,1.95,3.7,4.37,3.7,7.25,0,1.67-.32,3.26-.96,4.8-.19.45-.46.83-.82,1.15-.35.32-.88.54-1.58.67-1.15.26-2.51.56-4.08.91-1.57.35-2.98.66-4.22.91-1.25.26-1.97.38-2.16.38-.38,0-.58-.29-.58-.86,0-.32.1-.67.29-1.06,1.21-2.43,1.82-4.54,1.82-6.34s-.46-3.15-1.39-4.08c-.93-.93-1.97-1.39-3.12-1.39-1.54,0-2.88.71-4.03,2.11-1.22,1.41-2.03,3.36-2.45,5.86-.42,2.5-.62,5.57-.62,9.22v6.34h12.86c.96,0,1.44.48,1.44,1.44v4.13c0,.96-.48,1.44-1.44,1.44h-12.86v26.11c0,2.56.59,4.72,1.78,6.48,1.18,1.76,2.96,2.64,5.33,2.64.96,0,1.44.48,1.44,1.44v2.88c0,.96-.48,1.44-1.44,1.44h-27.07c-.96,0-1.44-.48-1.44-1.44v-2.88c0-.96.48-1.44,1.44-1.44,2.37,0,4.13-.88,5.28-2.64,1.15-1.76,1.73-3.92,1.73-6.48v-16.42c0-1.73-.1-3.44-.29-5.14-.19-1.7-.78-3.09-1.78-4.18-.99-1.09-2.64-1.63-4.94-1.63-.96,0-1.44-.48-1.44-1.44v-2.88c0-.96.48-1.44,1.44-1.44h7.1v-.77Z"/>
  <path class="cls-1" d="M250.07,27.55c3.65,0,7.02.72,10.13,2.16,3.1,1.44,5.77,3.39,8.02,5.86,2.24,2.46,3.98,5.22,5.23,8.26,1.25,3.04,1.87,6.19,1.87,9.46,0,4.74-1.12,8.98-3.36,12.72-2.24,3.74-5.18,6.69-8.83,8.83s-7.62,3.22-11.9,3.22c-3.65,0-7.01-.71-10.08-2.11-3.07-1.41-5.74-3.31-8.02-5.71-2.27-2.4-4.03-5.15-5.28-8.26-1.25-3.1-1.87-6.35-1.87-9.74,0-4.67,1.09-8.86,3.26-12.58,2.18-3.71,5.09-6.66,8.74-8.83,3.65-2.18,7.68-3.26,12.1-3.26ZM254.2,70.27c1.21,0,2.56-.32,4.03-.96,1.47-.64,2.77-1.76,3.89-3.36,1.12-1.6,1.68-3.81,1.68-6.62,0-2.24-.43-4.72-1.3-7.44-.86-2.72-2.05-5.34-3.55-7.87-1.5-2.53-3.26-4.61-5.28-6.24-2.02-1.63-4.21-2.45-6.58-2.45-2.62,0-4.9.98-6.82,2.93-1.92,1.95-2.88,4.62-2.88,8.02,0,2.18.43,4.64,1.3,7.39.86,2.75,2.05,5.39,3.55,7.92,1.5,2.53,3.28,4.61,5.33,6.24,2.05,1.63,4.26,2.45,6.62,2.45Z"/>
  <path class="cls-1" d="M304.22,38.88c1.73-3.71,4.13-6.53,7.2-8.45,3.07-1.92,6.3-2.88,9.7-2.88,3.01,0,5.57.83,7.68,2.5,2.11,1.67,3.17,4.13,3.17,7.39,0,1.41-.13,2.66-.38,3.74-.26,1.09-.96,1.89-2.11,2.4l-9.02,3.65c-.38.13-.67.19-.86.19-.58,0-.86-.29-.86-.86,0-.19.06-.48.19-.86.38-.9.62-1.76.72-2.59.1-.83.14-1.57.14-2.21,0-1.73-.43-2.99-1.29-3.79-.87-.8-1.94-1.2-3.22-1.2-1.47,0-2.85.45-4.13,1.34-1.28.9-2.4,1.98-3.36,3.26-.96,1.28-1.66,2.53-2.11,3.74v17.66c0,2.56.58,4.72,1.73,6.48,1.15,1.76,2.91,2.64,5.28,2.64h.19c.96,0,1.44.48,1.44,1.44v2.88c0,.96-.48,1.44-1.44,1.44h-27.94c-.96,0-1.44-.48-1.44-1.44v-2.88c0-.96.48-1.44,1.44-1.44h.19c2.37,0,4.13-.88,5.28-2.64,1.15-1.76,1.73-3.92,1.73-6.48v-12.1c0-1.73-.11-3.39-.34-4.99-.23-1.6-.72-2.96-1.49-4.08-.77-1.12-2.05-1.78-3.84-1.97-.77-.06-1.15-.48-1.15-1.25v-3.26c0-.64.48-1.06,1.44-1.25,4.54-.7,8.53-1.82,11.95-3.36,3.42-1.54,5.74-2.75,6.96-3.65.19-.13.35-.19.48-.19h.19c.13,0,.19.06.19.19,0,.06-.08.54-.24,1.44-.16.9-.35,2.03-.58,3.41-.23,1.38-.48,2.78-.77,4.22-.29,1.44-.53,2.7-.72,3.79Z"/>
  <path class="cls-1" d="M434.01,71.04c.96,0,1.44.48,1.44,1.44v2.88c0,.96-.48,1.44-1.44,1.44h-27.07c-.96,0-1.44-.48-1.44-1.44v-2.88c0-.96.48-1.44,1.44-1.44h.48c2.05,0,3.39-.75,4.03-2.26.64-1.5.96-3.79.96-6.86v-16.42c0-1.73-.14-3.31-.43-4.75-.29-1.44-.93-2.59-1.92-3.46-.99-.86-2.51-1.3-4.56-1.3-2.75,0-5.17.86-7.25,2.59s-3.82,3.9-5.23,6.53v16.8c0,3.52.56,5.92,1.68,7.2,1.12,1.28,2.61,1.92,4.46,1.92h.77c.96,0,1.44.48,1.44,1.44v2.88c0,.96-.48,1.44-1.44,1.44h-26.11c-.96,0-1.44-.48-1.44-1.44v-2.88c0-.96.48-1.44,1.44-1.44h.67c1.34,0,2.53-.64,3.55-1.92,1.02-1.28,1.54-3.68,1.54-7.2v-16.42c0-3.07-.4-5.42-1.2-7.06-.8-1.63-2.71-2.45-5.71-2.45-1.6,0-3.2.4-4.8,1.2-1.6.8-3.01,1.82-4.22,3.07-1.22,1.25-2.11,2.58-2.69,3.98v17.66c0,2.56.56,4.72,1.68,6.48,1.12,1.76,2.61,2.64,4.46,2.64h.19c.96,0,1.44.48,1.44,1.44v2.88c0,.96-.48,1.44-1.44,1.44h-26.98c-.96,0-1.44-.48-1.44-1.44v-2.88c0-.96.48-1.44,1.44-1.44h.19c2.37,0,4.13-.88,5.28-2.64,1.15-1.76,1.73-3.92,1.73-6.48v-12.1c0-1.73-.11-3.39-.34-4.99-.23-1.6-.74-2.96-1.54-4.08-.8-1.12-2.1-1.78-3.89-1.97-.7-.06-1.05-.48-1.05-1.25v-3.26c0-.64.45-1.06,1.34-1.25,4.61-.7,8.56-1.79,11.86-3.26,3.29-1.47,5.58-2.66,6.86-3.55.32-.25.58-.38.77-.38h.1c.13,0,.19.06.19.19s-.03.38-.1.77l-1.63,11.81c.9-1.47,2.08-3.06,3.55-4.75,1.47-1.7,3.29-3.17,5.47-4.42,2.17-1.25,4.7-1.87,7.58-1.87,4.73,0,8.26.88,10.56,2.64,2.3,1.76,3.87,4.02,4.7,6.77,2.17-2.82,4.72-5.09,7.63-6.82,2.91-1.73,6.25-2.59,10.03-2.59,3.46,0,6.25.53,8.4,1.58,2.14,1.06,3.79,2.46,4.94,4.22,1.15,1.76,1.94,3.74,2.35,5.95s.62,4.46.62,6.77v15.84c0,2.56.59,4.72,1.78,6.48,1.18,1.76,2.93,2.64,5.23,2.64h1.06Z"/>
  <path class="cls-1" d="M489.11,59.04c0,2.3.35,4.37,1.06,6.19.7,1.82,2.24,2.9,4.61,3.22.77.06,1.15.48,1.15,1.25v3.17c0,.9-.48,1.34-1.44,1.34-3.14,0-5.75.18-7.82.53-2.08.35-3.87.8-5.38,1.34-1.5.54-2.99,1.14-4.46,1.78-.26.13-.48.19-.67.19h-.29c-.13,0-.19-.13-.19-.38s.06-.88.19-1.87c.13-.99.27-2.11.43-3.36.16-1.25.3-2.32.43-3.22-.32.83-1.01,1.95-2.06,3.36-1.06,1.41-2.59,2.67-4.61,3.79-2.02,1.12-4.66,1.68-7.92,1.68-2.18,0-4.5-.45-6.96-1.34-2.46-.9-4.79-2.34-6.96-4.32-2.18-1.98-3.95-4.59-5.33-7.82-1.38-3.23-2.06-7.18-2.06-11.86,0-5.95,1.07-10.77,3.22-14.45,2.14-3.68,4.93-6.38,8.35-8.11,3.42-1.73,7.05-2.59,10.9-2.59,3.13,0,6.01.48,8.64,1.44,2.62.96,4.93,2.34,6.91,4.13,1.66-.7,3.09-1.36,4.27-1.97,1.18-.61,2.19-1.23,3.02-1.87.32-.25.66-.51,1.01-.77.35-.25.75-.51,1.2-.77.19-.13.35-.19.48-.19h.1c.13,0,.19.06.19.19v31.3ZM475.67,43.97c-.19-1.28-.66-2.7-1.39-4.27-.74-1.57-1.84-2.91-3.31-4.03-1.47-1.12-3.46-1.68-5.95-1.68-3.07,0-5.47.75-7.2,2.26-1.73,1.5-2.93,3.44-3.6,5.81-.67,2.37-1.01,4.9-1.01,7.58,0,6.14,1.23,11.01,3.7,14.59,2.46,3.58,5.65,5.38,9.55,5.38,2.3,0,4.11-.5,5.42-1.49,1.31-.99,2.26-2,2.83-3.02.58-1.02.9-1.63.96-1.82v-19.3Z"/>
  <path class="cls-1" d="M547.77,59.62c1.09,2.69,2.83,5.09,5.23,7.2,2.4,2.11,5.46,3.17,9.17,3.17,2.05,0,4.19-.58,6.43-1.73,2.24-1.15,4.19-2.94,5.86-5.38.19-.32.45-.48.77-.48s.66.1,1.01.29c.35.19,1.3.74,2.83,1.63.26.19.38.45.38.77,0,.45-.19.99-.58,1.63-1.79,3.33-4.22,6.05-7.3,8.16-3.07,2.11-7.07,3.17-12,3.17-5.31,0-9.89-1.19-13.73-3.55-3.84-2.37-6.8-5.5-8.88-9.41-2.08-3.9-3.12-8.16-3.12-12.77s.66-8.21,1.97-11.38c1.31-3.17,3.06-5.73,5.23-7.68,2.17-1.95,4.62-3.39,7.34-4.32,2.72-.93,5.49-1.39,8.3-1.39,3.2,0,6.01.62,8.45,1.87,2.43,1.25,4.5,2.83,6.19,4.75,1.69,1.92,2.98,3.95,3.84,6.1.86,2.15,1.3,4.14,1.3,6,0,.51-.29.9-.86,1.15l-27.84,12.19ZM562.07,45.89c0-3.07-.74-5.6-2.21-7.58-1.47-1.98-3.33-2.98-5.57-2.98-2.62,0-4.7,1.04-6.24,3.12-1.54,2.08-2.3,4.69-2.3,7.82,0,.96.05,2.15.14,3.55.1,1.41.34,2.69.72,3.84l15.46-7.78Z"/>
  <path class="cls-1" d="M659.32,63.84c.51.38.77.8.77,1.25,0,.13-.06.38-.19.77-1.86,4.1-4.59,7.15-8.21,9.17-3.62,2.02-7.57,3.02-11.86,3.02-3.58,0-6.85-.78-9.79-2.35-2.95-1.57-5.44-3.66-7.49-6.29-2.05-2.62-3.55-5.57-4.51-8.83-.96-3.26-1.31-6.62-1.06-10.08.45-5.31,1.92-9.66,4.42-13.06,2.5-3.39,5.52-5.89,9.07-7.49,3.55-1.6,7.12-2.4,10.7-2.4,4.22,0,7.65.64,10.27,1.92,2.62,1.28,4.64,2.94,6.05,4.99,1.41,2.05,2.37,4.19,2.88,6.43.06.26.1.48.1.67,0,.51-.38.86-1.15,1.06l-11.04,2.88c-.38.13-.67.19-.86.19-.45,0-.67-.22-.67-.67,0-.26.02-.51.05-.77.03-.26.05-.61.05-1.06,0-2.05-.64-3.87-1.92-5.47-1.28-1.6-3.26-2.4-5.95-2.4-2.43,0-4.35.77-5.76,2.3-1.41,1.54-2.42,3.5-3.03,5.9-.61,2.4-.91,4.91-.91,7.54,0,3.14.42,6.11,1.25,8.93.83,2.82,2.19,5.1,4.08,6.86,1.89,1.76,4.46,2.64,7.73,2.64,2.56,0,4.93-.62,7.1-1.87s3.97-2.96,5.38-5.14c.25-.45.64-.67,1.15-.67.32,0,.61.1.86.29l2.5,1.73Z"/>
  <path class="cls-1" d="M693.5,27.55c3.65,0,7.02.72,10.13,2.16,3.1,1.44,5.78,3.39,8.02,5.86,2.24,2.46,3.98,5.22,5.23,8.26,1.25,3.04,1.87,6.19,1.87,9.46,0,4.74-1.12,8.98-3.36,12.72-2.24,3.74-5.19,6.69-8.83,8.83-3.65,2.14-7.62,3.22-11.9,3.22-3.65,0-7.01-.71-10.08-2.11-3.07-1.41-5.75-3.31-8.02-5.71-2.27-2.4-4.03-5.15-5.28-8.26-1.25-3.1-1.87-6.35-1.87-9.74,0-4.67,1.09-8.86,3.26-12.58,2.17-3.71,5.09-6.66,8.74-8.83,3.65-2.18,7.68-3.26,12.1-3.26ZM697.62,70.27c1.21,0,2.56-.32,4.03-.96,1.47-.64,2.77-1.76,3.89-3.36,1.12-1.6,1.68-3.81,1.68-6.62,0-2.24-.43-4.72-1.3-7.44-.86-2.72-2.05-5.34-3.55-7.87-1.5-2.53-3.26-4.61-5.28-6.24-2.02-1.63-4.21-2.45-6.58-2.45-2.62,0-4.9.98-6.82,2.93-1.92,1.95-2.88,4.62-2.88,8.02,0,2.18.43,4.64,1.3,7.39.86,2.75,2.05,5.39,3.55,7.92,1.5,2.53,3.28,4.61,5.33,6.24,2.05,1.63,4.26,2.45,6.62,2.45Z"/>
  <path class="cls-1" d="M754.46,71.04c.96,0,1.44.48,1.44,1.44v2.88c0,.96-.54,1.44-1.63,1.44h-27.17c-1.09,0-1.63-.48-1.63-1.44v-2.88c0-.96.48-1.44,1.44-1.44h.19c2.37,0,4.11-.88,5.23-2.64,1.12-1.76,1.68-3.92,1.68-6.48V25.92c0-1.79-.11-3.49-.34-5.09-.22-1.6-.72-2.96-1.49-4.08-.77-1.12-2.05-1.78-3.84-1.97-.77-.06-1.15-.48-1.15-1.25v-3.26c0-.38.13-.64.38-.77.25-.13.61-.29,1.06-.48,4.54-1.66,8.17-3.22,10.89-4.66,2.72-1.44,4.98-2.83,6.77-4.18.13-.13.25-.19.38-.19h.29c.13,0,.19.06.19.19v61.63c0,2.56.58,4.74,1.73,6.53,1.15,1.79,2.91,2.69,5.28,2.69h.29Z"/>
  <path class="cls-1" d="M786.9,27.55c3.65,0,7.02.72,10.13,2.16,3.1,1.44,5.78,3.39,8.02,5.86,2.24,2.46,3.98,5.22,5.23,8.26,1.25,3.04,1.87,6.19,1.87,9.46,0,4.74-1.12,8.98-3.36,12.72-2.24,3.74-5.19,6.69-8.83,8.83-3.65,2.14-7.62,3.22-11.9,3.22-3.65,0-7.01-.71-10.08-2.11-3.07-1.41-5.75-3.31-8.02-5.71-2.27-2.4-4.03-5.15-5.28-8.26-1.25-3.1-1.87-6.35-1.87-9.74,0-4.67,1.09-8.86,3.26-12.58,2.18-3.71,5.09-6.66,8.74-8.83,3.65-2.18,7.68-3.26,12.1-3.26ZM791.03,70.27c1.22,0,2.56-.32,4.03-.96,1.47-.64,2.77-1.76,3.89-3.36,1.12-1.6,1.68-3.81,1.68-6.62,0-2.24-.43-4.72-1.3-7.44-.86-2.72-2.05-5.34-3.55-7.87-1.51-2.53-3.27-4.61-5.28-6.24-2.02-1.63-4.21-2.45-6.58-2.45-2.62,0-4.9.98-6.82,2.93-1.92,1.95-2.88,4.62-2.88,8.02,0,2.18.43,4.64,1.29,7.39.87,2.75,2.05,5.39,3.55,7.92,1.5,2.53,3.28,4.61,5.33,6.24,2.05,1.63,4.26,2.45,6.62,2.45Z"/>
  <path class="cls-1" d="M841.05,38.88c1.73-3.71,4.13-6.53,7.2-8.45,3.07-1.92,6.3-2.88,9.7-2.88,3.01,0,5.57.83,7.68,2.5,2.11,1.67,3.17,4.13,3.17,7.39,0,1.41-.13,2.66-.38,3.74-.26,1.09-.96,1.89-2.11,2.4l-9.02,3.65c-.38.13-.67.19-.87.19-.58,0-.86-.29-.86-.86,0-.19.06-.48.19-.86.38-.9.62-1.76.72-2.59.1-.83.14-1.57.14-2.21,0-1.73-.43-2.99-1.29-3.79-.86-.8-1.94-1.2-3.22-1.2-1.47,0-2.85.45-4.13,1.34-1.28.9-2.4,1.98-3.36,3.26-.96,1.28-1.66,2.53-2.11,3.74v17.66c0,2.56.58,4.72,1.73,6.48,1.15,1.76,2.91,2.64,5.28,2.64h.19c.96,0,1.44.48,1.44,1.44v2.88c0,.96-.48,1.44-1.44,1.44h-27.94c-.96,0-1.44-.48-1.44-1.44v-2.88c0-.96.48-1.44,1.44-1.44h.19c2.37,0,4.13-.88,5.28-2.64,1.15-1.76,1.73-3.92,1.73-6.48v-12.1c0-1.73-.11-3.39-.34-4.99-.23-1.6-.72-2.96-1.49-4.08-.77-1.12-2.05-1.78-3.84-1.97-.77-.06-1.15-.48-1.15-1.25v-3.26c0-.64.48-1.06,1.44-1.25,4.54-.7,8.53-1.82,11.95-3.36,3.42-1.54,5.74-2.75,6.96-3.65.19-.13.35-.19.48-.19h.19c.13,0,.19.06.19.19,0,.06-.08.54-.24,1.44-.16.9-.35,2.03-.58,3.41-.22,1.38-.48,2.78-.77,4.22-.29,1.44-.53,2.7-.72,3.79Z"/>
  <path class="cls-1" d="M889.91,59.62c1.09,2.69,2.83,5.09,5.23,7.2,2.4,2.11,5.46,3.17,9.17,3.17,2.05,0,4.19-.58,6.43-1.73,2.24-1.15,4.19-2.94,5.86-5.38.19-.32.45-.48.77-.48s.65.1,1.01.29c.35.19,1.29.74,2.83,1.63.25.19.38.45.38.77,0,.45-.19.99-.58,1.63-1.79,3.33-4.22,6.05-7.3,8.16-3.07,2.11-7.07,3.17-12,3.17-5.31,0-9.89-1.19-13.73-3.55-3.84-2.37-6.8-5.5-8.88-9.41-2.08-3.9-3.12-8.16-3.12-12.77s.66-8.21,1.97-11.38c1.31-3.17,3.05-5.73,5.23-7.68,2.17-1.95,4.62-3.39,7.34-4.32,2.72-.93,5.49-1.39,8.3-1.39,3.2,0,6.02.62,8.45,1.87,2.43,1.25,4.5,2.83,6.19,4.75s2.98,3.95,3.84,6.1c.87,2.15,1.3,4.14,1.3,6,0,.51-.29.9-.87,1.15l-27.84,12.19ZM904.22,45.89c0-3.07-.74-5.6-2.21-7.58-1.47-1.98-3.33-2.98-5.57-2.98-2.62,0-4.71,1.04-6.24,3.12-1.54,2.08-2.3,4.69-2.3,7.82,0,.96.05,2.15.14,3.55.1,1.41.34,2.69.72,3.84l15.46-7.78Z"/>
  <path class="cls-1" d="M1007.32,59.04c0,2.3.35,4.37,1.06,6.19.7,1.82,2.24,2.9,4.61,3.22.77.06,1.15.48,1.15,1.25v3.17c0,.9-.48,1.34-1.44,1.34-3.14,0-5.75.18-7.82.53-2.08.35-3.87.8-5.38,1.34-1.5.54-2.99,1.14-4.46,1.78-.26.13-.48.19-.67.19h-.29c-.13,0-.19-.13-.19-.38s.06-.88.19-1.87c.13-.99.27-2.11.43-3.36.16-1.25.3-2.32.43-3.22-.32.83-1.01,1.95-2.06,3.36-1.06,1.41-2.59,2.67-4.61,3.79-2.02,1.12-4.66,1.68-7.92,1.68-2.18,0-4.5-.45-6.96-1.34-2.46-.9-4.79-2.34-6.96-4.32-2.18-1.98-3.95-4.59-5.33-7.82-1.38-3.23-2.06-7.18-2.06-11.86,0-5.95,1.07-10.77,3.21-14.45,2.14-3.68,4.93-6.38,8.35-8.11,3.42-1.73,7.05-2.59,10.89-2.59,3.13,0,6.02.48,8.64,1.44,2.62.96,4.93,2.34,6.91,4.13,1.66-.7,3.09-1.36,4.27-1.97,1.18-.61,2.19-1.23,3.03-1.87.32-.25.65-.51,1.01-.77.35-.25.75-.51,1.2-.77.19-.13.35-.19.48-.19h.1c.13,0,.19.06.19.19v31.3ZM993.88,43.97c-.19-1.28-.66-2.7-1.39-4.27-.74-1.57-1.84-2.91-3.31-4.03-1.47-1.12-3.46-1.68-5.95-1.68-3.07,0-5.47.75-7.2,2.26-1.73,1.5-2.93,3.44-3.6,5.81-.67,2.37-1.01,4.9-1.01,7.58,0,6.14,1.23,11.01,3.7,14.59,2.46,3.58,5.65,5.38,9.55,5.38,2.3,0,4.11-.5,5.42-1.49,1.31-.99,2.26-2,2.83-3.02.58-1.02.9-1.63.96-1.82v-19.3Z"/>
  <path class="cls-1" d="M1050.81,71.04c.96,0,1.44.48,1.44,1.44v2.88c0,.96-.54,1.44-1.63,1.44h-27.17c-1.09,0-1.63-.48-1.63-1.44v-2.88c0-.96.48-1.44,1.44-1.44h.19c2.37,0,4.11-.88,5.23-2.64,1.12-1.76,1.68-3.92,1.68-6.48v-10.18c0-1.47-.11-2.94-.34-4.42-.23-1.47-.72-2.75-1.49-3.84-.77-1.09-2.05-1.73-3.84-1.92-.77-.06-1.15-.48-1.15-1.25v-3.26c0-.38.13-.66.38-.82.26-.16.61-.3,1.06-.43,5.05-1.66,8.94-3.38,11.66-5.14,2.72-1.76,4.72-3.31,6-4.66.13-.13.26-.19.38-.19h.29c.13,0,.19.06.19.19v35.81c0,2.56.58,4.74,1.73,6.53,1.15,1.79,2.91,2.69,5.28,2.69h.29ZM1037.08,5.76c1.66,0,3.29.8,4.9,2.4,1.6,1.6,2.4,3.2,2.4,4.8s-.8,3.2-2.4,4.8c-1.6,1.6-3.23,2.4-4.9,2.4-1.54,0-3.14-.8-4.8-2.4-1.6-1.54-2.4-3.14-2.4-4.8s.8-3.2,2.4-4.8c1.6-1.6,3.2-2.4,4.8-2.4Z"/>
  <path class="cls-1" d="M1094.58,25.92c0-1.73-.11-3.39-.34-4.99-.22-1.6-.72-2.96-1.49-4.08-.77-1.12-2.05-1.78-3.84-1.97-.77-.06-1.15-.48-1.15-1.25v-3.26c0-.38.11-.66.34-.82.22-.16.56-.3,1.01-.43,5.12-1.66,9.09-3.33,11.9-4.99,2.82-1.66,4.86-2.98,6.14-3.94.19-.13.35-.19.48-.19h.1c.13,0,.19.06.19.19v32.06c.9-1.28,2.38-2.38,4.46-3.31,2.08-.93,4.46-1.39,7.15-1.39s5.29.45,8.02,1.34c2.72.9,5.23,2.34,7.54,4.32,2.3,1.98,4.18,4.59,5.62,7.82,1.44,3.23,2.16,7.19,2.16,11.86s-1.01,9.2-3.03,13.01c-2.02,3.81-4.91,6.78-8.69,8.93-3.78,2.14-8.26,3.22-13.44,3.22-4.22,0-8.1-.72-11.62-2.16-3.52-1.44-6.32-3.78-8.4-7.01-2.08-3.23-3.12-7.47-3.12-12.72v-30.24ZM1107.92,58.18c0,3.14.51,5.7,1.54,7.68,1.02,1.98,2.37,3.46,4.03,4.42s3.39,1.44,5.18,1.44c3.14,0,5.55-.75,7.25-2.26,1.7-1.5,2.88-3.47,3.55-5.9.67-2.43,1.01-4.96,1.01-7.58,0-6.14-1.29-11.01-3.89-14.59-2.59-3.58-6.35-5.38-11.28-5.38-2.69,0-5.15.83-7.39,2.5v19.68Z"/>
  <path class="cls-1" d="M1171.76,38.88c1.73-3.71,4.13-6.53,7.2-8.45,3.07-1.92,6.3-2.88,9.7-2.88,3.01,0,5.57.83,7.68,2.5,2.11,1.67,3.17,4.13,3.17,7.39,0,1.41-.13,2.66-.38,3.74-.26,1.09-.96,1.89-2.11,2.4l-9.02,3.65c-.38.13-.67.19-.86.19-.58,0-.87-.29-.87-.86,0-.19.06-.48.19-.86.38-.9.62-1.76.72-2.59.1-.83.14-1.57.14-2.21,0-1.73-.43-2.99-1.3-3.79-.86-.8-1.94-1.2-3.21-1.2-1.47,0-2.85.45-4.13,1.34-1.28.9-2.4,1.98-3.36,3.26-.96,1.28-1.66,2.53-2.11,3.74v17.66c0,2.56.58,4.72,1.73,6.48,1.15,1.76,2.91,2.64,5.28,2.64h.19c.96,0,1.44.48,1.44,1.44v2.88c0,.96-.48,1.44-1.44,1.44h-27.94c-.96,0-1.44-.48-1.44-1.44v-2.88c0-.96.48-1.44,1.44-1.44h.19c2.37,0,4.13-.88,5.28-2.64,1.15-1.76,1.73-3.92,1.73-6.48v-12.1c0-1.73-.11-3.39-.34-4.99-.22-1.6-.72-2.96-1.49-4.08-.77-1.12-2.05-1.78-3.84-1.97-.77-.06-1.15-.48-1.15-1.25v-3.26c0-.64.48-1.06,1.44-1.25,4.54-.7,8.53-1.82,11.95-3.36,3.42-1.54,5.74-2.75,6.96-3.65.19-.13.35-.19.48-.19h.19c.13,0,.19.06.19.19,0,.06-.08.54-.24,1.44-.16.9-.35,2.03-.58,3.41-.22,1.38-.48,2.78-.77,4.22-.29,1.44-.53,2.7-.72,3.79Z"/>
  <path class="cls-1" d="M1255,59.04c0,2.3.35,4.37,1.06,6.19.7,1.82,2.24,2.9,4.61,3.22.77.06,1.15.48,1.15,1.25v3.17c0,.9-.48,1.34-1.44,1.34-3.14,0-5.75.18-7.82.53-2.08.35-3.87.8-5.38,1.34-1.5.54-2.99,1.14-4.46,1.78-.26.13-.48.19-.67.19h-.29c-.13,0-.19-.13-.19-.38s.06-.88.19-1.87c.13-.99.27-2.11.43-3.36.16-1.25.3-2.32.43-3.22-.32.83-1.01,1.95-2.06,3.36-1.06,1.41-2.59,2.67-4.61,3.79-2.02,1.12-4.66,1.68-7.92,1.68-2.18,0-4.5-.45-6.96-1.34-2.46-.9-4.79-2.34-6.96-4.32-2.18-1.98-3.95-4.59-5.33-7.82-1.38-3.23-2.06-7.18-2.06-11.86,0-5.95,1.07-10.77,3.21-14.45,2.14-3.68,4.93-6.38,8.35-8.11,3.42-1.73,7.05-2.59,10.89-2.59,3.13,0,6.02.48,8.64,1.44,2.62.96,4.93,2.34,6.91,4.13,1.66-.7,3.09-1.36,4.27-1.97,1.18-.61,2.19-1.23,3.03-1.87.32-.25.65-.51,1.01-.77.35-.25.75-.51,1.2-.77.19-.13.35-.19.48-.19h.1c.13,0,.19.06.19.19v31.3ZM1241.56,43.97c-.19-1.28-.66-2.7-1.39-4.27-.74-1.57-1.84-2.91-3.31-4.03-1.47-1.12-3.46-1.68-5.95-1.68-3.07,0-5.47.75-7.2,2.26-1.73,1.5-2.93,3.44-3.6,5.81-.67,2.37-1.01,4.9-1.01,7.58,0,6.14,1.23,11.01,3.7,14.59,2.46,3.58,5.65,5.38,9.55,5.38,2.3,0,4.11-.5,5.42-1.49,1.31-.99,2.26-2,2.83-3.02.58-1.02.9-1.63.96-1.82v-19.3Z"/>
  <path class="cls-1" d="M1324.79,45.5v16.42c0,3.52.56,5.92,1.68,7.2,1.12,1.28,2.61,1.92,4.46,1.92h.77c.96,0,1.44.48,1.44,1.44v2.88c0,.96-.48,1.44-1.44,1.44h-25.54c-.96,0-1.44-.48-1.44-1.44v-2.88c0-.96.48-1.44,1.44-1.44h.67c1.34,0,2.43-.64,3.27-1.92.83-1.28,1.25-3.68,1.25-7.2v-16.42c0-3.07-.48-5.42-1.44-7.06-.96-1.63-2.78-2.45-5.47-2.45-1.6,0-3.2.4-4.8,1.2-1.6.8-3.01,1.82-4.22,3.07-1.22,1.25-2.11,2.58-2.69,3.98v17.66c0,2.56.56,4.72,1.68,6.48,1.12,1.76,2.61,2.64,4.46,2.64h.19c.96,0,1.44.48,1.44,1.44v2.88c0,.96-.48,1.44-1.44,1.44h-26.98c-.96,0-1.44-.48-1.44-1.44v-2.88c0-.96.48-1.44,1.44-1.44h.19c2.37,0,4.13-.88,5.28-2.64,1.15-1.76,1.73-3.92,1.73-6.48v-12.1c0-1.73-.11-3.39-.34-4.99-.23-1.6-.74-2.96-1.54-4.08-.8-1.12-2.1-1.78-3.89-1.97-.71-.06-1.06-.48-1.06-1.25v-3.26c0-.64.45-1.06,1.34-1.25,4.61-.7,8.56-1.79,11.86-3.26,3.3-1.47,5.58-2.66,6.87-3.55.32-.25.58-.38.77-.38h.1c.13,0,.19.06.19.19s-.03.38-.1.77l-1.63,11.81c.89-1.47,2.08-3.06,3.55-4.75,1.47-1.7,3.3-3.17,5.47-4.42s4.7-1.87,7.58-1.87c3.46,0,6.27.51,8.45,1.54,2.18,1.02,3.82,2.4,4.95,4.13,1.12,1.73,1.89,3.65,2.3,5.76s.62,4.29.62,6.53Z"/>
  <path class="cls-1" d="M1386.81,59.04c0,2.3.35,4.37,1.05,6.19.71,1.82,2.24,2.9,4.61,3.22.77.06,1.15.48,1.15,1.25v3.17c0,.9-.48,1.34-1.44,1.34-3.14,0-5.74.18-7.82.53-2.08.35-3.87.8-5.38,1.34-1.5.54-2.99,1.14-4.46,1.78-.26.13-.48.19-.67.19h-.19c-.19,0-.29-.1-.29-.29.13-1.47.27-2.91.43-4.32.16-1.41.37-2.82.62-4.22-.32.83-1.01,1.95-2.06,3.36-1.05,1.41-2.59,2.67-4.61,3.79-2.02,1.12-4.66,1.68-7.92,1.68-2.18,0-4.5-.45-6.96-1.34-2.46-.9-4.79-2.34-6.96-4.32-2.18-1.98-3.95-4.59-5.33-7.82-1.38-3.23-2.06-7.18-2.06-11.86,0-5.95,1.07-10.77,3.22-14.45,2.14-3.68,4.93-6.38,8.35-8.11s7.06-2.59,10.9-2.59c4.86,0,8.99,1.5,12.38,4.51v-6.14c0-1.73-.11-3.39-.34-4.99-.22-1.6-.72-2.96-1.49-4.08-.77-1.12-2.05-1.78-3.84-1.97-.77-.06-1.15-.48-1.15-1.25v-3.26c0-.38.13-.66.38-.82.26-.16.61-.3,1.06-.43,5.05-1.66,9.01-3.33,11.86-4.99,2.85-1.66,4.91-2.98,6.19-3.94.19-.13.35-.19.48-.19h.1c.13,0,.19.06.19.19v58.85ZM1373.36,45.7c0-3.01-.97-5.57-2.93-7.68-1.95-2.11-4.53-3.17-7.73-3.17s-5.47.67-7.2,2.02c-1.73,1.34-2.93,3.14-3.6,5.38-.67,2.24-1.01,4.7-1.01,7.39,0,6.14,1.23,11.01,3.7,14.59,2.46,3.58,5.65,5.38,9.55,5.38,1.73,0,3.23-.43,4.51-1.3,1.28-.86,2.32-1.93,3.12-3.22.8-1.28,1.33-2.5,1.58-3.65v-15.74Z"/>
  <path class="cls-1" d="M115.3,121.48h-17.19v9.58h13.41v3.38h-13.41v13.36h-3.6v-29.7h20.79v3.38Z"/>
  <path class="cls-1" d="M128.93,118.1v29.7h-3.6v-29.7h3.6Z"/>
  <path class="cls-1" d="M153.99,117.65c2.82,0,5.26.62,7.31,1.87,2.05,1.25,3.64,3.01,4.77,5.29,1.12,2.28,1.69,5,1.69,8.15s-.56,5.87-1.69,8.15c-1.12,2.28-2.71,4.04-4.77,5.29-2.05,1.25-4.49,1.87-7.31,1.87s-5.26-.62-7.31-1.87c-2.05-1.24-3.64-3.01-4.77-5.29-1.12-2.28-1.69-4.99-1.69-8.15s.56-5.86,1.69-8.15c1.12-2.28,2.71-4.04,4.77-5.29,2.05-1.24,4.49-1.87,7.31-1.87ZM153.99,121.03c-2.04,0-3.81.47-5.31,1.42-1.5.94-2.65,2.31-3.46,4.09-.81,1.79-1.21,3.92-1.21,6.41s.41,4.63,1.21,6.41c.81,1.79,1.96,3.15,3.46,4.09,1.5.95,3.27,1.42,5.31,1.42s3.85-.47,5.33-1.42c1.49-.95,2.63-2.31,3.44-4.09.81-1.78,1.21-3.92,1.21-6.41s-.41-4.63-1.21-6.41c-.81-1.78-1.96-3.15-3.44-4.09-1.48-.95-3.26-1.42-5.33-1.42Z"/>
  <path class="cls-1" d="M190.31,118.1c3.03,0,5.46.78,7.29,2.34,1.83,1.56,2.75,3.68,2.75,6.35s-.92,4.75-2.77,6.23c-1.85,1.48-4.28,2.23-7.31,2.23l-.32.22h-7.29v12.33h-3.6v-29.7h11.25ZM190.26,132.09c2.13,0,3.71-.44,4.75-1.33,1.04-.88,1.55-2.21,1.55-3.98s-.52-3.1-1.55-3.98c-1.04-.88-2.62-1.33-4.75-1.33h-7.61v10.62h7.61ZM192.33,132.81l9.81,14.99h-4.27l-8.55-13,3.01-1.98Z"/>
  <path class="cls-1" d="M215.96,118.1v29.7h-3.6v-29.7h3.6Z"/>
  <path class="cls-1" d="M249.93,118.1v3.38h-10.35v26.32h-3.6v-26.32h-10.35v-3.38h24.3Z"/>
  <path class="cls-1" d="M282.33,118.1v18.63c0,3.81-1.01,6.68-3.02,8.62-2.01,1.93-4.89,2.9-8.64,2.9s-6.59-.97-8.62-2.9c-2.02-1.94-3.04-4.81-3.04-8.62v-18.63h3.6v17.73c0,3.09.65,5.37,1.96,6.84,1.3,1.47,3.34,2.2,6.1,2.2s4.79-.73,6.1-2.2c1.31-1.47,1.96-3.75,1.96-6.84v-17.73h3.6Z"/>
  <path class="cls-1" d="M306.09,118.1c3.03,0,5.46.78,7.29,2.34,1.83,1.56,2.75,3.68,2.75,6.35s-.92,4.75-2.77,6.23c-1.84,1.48-4.28,2.23-7.31,2.23l-.31.22h-7.29v12.33h-3.6v-29.7h11.25ZM306.05,132.09c2.13,0,3.71-.44,4.75-1.33,1.04-.88,1.55-2.21,1.55-3.98s-.52-3.1-1.55-3.98c-1.04-.88-2.62-1.33-4.75-1.33h-7.61v10.62h7.61ZM308.12,132.81l9.81,14.99h-4.27l-8.55-13,3.02-1.98Z"/>
  <path class="cls-1" d="M351.81,147.8h-3.83l-3.15-8.24h-13.46l-3.15,8.24h-3.78l11.57-29.7h4.27l11.52,29.7ZM332.69,136.19h10.84l-5.44-14.62-5.4,14.62Z"/>
  <path class="cls-1" d="M390.11,148.25c-2.82,0-5.26-.62-7.31-1.87-2.05-1.24-3.64-3.01-4.77-5.29-1.12-2.28-1.69-4.99-1.69-8.15s.59-5.86,1.78-8.15c1.19-2.28,2.84-4.04,4.97-5.29,2.13-1.24,4.57-1.87,7.33-1.87,2.94,0,5.33.56,7.18,1.66,1.85,1.11,3.34,2.82,4.48,5.13l-3.29,1.8c-.66-1.71-1.7-3.01-3.13-3.89-1.43-.88-3.17-1.33-5.24-1.33s-3.79.47-5.33,1.42c-1.54.94-2.76,2.31-3.64,4.09-.88,1.79-1.33,3.92-1.33,6.41s.38,4.63,1.15,6.41c.76,1.79,1.9,3.15,3.42,4.09,1.51.95,3.37,1.42,5.56,1.42,1.23,0,2.38-.16,3.44-.47,1.06-.31,1.99-.79,2.79-1.42.79-.63,1.42-1.42,1.87-2.39.45-.96.67-2.08.67-3.38v-1.04h-9.45v-3.38h12.73v14.99h-2.83l-.18-5.53.77.14c-.78,1.86-2.01,3.3-3.69,4.32-1.68,1.02-3.77,1.53-6.26,1.53Z"/>
  <path class="cls-1" d="M437.76,147.8h-3.83l-3.15-8.24h-13.46l-3.15,8.24h-3.78l11.57-29.7h4.27l11.52,29.7ZM418.64,136.19h10.84l-5.44-14.62-5.4,14.62Z"/>
  <path class="cls-1" d="M458.42,118.1c3.03,0,5.46.78,7.29,2.34,1.83,1.56,2.75,3.68,2.75,6.35s-.92,4.75-2.77,6.23c-1.85,1.48-4.28,2.23-7.31,2.23l-.32.22h-7.29v12.33h-3.6v-29.7h11.25ZM458.37,132.09c2.13,0,3.71-.44,4.75-1.33,1.04-.88,1.55-2.21,1.55-3.98s-.52-3.1-1.55-3.98c-1.04-.88-2.62-1.33-4.75-1.33h-7.61v10.62h7.61ZM460.44,132.81l9.81,14.99h-4.27l-8.55-13,3.01-1.98Z"/>
  <path class="cls-1" d="M504.14,147.8h-3.82l-3.15-8.24h-13.46l-3.15,8.24h-3.78l11.56-29.7h4.28l11.52,29.7ZM485.01,136.19h10.85l-5.45-14.62-5.4,14.62Z"/>
  <path class="cls-1" d="M536.85,118.1v29.7h-4.46l-12.42-19.89-3.15-5.58h-.04l.18,4.5v20.97h-3.42v-29.7h4.46l12.38,19.8,3.19,5.71h.05l-.18-4.54v-20.97h3.42Z"/>
  <path class="cls-1" d="M570.83,118.1v3.38h-10.35v26.32h-3.6v-26.32h-10.35v-3.38h24.3Z"/>
  <path class="cls-1" d="M584.1,118.1v29.7h-3.6v-29.7h3.6Z"/>
  <path class="cls-1" d="M618.07,118.1v3.38h-10.35v26.32h-3.6v-26.32h-10.35v-3.38h24.3Z"/>
  <path class="cls-1" d="M647.37,147.8h-3.83l-3.15-8.24h-13.46l-3.15,8.24h-3.78l11.57-29.7h4.27l11.52,29.7ZM628.24,136.19h10.84l-5.44-14.62-5.4,14.62Z"/>
  <path class="cls-1" d="M681.21,111.94l2.07,2.07c-1.98,1.8-3.55,3.7-4.72,5.69-1.17,2-2.01,4.09-2.52,6.3-.51,2.21-.77,4.57-.77,7.09s.25,4.85.77,7.07c.51,2.22,1.35,4.32,2.52,6.3s2.75,3.88,4.72,5.72l-2.07,2.07c-3.18-2.76-5.58-5.92-7.2-9.47-1.62-3.55-2.43-7.45-2.43-11.68s.81-8.13,2.43-11.7c1.62-3.57,4.02-6.72,7.2-9.45Z"/>
  <path class="cls-1" d="M702.72,118.1c2.01,0,3.76.37,5.24,1.1,1.48.74,2.65,1.78,3.49,3.13.84,1.35,1.26,2.96,1.26,4.81s-.42,3.47-1.26,4.81c-.84,1.35-2,2.39-3.49,3.13-1.48.74-3.23,1.1-5.24,1.1h-6.88v11.61h-3.6v-29.7h10.49ZM702.18,132.81c2.34,0,4.05-.49,5.13-1.46,1.08-.97,1.62-2.38,1.62-4.21s-.54-3.27-1.62-4.23c-1.08-.96-2.79-1.44-5.13-1.44h-6.34v11.34h6.34Z"/>
  <path class="cls-1" d="M726.66,118.1v29.7h-3.6v-29.7h3.6Z"/>
  <path class="cls-1" d="M751.72,117.65c2.82,0,5.26.62,7.31,1.87,2.05,1.25,3.64,3.01,4.77,5.29,1.12,2.28,1.69,5,1.69,8.15s-.56,5.87-1.69,8.15c-1.12,2.28-2.71,4.04-4.77,5.29-2.06,1.25-4.49,1.87-7.31,1.87s-5.26-.62-7.31-1.87c-2.06-1.24-3.65-3.01-4.77-5.29-1.12-2.28-1.69-4.99-1.69-8.15s.56-5.86,1.69-8.15c1.12-2.28,2.71-4.04,4.77-5.29,2.05-1.24,4.49-1.87,7.31-1.87ZM751.72,121.03c-2.04,0-3.81.47-5.31,1.42-1.5.94-2.65,2.31-3.46,4.09-.81,1.79-1.21,3.92-1.21,6.41s.4,4.63,1.21,6.41c.81,1.79,1.96,3.15,3.46,4.09,1.5.95,3.27,1.42,5.31,1.42s3.85-.47,5.33-1.42c1.48-.95,2.63-2.31,3.44-4.09.81-1.78,1.21-3.92,1.21-6.41s-.41-4.63-1.21-6.41c-.81-1.78-1.96-3.15-3.44-4.09-1.48-.95-3.26-1.42-5.33-1.42Z"/>
  <path class="cls-1" d="M788.76,148.25c-2.82,0-5.26-.62-7.31-1.87-2.05-1.24-3.64-3.01-4.77-5.29-1.12-2.28-1.69-4.99-1.69-8.15s.59-5.86,1.78-8.15c1.19-2.28,2.84-4.04,4.97-5.29,2.13-1.24,4.57-1.87,7.33-1.87,2.94,0,5.33.56,7.18,1.66,1.85,1.11,3.34,2.82,4.48,5.13l-3.29,1.8c-.66-1.71-1.7-3.01-3.13-3.89-1.43-.88-3.17-1.33-5.24-1.33s-3.79.47-5.33,1.42c-1.54.94-2.76,2.31-3.64,4.09-.88,1.79-1.33,3.92-1.33,6.41s.38,4.63,1.15,6.41c.77,1.79,1.9,3.15,3.42,4.09,1.51.95,3.37,1.42,5.56,1.42,1.23,0,2.38-.16,3.44-.47,1.06-.31,1.99-.79,2.79-1.42.79-.63,1.42-1.42,1.87-2.39.45-.96.67-2.08.67-3.38v-1.04h-9.45v-3.38h12.73v14.99h-2.83l-.18-5.53.77.14c-.78,1.86-2.01,3.3-3.69,4.32-1.68,1.02-3.77,1.53-6.26,1.53Z"/>
  <path class="cls-1" d="M824.71,148.25c-2.82,0-5.26-.62-7.31-1.87-2.05-1.24-3.64-3.01-4.77-5.29-1.12-2.28-1.69-4.99-1.69-8.15s.59-5.86,1.78-8.15c1.19-2.28,2.84-4.04,4.97-5.29,2.13-1.24,4.57-1.87,7.33-1.87,2.94,0,5.33.56,7.18,1.66,1.85,1.11,3.34,2.82,4.48,5.13l-3.29,1.8c-.66-1.71-1.7-3.01-3.13-3.89-1.43-.88-3.17-1.33-5.24-1.33s-3.79.47-5.33,1.42c-1.54.94-2.76,2.31-3.64,4.09-.88,1.79-1.33,3.92-1.33,6.41s.38,4.63,1.15,6.41c.77,1.79,1.9,3.15,3.42,4.09,1.51.95,3.37,1.42,5.56,1.42,1.23,0,2.38-.16,3.44-.47,1.06-.31,1.99-.79,2.79-1.42.79-.63,1.42-1.42,1.87-2.39.45-.96.67-2.08.67-3.38v-1.04h-9.45v-3.38h12.73v14.99h-2.83l-.18-5.53.77.14c-.78,1.86-2.01,3.3-3.69,4.32-1.68,1.02-3.77,1.53-6.26,1.53Z"/>
  <path class="cls-1" d="M852.3,118.1v29.7h-3.6v-29.7h3.6Z"/>
  <path class="cls-1" d="M889.06,147.8h-3.82l-3.15-8.24h-13.46l-3.15,8.24h-3.78l11.56-29.7h4.28l11.52,29.7ZM869.94,136.19h10.85l-5.45-14.62-5.4,14.62Z"/>
  <path class="cls-1" d="M925.87,118.1c2.01,0,3.76.37,5.24,1.1,1.48.74,2.65,1.78,3.49,3.13.84,1.35,1.26,2.96,1.26,4.81s-.42,3.47-1.26,4.81c-.84,1.35-2,2.39-3.49,3.13-1.49.74-3.23,1.1-5.24,1.1h-6.88v11.61h-3.6v-29.7h10.48ZM925.33,132.81c2.34,0,4.05-.49,5.13-1.46,1.08-.97,1.62-2.38,1.62-4.21s-.54-3.27-1.62-4.23c-1.08-.96-2.79-1.44-5.13-1.44h-6.35v11.34h6.35Z"/>
  <path class="cls-1" d="M946.21,147.8v-29.7h20.84v3.38h-17.24v9.58h13.41v3.38h-13.41v9.99h17.91v3.38h-21.51Z"/>
  <path class="cls-1" d="M989.54,118.1c3.03,0,5.46.78,7.29,2.34,1.83,1.56,2.74,3.68,2.74,6.35s-.92,4.75-2.77,6.23c-1.85,1.48-4.28,2.23-7.31,2.23l-.31.22h-7.29v12.33h-3.6v-29.7h11.25ZM989.5,132.09c2.13,0,3.71-.44,4.75-1.33,1.04-.88,1.55-2.21,1.55-3.98s-.52-3.1-1.55-3.98c-1.04-.88-2.62-1.33-4.75-1.33h-7.61v10.62h7.61ZM991.57,132.81l9.81,14.99h-4.28l-8.55-13,3.02-1.98Z"/>
  <path class="cls-1" d="M1040.3,118.1v29.7h-3.42v-18.68l.4-7.83h-.04l-9.76,26.5h-3.06l-9.77-26.5h-.04l.41,7.83v18.68h-3.42v-29.7h5.53l6.53,18.04,2.25,7.43h.09l2.29-7.38,6.48-18.09h5.54Z"/>
  <path class="cls-1" d="M1053.4,147.8v-29.7h20.83v3.38h-17.23v9.58h13.41v3.38h-13.41v9.99h17.91v3.38h-21.51Z"/>
  <path class="cls-1" d="M1106.36,118.1v3.38h-10.35v26.32h-3.6v-26.32h-10.35v-3.38h24.3Z"/>
  <path class="cls-1" d="M1136.92,118.1v3.38h-10.35v26.32h-3.6v-26.32h-10.35v-3.38h24.3Z"/>
  <path class="cls-1" d="M1146.59,147.8v-29.7h20.83v3.38h-17.23v9.58h13.41v3.38h-13.41v9.99h17.91v3.38h-21.51Z"/>
  <path class="cls-1" d="M1201.98,118.1v29.7h-4.46l-12.42-19.89-3.15-5.58h-.04l.18,4.5v20.97h-3.42v-29.7h4.46l12.38,19.8,3.19,5.71h.04l-.18-4.54v-20.97h3.42Z"/>
  <path class="cls-1" d="M1224.66,118.1c4.65,0,8.3,1.28,10.96,3.85,2.66,2.56,3.98,6.23,3.98,11s-1.33,8.44-3.98,11c-2.65,2.56-6.31,3.85-10.96,3.85h-9.58v-29.7h9.58ZM1225.02,144.43c3.39,0,6.04-1.01,7.94-3.04,1.9-2.02,2.86-4.84,2.86-8.44s-.95-6.41-2.86-8.44c-1.91-2.02-4.55-3.04-7.94-3.04h-6.34v22.95h6.34Z"/>
  <path class="cls-1" d="M1262.87,117.65c2.82,0,5.26.62,7.31,1.87,2.05,1.25,3.64,3.01,4.77,5.29,1.12,2.28,1.69,5,1.69,8.15s-.56,5.87-1.69,8.15c-1.12,2.28-2.71,4.04-4.77,5.29-2.06,1.25-4.49,1.87-7.31,1.87s-5.26-.62-7.31-1.87c-2.06-1.24-3.65-3.01-4.77-5.29-1.12-2.28-1.69-4.99-1.69-8.15s.56-5.86,1.69-8.15c1.12-2.28,2.71-4.04,4.77-5.29,2.05-1.24,4.49-1.87,7.31-1.87ZM1262.87,121.03c-2.04,0-3.81.47-5.31,1.42-1.5.94-2.65,2.31-3.46,4.09-.81,1.79-1.21,3.92-1.21,6.41s.4,4.63,1.21,6.41c.81,1.79,1.96,3.15,3.46,4.09,1.5.95,3.27,1.42,5.31,1.42s3.85-.47,5.33-1.42c1.48-.95,2.63-2.31,3.44-4.09.81-1.78,1.21-3.92,1.21-6.41s-.41-4.63-1.21-6.41c-.81-1.78-1.96-3.15-3.44-4.09-1.48-.95-3.26-1.42-5.33-1.42Z"/>
  <path class="cls-1" d="M1284.69,154.24l-2.07-2.07c1.98-1.83,3.55-3.74,4.72-5.72s2.01-4.08,2.52-6.3c.51-2.22.77-4.57.77-7.07s-.26-4.88-.77-7.09-1.35-4.3-2.52-6.3c-1.17-1.99-2.74-3.89-4.72-5.69l2.07-2.07c3.18,2.73,5.58,5.88,7.2,9.45,1.62,3.57,2.43,7.47,2.43,11.7s-.81,8.12-2.43,11.68c-1.62,3.56-4.02,6.71-7.2,9.47Z"/>
  <path class="cls-1" d="M1306.43,142.4c.87,0,1.57.27,2.12.81.54.54.81,1.25.81,2.11s-.27,1.58-.81,2.11c-.54.54-1.25.81-2.12.81s-1.57-.27-2.12-.81c-.54-.54-.81-1.24-.81-2.11s.27-1.57.81-2.11c.54-.54,1.24-.81,2.12-.81Z"/>
</svg>