<?xml version="1.0" encoding="UTF-8"?>
<svg id="Livello_1" data-name="Livello 1" xmlns="http://www.w3.org/2000/svg" viewBox="0 0 947.79 252.65">
  <defs>
    <style>
      .cls-1 {
        fill: #fff;
      }
    </style>
  </defs>
  <path class="cls-1" d="M213.14,63.67c0,2.85.54,5.26,1.61,7.22,1.07,1.96,2.92,2.94,5.56,2.94h.64c1.07,0,1.61.54,1.61,1.6v3.21c0,1.07-.54,1.6-1.61,1.6h-32.85c-1.07,0-1.61-.53-1.61-1.6v-3.21c0-1.07.54-1.6,1.61-1.6h.75c2.71,0,4.58-.98,5.62-2.94,1.03-1.96,1.55-4.37,1.55-7.22V16.58c0-2.92-.55-5.35-1.66-7.28-1.11-1.93-3.12-2.89-6.04-2.89h-.11c-1.07,0-1.6-.53-1.6-1.6V1.6c0-1.07.53-1.6,1.6-1.6h39.27c5.78,0,10.81,1.12,15.09,3.37,4.28,2.25,7.6,5.17,9.95,8.77,2.36,3.6,3.53,7.44,3.53,11.5,0,4.57-1.11,8.69-3.32,12.36-2.21,3.67-5.85,6.58-10.91,8.72-5.07,2.14-11.95,3.21-20.65,3.21h-8.03v15.73ZM219.35,40.34c7.13,0,12.36-1.3,15.68-3.91,3.32-2.6,4.98-6.86,4.98-12.79,0-4.92-1.54-9.02-4.6-12.3-3.07-3.28-7.28-4.92-12.62-4.92h-10.27v33.92h6.85Z"/>
  <path class="cls-1" d="M286.65,37.99c1.93-4.14,4.6-7.28,8.03-9.42,3.42-2.14,7.03-3.21,10.81-3.21,3.35,0,6.21.93,8.56,2.78,2.35,1.86,3.53,4.6,3.53,8.24,0,1.57-.14,2.96-.43,4.17-.29,1.21-1.07,2.1-2.35,2.67l-10.06,4.07c-.43.14-.75.21-.96.21-.64,0-.96-.32-.96-.96,0-.21.07-.53.21-.96.43-1,.7-1.96.8-2.89.11-.93.16-1.75.16-2.46,0-1.93-.48-3.33-1.44-4.23-.96-.89-2.16-1.34-3.58-1.34-1.64,0-3.18.5-4.6,1.5-1.43,1-2.68,2.21-3.75,3.64-1.07,1.43-1.86,2.82-2.35,4.17v19.69c0,2.85.64,5.26,1.93,7.22,1.29,1.96,3.25,2.94,5.88,2.94h.21c1.07,0,1.61.54,1.61,1.6v3.21c0,1.07-.54,1.6-1.61,1.6h-31.14c-1.07,0-1.61-.53-1.61-1.6v-3.21c0-1.07.54-1.6,1.61-1.6h.21c2.64,0,4.6-.98,5.88-2.94,1.29-1.96,1.93-4.37,1.93-7.22v-13.48c0-1.93-.13-3.78-.38-5.56-.25-1.78-.8-3.3-1.66-4.55-.86-1.25-2.29-1.98-4.28-2.19-.86-.07-1.28-.53-1.28-1.39v-3.64c0-.71.54-1.18,1.61-1.39,5.06-.78,9.5-2.03,13.32-3.75,3.82-1.71,6.4-3.07,7.76-4.07.21-.14.39-.21.54-.21h.21c.14,0,.21.07.21.21,0,.07-.09.61-.27,1.6-.18,1-.39,2.27-.64,3.8-.25,1.53-.54,3.1-.86,4.71-.32,1.6-.59,3.01-.8,4.23Z"/>
  <path class="cls-1" d="M352.46,25.36c4.06,0,7.83.8,11.29,2.41,3.46,1.6,6.44,3.78,8.94,6.53,2.5,2.75,4.44,5.81,5.83,9.2,1.39,3.39,2.09,6.9,2.09,10.54,0,5.28-1.25,10-3.75,14.18-2.5,4.17-5.78,7.46-9.84,9.84s-8.49,3.58-13.27,3.58c-4.07,0-7.81-.79-11.23-2.35s-6.4-3.69-8.94-6.37c-2.53-2.67-4.49-5.74-5.88-9.2-1.39-3.46-2.09-7.08-2.09-10.86,0-5.21,1.21-9.88,3.64-14.02,2.43-4.14,5.67-7.42,9.74-9.84,4.07-2.42,8.56-3.64,13.48-3.64ZM357.05,72.97c1.36,0,2.85-.36,4.49-1.07,1.64-.71,3.09-1.96,4.33-3.75,1.25-1.78,1.87-4.24,1.87-7.38,0-2.5-.48-5.26-1.45-8.29-.96-3.03-2.28-5.96-3.96-8.77-1.68-2.82-3.64-5.14-5.88-6.96-2.25-1.82-4.69-2.73-7.33-2.73-2.93,0-5.46,1.09-7.6,3.26-2.14,2.18-3.21,5.15-3.21,8.93,0,2.43.48,5.17,1.45,8.24.96,3.07,2.28,6.01,3.96,8.83,1.67,2.82,3.65,5.14,5.94,6.96s4.74,2.73,7.38,2.73Z"/>
  <path class="cls-1" d="M443.29,23.54c.29-.07.57-.11.86-.11.36,0,.54.54.54,1.6,0,3.5-.66,6.21-1.98,8.13-1.32,1.93-3.19,2.89-5.62,2.89,1.71,2.85,2.57,6.14,2.57,9.84s-.95,7.22-2.84,10.33c-1.89,3.1-4.58,5.56-8.08,7.38-3.5,1.82-7.71,2.73-12.63,2.73s-9.31-1-12.95-3c-.93.71-1.39,1.6-1.39,2.67s.39,1.98,1.18,2.73c.78.75,2.3,1.36,4.55,1.82,2.25.46,5.55.8,9.9,1.02,3.14.14,6.19.46,9.15.96,2.96.5,5.62,1.3,7.97,2.41,2.35,1.11,4.23,2.66,5.62,4.65,1.39,2,2.09,4.6,2.09,7.81,0,2.92-.77,5.4-2.3,7.44-1.54,2.03-3.6,3.65-6.21,4.87-2.6,1.21-5.47,2.1-8.61,2.67-3.14.57-6.31.86-9.52.86-4.35,0-8.36-.46-12.04-1.39-3.67-.93-6.63-2.35-8.88-4.28-2.25-1.93-3.37-4.39-3.37-7.38,0-2.35.62-4.37,1.87-6.05,1.25-1.68,2.76-3.01,4.55-4.01-3.64-2.28-5.46-5.53-5.46-9.74,0-2.42.62-4.49,1.87-6.21s2.84-2.96,4.76-3.75c-4.21-3.85-6.31-8.7-6.31-14.55,0-3.78.94-7.22,2.84-10.33,1.89-3.1,4.6-5.58,8.13-7.44,3.53-1.85,7.72-2.78,12.57-2.78,3,0,5.72.37,8.19,1.12s4.65,1.77,6.58,3.05c.36.21.66.34.91.37.25.04.45.05.59.05.57,0,1.03-.2,1.39-.59.36-.39.54-1.12.54-2.19v-.32c0-.93.39-1.46,1.18-1.6l7.81-1.71ZM415.69,95.87c5.28,0,9.33-.5,12.14-1.5,2.82-1,4.23-2.32,4.23-3.96,0-2.28-1.5-3.8-4.49-4.55s-7.21-1.27-12.62-1.55c-3.85-.21-7.17-.64-9.95-1.28-2,1.35-3,3.25-3,5.67,0,1.07.39,2.16,1.18,3.26.79,1.1,2.18,2.03,4.17,2.78,2,.75,4.78,1.12,8.35,1.12ZM416.12,31.78c-2.71,0-4.83.75-6.37,2.25-1.54,1.5-2.61,3.34-3.21,5.51-.61,2.18-.91,4.3-.91,6.37s.3,4.19.91,6.37c.61,2.18,1.68,4.01,3.21,5.51,1.53,1.5,3.65,2.25,6.37,2.25s4.76-.75,6.15-2.25c1.39-1.5,2.34-3.33,2.84-5.51.5-2.17.75-4.3.75-6.37s-.25-4.19-.75-6.37c-.5-2.18-1.44-4.01-2.84-5.51-1.39-1.5-3.44-2.25-6.15-2.25Z"/>
  <path class="cls-1" d="M468.01,61.1c1.21,3,3.16,5.67,5.83,8.02,2.68,2.35,6.08,3.53,10.22,3.53,2.28,0,4.67-.64,7.17-1.93,2.5-1.28,4.67-3.28,6.53-5.99.21-.36.5-.54.86-.54s.73.11,1.12.32c.39.21,1.44.82,3.16,1.82.29.21.43.5.43.86,0,.5-.21,1.11-.64,1.82-2,3.71-4.71,6.74-8.13,9.1s-7.88,3.53-13.38,3.53c-5.92,0-11.02-1.32-15.3-3.96-4.28-2.64-7.58-6.13-9.9-10.49-2.32-4.35-3.48-9.1-3.48-14.23s.73-9.15,2.19-12.68c1.46-3.53,3.41-6.38,5.83-8.56,2.42-2.18,5.15-3.78,8.19-4.81,3.03-1.03,6.12-1.55,9.25-1.55,3.57,0,6.71.7,9.42,2.09,2.71,1.39,5.01,3.16,6.9,5.3,1.89,2.14,3.32,4.41,4.28,6.79.96,2.39,1.45,4.62,1.45,6.69,0,.57-.32,1-.96,1.28l-31.03,13.59ZM483.96,45.8c0-3.42-.82-6.24-2.46-8.45-1.64-2.21-3.71-3.32-6.21-3.32-2.93,0-5.24,1.16-6.96,3.48-1.71,2.32-2.57,5.23-2.57,8.72,0,1.07.05,2.39.16,3.96.11,1.57.38,3,.8,4.28l17.23-8.67Z"/>
  <path class="cls-1" d="M552.22,72.55c.21.29.32.61.32.96,0,.43-.29.82-.86,1.18l-3.21,2.03c-1.93,1.21-4.25,2.34-6.96,3.37-2.71,1.03-5.42,1.55-8.13,1.55-2.14,0-4.16-.5-6.04-1.5-1.89-1-3.41-2.69-4.55-5.08-1.14-2.39-1.71-5.69-1.71-9.9v-19.79c0-1.93-.11-3.83-.32-5.72-.21-1.89-.88-3.44-1.98-4.65-1.11-1.21-2.94-1.82-5.51-1.82-1.07,0-1.61-.53-1.61-1.6v-3.21c0-1.07.54-1.6,1.61-1.6h7.81v-7.17c0-.93.32-1.57.96-1.93,1.57-.86,3.64-2.05,6.21-3.58,2.57-1.53,4.85-3.3,6.85-5.3.14-.14.32-.21.53-.21h.21c.14,0,.21.11.21.32v17.87h14.34c1.07,0,1.6.54,1.6,1.6v4.6c0,1.07-.53,1.6-1.6,1.6h-14.34v30.6c0,2.78.43,4.69,1.28,5.72.86,1.03,1.93,1.55,3.21,1.55,1.21,0,2.5-.34,3.85-1.02,1.35-.68,2.6-1.37,3.74-2.09.5-.28.89-.43,1.18-.43.43,0,.82.29,1.18.86l1.71,2.78Z"/>
  <path class="cls-1" d="M602.51,72.55c.21.29.32.61.32.96,0,.43-.29.82-.86,1.18l-3.21,2.03c-1.93,1.21-4.24,2.34-6.96,3.37s-5.42,1.55-8.13,1.55c-2.14,0-4.16-.5-6.05-1.5-1.89-1-3.41-2.69-4.55-5.08-1.14-2.39-1.71-5.69-1.71-9.9v-19.79c0-1.93-.11-3.83-.32-5.72-.21-1.89-.88-3.44-1.98-4.65-1.11-1.21-2.94-1.82-5.51-1.82-1.07,0-1.61-.53-1.61-1.6v-3.21c0-1.07.54-1.6,1.61-1.6h7.81v-7.17c0-.93.32-1.57.96-1.93,1.57-.86,3.64-2.05,6.21-3.58,2.57-1.53,4.85-3.3,6.85-5.3.14-.14.32-.21.54-.21h.21c.14,0,.21.11.21.32v17.87h14.34c1.07,0,1.61.54,1.61,1.6v4.6c0,1.07-.54,1.6-1.61,1.6h-14.34v30.6c0,2.78.43,4.69,1.29,5.72.86,1.03,1.93,1.55,3.21,1.55,1.21,0,2.5-.34,3.85-1.02,1.36-.68,2.6-1.37,3.75-2.09.5-.28.89-.43,1.18-.43.43,0,.82.29,1.18.86l1.71,2.78Z"/>
  <path class="cls-1" d="M638.46,25.36c4.07,0,7.83.8,11.29,2.41,3.46,1.6,6.44,3.78,8.93,6.53,2.5,2.75,4.44,5.81,5.83,9.2,1.39,3.39,2.09,6.9,2.09,10.54,0,5.28-1.25,10-3.74,14.18-2.5,4.17-5.78,7.46-9.84,9.84-4.07,2.39-8.49,3.58-13.27,3.58-4.06,0-7.81-.79-11.23-2.35s-6.4-3.69-8.93-6.37c-2.53-2.67-4.49-5.74-5.88-9.2-1.39-3.46-2.09-7.08-2.09-10.86,0-5.21,1.21-9.88,3.64-14.02,2.42-4.14,5.67-7.42,9.74-9.84,4.07-2.42,8.56-3.64,13.48-3.64ZM643.06,72.97c1.35,0,2.85-.36,4.49-1.07,1.64-.71,3.08-1.96,4.33-3.75,1.25-1.78,1.87-4.24,1.87-7.38,0-2.5-.48-5.26-1.44-8.29-.96-3.03-2.29-5.96-3.96-8.77-1.68-2.82-3.64-5.14-5.89-6.96-2.25-1.82-4.69-2.73-7.33-2.73-2.93,0-5.46,1.09-7.6,3.26-2.14,2.18-3.21,5.15-3.21,8.93,0,2.43.48,5.17,1.44,8.24.96,3.07,2.28,6.01,3.96,8.83,1.68,2.82,3.65,5.14,5.94,6.96,2.28,1.82,4.74,2.73,7.38,2.73Z"/>
  <path class="cls-1" d="M725.99,61.1c1.21,3,3.16,5.67,5.83,8.02,2.67,2.35,6.08,3.53,10.22,3.53,2.28,0,4.67-.64,7.17-1.93,2.5-1.28,4.67-3.28,6.53-5.99.21-.36.5-.54.86-.54s.73.11,1.12.32c.39.21,1.45.82,3.16,1.82.28.21.43.5.43.86,0,.5-.21,1.11-.64,1.82-2,3.71-4.71,6.74-8.13,9.1s-7.88,3.53-13.38,3.53c-5.92,0-11.02-1.32-15.3-3.96-4.28-2.64-7.58-6.13-9.9-10.49-2.32-4.35-3.48-9.1-3.48-14.23s.73-9.15,2.19-12.68c1.46-3.53,3.41-6.38,5.83-8.56,2.42-2.18,5.15-3.78,8.19-4.81,3.03-1.03,6.12-1.55,9.26-1.55,3.57,0,6.7.7,9.42,2.09,2.71,1.39,5.01,3.16,6.9,5.3s3.32,4.41,4.28,6.79c.96,2.39,1.44,4.62,1.44,6.69,0,.57-.32,1-.96,1.28l-31.03,13.59ZM741.93,45.8c0-3.42-.82-6.24-2.46-8.45-1.64-2.21-3.71-3.32-6.21-3.32-2.93,0-5.24,1.16-6.96,3.48-1.71,2.32-2.57,5.23-2.57,8.72,0,1.07.05,2.39.16,3.96.11,1.57.37,3,.8,4.28l17.23-8.67Z"/>
  <path class="cls-1" d="M53.82,151.46c0,2.57.39,4.87,1.18,6.9.78,2.03,2.5,3.23,5.13,3.58.86.07,1.29.54,1.29,1.39v3.53c0,1-.54,1.5-1.61,1.5-3.5,0-6.4.2-8.72.59-2.32.39-4.32.89-5.99,1.5-1.68.61-3.33,1.27-4.97,1.98-.29.14-.54.21-.75.21h-.21c-.21,0-.32-.11-.32-.32.14-1.64.3-3.25.48-4.82.18-1.57.41-3.14.7-4.71-.36.93-1.12,2.18-2.3,3.74-1.18,1.57-2.89,2.98-5.14,4.23-2.25,1.25-5.19,1.87-8.83,1.87-2.43,0-5.01-.5-7.76-1.5s-5.33-2.6-7.76-4.81c-2.43-2.21-4.4-5.12-5.94-8.72-1.54-3.6-2.3-8.01-2.3-13.21,0-6.63,1.19-12,3.58-16.1,2.39-4.1,5.49-7.12,9.31-9.04,3.82-1.93,7.87-2.89,12.14-2.89,5.42,0,10.02,1.68,13.8,5.03v-6.85c0-1.93-.12-3.78-.37-5.56-.25-1.78-.8-3.3-1.66-4.55-.86-1.25-2.28-1.98-4.28-2.19-.86-.07-1.28-.54-1.28-1.39v-3.64c0-.43.14-.73.43-.91.28-.18.68-.34,1.18-.48,5.63-1.85,10.04-3.71,13.21-5.56,3.17-1.85,5.47-3.32,6.9-4.39.21-.14.39-.21.54-.21h.11c.14,0,.21.07.21.21v65.59ZM38.84,136.58c0-3.35-1.09-6.21-3.26-8.56s-5.05-3.53-8.61-3.53-6.1.75-8.02,2.25c-1.93,1.5-3.26,3.5-4.01,5.99-.75,2.5-1.12,5.24-1.12,8.24,0,6.85,1.37,12.27,4.12,16.26,2.75,4,6.29,5.99,10.65,5.99,1.93,0,3.6-.48,5.03-1.44,1.43-.96,2.58-2.16,3.48-3.58.89-1.43,1.48-2.78,1.77-4.07v-17.55Z"/>
  <path class="cls-1" d="M102.29,164.83c1.07,0,1.61.54,1.61,1.6v3.21c0,1.07-.61,1.6-1.82,1.6h-30.28c-1.21,0-1.82-.53-1.82-1.6v-3.21c0-1.07.53-1.6,1.6-1.6h.21c2.64,0,4.58-.98,5.83-2.94,1.25-1.96,1.87-4.37,1.87-7.22v-11.34c0-1.64-.12-3.28-.37-4.92-.25-1.64-.8-3.07-1.66-4.28-.86-1.21-2.28-1.93-4.28-2.14-.86-.07-1.28-.53-1.28-1.39v-3.64c0-.43.14-.73.43-.91.28-.18.68-.34,1.18-.48,5.63-1.85,9.97-3.76,13-5.72,3.03-1.96,5.26-3.69,6.69-5.19.14-.14.28-.21.43-.21h.32c.14,0,.21.07.21.21v39.91c0,2.85.64,5.28,1.93,7.28,1.28,2,3.24,3,5.88,3h.32ZM86.99,92.07c1.85,0,3.67.89,5.46,2.67,1.78,1.78,2.68,3.57,2.68,5.35s-.89,3.57-2.68,5.35c-1.78,1.78-3.6,2.67-5.46,2.67-1.71,0-3.5-.89-5.35-2.67-1.78-1.71-2.68-3.49-2.68-5.35s.89-3.57,2.68-5.35c1.78-1.78,3.57-2.67,5.35-2.67Z"/>
  <path class="cls-1" d="M156.86,134.33c-.43.21-.79.32-1.07.32-.5,0-.96-.25-1.39-.75-3.21-4.07-6.56-6.92-10.06-8.56-3.5-1.64-6.53-2.46-9.09-2.46-1.86,0-3.57.39-5.14,1.18-1.57.79-2.35,2.21-2.35,4.28,0,1.57.59,2.87,1.77,3.91,1.18,1.04,2.69,1.87,4.55,2.51,1.85.64,3.75,1.21,5.67,1.71,2.78.64,5.58,1.39,8.4,2.25s5.4,1.98,7.76,3.37c2.35,1.39,4.26,3.12,5.72,5.19,1.46,2.07,2.19,4.67,2.19,7.81,0,3.35-.91,6.35-2.73,8.99-1.82,2.64-4.4,4.73-7.76,6.26-3.35,1.53-7.35,2.3-11.98,2.3-2.21,0-4.37-.27-6.47-.8-2.11-.53-4.08-1.23-5.94-2.09-.43-.21-.75-.32-.96-.32-.5,0-.75.25-.75.75,0,.14.07.43.21.86.14.43.21.71.21.86,0,.57-.43.86-1.28.86h-3.85c-.79,0-1.39-.36-1.82-1.07l-9.2-17.23c-.21-.43-.32-.75-.32-.96,0-.5.29-.93.86-1.28l3.32-1.93c.43-.21.75-.32.96-.32.43,0,.82.32,1.18.96,3.49,5.21,7.33,8.92,11.5,11.13,4.17,2.21,8.43,3.32,12.79,3.32,6.85,0,10.27-2.03,10.27-6.1,0-1.85-.84-3.39-2.52-4.6-1.68-1.21-3.74-2.21-6.21-3-2.46-.78-4.94-1.46-7.44-2.03-4.56-1.14-8.2-2.44-10.91-3.91-2.71-1.46-4.74-3.03-6.1-4.71-1.36-1.68-2.27-3.35-2.73-5.03-.46-1.68-.7-3.3-.7-4.87,0-4.28,1.64-7.81,4.92-10.59,3.28-2.78,7.74-4.17,13.38-4.17,3.35,0,6.31.45,8.88,1.34,2.57.89,4.35,1.62,5.35,2.19.29.14.5.21.64.21.21,0,.32-.14.32-.43,0-.21-.11-.64-.32-1.28-.07-.36-.12-.62-.16-.8-.04-.18-.05-.34-.05-.48,0-.71.46-1.07,1.39-1.07h2.78c.93,0,1.53.39,1.82,1.18l5.35,13.59c.21.43.32.79.32,1.07,0,.5-.29.89-.86,1.18l-2.35,1.28Z"/>
  <path class="cls-1" d="M189.07,152.1c1.21,3,3.16,5.67,5.83,8.02,2.67,2.35,6.08,3.53,10.22,3.53,2.28,0,4.67-.64,7.17-1.93,2.5-1.28,4.67-3.28,6.53-5.99.21-.36.5-.54.86-.54s.73.11,1.12.32c.39.21,1.45.82,3.16,1.82.28.21.43.5.43.86,0,.5-.21,1.11-.64,1.82-2,3.71-4.71,6.74-8.13,9.1s-7.88,3.53-13.38,3.53c-5.92,0-11.02-1.32-15.3-3.96-4.28-2.64-7.58-6.13-9.9-10.49-2.32-4.35-3.48-9.1-3.48-14.23s.73-9.15,2.19-12.68c1.46-3.53,3.41-6.38,5.83-8.56,2.42-2.18,5.15-3.78,8.19-4.81,3.03-1.03,6.12-1.55,9.26-1.55,3.57,0,6.7.7,9.42,2.09,2.71,1.39,5.01,3.16,6.9,5.3s3.32,4.41,4.28,6.79c.96,2.39,1.44,4.62,1.44,6.69,0,.57-.32,1-.96,1.28l-31.03,13.59ZM205.01,136.8c0-3.42-.82-6.24-2.46-8.45-1.64-2.21-3.71-3.32-6.21-3.32-2.93,0-5.24,1.16-6.96,3.48-1.71,2.32-2.57,5.23-2.57,8.72,0,1.07.05,2.39.16,3.96.11,1.57.37,3,.8,4.28l17.23-8.67Z"/>
  <path class="cls-1" d="M284.94,114.54c.29-.07.57-.11.86-.11.36,0,.54.54.54,1.6,0,3.5-.66,6.21-1.98,8.13-1.32,1.93-3.19,2.89-5.62,2.89,1.71,2.85,2.57,6.14,2.57,9.84s-.95,7.22-2.84,10.33c-1.89,3.1-4.58,5.56-8.08,7.38-3.5,1.82-7.71,2.73-12.63,2.73s-9.31-1-12.95-3c-.93.71-1.39,1.6-1.39,2.67s.39,1.98,1.18,2.73c.78.75,2.3,1.36,4.55,1.82,2.25.46,5.55.8,9.9,1.02,3.14.14,6.19.46,9.15.96,2.96.5,5.62,1.3,7.97,2.41,2.35,1.11,4.23,2.66,5.62,4.65,1.39,2,2.09,4.6,2.09,7.81,0,2.92-.77,5.4-2.3,7.44-1.54,2.03-3.6,3.65-6.21,4.87-2.6,1.21-5.47,2.1-8.61,2.67-3.14.57-6.31.86-9.52.86-4.35,0-8.36-.46-12.04-1.39-3.67-.93-6.63-2.35-8.88-4.28-2.25-1.93-3.37-4.39-3.37-7.38,0-2.35.62-4.37,1.87-6.05,1.25-1.68,2.76-3.01,4.55-4.01-3.64-2.28-5.46-5.53-5.46-9.74,0-2.42.62-4.49,1.87-6.21s2.84-2.96,4.76-3.75c-4.21-3.85-6.31-8.7-6.31-14.55,0-3.78.94-7.22,2.84-10.33,1.89-3.1,4.6-5.58,8.13-7.44,3.53-1.85,7.72-2.78,12.57-2.78,3,0,5.72.37,8.19,1.12s4.65,1.77,6.58,3.05c.36.21.66.34.91.37.25.04.45.05.59.05.57,0,1.03-.2,1.39-.59.36-.39.54-1.12.54-2.19v-.32c0-.93.39-1.46,1.18-1.6l7.81-1.71ZM257.33,186.87c5.28,0,9.33-.5,12.14-1.5,2.82-1,4.23-2.32,4.23-3.96,0-2.28-1.5-3.8-4.49-4.55s-7.21-1.27-12.62-1.55c-3.85-.21-7.17-.64-9.95-1.28-2,1.35-3,3.25-3,5.67,0,1.07.39,2.16,1.18,3.26.79,1.1,2.18,2.03,4.17,2.78,2,.75,4.78,1.12,8.35,1.12ZM257.76,122.78c-2.71,0-4.83.75-6.37,2.25-1.54,1.5-2.61,3.34-3.21,5.51-.61,2.18-.91,4.3-.91,6.37s.3,4.19.91,6.37c.61,2.18,1.68,4.01,3.21,5.51,1.53,1.5,3.65,2.25,6.37,2.25s4.76-.75,6.15-2.25c1.39-1.5,2.34-3.33,2.84-5.51.5-2.17.75-4.3.75-6.37s-.25-4.19-.75-6.37c-.5-2.18-1.44-4.01-2.84-5.51-1.39-1.5-3.44-2.25-6.15-2.25Z"/>
  <path class="cls-1" d="M354.91,136.37v18.3c0,3.92.62,6.6,1.87,8.02,1.25,1.43,2.91,2.14,4.97,2.14h.86c1.07,0,1.6.54,1.6,1.6v3.21c0,1.07-.54,1.6-1.6,1.6h-28.46c-1.07,0-1.61-.53-1.61-1.6v-3.21c0-1.07.54-1.6,1.61-1.6h.75c1.5,0,2.71-.71,3.64-2.14.93-1.43,1.39-4.1,1.39-8.02v-18.3c0-3.42-.53-6.05-1.6-7.86-1.07-1.82-3.1-2.73-6.1-2.73-1.78,0-3.57.45-5.35,1.34-1.79.89-3.35,2.03-4.71,3.42s-2.35,2.87-3,4.44v19.69c0,2.85.62,5.26,1.87,7.22,1.25,1.96,2.91,2.94,4.98,2.94h.21c1.07,0,1.61.54,1.61,1.6v3.21c0,1.07-.54,1.6-1.61,1.6h-30.07c-1.07,0-1.61-.53-1.61-1.6v-3.21c0-1.07.54-1.6,1.61-1.6h.21c2.64,0,4.6-.98,5.88-2.94,1.29-1.96,1.93-4.37,1.93-7.22v-13.48c0-1.93-.13-3.78-.38-5.56-.25-1.78-.82-3.3-1.71-4.55-.89-1.25-2.34-1.98-4.33-2.19-.79-.07-1.18-.53-1.18-1.39v-3.64c0-.71.5-1.18,1.5-1.39,5.14-.78,9.54-2,13.21-3.64,3.67-1.64,6.22-2.96,7.65-3.96.36-.28.64-.43.86-.43h.11c.14,0,.21.07.21.21s-.04.43-.11.86l-1.82,13.16c1-1.64,2.32-3.41,3.96-5.3,1.64-1.89,3.67-3.53,6.1-4.92,2.42-1.39,5.24-2.09,8.45-2.09,3.85,0,6.99.57,9.42,1.71,2.42,1.14,4.26,2.67,5.51,4.6,1.25,1.93,2.1,4.07,2.57,6.42.46,2.35.7,4.78.7,7.28Z"/>
  <path class="cls-1" d="M397.07,116.36c4.07,0,7.83.8,11.29,2.41,3.46,1.6,6.44,3.78,8.93,6.53,2.5,2.75,4.44,5.81,5.83,9.2,1.39,3.39,2.09,6.9,2.09,10.54,0,5.28-1.25,10-3.74,14.18-2.5,4.17-5.78,7.46-9.84,9.84-4.07,2.39-8.49,3.58-13.27,3.58-4.06,0-7.81-.79-11.23-2.35s-6.4-3.69-8.93-6.37c-2.53-2.67-4.49-5.74-5.88-9.2-1.39-3.46-2.09-7.08-2.09-10.86,0-5.21,1.21-9.88,3.64-14.02,2.42-4.14,5.67-7.42,9.74-9.84,4.07-2.42,8.56-3.64,13.48-3.64ZM401.67,163.97c1.35,0,2.85-.36,4.49-1.07,1.64-.71,3.08-1.96,4.33-3.75,1.25-1.78,1.87-4.24,1.87-7.38,0-2.5-.48-5.26-1.44-8.29-.96-3.03-2.29-5.96-3.96-8.77-1.68-2.82-3.64-5.14-5.89-6.96-2.25-1.82-4.69-2.73-7.33-2.73-2.93,0-5.46,1.09-7.6,3.26-2.14,2.18-3.21,5.15-3.21,8.93,0,2.43.48,5.17,1.44,8.24.96,3.07,2.28,6.01,3.96,8.83,1.68,2.82,3.65,5.14,5.94,6.96,2.28,1.82,4.74,2.73,7.38,2.73Z"/>
  <path class="cls-1" d="M516.38,156.81c.57.43.86.89.86,1.39,0,.14-.07.43-.21.86-2.07,4.57-5.12,7.97-9.15,10.22s-8.44,3.37-13.21,3.37c-4,0-7.63-.87-10.91-2.62-3.28-1.75-6.06-4.08-8.35-7.01-2.29-2.92-3.96-6.21-5.03-9.84-1.07-3.64-1.46-7.38-1.18-11.23.5-5.92,2.14-10.77,4.92-14.55,2.78-3.78,6.15-6.56,10.11-8.35,3.96-1.78,7.94-2.68,11.93-2.68,4.71,0,8.52.71,11.45,2.14,2.92,1.43,5.17,3.28,6.74,5.56,1.57,2.28,2.64,4.67,3.21,7.17.07.29.11.54.11.75,0,.57-.43.96-1.28,1.18l-12.3,3.21c-.43.14-.75.21-.96.21-.5,0-.75-.25-.75-.75,0-.28.02-.57.05-.86.04-.28.05-.68.05-1.18,0-2.28-.71-4.32-2.14-6.1-1.43-1.78-3.64-2.68-6.63-2.68-2.71,0-4.85.86-6.42,2.57-1.57,1.71-2.69,3.91-3.37,6.58-.68,2.67-1.02,5.48-1.02,8.4,0,3.5.46,6.81,1.39,9.95.93,3.14,2.44,5.69,4.55,7.65,2.1,1.96,4.97,2.94,8.61,2.94,2.85,0,5.49-.7,7.92-2.09,2.42-1.39,4.42-3.3,5.99-5.72.28-.5.71-.75,1.28-.75.36,0,.68.11.96.32l2.78,1.93Z"/>
  <path class="cls-1" d="M554.47,116.36c4.06,0,7.83.8,11.29,2.41,3.46,1.6,6.44,3.78,8.94,6.53,2.5,2.75,4.44,5.81,5.83,9.2,1.39,3.39,2.09,6.9,2.09,10.54,0,5.28-1.25,10-3.75,14.18-2.5,4.17-5.78,7.46-9.84,9.84s-8.49,3.58-13.27,3.58c-4.07,0-7.81-.79-11.23-2.35s-6.4-3.69-8.94-6.37c-2.53-2.67-4.49-5.74-5.88-9.2-1.39-3.46-2.09-7.08-2.09-10.86,0-5.21,1.21-9.88,3.64-14.02,2.43-4.14,5.67-7.42,9.74-9.84,4.07-2.42,8.56-3.64,13.48-3.64ZM559.07,163.97c1.36,0,2.85-.36,4.49-1.07,1.64-.71,3.09-1.96,4.33-3.75,1.25-1.78,1.87-4.24,1.87-7.38,0-2.5-.48-5.26-1.45-8.29-.96-3.03-2.28-5.96-3.96-8.77-1.68-2.82-3.64-5.14-5.88-6.96-2.25-1.82-4.69-2.73-7.33-2.73-2.93,0-5.46,1.09-7.6,3.26-2.14,2.18-3.21,5.15-3.21,8.93,0,2.43.48,5.17,1.45,8.24.96,3.07,2.28,6.01,3.96,8.83,1.67,2.82,3.65,5.14,5.94,6.96s4.74,2.73,7.38,2.73Z"/>
  <path class="cls-1" d="M652.05,136.37v18.3c0,3.92.62,6.6,1.87,8.02,1.25,1.43,2.91,2.14,4.97,2.14h.86c1.07,0,1.6.54,1.6,1.6v3.21c0,1.07-.54,1.6-1.6,1.6h-28.46c-1.07,0-1.61-.53-1.61-1.6v-3.21c0-1.07.54-1.6,1.61-1.6h.75c1.5,0,2.71-.71,3.64-2.14.93-1.43,1.39-4.1,1.39-8.02v-18.3c0-3.42-.53-6.05-1.6-7.86-1.07-1.82-3.1-2.73-6.1-2.73-1.78,0-3.57.45-5.35,1.34-1.79.89-3.35,2.03-4.71,3.42s-2.35,2.87-3,4.44v19.69c0,2.85.62,5.26,1.87,7.22,1.25,1.96,2.91,2.94,4.98,2.94h.21c1.07,0,1.61.54,1.61,1.6v3.21c0,1.07-.54,1.6-1.61,1.6h-30.07c-1.07,0-1.61-.53-1.61-1.6v-3.21c0-1.07.54-1.6,1.61-1.6h.21c2.64,0,4.6-.98,5.88-2.94,1.29-1.96,1.93-4.37,1.93-7.22v-13.48c0-1.93-.13-3.78-.38-5.56-.25-1.78-.82-3.3-1.71-4.55-.89-1.25-2.34-1.98-4.33-2.19-.79-.07-1.18-.53-1.18-1.39v-3.64c0-.71.5-1.18,1.5-1.39,5.14-.78,9.54-2,13.21-3.64,3.67-1.64,6.22-2.96,7.65-3.96.36-.28.64-.43.86-.43h.11c.14,0,.21.07.21.21s-.04.43-.11.86l-1.82,13.16c1-1.64,2.32-3.41,3.96-5.3,1.64-1.89,3.67-3.53,6.1-4.92,2.42-1.39,5.24-2.09,8.45-2.09,3.85,0,6.99.57,9.42,1.71,2.42,1.14,4.26,2.67,5.51,4.6,1.25,1.93,2.1,4.07,2.57,6.42.46,2.35.7,4.78.7,7.28Z"/>
  <path class="cls-1" d="M748.78,134.33c-.43.21-.79.32-1.07.32-.5,0-.96-.25-1.39-.75-3.21-4.07-6.56-6.92-10.06-8.56-3.5-1.64-6.53-2.46-9.09-2.46-1.86,0-3.57.39-5.14,1.18-1.57.79-2.35,2.21-2.35,4.28,0,1.57.59,2.87,1.77,3.91,1.18,1.04,2.69,1.87,4.55,2.51,1.85.64,3.75,1.21,5.67,1.71,2.78.64,5.58,1.39,8.4,2.25s5.4,1.98,7.76,3.37c2.35,1.39,4.26,3.12,5.72,5.19,1.46,2.07,2.19,4.67,2.19,7.81,0,3.35-.91,6.35-2.73,8.99-1.82,2.64-4.4,4.73-7.76,6.26-3.35,1.53-7.35,2.3-11.98,2.3-2.21,0-4.37-.27-6.47-.8-2.11-.53-4.08-1.23-5.94-2.09-.43-.21-.75-.32-.96-.32-.5,0-.75.25-.75.75,0,.14.07.43.21.86.14.43.21.71.21.86,0,.57-.43.86-1.28.86h-3.85c-.79,0-1.39-.36-1.82-1.07l-9.2-17.23c-.21-.43-.32-.75-.32-.96,0-.5.29-.93.86-1.28l3.32-1.93c.43-.21.75-.32.96-.32.43,0,.82.32,1.18.96,3.49,5.21,7.33,8.92,11.5,11.13,4.17,2.21,8.43,3.32,12.79,3.32,6.85,0,10.27-2.03,10.27-6.1,0-1.85-.84-3.39-2.52-4.6-1.68-1.21-3.74-2.21-6.21-3-2.46-.78-4.94-1.46-7.44-2.03-4.56-1.14-8.2-2.44-10.91-3.91-2.71-1.46-4.74-3.03-6.1-4.71-1.36-1.68-2.27-3.35-2.73-5.03-.46-1.68-.7-3.3-.7-4.87,0-4.28,1.64-7.81,4.92-10.59,3.28-2.78,7.74-4.17,13.38-4.17,3.35,0,6.31.45,8.88,1.34,2.57.89,4.35,1.62,5.35,2.19.29.14.5.21.64.21.21,0,.32-.14.32-.43,0-.21-.11-.64-.32-1.28-.07-.36-.12-.62-.16-.8-.04-.18-.05-.34-.05-.48,0-.71.46-1.07,1.39-1.07h2.78c.93,0,1.53.39,1.82,1.18l5.35,13.59c.21.43.32.79.32,1.07,0,.5-.29.89-.86,1.18l-2.35,1.28Z"/>
  <path class="cls-1" d="M803.35,163.55c.21.29.32.61.32.96,0,.43-.29.82-.86,1.18l-3.21,2.03c-1.93,1.21-4.25,2.34-6.96,3.37-2.71,1.03-5.42,1.55-8.13,1.55-2.14,0-4.16-.5-6.04-1.5-1.89-1-3.41-2.69-4.55-5.08-1.14-2.39-1.71-5.69-1.71-9.9v-19.79c0-1.93-.11-3.83-.32-5.72-.21-1.89-.88-3.44-1.98-4.65-1.11-1.21-2.94-1.82-5.51-1.82-1.07,0-1.61-.53-1.61-1.6v-3.21c0-1.07.54-1.6,1.61-1.6h7.81v-7.17c0-.93.32-1.57.96-1.93,1.57-.86,3.64-2.05,6.21-3.58,2.57-1.53,4.85-3.3,6.85-5.3.14-.14.32-.21.53-.21h.21c.14,0,.21.11.21.32v17.87h14.34c1.07,0,1.6.54,1.6,1.6v4.6c0,1.07-.53,1.6-1.6,1.6h-14.34v30.6c0,2.78.43,4.69,1.28,5.72.86,1.03,1.93,1.55,3.21,1.55,1.21,0,2.5-.34,3.85-1.02,1.35-.68,2.6-1.37,3.74-2.09.5-.28.89-.43,1.18-.43.43,0,.82.29,1.18.86l1.71,2.78Z"/>
  <path class="cls-1" d="M845.18,164.83c1.07,0,1.61.54,1.61,1.6v3.21c0,1.07-.61,1.6-1.82,1.6h-30.28c-1.21,0-1.82-.53-1.82-1.6v-3.21c0-1.07.53-1.6,1.6-1.6h.21c2.64,0,4.58-.98,5.83-2.94,1.25-1.96,1.87-4.37,1.87-7.22v-11.34c0-1.64-.12-3.28-.37-4.92-.25-1.64-.8-3.07-1.66-4.28-.86-1.21-2.28-1.93-4.28-2.14-.86-.07-1.28-.53-1.28-1.39v-3.64c0-.43.14-.73.43-.91.28-.18.68-.34,1.18-.48,5.63-1.85,9.97-3.76,13-5.72,3.03-1.96,5.26-3.69,6.69-5.19.14-.14.28-.21.43-.21h.32c.14,0,.21.07.21.21v39.91c0,2.85.64,5.28,1.93,7.28,1.28,2,3.24,3,5.88,3h.32ZM829.88,92.07c1.85,0,3.67.89,5.46,2.67,1.78,1.78,2.68,3.57,2.68,5.35s-.89,3.57-2.68,5.35c-1.78,1.78-3.6,2.67-5.46,2.67-1.71,0-3.5-.89-5.35-2.67-1.78-1.71-2.68-3.49-2.68-5.35s.89-3.57,2.68-5.35c1.78-1.78,3.57-2.67,5.35-2.67Z"/>
  <path class="cls-1" d="M887.66,164.83c1.07,0,1.61.54,1.61,1.6v3.21c0,1.07-.61,1.6-1.82,1.6h-30.28c-1.21,0-1.82-.53-1.82-1.6v-3.21c0-1.07.53-1.6,1.6-1.6h.21c2.64,0,4.58-.98,5.83-2.94,1.25-1.96,1.87-4.37,1.87-7.22v-40.12c0-2-.12-3.89-.37-5.67-.25-1.78-.8-3.3-1.66-4.55-.86-1.25-2.28-1.98-4.28-2.19-.86-.07-1.28-.53-1.28-1.39v-3.64c0-.43.14-.71.43-.86.28-.14.68-.32,1.18-.54,5.06-1.85,9.11-3.58,12.14-5.19s5.55-3.16,7.54-4.65c.14-.14.28-.21.43-.21h.32c.14,0,.21.07.21.21v68.69c0,2.85.64,5.28,1.93,7.28,1.28,2,3.24,3,5.88,3h.32Z"/>
  <path class="cls-1" d="M912.48,152.1c1.21,3,3.16,5.67,5.83,8.02,2.68,2.35,6.08,3.53,10.22,3.53,2.28,0,4.67-.64,7.17-1.93,2.5-1.28,4.67-3.28,6.53-5.99.21-.36.5-.54.86-.54s.73.11,1.12.32c.39.21,1.44.82,3.16,1.82.29.21.43.5.43.86,0,.5-.21,1.11-.64,1.82-2,3.71-4.71,6.74-8.13,9.1s-7.88,3.53-13.38,3.53c-5.92,0-11.02-1.32-15.3-3.96-4.28-2.64-7.58-6.13-9.9-10.49-2.32-4.35-3.48-9.1-3.48-14.23s.73-9.15,2.19-12.68c1.46-3.53,3.41-6.38,5.83-8.56,2.42-2.18,5.15-3.78,8.19-4.81,3.03-1.03,6.12-1.55,9.25-1.55,3.57,0,6.71.7,9.42,2.09,2.71,1.39,5.01,3.16,6.9,5.3,1.89,2.14,3.32,4.41,4.28,6.79.96,2.39,1.45,4.62,1.45,6.69,0,.57-.32,1-.96,1.28l-31.03,13.59ZM928.43,136.8c0-3.42-.82-6.24-2.46-8.45-1.64-2.21-3.71-3.32-6.21-3.32-2.93,0-5.24,1.16-6.96,3.48-1.71,2.32-2.57,5.23-2.57,8.72,0,1.07.05,2.39.16,3.96.11,1.57.38,3,.8,4.28l17.23-8.67Z"/>
  <path class="cls-1" d="M96.92,221.37c2.67,0,4.97.54,6.9,1.63,1.93,1.09,3.54,2.69,4.83,4.81l-3.08,2.39c-1.13-1.96-2.42-3.35-3.84-4.16-1.43-.81-3.15-1.22-5.18-1.22-1.62,0-2.97.23-4.02.69-1.06.46-1.83,1.07-2.32,1.82-.49.75-.74,1.6-.74,2.55,0,1.07.34,2.02,1.01,2.83.67.81,2.02,1.45,4.05,1.91l6.58,1.47c2.91.64,4.95,1.62,6.1,2.92,1.15,1.3,1.72,2.92,1.72,4.85,0,1.72-.48,3.24-1.45,4.58s-2.32,2.37-4.07,3.1c-1.75.74-3.8,1.1-6.16,1.1-2.21,0-4.15-.3-5.82-.9-1.67-.6-3.1-1.4-4.3-2.42-1.2-1.01-2.18-2.15-2.94-3.4l3.22-2.62c.58,1.17,1.33,2.19,2.25,3.08.92.89,2.03,1.58,3.33,2.07,1.3.49,2.8.74,4.49.74,1.56,0,2.92-.19,4.07-.58,1.15-.38,2.03-.95,2.64-1.7.61-.75.92-1.66.92-2.74,0-.98-.32-1.86-.96-2.65-.64-.78-1.86-1.37-3.63-1.77l-7.13-1.61c-1.87-.43-3.38-1.02-4.53-1.77-1.15-.75-1.98-1.64-2.48-2.67-.51-1.03-.76-2.14-.76-3.33,0-1.63.45-3.12,1.36-4.49.9-1.36,2.21-2.46,3.91-3.29,1.7-.83,3.72-1.24,6.05-1.24Z"/>
  <path class="cls-1" d="M120.11,252.19v-30.36h21.3v3.45h-17.62v9.8h13.71v3.45h-13.71v10.21h18.31v3.45h-21.99Z"/>
  <path class="cls-1" d="M176.73,221.83v30.36h-4.55l-12.7-20.33-3.22-5.7h-.05l.18,4.6v21.44h-3.5v-30.36h4.55l12.65,20.24,3.27,5.84h.05l-.19-4.65v-21.44h3.5Z"/>
  <path class="cls-1" d="M191.04,250.08l-.64-1.33h21.21v3.45h-23.87v-3.27l19.96-24.98.64,1.33h-20.15v-3.45h22.82v3.27l-19.96,24.98Z"/>
  <path class="cls-1" d="M246.74,252.19h-3.91l-3.22-8.42h-13.75l-3.22,8.42h-3.86l11.82-30.36h4.37l11.78,30.36ZM227.19,240.32h11.09l-5.57-14.95-5.52,14.95Z"/>
  <path class="cls-1" d="M294.9,225.28h-17.57v9.8h13.71v3.45h-13.71v13.66h-3.68v-30.36h21.25v3.45Z"/>
  <path class="cls-1" d="M305.16,252.19v-30.36h21.3v3.45h-17.62v9.8h13.71v3.45h-13.71v10.21h18.31v3.45h-21.99Z"/>
  <path class="cls-1" d="M349.46,221.83c3.1,0,5.58.8,7.45,2.39,1.87,1.59,2.8,3.76,2.8,6.49s-.94,4.85-2.83,6.37-4.38,2.28-7.47,2.28l-.32.23h-7.45v12.6h-3.68v-30.36h11.5ZM349.41,236.14c2.18,0,3.79-.45,4.85-1.36,1.06-.9,1.59-2.26,1.59-4.07s-.53-3.17-1.59-4.07c-1.06-.9-2.68-1.36-4.85-1.36h-7.77v10.86h7.77ZM351.53,236.87l10.03,15.32h-4.37l-8.74-13.29,3.08-2.02Z"/>
  <path class="cls-1" d="M392.42,221.83v3.45h-10.58v26.91h-3.68v-26.91h-10.58v-3.45h24.84Z"/>
  <path class="cls-1" d="M405.99,221.83v30.36h-3.68v-30.36h3.68Z"/>
  <path class="cls-1" d="M423.06,248.74h17.39v3.45h-21.07v-30.36h3.68v26.91Z"/>
  <path class="cls-1" d="M454.02,221.83v30.36h-3.68v-30.36h3.68Z"/>
  <path class="cls-1" d="M468.32,250.08l-.64-1.33h21.21v3.45h-23.88v-3.27l19.96-24.98.64,1.33h-20.15v-3.45h22.81v3.27l-19.96,24.98Z"/>
  <path class="cls-1" d="M500.75,250.08l-.64-1.33h21.21v3.45h-23.88v-3.27l19.96-24.98.64,1.33h-20.15v-3.45h22.81v3.27l-19.96,24.98Z"/>
  <path class="cls-1" d="M556.46,252.19h-3.91l-3.22-8.42h-13.75l-3.22,8.42h-3.86l11.82-30.36h4.37l11.78,30.36ZM536.91,240.32h11.09l-5.57-14.95-5.52,14.95Z"/>
  <path class="cls-1" d="M589.9,221.83v30.36h-4.55l-12.7-20.33-3.22-5.7h-.05l.18,4.6v21.44h-3.5v-30.36h4.55l12.65,20.24,3.27,5.84h.05l-.19-4.65v-21.44h3.5Z"/>
  <path class="cls-1" d="M624.63,221.83v3.45h-10.58v26.91h-3.68v-26.91h-10.58v-3.45h24.84Z"/>
  <path class="cls-1" d="M638.2,221.83v30.36h-3.68v-30.36h3.68Z"/>
  <path class="cls-1" d="M695.19,244.42c-.64,1.72-1.56,3.2-2.76,4.44-1.2,1.24-2.6,2.19-4.21,2.83-1.61.64-3.37.97-5.27.97-2.88,0-5.38-.64-7.48-1.91-2.1-1.27-3.72-3.07-4.88-5.41-1.15-2.33-1.72-5.11-1.72-8.33s.57-6,1.72-8.33c1.15-2.33,2.78-4.13,4.88-5.4,2.1-1.27,4.56-1.91,7.38-1.91,1.96,0,3.71.27,5.24.81,1.53.54,2.84,1.33,3.93,2.39,1.09,1.06,1.96,2.35,2.6,3.89l-3.63,1.7c-.67-1.75-1.65-3.07-2.92-3.98-1.27-.9-2.92-1.36-4.95-1.36s-3.86.48-5.43,1.45-2.78,2.35-3.66,4.16c-.87,1.81-1.31,4-1.31,6.58s.41,4.73,1.24,6.55c.83,1.83,2.01,3.22,3.54,4.19,1.53.97,3.34,1.45,5.43,1.45s3.79-.51,5.29-1.54c1.5-1.03,2.59-2.57,3.27-4.62l3.68,1.38Z"/>
  <path class="cls-1" d="M709.4,221.83v30.36h-3.68v-30.36h3.68ZM727.57,235.08v3.45h-19.92v-3.45h19.92ZM729.55,221.83v30.36h-3.68v-30.36h3.68Z"/>
  <path class="cls-1" d="M746.62,221.83v30.36h-3.68v-30.36h3.68Z"/>
  <path class="cls-1" d="M789.35,221.83v30.36h-3.5v-19.09l.41-8h-.05l-9.98,27.09h-3.13l-9.98-27.09h-.05l.41,8v19.09h-3.5v-30.36h5.66l6.67,18.45,2.3,7.59h.09l2.35-7.54,6.62-18.49h5.66Z"/>
  <path class="cls-1" d="M806.41,221.83v30.36h-3.68v-30.36h3.68Z"/>
  <path class="cls-1" d="M844.27,244.42c-.64,1.72-1.56,3.2-2.76,4.44-1.2,1.24-2.6,2.19-4.21,2.83s-3.37.97-5.27.97c-2.88,0-5.38-.64-7.47-1.91-2.1-1.27-3.73-3.07-4.88-5.41-1.15-2.33-1.72-5.11-1.72-8.33s.58-6,1.72-8.33c1.15-2.33,2.78-4.13,4.88-5.4,2.1-1.27,4.56-1.91,7.38-1.91,1.96,0,3.71.27,5.24.81s2.84,1.33,3.93,2.39c1.09,1.06,1.96,2.35,2.6,3.89l-3.63,1.7c-.68-1.75-1.65-3.07-2.92-3.98-1.27-.9-2.92-1.36-4.95-1.36s-3.86.48-5.43,1.45c-1.56.97-2.78,2.35-3.66,4.16-.88,1.81-1.31,4-1.31,6.58s.41,4.73,1.24,6.55c.83,1.83,2.01,3.22,3.54,4.19,1.53.97,3.34,1.45,5.43,1.45s3.79-.51,5.29-1.54c1.5-1.03,2.59-2.57,3.27-4.62l3.68,1.38Z"/>
  <path class="cls-1" d="M858.49,221.83v30.36h-3.68v-30.36h3.68Z"/>
</svg>