<?xml version="1.0" encoding="UTF-8"?>
<svg id="Livello_1" data-name="Livello 1" xmlns="http://www.w3.org/2000/svg" viewBox="0 0 1403.5 155.2">
  <defs>
    <style>
      .cls-1 {
        fill: #fff;
      }
    </style>
  </defs>
  <path class="cls-1" d="M302.96,60.57c.68.3,1.02.75,1.02,1.36,0,.08-.02.17-.06.28-.04.11-.13.36-.28.73l-10.62,22.37c-.3.68-.75,1.02-1.36,1.02-.15,0-.34-.06-.57-.17-.23-.11-.57-.4-1.02-.85-.38-.38-1.13-.56-2.26-.56h-56.61c-1.13,0-1.7-.56-1.7-1.7v-3.39c0-1.13.56-1.7,1.7-1.7,5.57,0,8.36-3.58,8.36-10.73V17.63c0-7.16-2.79-10.73-8.36-10.73-1.13,0-1.7-.56-1.7-1.7V1.81c0-1.2.56-1.81,1.7-1.81h34.24c1.43,0,2.15.6,2.15,1.81v3.39c0,1.13-.68,1.7-2.03,1.7h-8.02v59.1c0,7.16,2.6,10.74,7.8,10.74h4.41c5.5,0,10.54-1.19,15.14-3.56,4.59-2.37,8.51-6.84,11.75-13.39l.34-.68c.38-.68.83-1.02,1.36-1.02.38,0,.71.11,1.02.34l3.62,2.15Z"/>
  <path class="cls-1" d="M329.4,64.52c1.28,3.16,3.33,5.99,6.16,8.48,2.83,2.49,6.42,3.73,10.79,3.73,2.41,0,4.93-.68,7.57-2.03,2.64-1.36,4.93-3.46,6.89-6.33.23-.38.53-.56.9-.56s.77.11,1.19.34c.41.23,1.53.87,3.33,1.92.3.23.45.53.45.9,0,.53-.23,1.17-.68,1.92-2.11,3.92-4.97,7.12-8.59,9.6-3.62,2.49-8.33,3.73-14.12,3.73-6.25,0-11.64-1.39-16.16-4.18-4.52-2.79-8-6.48-10.45-11.07-2.45-4.59-3.67-9.61-3.67-15.03s.77-9.66,2.32-13.39c1.54-3.73,3.6-6.74,6.16-9.04,2.56-2.3,5.44-3.99,8.64-5.08,3.2-1.09,6.46-1.64,9.78-1.64,3.77,0,7.08.73,9.94,2.2,2.86,1.47,5.29,3.33,7.29,5.59,2,2.26,3.5,4.65,4.52,7.18,1.02,2.52,1.53,4.88,1.53,7.06,0,.6-.34,1.06-1.02,1.36l-32.77,14.35ZM346.24,48.36c0-3.62-.87-6.59-2.6-8.93-1.73-2.33-3.92-3.5-6.55-3.5-3.09,0-5.54,1.23-7.34,3.67-1.81,2.45-2.71,5.52-2.71,9.21,0,1.13.06,2.52.17,4.18.11,1.66.4,3.16.85,4.52l18.19-9.15Z"/>
  <path class="cls-1" d="M418.33,76.61c.23.3.34.64.34,1.02,0,.45-.3.87-.9,1.24l-3.39,2.15c-2.03,1.28-4.48,2.47-7.35,3.56-2.86,1.09-5.73,1.64-8.59,1.64-2.26,0-4.39-.53-6.38-1.58-2-1.05-3.6-2.84-4.8-5.37-1.21-2.52-1.81-6.01-1.81-10.45v-20.9c0-2.03-.11-4.05-.34-6.05-.23-2-.92-3.63-2.09-4.92-1.17-1.28-3.11-1.92-5.82-1.92-1.13,0-1.69-.56-1.69-1.7v-3.39c0-1.13.57-1.7,1.69-1.7h8.25v-7.57c0-.98.34-1.66,1.02-2.03,1.66-.9,3.84-2.16,6.55-3.79,2.71-1.62,5.12-3.48,7.23-5.59.15-.15.34-.23.56-.23h.23c.15,0,.23.11.23.34v18.87h15.14c1.13,0,1.7.56,1.7,1.7v4.86c0,1.13-.56,1.7-1.7,1.7h-15.14v32.32c0,2.94.45,4.95,1.36,6.05.9,1.09,2.03,1.64,3.39,1.64,1.28,0,2.64-.36,4.07-1.07,1.43-.72,2.75-1.45,3.96-2.2.53-.3.94-.45,1.24-.45.45,0,.87.3,1.24.9l1.81,2.94Z"/>
  <path class="cls-1" d="M462.51,77.97c1.13,0,1.7.56,1.7,1.7v3.39c0,1.13-.64,1.7-1.92,1.7h-31.98c-1.28,0-1.92-.56-1.92-1.7v-3.39c0-1.13.56-1.7,1.7-1.7h.23c2.79,0,4.84-1.03,6.16-3.11,1.32-2.07,1.98-4.61,1.98-7.63v-11.98c0-1.73-.13-3.46-.4-5.2-.26-1.73-.85-3.24-1.75-4.52-.9-1.28-2.41-2.03-4.52-2.26-.9-.07-1.36-.56-1.36-1.47v-3.84c0-.45.15-.77.45-.96.3-.19.71-.36,1.24-.51,5.95-1.96,10.53-3.97,13.73-6.05,3.2-2.07,5.55-3.9,7.06-5.48.15-.15.3-.23.45-.23h.34c.15,0,.23.08.23.23v42.15c0,3.01.68,5.58,2.04,7.68,1.36,2.11,3.43,3.16,6.21,3.16h.34ZM446.36,1.13c1.96,0,3.88.94,5.76,2.83,1.88,1.88,2.83,3.77,2.83,5.65s-.94,3.77-2.83,5.65c-1.88,1.88-3.8,2.83-5.76,2.83-1.81,0-3.69-.94-5.65-2.83-1.88-1.81-2.82-3.69-2.82-5.65s.94-3.77,2.82-5.65c1.88-1.88,3.77-2.83,5.65-2.83Z"/>
  <path class="cls-1" d="M532.69,68.03c.68.3,1.02.75,1.02,1.36,0,.3-.11.64-.34,1.02l-8.81,14.92c-.38.6-.83.9-1.36.9-.3,0-.83-.3-1.58-.9-.3-.3-.62-.47-.96-.51-.34-.04-.7-.06-1.07-.06h-43.51c-1.13,0-1.7-.56-1.7-1.7v-4.86c0-.53.11-.94.34-1.24l35.59-40.91h-10.85c-7.53,0-13.18,3.24-16.95,9.72l-.45.79c-.15.3-.32.57-.51.79-.19.23-.43.34-.73.34-.23,0-.6-.15-1.13-.45l-3.84-2.26c-.23-.15-.43-.32-.62-.51-.19-.19-.28-.47-.28-.85,0-.23.11-.56.34-1.02l9.27-14.8c.38-.68.83-1.02,1.36-1.02.38,0,.87.3,1.47.9.3.3.62.47.96.51.34.04.7.06,1.07.06h41.81c.98,0,1.47.34,1.47,1.02,0,.38-.15.72-.45,1.02l-39.78,46.67h8.7c2.64,0,5.55-.15,8.76-.45,3.2-.3,6.31-1.15,9.32-2.54,3.01-1.39,5.46-3.63,7.35-6.72l.34-.57c.38-.6.83-.9,1.36-.9.45,0,.83.11,1.13.34l3.28,1.92Z"/>
  <path class="cls-1" d="M576.08,77.97c1.13,0,1.7.56,1.7,1.7v3.39c0,1.13-.64,1.7-1.92,1.7h-31.98c-1.28,0-1.92-.56-1.92-1.7v-3.39c0-1.13.56-1.7,1.7-1.7h.23c2.79,0,4.84-1.03,6.16-3.11,1.32-2.07,1.98-4.61,1.98-7.63v-11.98c0-1.73-.13-3.46-.39-5.2-.27-1.73-.85-3.24-1.75-4.52-.9-1.28-2.41-2.03-4.52-2.26-.9-.07-1.36-.56-1.36-1.47v-3.84c0-.45.15-.77.45-.96.3-.19.71-.36,1.24-.51,5.95-1.96,10.53-3.97,13.73-6.05,3.2-2.07,5.55-3.9,7.06-5.48.15-.15.3-.23.45-.23h.34c.15,0,.23.08.23.23v42.15c0,3.01.68,5.58,2.03,7.68,1.36,2.11,3.43,3.16,6.21,3.16h.34ZM559.92,1.13c1.96,0,3.88.94,5.76,2.83,1.88,1.88,2.82,3.77,2.82,5.65s-.94,3.77-2.82,5.65c-1.88,1.88-3.8,2.83-5.76,2.83-1.81,0-3.69-.94-5.65-2.83-1.88-1.81-2.83-3.69-2.83-5.65s.94-3.77,2.83-5.65c1.88-1.88,3.77-2.83,5.65-2.83Z"/>
  <path class="cls-1" d="M642.75,63.84c0,2.71.41,5.14,1.24,7.29.83,2.15,2.63,3.41,5.42,3.79.9.08,1.36.56,1.36,1.47v3.73c0,1.06-.56,1.58-1.7,1.58-3.69,0-6.76.21-9.21.62-2.45.41-4.56.94-6.33,1.58-1.77.64-3.52,1.34-5.25,2.09-.3.15-.57.23-.79.23h-.34c-.15,0-.23-.15-.23-.45s.07-1.03.23-2.2c.15-1.17.32-2.49.51-3.96.19-1.47.36-2.73.51-3.79-.38.98-1.19,2.3-2.43,3.96-1.24,1.66-3.05,3.15-5.42,4.46-2.37,1.32-5.48,1.98-9.32,1.98-2.56,0-5.29-.53-8.19-1.58-2.9-1.05-5.63-2.75-8.19-5.08-2.56-2.33-4.65-5.4-6.27-9.21-1.62-3.8-2.43-8.46-2.43-13.96,0-7.01,1.26-12.67,3.79-17.01,2.52-4.33,5.8-7.51,9.83-9.55,4.03-2.03,8.31-3.05,12.83-3.05,3.69,0,7.08.56,10.17,1.7,3.09,1.13,5.8,2.75,8.14,4.86,1.96-.83,3.63-1.6,5.03-2.32,1.39-.72,2.58-1.45,3.56-2.2.38-.3.77-.6,1.19-.9.41-.3.88-.6,1.41-.9.23-.15.41-.23.57-.23h.11c.15,0,.23.08.23.23v36.84ZM626.93,46.1c-.23-1.51-.77-3.18-1.64-5.03-.87-1.84-2.17-3.43-3.9-4.75-1.73-1.32-4.07-1.98-7.01-1.98-3.62,0-6.44.89-8.48,2.66-2.03,1.77-3.45,4.05-4.24,6.84-.79,2.79-1.19,5.76-1.19,8.93,0,7.23,1.45,12.96,4.35,17.18,2.9,4.22,6.65,6.33,11.24,6.33,2.71,0,4.84-.58,6.38-1.75,1.54-1.17,2.66-2.35,3.33-3.56.68-1.2,1.05-1.92,1.13-2.15v-22.71Z"/>
  <path class="cls-1" d="M779.59,77.97c1.13,0,1.7.56,1.7,1.7v3.39c0,1.13-.56,1.7-1.7,1.7h-34.69c-1.13,0-1.69-.56-1.69-1.7v-3.39c0-1.13.56-1.7,1.69-1.7h.68c1.88,0,3.28-.55,4.18-1.64.9-1.09,1.36-2.39,1.36-3.9,0-1.73-.49-3.46-1.47-5.2l-10.28-19.21c-2.26.23-4.71.34-7.34.34h-8.47v18.87c0,3.01.56,5.56,1.69,7.63,1.13,2.07,3.09,3.11,5.88,3.11h.68c1.13,0,1.7.56,1.7,1.7v3.39c0,1.13-.56,1.7-1.7,1.7h-34.69c-1.13,0-1.69-.56-1.69-1.7v-3.39c0-1.13.56-1.7,1.69-1.7h.79c2.86,0,4.84-1.03,5.93-3.11,1.09-2.07,1.64-4.61,1.64-7.63V17.51c0-3.09-.59-5.65-1.75-7.68-1.17-2.03-3.33-3.05-6.5-3.05-1.13,0-1.7-.56-1.7-1.7V1.7c0-1.13.57-1.7,1.7-1.7h41.47c6.1,0,11.41,1.09,15.93,3.28,4.52,2.19,8.02,5.08,10.51,8.7,2.48,3.62,3.73,7.57,3.73,11.86,0,3.84-1.02,7.57-3.05,11.19-2.04,3.62-5.5,6.59-10.4,8.93l12.32,23.28c1.51,2.79,3.07,5.27,4.69,7.46,1.62,2.19,3.82,3.28,6.61,3.28h.56ZM730.09,40.34c7.53,0,13.05-1.47,16.55-4.41,3.5-2.94,5.25-6.97,5.25-12.09s-1.62-9.34-4.86-12.43c-3.24-3.09-7.69-4.63-13.33-4.63h-10.17v33.56h6.55Z"/>
  <path class="cls-1" d="M843.54,63.84c0,2.71.41,5.14,1.24,7.29s2.64,3.41,5.43,3.79c.9.08,1.36.56,1.36,1.47v3.73c0,1.06-.57,1.58-1.7,1.58-3.69,0-6.76.21-9.21.62-2.45.41-4.56.94-6.33,1.58-1.77.64-3.52,1.34-5.26,2.09-.3.15-.56.23-.79.23h-.34c-.15,0-.23-.15-.23-.45s.07-1.03.23-2.2c.15-1.17.32-2.49.51-3.96.19-1.47.36-2.73.51-3.79-.38.98-1.19,2.3-2.43,3.96-1.24,1.66-3.05,3.15-5.42,4.46-2.37,1.32-5.48,1.98-9.32,1.98-2.56,0-5.29-.53-8.19-1.58-2.9-1.05-5.63-2.75-8.19-5.08-2.56-2.33-4.65-5.4-6.27-9.21-1.62-3.8-2.43-8.46-2.43-13.96,0-7.01,1.26-12.67,3.79-17.01,2.52-4.33,5.8-7.51,9.83-9.55,4.03-2.03,8.3-3.05,12.83-3.05,3.69,0,7.08.56,10.17,1.7,3.09,1.13,5.8,2.75,8.13,4.86,1.96-.83,3.63-1.6,5.03-2.32,1.39-.72,2.58-1.45,3.56-2.2.38-.3.77-.6,1.19-.9.41-.3.88-.6,1.41-.9.23-.15.41-.23.56-.23h.11c.15,0,.23.08.23.23v36.84ZM827.72,46.1c-.23-1.51-.77-3.18-1.64-5.03-.87-1.84-2.17-3.43-3.9-4.75-1.73-1.32-4.07-1.98-7.01-1.98-3.62,0-6.44.89-8.47,2.66-2.03,1.77-3.45,4.05-4.24,6.84-.79,2.79-1.19,5.76-1.19,8.93,0,7.23,1.45,12.96,4.35,17.18,2.9,4.22,6.65,6.33,11.24,6.33,2.71,0,4.84-.58,6.38-1.75,1.54-1.17,2.65-2.35,3.33-3.56.68-1.2,1.05-1.92,1.13-2.15v-22.71Z"/>
  <path class="cls-1" d="M920.61,24.86c.3-.07.6-.11.9-.11.38,0,.56.56.56,1.69,0,3.69-.7,6.55-2.09,8.59-1.39,2.03-3.37,3.05-5.93,3.05,1.81,3.01,2.71,6.48,2.71,10.4s-1,7.63-2.99,10.9c-2,3.28-4.84,5.88-8.53,7.8-3.69,1.92-8.13,2.88-13.33,2.88s-9.83-1.05-13.67-3.16c-.98.75-1.47,1.7-1.47,2.82s.41,2.09,1.24,2.88c.83.79,2.43,1.43,4.8,1.92,2.37.49,5.86.85,10.45,1.07,3.31.15,6.53.49,9.66,1.02,3.13.53,5.93,1.38,8.42,2.54,2.49,1.17,4.46,2.81,5.93,4.92,1.47,2.11,2.2,4.86,2.2,8.25,0,3.09-.81,5.71-2.43,7.85s-3.8,3.86-6.55,5.14c-2.75,1.28-5.78,2.22-9.1,2.83-3.31.6-6.67.9-10.06.9-4.6,0-8.83-.49-12.71-1.47-3.88-.98-7.01-2.49-9.38-4.52-2.37-2.03-3.56-4.63-3.56-7.8,0-2.49.66-4.62,1.98-6.38,1.32-1.77,2.92-3.18,4.8-4.24-3.84-2.41-5.76-5.84-5.76-10.28,0-2.56.66-4.75,1.98-6.55,1.32-1.81,2.99-3.13,5.03-3.96-4.45-4.07-6.67-9.19-6.67-15.37,0-3.99,1-7.63,2.99-10.9,2-3.28,4.86-5.89,8.59-7.85,3.73-1.96,8.15-2.94,13.28-2.94,3.16,0,6.05.4,8.64,1.19,2.6.79,4.92,1.86,6.95,3.22.38.23.7.36.96.4.26.04.47.06.62.06.6,0,1.09-.21,1.47-.62.38-.41.56-1.19.56-2.32v-.34c0-.98.41-1.54,1.24-1.7l8.25-1.81ZM891.46,101.25c5.57,0,9.85-.53,12.83-1.58,2.97-1.06,4.46-2.45,4.46-4.18,0-2.41-1.58-4.01-4.75-4.8-3.16-.79-7.61-1.34-13.33-1.64-4.07-.23-7.57-.68-10.51-1.36-2.11,1.43-3.16,3.43-3.16,5.99,0,1.13.41,2.28,1.24,3.45.83,1.17,2.3,2.15,4.41,2.94s5.05,1.19,8.81,1.19ZM891.91,33.56c-2.86,0-5.1.79-6.72,2.37-1.62,1.58-2.75,3.52-3.39,5.82-.64,2.3-.96,4.54-.96,6.72s.32,4.43.96,6.72c.64,2.3,1.77,4.24,3.39,5.82,1.62,1.58,3.86,2.37,6.72,2.37s5.03-.79,6.5-2.37,2.47-3.52,2.99-5.82c.53-2.3.79-4.54.79-6.72s-.26-4.42-.79-6.72c-.53-2.3-1.53-4.24-2.99-5.82s-3.63-2.37-6.5-2.37Z"/>
  <path class="cls-1" d="M964.45,77.97c1.13,0,1.69.56,1.69,1.7v3.39c0,1.13-.64,1.7-1.92,1.7h-31.98c-1.28,0-1.92-.56-1.92-1.7v-3.39c0-1.13.56-1.7,1.7-1.7h.23c2.79,0,4.84-1.03,6.16-3.11,1.32-2.07,1.98-4.61,1.98-7.63v-11.98c0-1.73-.13-3.46-.39-5.2-.27-1.73-.85-3.24-1.75-4.52-.9-1.28-2.41-2.03-4.52-2.26-.9-.07-1.36-.56-1.36-1.47v-3.84c0-.45.15-.77.45-.96.3-.19.71-.36,1.24-.51,5.95-1.96,10.53-3.97,13.73-6.05,3.2-2.07,5.55-3.9,7.06-5.48.15-.15.3-.23.45-.23h.34c.15,0,.23.08.23.23v42.15c0,3.01.68,5.58,2.03,7.68,1.36,2.11,3.43,3.16,6.21,3.16h.34ZM948.29,1.13c1.96,0,3.88.94,5.76,2.83,1.88,1.88,2.82,3.77,2.82,5.65s-.94,3.77-2.82,5.65c-1.88,1.88-3.8,2.83-5.76,2.83-1.81,0-3.69-.94-5.65-2.83-1.88-1.81-2.82-3.69-2.82-5.65s.94-3.77,2.82-5.65c1.88-1.88,3.77-2.83,5.65-2.83Z"/>
  <path class="cls-1" d="M1002.64,26.78c4.29,0,8.27.85,11.92,2.54,3.65,1.7,6.8,3.99,9.44,6.89,2.63,2.9,4.69,6.14,6.16,9.72,1.47,3.58,2.2,7.29,2.2,11.13,0,5.58-1.32,10.57-3.96,14.97-2.64,4.41-6.1,7.87-10.4,10.4-4.29,2.52-8.96,3.79-14.01,3.79-4.29,0-8.25-.83-11.87-2.49-3.62-1.66-6.76-3.9-9.44-6.72-2.67-2.82-4.75-6.06-6.21-9.72-1.47-3.65-2.2-7.48-2.2-11.47,0-5.5,1.28-10.43,3.84-14.8,2.56-4.37,5.99-7.83,10.28-10.4,4.29-2.56,9.04-3.84,14.24-3.84ZM1007.5,77.07c1.43,0,3.01-.38,4.75-1.13,1.73-.75,3.26-2.07,4.58-3.96,1.32-1.88,1.98-4.48,1.98-7.8,0-2.64-.51-5.55-1.53-8.76-1.02-3.2-2.41-6.29-4.18-9.27-1.77-2.98-3.84-5.42-6.21-7.34-2.37-1.92-4.95-2.88-7.74-2.88-3.09,0-5.76,1.15-8.02,3.45-2.26,2.3-3.39,5.44-3.39,9.44,0,2.56.51,5.46,1.53,8.7,1.02,3.24,2.41,6.35,4.18,9.32,1.77,2.98,3.86,5.42,6.27,7.34,2.41,1.92,5.01,2.88,7.8,2.88Z"/>
  <path class="cls-1" d="M1105.7,47.91v19.32c0,4.14.66,6.97,1.98,8.47,1.32,1.51,3.07,2.26,5.26,2.26h.9c1.13,0,1.69.56,1.69,1.7v3.39c0,1.13-.56,1.7-1.69,1.7h-30.06c-1.13,0-1.7-.56-1.7-1.7v-3.39c0-1.13.56-1.7,1.7-1.7h.79c1.58,0,2.86-.75,3.84-2.26.98-1.51,1.47-4.33,1.47-8.47v-19.32c0-3.62-.56-6.38-1.7-8.31-1.13-1.92-3.28-2.88-6.44-2.88-1.88,0-3.77.47-5.65,1.41-1.88.94-3.54,2.15-4.97,3.62-1.43,1.47-2.49,3.03-3.16,4.69v20.79c0,3.01.66,5.56,1.98,7.63,1.32,2.07,3.07,3.11,5.26,3.11h.22c1.13,0,1.7.56,1.7,1.7v3.39c0,1.13-.56,1.7-1.7,1.7h-31.75c-1.13,0-1.7-.56-1.7-1.7v-3.39c0-1.13.56-1.7,1.7-1.7h.23c2.79,0,4.86-1.03,6.21-3.11,1.36-2.07,2.03-4.61,2.03-7.63v-14.24c0-2.03-.13-3.99-.39-5.88-.27-1.88-.87-3.48-1.81-4.8-.94-1.32-2.47-2.09-4.58-2.32-.83-.07-1.24-.56-1.24-1.47v-3.84c0-.75.53-1.24,1.58-1.47,5.42-.83,10.08-2.11,13.96-3.84,3.88-1.73,6.57-3.12,8.08-4.18.38-.3.68-.45.9-.45h.11c.15,0,.23.08.23.23s-.04.45-.11.9l-1.92,13.9c1.05-1.73,2.45-3.6,4.18-5.59,1.73-2,3.88-3.73,6.44-5.2,2.56-1.47,5.54-2.2,8.93-2.2,4.07,0,7.38.6,9.95,1.81,2.56,1.21,4.5,2.82,5.82,4.86,1.32,2.03,2.22,4.29,2.71,6.78.49,2.49.73,5.05.73,7.68Z"/>
  <path class="cls-1" d="M1138.24,64.52c1.28,3.16,3.33,5.99,6.16,8.48,2.83,2.49,6.42,3.73,10.79,3.73,2.41,0,4.93-.68,7.57-2.03,2.63-1.36,4.93-3.46,6.89-6.33.23-.38.53-.56.9-.56s.77.11,1.19.34c.41.23,1.53.87,3.33,1.92.3.23.45.53.45.9,0,.53-.23,1.17-.68,1.92-2.11,3.92-4.97,7.12-8.59,9.6-3.62,2.49-8.32,3.73-14.12,3.73-6.25,0-11.64-1.39-16.16-4.18s-8.01-6.48-10.45-11.07c-2.45-4.59-3.67-9.61-3.67-15.03s.77-9.66,2.32-13.39c1.54-3.73,3.6-6.74,6.16-9.04,2.56-2.3,5.44-3.99,8.64-5.08,3.2-1.09,6.46-1.64,9.78-1.64,3.77,0,7.08.73,9.94,2.2,2.86,1.47,5.29,3.33,7.29,5.59,1.99,2.26,3.5,4.65,4.52,7.18,1.02,2.52,1.53,4.88,1.53,7.06,0,.6-.34,1.06-1.02,1.36l-32.77,14.35ZM1155.08,48.36c0-3.62-.87-6.59-2.6-8.93-1.73-2.33-3.92-3.5-6.55-3.5-3.09,0-5.54,1.23-7.34,3.67-1.81,2.45-2.71,5.52-2.71,9.21,0,1.13.06,2.52.17,4.18.11,1.66.39,3.16.85,4.52l18.19-9.15Z"/>
  <path class="cls-1" d="M126.08,155.2c-2.82,0-5.26-.62-7.31-1.87-2.06-1.24-3.65-3.01-4.77-5.29-1.12-2.28-1.69-4.99-1.69-8.15s.59-5.86,1.78-8.15c1.18-2.28,2.84-4.04,4.97-5.29,2.13-1.24,4.58-1.87,7.33-1.87,2.94,0,5.33.56,7.18,1.66,1.84,1.11,3.34,2.82,4.48,5.13l-3.28,1.8c-.66-1.71-1.7-3.01-3.13-3.89-1.42-.88-3.17-1.33-5.24-1.33s-3.79.47-5.33,1.42c-1.55.94-2.76,2.31-3.65,4.09-.89,1.79-1.33,3.92-1.33,6.41s.38,4.63,1.15,6.41c.77,1.79,1.91,3.15,3.42,4.09,1.51.95,3.37,1.42,5.56,1.42,1.23,0,2.38-.16,3.44-.47,1.06-.31,2-.79,2.79-1.42.79-.63,1.42-1.42,1.87-2.39.45-.96.68-2.08.68-3.38v-1.04h-9.45v-3.38h12.74v14.99h-2.83l-.18-5.53.76.14c-.78,1.86-2.01,3.3-3.69,4.32-1.68,1.02-3.76,1.53-6.25,1.53Z"/>
  <path class="cls-1" d="M161.31,125.05c3.03,0,5.46.78,7.29,2.34,1.83,1.56,2.75,3.68,2.75,6.35s-.92,4.75-2.77,6.23c-1.84,1.48-4.28,2.23-7.31,2.23l-.31.22h-7.29v12.33h-3.6v-29.7h11.25ZM161.27,139.04c2.13,0,3.71-.44,4.75-1.33,1.04-.88,1.55-2.21,1.55-3.98s-.52-3.1-1.55-3.98c-1.04-.88-2.62-1.33-4.75-1.33h-7.61v10.62h7.61ZM163.34,139.76l9.81,14.99h-4.27l-8.55-13,3.02-1.98Z"/>
  <path class="cls-1" d="M207.03,154.75h-3.83l-3.15-8.24h-13.46l-3.15,8.24h-3.78l11.57-29.7h4.27l11.52,29.7ZM187.91,143.14h10.84l-5.44-14.62-5.4,14.62Z"/>
  <path class="cls-1" d="M226.92,125.05c2.01,0,3.76.37,5.24,1.1,1.49.74,2.65,1.78,3.49,3.13.84,1.35,1.26,2.96,1.26,4.81s-.42,3.47-1.26,4.81c-.84,1.35-2,2.39-3.49,3.13-1.48.74-3.23,1.1-5.24,1.1h-6.88v11.61h-3.6v-29.7h10.48ZM226.38,139.76c2.34,0,4.05-.49,5.13-1.46,1.08-.97,1.62-2.38,1.62-4.21s-.54-3.27-1.62-4.23c-1.08-.96-2.79-1.44-5.13-1.44h-6.35v11.34h6.35Z"/>
  <path class="cls-1" d="M250.86,125.05v29.7h-3.6v-29.7h3.6ZM268.63,138.01v3.38h-19.49v-3.38h19.49ZM270.57,125.05v29.7h-3.6v-29.7h3.6Z"/>
  <path class="cls-1" d="M287.26,125.05v29.7h-3.6v-29.7h3.6Z"/>
  <path class="cls-1" d="M324.3,147.15c-.63,1.68-1.53,3.13-2.7,4.34-1.17,1.21-2.54,2.14-4.12,2.77-1.57.63-3.29.95-5.15.95-2.82,0-5.26-.62-7.31-1.87-2.05-1.24-3.64-3.01-4.77-5.29-1.12-2.28-1.69-4.99-1.69-8.15s.56-5.86,1.69-8.15c1.12-2.28,2.71-4.04,4.77-5.29,2.05-1.24,4.46-1.87,7.22-1.87,1.92,0,3.63.26,5.13.79,1.5.53,2.78,1.3,3.85,2.34,1.07,1.03,1.91,2.3,2.54,3.8l-3.55,1.67c-.66-1.71-1.61-3.01-2.86-3.89-1.25-.88-2.86-1.33-4.84-1.33s-3.78.47-5.31,1.42c-1.53.94-2.72,2.3-3.58,4.07-.86,1.77-1.28,3.91-1.28,6.43s.41,4.63,1.22,6.41c.81,1.79,1.96,3.15,3.46,4.09,1.5.95,3.27,1.42,5.31,1.42s3.71-.5,5.18-1.51c1.47-1,2.53-2.51,3.2-4.52l3.6,1.35Z"/>
  <path class="cls-1" d="M360.07,155.2c-1.98,0-3.68-.35-5.08-1.03-1.41-.69-2.49-1.63-3.24-2.83-.75-1.2-1.12-2.58-1.12-4.14,0-.96.13-1.87.38-2.72s.67-1.67,1.24-2.45c.57-.78,1.34-1.51,2.32-2.2.97-.69,2.18-1.33,3.62-1.94l1.89-.95c1.14-.63,2.08-1.22,2.83-1.78.75-.55,1.31-1.16,1.69-1.82.38-.66.56-1.44.56-2.34,0-1.05-.32-1.87-.97-2.45-.64-.59-1.52-.88-2.63-.88-1.29,0-2.24.35-2.86,1.06-.62.71-.92,1.52-.92,2.45,0,.57.07,1.12.22,1.64.15.53.47,1.18.97,1.96.5.78,1.24,1.82,2.23,3.1.99,1.29,2.32,2.99,4.01,5.08,1.71,2.1,3.12,3.79,4.23,5.06,1.11,1.28,2.05,2.24,2.83,2.88.78.65,1.51,1.07,2.18,1.28.68.21,1.42.31,2.23.31l-.9,2.7c-.87,0-1.69-.11-2.45-.31-.76-.21-1.6-.66-2.52-1.35-.92-.69-2.01-1.72-3.29-3.1-1.28-1.38-2.86-3.22-4.75-5.53-1.62-2.01-2.97-3.7-4.05-5.08-1.08-1.38-1.94-2.55-2.57-3.51-.63-.96-1.08-1.84-1.35-2.63-.27-.79-.41-1.61-.41-2.45,0-1.08.26-2.13.79-3.15.53-1.02,1.33-1.85,2.41-2.5,1.08-.64,2.47-.97,4.18-.97,1.29,0,2.42.24,3.38.72.96.48,1.72,1.17,2.27,2.07.55.9.83,1.97.83,3.2,0,1.05-.17,2.05-.52,2.99-.34.95-.99,1.88-1.93,2.79-.95.92-2.35,1.87-4.21,2.86l-1.53.58c-1.56.72-2.78,1.42-3.64,2.09-.87.67-1.49,1.4-1.85,2.18-.36.78-.54,1.71-.54,2.79s.28,2.07.85,2.88c.57.81,1.33,1.43,2.29,1.87.96.44,2.04.65,3.24.65,1.65,0,3.04-.3,4.18-.9,1.14-.6,2.19-1.45,3.15-2.56l.58-.54c.78-1.23,1.39-2.62,1.82-4.19.43-1.56.58-3.3.43-5.22l3.06.27c.12,1.92-.08,3.81-.61,5.67-.53,1.86-1.36,3.54-2.5,5.04l-.67.95c-1.14,1.35-2.52,2.42-4.14,3.22-1.62.79-3.51,1.19-5.67,1.19Z"/>
  <path class="cls-1" d="M403.45,154.75v-29.7h10.57c3.51,0,6.08.74,7.7,2.2,1.62,1.47,2.43,3.47,2.43,5.99,0,1.5-.43,2.86-1.3,4.07s-2.1,1.99-3.69,2.32v.05c1.77.33,3.17,1.13,4.21,2.41,1.04,1.28,1.55,2.72,1.55,4.34,0,2.52-.95,4.54-2.83,6.05-1.89,1.52-4.59,2.27-8.1,2.27h-10.53ZM407.05,138.1h7.02c4.2,0,6.3-1.62,6.3-4.86s-2.1-4.81-6.3-4.81h-7.02v9.68ZM407.05,151.38h7.79c2.13,0,3.71-.43,4.75-1.3,1.03-.87,1.55-2.08,1.55-3.65s-.52-2.81-1.55-3.67c-1.04-.85-2.62-1.28-4.75-1.28h-7.79v9.9Z"/>
  <path class="cls-1" d="M447.46,125.05c3.03,0,5.46.78,7.29,2.34,1.83,1.56,2.75,3.68,2.75,6.35s-.92,4.75-2.77,6.23c-1.85,1.48-4.28,2.23-7.31,2.23l-.32.22h-7.29v12.33h-3.6v-29.7h11.25ZM447.42,139.04c2.13,0,3.71-.44,4.75-1.33,1.04-.88,1.55-2.21,1.55-3.98s-.52-3.1-1.55-3.98c-1.04-.88-2.62-1.33-4.75-1.33h-7.61v10.62h7.61ZM449.49,139.76l9.81,14.99h-4.27l-8.55-13,3.01-1.98Z"/>
  <path class="cls-1" d="M493.18,154.75h-3.82l-3.15-8.24h-13.46l-3.15,8.24h-3.78l11.56-29.7h4.28l11.52,29.7ZM474.05,143.14h10.85l-5.45-14.62-5.4,14.62Z"/>
  <path class="cls-1" d="M525.89,125.05v29.7h-4.46l-12.42-19.89-3.15-5.58h-.04l.18,4.5v20.97h-3.42v-29.7h4.46l12.38,19.8,3.19,5.71h.05l-.18-4.54v-20.97h3.42Z"/>
  <path class="cls-1" d="M548.57,125.05c4.65,0,8.3,1.28,10.96,3.85s3.98,6.23,3.98,11-1.33,8.44-3.98,11c-2.66,2.56-6.31,3.85-10.96,3.85h-9.58v-29.7h9.58ZM548.94,151.38c3.39,0,6.04-1.01,7.94-3.04,1.91-2.02,2.86-4.84,2.86-8.44s-.95-6.41-2.86-8.44c-1.91-2.02-4.55-3.04-7.94-3.04h-6.35v22.95h6.35Z"/>
  <path class="cls-1" d="M604.55,125.05c4.65,0,8.21,1.29,10.69,3.87,2.48,2.58,3.71,6.24,3.71,10.98s-1.24,8.4-3.71,10.98c-2.47,2.58-6.04,3.87-10.69,3.87h-12.6v-29.7h12.6ZM603.79,148.9c2.52,0,4.36-.76,5.51-2.27,1.16-1.51,1.73-3.76,1.73-6.73s-.58-5.21-1.73-6.73c-1.15-1.51-2.99-2.27-5.51-2.27h-4.1v18h4.1Z"/>
  <path class="cls-1" d="M627.64,154.75v-29.7h23.13v5.98h-15.39v6.03h12.24v5.62h-12.24v6.07h15.97v5.99h-23.71Z"/>
  <path class="cls-1" d="M671.02,124.6c2.76,0,5.2.43,7.31,1.28,2.11.85,3.95,2.11,5.51,3.76l-3.74,5c-1.29-1.35-2.68-2.36-4.16-3.04-1.48-.67-3.17-1.01-5.06-1.01-1.11,0-2.01.12-2.7.36-.69.24-1.19.57-1.48.99-.3.42-.45.9-.45,1.44,0,.63.29,1.16.88,1.6.58.44,1.54.8,2.86,1.1l5,1.12c2.97.69,5.14,1.7,6.53,3.02,1.38,1.32,2.07,3.08,2.07,5.26s-.54,3.88-1.62,5.33c-1.08,1.46-2.56,2.55-4.46,3.28-1.89.73-4.05,1.1-6.48,1.1-1.98,0-3.87-.22-5.67-.65-1.8-.43-3.42-1.06-4.86-1.87-1.44-.81-2.65-1.74-3.64-2.79l3.73-5.17c.75.87,1.67,1.64,2.77,2.32s2.29,1.21,3.6,1.6c1.31.39,2.63.59,3.98.59,1.05,0,1.93-.1,2.63-.32.71-.21,1.22-.52,1.55-.94.33-.42.5-.91.5-1.49,0-.63-.23-1.16-.67-1.6-.45-.43-1.3-.8-2.56-1.1l-5.49-1.22c-1.68-.39-3.17-.91-4.48-1.55-1.3-.64-2.33-1.51-3.08-2.61-.75-1.09-1.12-2.47-1.12-4.12,0-1.86.51-3.52,1.53-4.97,1.02-1.45,2.49-2.6,4.41-3.44,1.92-.84,4.21-1.26,6.89-1.26Z"/>
  <path class="cls-1" d="M699.55,125.05v29.7h-7.74v-29.7h7.74Z"/>
  <path class="cls-1" d="M721.78,155.2c-2.64,0-4.99-.58-7.04-1.75-2.05-1.17-3.65-2.89-4.79-5.18-1.14-2.28-1.71-5.05-1.71-8.32s.6-5.95,1.8-8.24c1.2-2.28,2.92-4.03,5.15-5.26,2.23-1.23,4.87-1.84,7.9-1.84,3.36,0,6.08.61,8.14,1.82,2.07,1.21,3.68,3.14,4.82,5.78l-7.16,2.83c-.39-1.53-1.08-2.64-2.07-3.33-.99-.69-2.22-1.03-3.69-1.03s-2.73.35-3.78,1.06c-1.05.71-1.85,1.74-2.38,3.1-.54,1.37-.81,3.05-.81,5.06s.28,3.86.83,5.27c.55,1.41,1.38,2.45,2.48,3.13,1.09.68,2.45,1.01,4.07,1.01.87,0,1.66-.1,2.38-.31.72-.21,1.35-.52,1.89-.92.54-.4.96-.91,1.26-1.53.3-.61.45-1.34.45-2.18v-.45h-6.79v-5.18h13.37v16.02h-5.27l-.58-6.98,1.26,1.08c-.63,2.04-1.76,3.61-3.4,4.7-1.63,1.1-3.74,1.64-6.32,1.64Z"/>
  <path class="cls-1" d="M772.18,125.05v29.7h-8.59l-9.22-16.06-2.25-4.41h-.04l.18,5.49v14.99h-6.84v-29.7h8.59l9.23,16.06,2.25,4.41h.04l-.18-5.49v-14.98h6.84Z"/>
  <path class="cls-1" d="M782.12,154.75v-29.7h23.13v5.98h-15.39v6.03h12.24v5.62h-12.24v6.07h15.97v5.99h-23.71Z"/>
  <path class="cls-1" d="M828.07,125.05c3.54,0,6.29.83,8.26,2.5,1.96,1.66,2.95,3.88,2.95,6.64,0,3.03-.98,5.34-2.93,6.93-1.95,1.59-4.7,2.39-8.23,2.39l-.72.41h-5.89v10.84h-7.61v-29.7h14.18ZM826.99,138.42c1.5,0,2.62-.3,3.38-.9.75-.6,1.12-1.56,1.12-2.88s-.38-2.23-1.12-2.83c-.75-.6-1.88-.9-3.38-.9h-5.49v7.52h5.49ZM831.53,140.03l9.49,14.72h-8.55l-7.61-13,6.66-1.71Z"/>
  <path class="cls-1" d="M868.57,154.75v-29.7h20.83v3.38h-17.23v9.58h13.41v3.38h-13.41v9.99h17.91v3.38h-21.51Z"/>
  <path class="cls-1" d="M922.97,125.05v29.7h-3.6v-29.7h3.6Z"/>
  <path class="cls-1" d="M939.66,151.38h17.01v3.38h-20.61v-29.7h3.6v26.32Z"/>
  <path class="cls-1" d="M969.95,151.38h17.01v3.38h-20.61v-29.7h3.6v26.32Z"/>
  <path class="cls-1" d="M1018.64,125.05v18.63c0,3.81-1.01,6.68-3.01,8.62-2.01,1.93-4.89,2.9-8.64,2.9s-6.59-.97-8.62-2.9c-2.03-1.94-3.04-4.81-3.04-8.62v-18.63h3.6v17.73c0,3.09.65,5.37,1.96,6.84,1.3,1.47,3.34,2.2,6.1,2.2s4.79-.73,6.1-2.2c1.3-1.47,1.96-3.75,1.96-6.84v-17.73h3.6Z"/>
  <path class="cls-1" d="M1040.69,124.6c2.61,0,4.86.53,6.75,1.6,1.89,1.07,3.46,2.63,4.72,4.7l-3.02,2.34c-1.11-1.92-2.36-3.28-3.76-4.07-1.39-.79-3.08-1.19-5.06-1.19-1.59,0-2.9.22-3.94.67-1.04.45-1.79,1.04-2.27,1.78-.48.74-.72,1.57-.72,2.5,0,1.05.33,1.97.99,2.77.66.8,1.98,1.42,3.96,1.87l6.44,1.44c2.85.63,4.84,1.58,5.96,2.86,1.12,1.28,1.69,2.86,1.69,4.75,0,1.68-.47,3.17-1.42,4.48s-2.27,2.32-3.98,3.04c-1.71.72-3.72,1.08-6.03,1.08-2.16,0-4.06-.29-5.69-.88s-3.04-1.37-4.21-2.36c-1.17-.99-2.13-2.1-2.88-3.33l3.15-2.56c.57,1.14,1.3,2.15,2.21,3.02.9.87,1.99,1.55,3.26,2.02,1.27.48,2.74.72,4.39.72,1.53,0,2.86-.19,3.98-.56,1.12-.37,1.99-.93,2.59-1.67.6-.73.9-1.63.9-2.68,0-.96-.32-1.82-.95-2.59-.63-.77-1.82-1.34-3.55-1.73l-6.98-1.58c-1.83-.42-3.31-1-4.43-1.73-1.12-.73-1.94-1.6-2.43-2.61-.5-1-.74-2.09-.74-3.26,0-1.59.44-3.05,1.33-4.39.88-1.33,2.16-2.41,3.83-3.22,1.66-.81,3.64-1.21,5.92-1.21Z"/>
  <path class="cls-1" d="M1082.9,125.05v3.38h-10.35v26.32h-3.6v-26.32h-10.35v-3.38h24.3Z"/>
  <path class="cls-1" d="M1103.82,125.05c3.03,0,5.46.78,7.29,2.34,1.83,1.56,2.74,3.68,2.74,6.35s-.92,4.75-2.77,6.23c-1.85,1.48-4.28,2.23-7.31,2.23l-.32.22h-7.29v12.33h-3.6v-29.7h11.25ZM1103.78,139.04c2.13,0,3.71-.44,4.75-1.33,1.04-.88,1.55-2.21,1.55-3.98s-.52-3.1-1.55-3.98c-1.04-.88-2.62-1.33-4.75-1.33h-7.61v10.62h7.61ZM1105.85,139.76l9.81,14.99h-4.28l-8.55-13,3.01-1.98Z"/>
  <path class="cls-1" d="M1149.54,154.75h-3.82l-3.15-8.24h-13.46l-3.15,8.24h-3.78l11.56-29.7h4.28l11.52,29.7ZM1130.42,143.14h10.85l-5.45-14.62-5.4,14.62Z"/>
  <path class="cls-1" d="M1175.78,125.05v3.38h-10.35v26.32h-3.6v-26.32h-10.35v-3.38h24.3Z"/>
  <path class="cls-1" d="M1196.7,125.05c3.03,0,5.46.78,7.29,2.34,1.83,1.56,2.74,3.68,2.74,6.35s-.92,4.75-2.77,6.23c-1.85,1.48-4.28,2.23-7.31,2.23l-.32.22h-7.29v12.33h-3.6v-29.7h11.25ZM1196.66,139.04c2.13,0,3.71-.44,4.75-1.33,1.04-.88,1.55-2.21,1.55-3.98s-.52-3.1-1.55-3.98c-1.04-.88-2.62-1.33-4.75-1.33h-7.61v10.62h7.61ZM1198.72,139.76l9.81,14.99h-4.28l-8.55-13,3.01-1.98Z"/>
  <path class="cls-1" d="M1222.35,125.05v29.7h-3.6v-29.7h3.6Z"/>
  <path class="cls-1" d="M1259.38,147.15c-.63,1.68-1.53,3.13-2.7,4.34-1.17,1.21-2.54,2.14-4.12,2.77-1.57.63-3.29.95-5.15.95-2.82,0-5.26-.62-7.31-1.87-2.05-1.24-3.64-3.01-4.77-5.29-1.12-2.28-1.69-4.99-1.69-8.15s.56-5.86,1.69-8.15c1.12-2.28,2.71-4.04,4.77-5.29,2.05-1.24,4.46-1.87,7.22-1.87,1.92,0,3.63.26,5.13.79,1.5.53,2.78,1.3,3.85,2.34,1.06,1.03,1.91,2.3,2.54,3.8l-3.55,1.67c-.66-1.71-1.61-3.01-2.86-3.89-1.24-.88-2.86-1.33-4.84-1.33s-3.78.47-5.31,1.42c-1.53.94-2.72,2.3-3.58,4.07-.86,1.77-1.28,3.91-1.28,6.43s.41,4.63,1.21,6.41c.81,1.79,1.96,3.15,3.46,4.09,1.5.95,3.27,1.42,5.31,1.42s3.71-.5,5.18-1.51c1.47-1,2.54-2.51,3.2-4.52l3.6,1.35Z"/>
  <path class="cls-1" d="M1269.69,154.75v-29.7h20.83v3.38h-17.23v9.58h13.41v3.38h-13.41v9.99h17.91v3.38h-21.51Z"/>
</svg>