<?xml version="1.0" encoding="UTF-8"?>
<svg id="Livello_1" data-name="Livello 1" xmlns="http://www.w3.org/2000/svg" viewBox="0 0 895.79 226.65">
  <defs>
    <style>
      .cls-1 {
        fill: #fff;
      }
    </style>
  </defs>
  <path class="cls-1" d="M69.55,57.35c.64.29.96.71.96,1.28,0,.07-.02.16-.05.27-.04.11-.13.34-.27.7l-10.06,21.19c-.29.64-.71.96-1.28.96-.14,0-.32-.05-.53-.16-.21-.11-.54-.37-.96-.8-.36-.36-1.07-.53-2.14-.53H1.61c-1.07,0-1.61-.54-1.61-1.6v-3.21c0-1.07.54-1.6,1.61-1.6,5.28,0,7.92-3.39,7.92-10.17V16.69c0-6.78-2.64-10.17-7.92-10.17-1.07,0-1.61-.54-1.61-1.6V1.71C0,.57.54,0,1.61,0h32.42c1.35,0,2.03.57,2.03,1.71v3.21c0,1.07-.64,1.6-1.93,1.6h-7.6v55.96c0,6.78,2.46,10.17,7.38,10.17h4.17c5.21,0,9.99-1.12,14.34-3.37,4.35-2.25,8.06-6.47,11.13-12.68l.32-.64c.36-.64.78-.96,1.28-.96.36,0,.68.11.96.32l3.42,2.03Z"/>
  <path class="cls-1" d="M94.59,61.1c1.21,3,3.16,5.67,5.83,8.03s6.08,3.53,10.22,3.53c2.28,0,4.67-.64,7.17-1.93,2.5-1.28,4.67-3.28,6.53-5.99.21-.36.5-.54.86-.54s.73.11,1.12.32c.39.21,1.44.82,3.16,1.82.28.21.43.5.43.86,0,.5-.21,1.11-.64,1.82-2,3.71-4.71,6.74-8.13,9.1s-7.88,3.53-13.38,3.53c-5.92,0-11.02-1.32-15.3-3.96-4.28-2.64-7.58-6.13-9.9-10.49-2.32-4.35-3.48-9.09-3.48-14.23s.73-9.15,2.19-12.68c1.46-3.53,3.41-6.38,5.83-8.56,2.42-2.18,5.15-3.78,8.19-4.82,3.03-1.03,6.12-1.55,9.25-1.55,3.57,0,6.7.7,9.42,2.09,2.71,1.39,5.01,3.16,6.9,5.3,1.89,2.14,3.32,4.41,4.28,6.79.96,2.39,1.44,4.62,1.44,6.69,0,.57-.32,1-.96,1.28l-31.03,13.59ZM110.53,45.8c0-3.42-.82-6.24-2.46-8.45-1.64-2.21-3.71-3.32-6.21-3.32-2.93,0-5.24,1.16-6.96,3.48-1.71,2.32-2.57,5.23-2.57,8.72,0,1.07.05,2.39.16,3.96.11,1.57.37,3,.8,4.28l17.23-8.67Z"/>
  <path class="cls-1" d="M178.8,72.55c.21.29.32.61.32.96,0,.43-.29.82-.86,1.18l-3.21,2.03c-1.93,1.21-4.25,2.34-6.96,3.37-2.71,1.03-5.42,1.55-8.13,1.55-2.14,0-4.16-.5-6.05-1.5-1.89-1-3.41-2.69-4.55-5.08-1.14-2.39-1.71-5.69-1.71-9.9v-19.8c0-1.93-.11-3.83-.32-5.72-.21-1.89-.88-3.44-1.98-4.65-1.11-1.21-2.94-1.82-5.51-1.82-1.07,0-1.61-.54-1.61-1.6v-3.21c0-1.07.54-1.6,1.61-1.6h7.81v-7.17c0-.93.32-1.57.96-1.93,1.57-.86,3.64-2.05,6.21-3.58,2.57-1.53,4.85-3.3,6.85-5.3.14-.14.32-.21.53-.21h.21c.14,0,.21.11.21.32v17.87h14.34c1.07,0,1.6.53,1.6,1.6v4.6c0,1.07-.53,1.6-1.6,1.6h-14.34v30.6c0,2.78.43,4.69,1.28,5.72.86,1.04,1.93,1.55,3.21,1.55,1.21,0,2.5-.34,3.85-1.02,1.35-.68,2.6-1.37,3.75-2.09.5-.28.89-.43,1.18-.43.43,0,.82.29,1.18.86l1.71,2.78Z"/>
  <path class="cls-1" d="M220.63,73.83c1.07,0,1.61.53,1.61,1.6v3.21c0,1.07-.61,1.6-1.82,1.6h-30.28c-1.21,0-1.82-.54-1.82-1.6v-3.21c0-1.07.53-1.6,1.6-1.6h.21c2.64,0,4.58-.98,5.83-2.94,1.25-1.96,1.87-4.37,1.87-7.22v-11.34c0-1.64-.12-3.28-.37-4.92-.25-1.64-.8-3.07-1.66-4.28-.86-1.21-2.28-1.93-4.28-2.14-.86-.07-1.28-.54-1.28-1.39v-3.64c0-.43.14-.73.43-.91.28-.18.68-.34,1.18-.48,5.63-1.85,9.97-3.76,13-5.72,3.03-1.96,5.26-3.69,6.69-5.19.14-.14.28-.21.43-.21h.32c.14,0,.21.07.21.21v39.91c0,2.85.64,5.28,1.93,7.28,1.28,2,3.25,3,5.88,3h.32ZM205.33,1.07c1.85,0,3.67.89,5.46,2.68,1.78,1.78,2.67,3.57,2.67,5.35s-.89,3.57-2.67,5.35-3.6,2.68-5.46,2.68c-1.71,0-3.5-.89-5.35-2.68-1.78-1.71-2.67-3.49-2.67-5.35s.89-3.57,2.67-5.35c1.78-1.78,3.57-2.68,5.35-2.68Z"/>
  <path class="cls-1" d="M287.08,64.41c.64.29.96.71.96,1.28,0,.29-.11.61-.32.96l-8.35,14.12c-.36.57-.79.86-1.28.86-.29,0-.79-.29-1.5-.86-.29-.29-.59-.45-.91-.48-.32-.04-.66-.05-1.02-.05h-41.2c-1.07,0-1.6-.54-1.6-1.6v-4.6c0-.5.11-.89.32-1.18l33.71-38.73h-10.27c-7.13,0-12.48,3.07-16.05,9.2l-.43.75c-.14.29-.3.53-.48.75-.18.21-.41.32-.7.32-.21,0-.57-.14-1.07-.43l-3.64-2.14c-.21-.14-.41-.3-.59-.48-.18-.18-.27-.44-.27-.8,0-.21.11-.53.32-.96l8.77-14.02c.36-.64.78-.96,1.28-.96.36,0,.82.29,1.39.86.28.29.59.45.91.48.32.04.66.05,1.02.05h39.59c.93,0,1.39.32,1.39.96,0,.36-.14.68-.43.96l-37.66,44.19h8.24c2.5,0,5.26-.14,8.29-.43,3.03-.28,5.97-1.09,8.83-2.41,2.85-1.32,5.17-3.44,6.96-6.37l.32-.54c.36-.57.78-.86,1.28-.86.43,0,.78.11,1.07.32l3.1,1.82Z"/>
  <path class="cls-1" d="M328.16,73.83c1.07,0,1.61.53,1.61,1.6v3.21c0,1.07-.61,1.6-1.82,1.6h-30.28c-1.21,0-1.82-.54-1.82-1.6v-3.21c0-1.07.53-1.6,1.6-1.6h.21c2.64,0,4.58-.98,5.83-2.94,1.25-1.96,1.87-4.37,1.87-7.22v-11.34c0-1.64-.12-3.28-.37-4.92-.25-1.64-.8-3.07-1.66-4.28-.86-1.21-2.28-1.93-4.28-2.14-.86-.07-1.28-.54-1.28-1.39v-3.64c0-.43.14-.73.43-.91.28-.18.68-.34,1.18-.48,5.63-1.85,9.97-3.76,13-5.72,3.03-1.96,5.26-3.69,6.69-5.19.14-.14.28-.21.43-.21h.32c.14,0,.21.07.21.21v39.91c0,2.85.64,5.28,1.93,7.28,1.28,2,3.25,3,5.88,3h.32ZM312.86,1.07c1.85,0,3.67.89,5.46,2.68,1.78,1.78,2.67,3.57,2.67,5.35s-.89,3.57-2.67,5.35-3.6,2.68-5.46,2.68c-1.71,0-3.5-.89-5.35-2.68-1.78-1.71-2.67-3.49-2.67-5.35s.89-3.57,2.67-5.35c1.78-1.78,3.57-2.68,5.35-2.68Z"/>
  <path class="cls-1" d="M391.29,60.46c0,2.57.39,4.87,1.18,6.9.78,2.03,2.5,3.23,5.14,3.58.86.07,1.28.54,1.28,1.39v3.53c0,1-.54,1.5-1.6,1.5-3.5,0-6.4.2-8.72.59-2.32.39-4.32.89-5.99,1.5-1.68.61-3.33,1.27-4.98,1.98-.29.14-.54.21-.75.21h-.32c-.14,0-.21-.14-.21-.43s.07-.98.21-2.09c.14-1.1.3-2.35.48-3.75.18-1.39.34-2.58.48-3.58-.36.93-1.12,2.18-2.3,3.75-1.18,1.57-2.89,2.98-5.14,4.23-2.25,1.25-5.19,1.87-8.83,1.87-2.43,0-5.01-.5-7.76-1.5-2.75-1-5.33-2.6-7.76-4.82-2.43-2.21-4.41-5.12-5.94-8.72-1.54-3.6-2.3-8.01-2.3-13.21,0-6.63,1.19-12,3.58-16.1,2.39-4.1,5.49-7.12,9.31-9.04,3.82-1.93,7.86-2.89,12.14-2.89,3.49,0,6.7.54,9.63,1.6,2.92,1.07,5.49,2.6,7.7,4.6,1.85-.78,3.44-1.51,4.76-2.19,1.32-.68,2.44-1.37,3.37-2.09.36-.28.73-.57,1.12-.86.39-.28.84-.57,1.34-.86.21-.14.39-.21.54-.21h.11c.14,0,.21.07.21.21v34.88ZM376.31,43.66c-.21-1.43-.73-3.01-1.55-4.76-.82-1.75-2.05-3.25-3.69-4.49-1.64-1.25-3.85-1.87-6.63-1.87-3.42,0-6.1.84-8.02,2.51-1.93,1.68-3.26,3.83-4.01,6.47-.75,2.64-1.12,5.46-1.12,8.45,0,6.85,1.37,12.27,4.12,16.26,2.75,4,6.29,5.99,10.65,5.99,2.57,0,4.58-.55,6.04-1.66,1.46-1.1,2.51-2.23,3.16-3.37.64-1.14,1-1.82,1.07-2.03v-21.51Z"/>
  <path class="cls-1" d="M520.87,73.83c1.07,0,1.61.53,1.61,1.6v3.21c0,1.07-.54,1.6-1.61,1.6h-32.85c-1.07,0-1.61-.54-1.61-1.6v-3.21c0-1.07.54-1.6,1.61-1.6h.64c1.78,0,3.1-.52,3.96-1.55.86-1.03,1.28-2.26,1.28-3.69,0-1.64-.46-3.28-1.39-4.92l-9.74-18.19c-2.14.21-4.46.32-6.96.32h-8.03v17.87c0,2.85.54,5.26,1.61,7.22,1.07,1.96,2.92,2.94,5.56,2.94h.64c1.07,0,1.6.53,1.6,1.6v3.21c0,1.07-.53,1.6-1.6,1.6h-32.85c-1.07,0-1.61-.54-1.61-1.6v-3.21c0-1.07.54-1.6,1.61-1.6h.75c2.71,0,4.58-.98,5.62-2.94,1.03-1.96,1.55-4.37,1.55-7.22V16.58c0-2.92-.55-5.35-1.66-7.28-1.11-1.93-3.16-2.89-6.15-2.89-1.07,0-1.6-.54-1.6-1.6V1.6c0-1.07.53-1.6,1.6-1.6h39.27c5.78,0,10.81,1.03,15.09,3.1,4.28,2.07,7.6,4.81,9.95,8.24,2.35,3.42,3.53,7.17,3.53,11.23,0,3.64-.96,7.17-2.89,10.59s-5.21,6.24-9.84,8.45l11.66,22.04c1.43,2.64,2.91,4.99,4.44,7.06,1.53,2.07,3.62,3.1,6.26,3.1h.54ZM474,38.2c7.13,0,12.36-1.39,15.68-4.17,3.32-2.78,4.98-6.6,4.98-11.45s-1.54-8.84-4.6-11.77c-3.07-2.92-7.28-4.39-12.63-4.39h-9.63v31.78h6.21Z"/>
  <path class="cls-1" d="M581.43,60.46c0,2.57.39,4.87,1.18,6.9.78,2.03,2.5,3.23,5.14,3.58.86.07,1.28.54,1.28,1.39v3.53c0,1-.54,1.5-1.6,1.5-3.5,0-6.4.2-8.72.59-2.32.39-4.32.89-5.99,1.5-1.68.61-3.33,1.27-4.98,1.98-.29.14-.54.21-.75.21h-.32c-.14,0-.21-.14-.21-.43s.07-.98.21-2.09c.14-1.1.3-2.35.48-3.75.18-1.39.34-2.58.48-3.58-.36.93-1.12,2.18-2.3,3.75-1.18,1.57-2.89,2.98-5.14,4.23-2.25,1.25-5.19,1.87-8.83,1.87-2.43,0-5.01-.5-7.76-1.5-2.75-1-5.33-2.6-7.76-4.82-2.43-2.21-4.41-5.12-5.94-8.72-1.54-3.6-2.3-8.01-2.3-13.21,0-6.63,1.19-12,3.58-16.1,2.39-4.1,5.49-7.12,9.31-9.04,3.82-1.93,7.86-2.89,12.14-2.89,3.49,0,6.7.54,9.63,1.6,2.92,1.07,5.49,2.6,7.7,4.6,1.85-.78,3.44-1.51,4.76-2.19,1.32-.68,2.44-1.37,3.37-2.09.36-.28.73-.57,1.12-.86.39-.28.84-.57,1.34-.86.21-.14.39-.21.54-.21h.11c.14,0,.21.07.21.21v34.88ZM566.45,43.66c-.21-1.43-.73-3.01-1.55-4.76-.82-1.75-2.05-3.25-3.69-4.49-1.64-1.25-3.85-1.87-6.63-1.87-3.42,0-6.1.84-8.02,2.51-1.93,1.68-3.26,3.83-4.01,6.47-.75,2.64-1.12,5.46-1.12,8.45,0,6.85,1.37,12.27,4.12,16.26,2.75,4,6.29,5.99,10.65,5.99,2.57,0,4.58-.55,6.04-1.66,1.46-1.1,2.51-2.23,3.16-3.37.64-1.14,1-1.82,1.07-2.03v-21.51Z"/>
  <path class="cls-1" d="M654.4,23.54c.28-.07.57-.11.86-.11.36,0,.54.53.54,1.6,0,3.5-.66,6.21-1.98,8.13-1.32,1.93-3.19,2.89-5.62,2.89,1.71,2.85,2.57,6.14,2.57,9.84s-.95,7.22-2.83,10.33c-1.89,3.1-4.58,5.56-8.08,7.38-3.5,1.82-7.7,2.73-12.63,2.73s-9.31-1-12.95-3c-.93.71-1.39,1.6-1.39,2.68s.39,1.98,1.18,2.73c.78.75,2.3,1.36,4.55,1.82,2.25.46,5.55.8,9.9,1.02,3.14.14,6.19.46,9.15.96,2.96.5,5.62,1.3,7.97,2.41,2.35,1.11,4.23,2.66,5.62,4.65,1.39,2,2.09,4.6,2.09,7.81,0,2.92-.77,5.4-2.3,7.44-1.54,2.03-3.6,3.65-6.21,4.87-2.6,1.21-5.48,2.1-8.61,2.67-3.14.57-6.31.86-9.52.86-4.35,0-8.36-.46-12.04-1.39-3.67-.93-6.63-2.35-8.88-4.28-2.25-1.93-3.37-4.39-3.37-7.38,0-2.35.62-4.37,1.87-6.05,1.25-1.68,2.76-3.01,4.55-4.01-3.64-2.28-5.46-5.53-5.46-9.74,0-2.42.62-4.49,1.87-6.21,1.25-1.71,2.83-2.96,4.76-3.74-4.21-3.85-6.31-8.7-6.31-14.55,0-3.78.94-7.22,2.84-10.33,1.89-3.1,4.6-5.58,8.13-7.44,3.53-1.85,7.72-2.78,12.57-2.78,3,0,5.72.37,8.19,1.12s4.65,1.77,6.58,3.05c.36.21.66.34.91.37.25.04.44.05.59.05.57,0,1.03-.2,1.39-.59.36-.39.54-1.12.54-2.19v-.32c0-.93.39-1.46,1.18-1.6l7.81-1.71ZM626.79,95.87c5.28,0,9.33-.5,12.14-1.5,2.82-1,4.23-2.32,4.23-3.96,0-2.28-1.5-3.8-4.49-4.55s-7.21-1.27-12.63-1.55c-3.85-.21-7.17-.64-9.95-1.28-2,1.35-3,3.25-3,5.67,0,1.07.39,2.16,1.18,3.26.78,1.1,2.18,2.03,4.17,2.78,2,.75,4.78,1.12,8.35,1.12ZM627.22,31.78c-2.71,0-4.83.75-6.37,2.25-1.54,1.5-2.6,3.34-3.21,5.51-.61,2.18-.91,4.3-.91,6.37s.3,4.19.91,6.37c.61,2.18,1.67,4.01,3.21,5.51,1.53,1.5,3.65,2.25,6.37,2.25s4.76-.75,6.15-2.25c1.39-1.5,2.34-3.33,2.84-5.51.5-2.18.75-4.3.75-6.37s-.25-4.19-.75-6.37c-.5-2.18-1.44-4.01-2.84-5.51-1.39-1.5-3.44-2.25-6.15-2.25Z"/>
  <path class="cls-1" d="M695.91,73.83c1.07,0,1.61.53,1.61,1.6v3.21c0,1.07-.61,1.6-1.82,1.6h-30.28c-1.21,0-1.82-.54-1.82-1.6v-3.21c0-1.07.53-1.6,1.6-1.6h.21c2.64,0,4.58-.98,5.83-2.94,1.25-1.96,1.87-4.37,1.87-7.22v-11.34c0-1.64-.12-3.28-.37-4.92-.25-1.64-.8-3.07-1.66-4.28-.86-1.21-2.28-1.93-4.28-2.14-.86-.07-1.28-.54-1.28-1.39v-3.64c0-.43.14-.73.43-.91.28-.18.68-.34,1.18-.48,5.63-1.85,9.97-3.76,13-5.72,3.03-1.96,5.26-3.69,6.69-5.19.14-.14.28-.21.43-.21h.32c.14,0,.21.07.21.21v39.91c0,2.85.64,5.28,1.93,7.28,1.28,2,3.25,3,5.88,3h.32ZM680.61,1.07c1.85,0,3.67.89,5.46,2.68,1.78,1.78,2.67,3.57,2.67,5.35s-.89,3.57-2.67,5.35-3.6,2.68-5.46,2.68c-1.71,0-3.5-.89-5.35-2.68-1.78-1.71-2.67-3.49-2.67-5.35s.89-3.57,2.67-5.35c1.78-1.78,3.57-2.68,5.35-2.68Z"/>
  <path class="cls-1" d="M732.08,25.36c4.07,0,7.83.8,11.29,2.41,3.46,1.6,6.44,3.78,8.93,6.53,2.5,2.75,4.44,5.81,5.83,9.2,1.39,3.39,2.09,6.9,2.09,10.54,0,5.28-1.25,10-3.75,14.18-2.5,4.17-5.78,7.46-9.84,9.84-4.07,2.39-8.49,3.58-13.27,3.58-4.07,0-7.81-.79-11.23-2.35-3.42-1.57-6.4-3.69-8.93-6.37-2.53-2.67-4.49-5.74-5.88-9.2-1.39-3.46-2.09-7.08-2.09-10.86,0-5.21,1.21-9.88,3.64-14.02,2.42-4.14,5.67-7.42,9.74-9.84,4.07-2.42,8.56-3.64,13.48-3.64ZM736.68,72.97c1.35,0,2.85-.36,4.49-1.07,1.64-.71,3.08-1.96,4.33-3.75,1.25-1.78,1.87-4.24,1.87-7.38,0-2.5-.48-5.26-1.44-8.29-.96-3.03-2.28-5.96-3.96-8.77-1.68-2.82-3.64-5.14-5.89-6.96s-4.69-2.73-7.33-2.73c-2.93,0-5.46,1.09-7.6,3.26-2.14,2.18-3.21,5.15-3.21,8.93,0,2.43.48,5.17,1.44,8.24.96,3.07,2.28,6.01,3.96,8.83,1.67,2.82,3.65,5.14,5.94,6.96,2.28,1.82,4.74,2.73,7.38,2.73Z"/>
  <path class="cls-1" d="M829.66,45.37v18.3c0,3.92.62,6.6,1.87,8.02,1.25,1.43,2.91,2.14,4.98,2.14h.86c1.07,0,1.6.53,1.6,1.6v3.21c0,1.07-.54,1.6-1.6,1.6h-28.46c-1.07,0-1.61-.54-1.61-1.6v-3.21c0-1.07.54-1.6,1.61-1.6h.75c1.5,0,2.71-.71,3.64-2.14.93-1.43,1.39-4.1,1.39-8.02v-18.3c0-3.42-.53-6.05-1.6-7.86s-3.1-2.73-6.1-2.73c-1.78,0-3.57.45-5.35,1.34-1.78.89-3.35,2.03-4.71,3.42-1.36,1.39-2.35,2.87-3,4.44v19.69c0,2.85.62,5.26,1.87,7.22,1.25,1.96,2.91,2.94,4.98,2.94h.21c1.07,0,1.6.53,1.6,1.6v3.21c0,1.07-.54,1.6-1.6,1.6h-30.07c-1.07,0-1.6-.54-1.6-1.6v-3.21c0-1.07.53-1.6,1.6-1.6h.21c2.64,0,4.6-.98,5.88-2.94,1.28-1.96,1.93-4.37,1.93-7.22v-13.48c0-1.93-.13-3.78-.38-5.56-.25-1.78-.82-3.3-1.71-4.55-.89-1.25-2.34-1.98-4.33-2.19-.79-.07-1.18-.54-1.18-1.39v-3.64c0-.71.5-1.18,1.5-1.39,5.14-.78,9.54-2,13.21-3.64,3.67-1.64,6.22-2.96,7.65-3.96.36-.28.64-.43.86-.43h.11c.14,0,.21.07.21.21s-.04.43-.11.86l-1.82,13.16c1-1.64,2.32-3.41,3.96-5.3,1.64-1.89,3.67-3.53,6.1-4.92,2.42-1.39,5.24-2.09,8.45-2.09,3.85,0,6.99.57,9.42,1.71,2.42,1.14,4.26,2.68,5.51,4.6,1.25,1.93,2.1,4.07,2.57,6.42.46,2.35.7,4.78.7,7.28Z"/>
  <path class="cls-1" d="M860.48,61.1c1.21,3,3.16,5.67,5.83,8.03s6.08,3.53,10.22,3.53c2.28,0,4.67-.64,7.17-1.93,2.5-1.28,4.67-3.28,6.53-5.99.21-.36.5-.54.86-.54s.73.11,1.12.32c.39.21,1.44.82,3.16,1.82.28.21.43.5.43.86,0,.5-.21,1.11-.64,1.82-2,3.71-4.71,6.74-8.13,9.1s-7.88,3.53-13.38,3.53c-5.92,0-11.02-1.32-15.3-3.96-4.28-2.64-7.58-6.13-9.9-10.49-2.32-4.35-3.48-9.09-3.48-14.23s.73-9.15,2.19-12.68c1.46-3.53,3.41-6.38,5.83-8.56,2.42-2.18,5.15-3.78,8.19-4.82,3.03-1.03,6.12-1.55,9.25-1.55,3.57,0,6.7.7,9.42,2.09,2.71,1.39,5.01,3.16,6.9,5.3,1.89,2.14,3.32,4.41,4.28,6.79.96,2.39,1.44,4.62,1.44,6.69,0,.57-.32,1-.96,1.28l-31.03,13.59ZM876.42,45.8c0-3.42-.82-6.24-2.46-8.45-1.64-2.21-3.71-3.32-6.21-3.32-2.93,0-5.24,1.16-6.96,3.48-1.71,2.32-2.57,5.23-2.57,8.72,0,1.07.05,2.39.16,3.96.11,1.57.37,3,.8,4.28l17.23-8.67Z"/>
  <path class="cls-1" d="M63.74,161.65c-2.88,0-5.38-.64-7.48-1.91-2.1-1.27-3.73-3.07-4.88-5.41-1.15-2.33-1.72-5.11-1.72-8.33s.61-6,1.82-8.33c1.21-2.33,2.91-4.13,5.08-5.4,2.18-1.27,4.68-1.91,7.5-1.91,3,0,5.45.57,7.34,1.7,1.89,1.13,3.41,2.88,4.58,5.24l-3.36,1.84c-.67-1.75-1.74-3.07-3.2-3.98-1.46-.9-3.24-1.36-5.36-1.36s-3.87.48-5.45,1.45c-1.58.97-2.82,2.36-3.73,4.19-.9,1.82-1.36,4.01-1.36,6.56s.39,4.73,1.17,6.55c.78,1.83,1.95,3.22,3.5,4.19,1.55.97,3.44,1.45,5.68,1.45,1.26,0,2.43-.16,3.52-.48,1.09-.32,2.04-.81,2.85-1.45s1.45-1.46,1.91-2.44c.46-.98.69-2.13.69-3.45v-1.06h-9.66v-3.45h13.02v15.32h-2.9l-.18-5.66.78.14c-.8,1.9-2.05,3.37-3.77,4.42-1.72,1.04-3.85,1.56-6.39,1.56Z"/>
  <path class="cls-1" d="M99.76,130.83c3.1,0,5.58.8,7.45,2.39,1.87,1.59,2.81,3.76,2.81,6.49s-.94,4.85-2.83,6.37c-1.89,1.52-4.38,2.28-7.48,2.28l-.32.23h-7.45v12.6h-3.68v-30.36h11.5ZM99.71,145.14c2.18,0,3.79-.45,4.85-1.36,1.06-.9,1.59-2.26,1.59-4.07s-.53-3.17-1.59-4.07c-1.06-.9-2.68-1.36-4.85-1.36h-7.77v10.86h7.77ZM101.83,145.87l10.03,15.32h-4.37l-8.74-13.29,3.08-2.02Z"/>
  <path class="cls-1" d="M146.5,161.19h-3.91l-3.22-8.42h-13.75l-3.22,8.42h-3.86l11.82-30.36h4.37l11.78,30.36ZM126.95,149.32h11.09l-5.57-14.95-5.52,14.95Z"/>
  <path class="cls-1" d="M166.83,130.83c2.05,0,3.84.38,5.36,1.13,1.52.75,2.71,1.82,3.57,3.2.86,1.38,1.29,3.02,1.29,4.92s-.43,3.54-1.29,4.92c-.86,1.38-2.05,2.45-3.57,3.2-1.52.75-3.3,1.13-5.36,1.13h-7.04v11.87h-3.68v-30.36h10.72ZM166.28,145.87c2.39,0,4.14-.5,5.24-1.5,1.1-1,1.66-2.43,1.66-4.3s-.55-3.34-1.66-4.32c-1.1-.98-2.85-1.47-5.24-1.47h-6.49v11.59h6.49Z"/>
  <path class="cls-1" d="M191.3,130.83v30.36h-3.68v-30.36h3.68ZM209.47,144.08v3.45h-19.92v-3.45h19.92ZM211.45,130.83v30.36h-3.68v-30.36h3.68Z"/>
  <path class="cls-1" d="M228.51,130.83v30.36h-3.68v-30.36h3.68Z"/>
  <path class="cls-1" d="M266.37,153.42c-.64,1.72-1.56,3.2-2.76,4.44-1.2,1.24-2.6,2.19-4.21,2.83-1.61.64-3.37.97-5.27.97-2.88,0-5.38-.64-7.48-1.91-2.1-1.27-3.73-3.07-4.88-5.41-1.15-2.33-1.72-5.11-1.72-8.33s.58-6,1.72-8.33c1.15-2.33,2.78-4.13,4.88-5.4s4.56-1.91,7.38-1.91c1.96,0,3.71.27,5.24.81,1.53.54,2.84,1.33,3.93,2.39,1.09,1.06,1.96,2.35,2.6,3.89l-3.63,1.7c-.67-1.75-1.65-3.07-2.92-3.98-1.27-.9-2.92-1.36-4.95-1.36s-3.86.48-5.43,1.45c-1.56.97-2.78,2.35-3.66,4.16-.87,1.81-1.31,4-1.31,6.58s.41,4.73,1.24,6.55c.83,1.83,2.01,3.22,3.54,4.19,1.53.97,3.34,1.45,5.43,1.45s3.79-.51,5.29-1.54c1.5-1.03,2.59-2.57,3.27-4.62l3.68,1.38Z"/>
  <path class="cls-1" d="M302.94,161.65c-2.02,0-3.76-.35-5.2-1.06s-2.55-1.67-3.31-2.9c-.77-1.23-1.15-2.64-1.15-4.23,0-.98.13-1.91.39-2.78s.68-1.71,1.27-2.51c.58-.8,1.37-1.55,2.37-2.25,1-.71,2.23-1.36,3.7-1.98l1.93-.97c1.17-.64,2.13-1.25,2.9-1.82.77-.57,1.34-1.19,1.73-1.86.38-.67.58-1.47.58-2.39,0-1.07-.33-1.91-.99-2.51-.66-.6-1.56-.9-2.69-.9-1.32,0-2.29.36-2.92,1.08-.63.72-.94,1.56-.94,2.51,0,.58.08,1.14.23,1.68.15.54.48,1.2.99,2,.51.8,1.26,1.86,2.28,3.17,1.01,1.32,2.38,3.05,4.09,5.2,1.75,2.15,3.19,3.87,4.32,5.17,1.13,1.3,2.1,2.29,2.9,2.94.8.66,1.54,1.1,2.23,1.31.69.22,1.45.32,2.28.32l-.92,2.76c-.89,0-1.72-.11-2.51-.32s-1.64-.67-2.58-1.38c-.94-.71-2.05-1.76-3.36-3.17-1.3-1.41-2.92-3.3-4.85-5.66-1.66-2.05-3.04-3.79-4.14-5.2-1.1-1.41-1.98-2.61-2.62-3.59-.64-.98-1.1-1.88-1.38-2.69-.28-.81-.41-1.65-.41-2.51,0-1.1.27-2.18.8-3.22.54-1.04,1.36-1.89,2.46-2.55,1.1-.66,2.53-.99,4.28-.99,1.32,0,2.47.25,3.45.74.98.49,1.75,1.2,2.32,2.12s.85,2.01.85,3.27c0,1.07-.18,2.09-.53,3.06-.35.97-1.01,1.92-1.98,2.85-.97.94-2.4,1.91-4.3,2.92l-1.56.6c-1.59.74-2.84,1.45-3.73,2.14s-1.52,1.43-1.89,2.23c-.37.8-.55,1.75-.55,2.85s.29,2.12.87,2.94c.58.83,1.36,1.46,2.35,1.91.98.44,2.08.67,3.31.67,1.69,0,3.11-.31,4.28-.92,1.17-.61,2.24-1.49,3.22-2.62l.6-.55c.8-1.26,1.42-2.68,1.86-4.28.44-1.59.59-3.37.44-5.34l3.13.28c.12,1.96-.08,3.9-.62,5.8-.54,1.9-1.39,3.62-2.55,5.15l-.69.97c-1.17,1.38-2.58,2.48-4.23,3.29-1.66.81-3.59,1.22-5.8,1.22Z"/>
  <path class="cls-1" d="M347.28,161.19v-30.36h10.81c3.59,0,6.21.75,7.87,2.25,1.66,1.5,2.48,3.54,2.48,6.12,0,1.53-.45,2.92-1.33,4.16-.89,1.24-2.15,2.03-3.77,2.37v.05c1.81.34,3.24,1.16,4.3,2.46,1.06,1.3,1.59,2.78,1.59,4.44,0,2.58-.97,4.64-2.9,6.19-1.93,1.55-4.69,2.32-8.28,2.32h-10.76ZM350.96,144.17h7.18c4.29,0,6.44-1.66,6.44-4.97s-2.15-4.92-6.44-4.92h-7.18v9.89ZM350.96,157.74h7.96c2.18,0,3.79-.44,4.85-1.33,1.06-.89,1.59-2.13,1.59-3.73s-.53-2.88-1.59-3.75-2.68-1.31-4.85-1.31h-7.96v10.12Z"/>
  <path class="cls-1" d="M392.27,130.83c3.1,0,5.58.8,7.45,2.39,1.87,1.59,2.81,3.76,2.81,6.49s-.94,4.85-2.83,6.37c-1.89,1.52-4.38,2.28-7.48,2.28l-.32.23h-7.45v12.6h-3.68v-30.36h11.5ZM392.22,145.14c2.18,0,3.79-.45,4.85-1.36,1.06-.9,1.59-2.26,1.59-4.07s-.53-3.17-1.59-4.07c-1.06-.9-2.68-1.36-4.85-1.36h-7.77v10.86h7.77ZM394.34,145.87l10.03,15.32h-4.37l-8.74-13.29,3.08-2.02Z"/>
  <path class="cls-1" d="M439.01,161.19h-3.91l-3.22-8.42h-13.75l-3.22,8.42h-3.86l11.82-30.36h4.37l11.78,30.36ZM419.46,149.32h11.09l-5.57-14.95-5.52,14.95Z"/>
  <path class="cls-1" d="M472.45,130.83v30.36h-4.55l-12.7-20.33-3.22-5.7h-.05l.18,4.6v21.44h-3.5v-30.36h4.55l12.65,20.24,3.27,5.84h.05l-.18-4.65v-21.44h3.5Z"/>
  <path class="cls-1" d="M495.63,130.83c4.75,0,8.49,1.31,11.2,3.93s4.07,6.37,4.07,11.25-1.36,8.62-4.07,11.25c-2.71,2.62-6.45,3.93-11.2,3.93h-9.8v-30.36h9.8ZM496,157.74c3.46,0,6.17-1.04,8.12-3.1,1.95-2.07,2.92-4.95,2.92-8.62s-.97-6.56-2.92-8.62c-1.95-2.07-4.65-3.1-8.12-3.1h-6.49v23.46h6.49Z"/>
  <path class="cls-1" d="M552.86,130.83c4.75,0,8.39,1.32,10.92,3.96,2.53,2.64,3.79,6.38,3.79,11.22s-1.26,8.59-3.79,11.22c-2.53,2.64-6.17,3.96-10.92,3.96h-12.88v-30.36h12.88ZM552.07,155.21c2.58,0,4.45-.77,5.63-2.32,1.18-1.55,1.77-3.84,1.77-6.88s-.59-5.33-1.77-6.88c-1.18-1.55-3.06-2.32-5.63-2.32h-4.19v18.4h4.19Z"/>
  <path class="cls-1" d="M576.45,161.19v-30.36h23.64v6.12h-15.73v6.16h12.51v5.75h-12.51v6.21h16.33v6.12h-24.24Z"/>
  <path class="cls-1" d="M620.8,130.37c2.82,0,5.31.44,7.48,1.31s4.04,2.15,5.63,3.84l-3.82,5.11c-1.32-1.38-2.74-2.42-4.25-3.1-1.52-.69-3.24-1.03-5.17-1.03-1.13,0-2.05.12-2.76.37-.71.25-1.21.58-1.52,1.01-.31.43-.46.92-.46,1.47,0,.64.3,1.19.9,1.63.6.44,1.57.82,2.92,1.13l5.11,1.15c3.04.71,5.26,1.73,6.67,3.08,1.41,1.35,2.12,3.14,2.12,5.38s-.55,3.96-1.66,5.45c-1.1,1.49-2.62,2.61-4.55,3.36-1.93.75-4.14,1.13-6.62,1.13-2.02,0-3.96-.22-5.8-.67-1.84-.44-3.5-1.08-4.97-1.91-1.47-.83-2.71-1.78-3.73-2.85l3.82-5.29c.77.89,1.71,1.68,2.83,2.37,1.12.69,2.35,1.23,3.68,1.63,1.33.4,2.69.6,4.07.6,1.07,0,1.97-.11,2.69-.32.72-.21,1.25-.54,1.59-.97.34-.43.51-.94.51-1.52,0-.64-.23-1.19-.69-1.63-.46-.44-1.33-.82-2.62-1.13l-5.61-1.24c-1.72-.4-3.24-.93-4.58-1.59-1.33-.66-2.38-1.55-3.15-2.67-.77-1.12-1.15-2.52-1.15-4.21,0-1.9.52-3.6,1.56-5.08,1.04-1.49,2.54-2.66,4.51-3.52,1.96-.86,4.31-1.29,7.04-1.29Z"/>
  <path class="cls-1" d="M649.96,130.83v30.36h-7.91v-30.36h7.91Z"/>
  <path class="cls-1" d="M672.68,161.65c-2.7,0-5.1-.6-7.2-1.79-2.1-1.2-3.73-2.96-4.9-5.29-1.17-2.33-1.75-5.17-1.75-8.51s.61-6.09,1.84-8.42c1.23-2.33,2.98-4.12,5.27-5.38,2.28-1.26,4.98-1.89,8.07-1.89,3.43,0,6.21.62,8.33,1.86,2.12,1.24,3.76,3.21,4.92,5.91l-7.31,2.9c-.4-1.56-1.1-2.7-2.12-3.4-1.01-.71-2.27-1.06-3.77-1.06s-2.79.36-3.86,1.08c-1.07.72-1.89,1.78-2.44,3.17-.55,1.4-.83,3.12-.83,5.18s.28,3.94.85,5.38c.57,1.44,1.41,2.51,2.53,3.2,1.12.69,2.51,1.04,4.16,1.04.89,0,1.7-.11,2.44-.32.74-.21,1.38-.53,1.93-.94s.98-.94,1.29-1.56c.31-.63.46-1.37.46-2.23v-.46h-6.95v-5.29h13.66v16.38h-5.38l-.6-7.13,1.29,1.1c-.64,2.09-1.8,3.69-3.47,4.81-1.67,1.12-3.83,1.68-6.46,1.68Z"/>
  <path class="cls-1" d="M724.2,130.83v30.36h-8.79l-9.43-16.42-2.3-4.51h-.05l.18,5.61v15.32h-6.99v-30.36h8.79l9.43,16.42,2.3,4.51h.05l-.18-5.61v-15.32h6.99Z"/>
  <path class="cls-1" d="M734.37,161.19v-30.36h23.64v6.12h-15.73v6.16h12.51v5.75h-12.51v6.21h16.33v6.12h-24.24Z"/>
  <path class="cls-1" d="M781.33,130.83c3.62,0,6.43.85,8.44,2.55,2.01,1.7,3.01,3.96,3.01,6.78,0,3.1-1,5.46-2.99,7.08-1.99,1.63-4.8,2.44-8.42,2.44l-.74.41h-6.03v11.09h-7.77v-30.36h14.49ZM780.23,144.49c1.53,0,2.68-.31,3.45-.92.77-.61,1.15-1.59,1.15-2.94s-.38-2.28-1.15-2.9c-.77-.61-1.92-.92-3.45-.92h-5.61v7.68h5.61ZM784.88,146.15l9.71,15.04h-8.74l-7.77-13.29,6.81-1.75Z"/>
  <path class="cls-1" d="M822.73,161.19v-30.36h21.3v3.45h-17.62v9.8h13.71v3.45h-13.71v10.21h18.31v3.45h-21.99Z"/>
  <path class="cls-1" d="M261.75,195.83v30.36h-3.68v-30.36h3.68Z"/>
  <path class="cls-1" d="M278.81,222.74h17.39v3.45h-21.07v-30.36h3.68v26.91Z"/>
  <path class="cls-1" d="M309.77,222.74h17.39v3.45h-21.07v-30.36h3.68v26.91Z"/>
  <path class="cls-1" d="M359.54,195.83v19.04c0,3.9-1.03,6.83-3.08,8.81-2.05,1.98-5,2.97-8.83,2.97s-6.74-.99-8.81-2.97c-2.07-1.98-3.1-4.91-3.1-8.81v-19.04h3.68v18.12c0,3.16.67,5.49,2,6.99s3.41,2.25,6.23,2.25,4.9-.75,6.23-2.25,2-3.83,2-6.99v-18.12h3.68Z"/>
  <path class="cls-1" d="M382.08,195.37c2.67,0,4.97.54,6.9,1.63,1.93,1.09,3.54,2.69,4.83,4.81l-3.08,2.39c-1.13-1.96-2.42-3.35-3.84-4.16-1.43-.81-3.15-1.22-5.18-1.22-1.62,0-2.97.23-4.02.69-1.06.46-1.83,1.07-2.32,1.82-.49.75-.74,1.6-.74,2.55,0,1.07.34,2.02,1.01,2.83.67.81,2.02,1.45,4.05,1.91l6.58,1.47c2.91.64,4.94,1.62,6.09,2.92,1.15,1.3,1.72,2.92,1.72,4.85,0,1.72-.48,3.24-1.45,4.58-.97,1.33-2.32,2.37-4.07,3.1-1.75.74-3.8,1.1-6.16,1.1-2.21,0-4.15-.3-5.82-.9-1.67-.6-3.1-1.4-4.3-2.42-1.2-1.01-2.18-2.15-2.94-3.4l3.22-2.62c.58,1.17,1.33,2.19,2.25,3.08.92.89,2.03,1.58,3.33,2.07,1.3.49,2.8.74,4.49.74,1.56,0,2.92-.19,4.07-.58,1.15-.38,2.03-.95,2.65-1.7.61-.75.92-1.66.92-2.74,0-.98-.32-1.86-.97-2.65-.64-.78-1.86-1.37-3.63-1.77l-7.13-1.61c-1.87-.43-3.38-1.02-4.53-1.77-1.15-.75-1.98-1.64-2.48-2.67-.51-1.03-.76-2.14-.76-3.33,0-1.63.45-3.12,1.36-4.49.9-1.36,2.21-2.46,3.91-3.29,1.7-.83,3.72-1.24,6.05-1.24Z"/>
  <path class="cls-1" d="M425.23,195.83v3.45h-10.58v26.91h-3.68v-26.91h-10.58v-3.45h24.84Z"/>
  <path class="cls-1" d="M446.62,195.83c3.1,0,5.58.8,7.45,2.39,1.87,1.59,2.81,3.76,2.81,6.49s-.94,4.85-2.83,6.37c-1.89,1.52-4.38,2.28-7.48,2.28l-.32.23h-7.45v12.6h-3.68v-30.36h11.5ZM446.57,210.14c2.18,0,3.79-.45,4.85-1.36,1.06-.9,1.59-2.26,1.59-4.07s-.53-3.17-1.59-4.07c-1.06-.9-2.68-1.36-4.85-1.36h-7.77v10.86h7.77ZM448.69,210.87l10.03,15.32h-4.37l-8.74-13.29,3.08-2.02Z"/>
  <path class="cls-1" d="M493.36,226.19h-3.91l-3.22-8.42h-13.75l-3.22,8.42h-3.86l11.82-30.36h4.37l11.78,30.36ZM473.81,214.32h11.09l-5.57-14.95-5.52,14.95Z"/>
  <path class="cls-1" d="M520.17,195.83v3.45h-10.58v26.91h-3.68v-26.91h-10.58v-3.45h24.84Z"/>
  <path class="cls-1" d="M541.56,195.83c3.1,0,5.58.8,7.45,2.39,1.87,1.59,2.81,3.76,2.81,6.49s-.94,4.85-2.83,6.37c-1.89,1.52-4.38,2.28-7.48,2.28l-.32.23h-7.45v12.6h-3.68v-30.36h11.5ZM541.51,210.14c2.18,0,3.79-.45,4.85-1.36,1.06-.9,1.59-2.26,1.59-4.07s-.53-3.17-1.59-4.07c-1.06-.9-2.68-1.36-4.85-1.36h-7.77v10.86h7.77ZM543.63,210.87l10.03,15.32h-4.37l-8.74-13.29,3.08-2.02Z"/>
  <path class="cls-1" d="M567.78,195.83v30.36h-3.68v-30.36h3.68Z"/>
  <path class="cls-1" d="M605.64,218.42c-.64,1.72-1.56,3.2-2.76,4.44-1.2,1.24-2.6,2.19-4.21,2.83-1.61.64-3.37.97-5.27.97-2.88,0-5.38-.64-7.48-1.91-2.1-1.27-3.73-3.07-4.88-5.41-1.15-2.33-1.72-5.11-1.72-8.33s.58-6,1.72-8.33c1.15-2.33,2.78-4.13,4.88-5.4s4.56-1.91,7.38-1.91c1.96,0,3.71.27,5.24.81,1.53.54,2.84,1.33,3.93,2.39,1.09,1.06,1.96,2.35,2.6,3.89l-3.63,1.7c-.67-1.75-1.65-3.07-2.92-3.98-1.27-.9-2.92-1.36-4.95-1.36s-3.86.48-5.43,1.45c-1.56.97-2.78,2.35-3.66,4.16-.87,1.81-1.31,4-1.31,6.58s.41,4.73,1.24,6.55c.83,1.83,2.01,3.22,3.54,4.19,1.53.97,3.34,1.45,5.43,1.45s3.79-.51,5.29-1.54c1.5-1.03,2.59-2.57,3.27-4.62l3.68,1.38Z"/>
  <path class="cls-1" d="M616.17,226.19v-30.36h21.3v3.45h-17.62v9.8h13.71v3.45h-13.71v10.21h18.31v3.45h-21.99Z"/>
</svg>