<svg xmlns="http://www.w3.org/2000/svg" width="36" height="44" viewBox="0 0 36 44">
  <!-- Stelo inclinato (come il mouse, punta in alto a sinistra) -->
  <path d="M14 20 Q7 31 2 42" stroke="#5a9e4b" stroke-width="2.2" fill="none" stroke-linecap="round"/>
  <!-- Foglia destra -->
  <path d="M9 30 Q15 28 12 34" stroke="#5a9e4b" stroke-width="1.3" fill="#6db85a" stroke-linecap="round"/>
  <!-- Foglia sinistra -->
  <path d="M5 37 Q1 33 3 39" stroke="#5a9e4b" stroke-width="1.3" fill="#6db85a" stroke-linecap="round"/>
  <!-- Petali viola -->
  <ellipse cx="16" cy="7" rx="3.5" ry="5.5" fill="#a88fca" stroke="#5b3c88" stroke-width=".5" transform="rotate(0,16,13)"/>
  <ellipse cx="16" cy="7" rx="3.5" ry="5.5" fill="#a88fca" stroke="#5b3c88" stroke-width=".5" transform="rotate(51.4,16,13)"/>
  <ellipse cx="16" cy="7" rx="3.5" ry="5.5" fill="#a88fca" stroke="#5b3c88" stroke-width=".5" transform="rotate(102.8,16,13)"/>
  <ellipse cx="16" cy="7" rx="3.5" ry="5.5" fill="#a88fca" stroke="#5b3c88" stroke-width=".5" transform="rotate(154.3,16,13)"/>
  <ellipse cx="16" cy="7" rx="3.5" ry="5.5" fill="#a88fca" stroke="#5b3c88" stroke-width=".5" transform="rotate(205.7,16,13)"/>
  <ellipse cx="16" cy="7" rx="3.5" ry="5.5" fill="#a88fca" stroke="#5b3c88" stroke-width=".5" transform="rotate(257.1,16,13)"/>
  <ellipse cx="16" cy="7" rx="3.5" ry="5.5" fill="#a88fca" stroke="#5b3c88" stroke-width=".5" transform="rotate(308.6,16,13)"/>
  <!-- Centro -->
  <circle cx="16" cy="13" r="4.8" fill="#f0a840"/>
  <circle cx="16" cy="13" r="3" fill="#e8943a"/>
  <circle cx="16" cy="13" r="1" fill="#5b3c88"/>
</svg>
