<?xml version="1.0" encoding="UTF-8"?>
<svg id="PROGETTI" xmlns="http://www.w3.org/2000/svg" viewBox="0 0 288.17 285.56">
  <defs>
    <style>
      .cls-1 {
        fill: #fff;
      }

      .cls-2 {
        fill: #ffca6c;
      }
    </style>
  </defs>
  <path class="cls-2" d="M288.17,142.78c0-13.09-5.21-24.96-13.67-33.65-7.46-7.66-7.23-19.72.18-27.42,8.94-9.29,14.2-22.15,13.41-36.23-1.33-23.72-20.32-43.31-44-45.3-15.14-1.27-28.97,4.45-38.62,14.3-7.46,7.61-19.6,7.42-27.1-.16-8.74-8.84-20.87-14.31-34.29-14.31s-25.55,5.48-34.29,14.31c-7.5,7.58-19.64,7.77-27.1.16C73.05,4.63,59.22-1.1,44.08.18,20.4,2.16,1.41,21.75.08,45.47c-.79,14.08,4.47,26.95,13.41,36.23,7.42,7.7,7.64,19.76.18,27.42C5.21,117.82,0,129.69,0,142.78s5.21,24.96,13.67,33.65c7.46,7.66,7.23,19.72-.18,27.42C4.54,213.14-.71,226,.08,240.08c1.33,23.72,20.33,43.31,44,45.3,15.14,1.27,28.97-4.46,38.62-14.3,7.46-7.61,19.6-7.42,27.1.16,8.74,8.84,20.87,14.31,34.29,14.31s25.55-5.48,34.29-14.31c7.5-7.58,19.63-7.77,27.1-.16,9.65,9.84,23.48,15.57,38.62,14.3,23.67-1.99,42.67-21.58,44-45.3.79-14.08-4.47-26.94-13.41-36.23-7.42-7.7-7.64-19.76-.18-27.42,8.46-8.69,13.67-20.56,13.67-33.65Z"/>
  <g>
    <path class="cls-1" d="M144.08,226.61c-.85,0-1.71-.17-2.54-.5-2.48-1.03-4.09-3.44-4.09-6.12V65.58c0-3.66,2.97-6.63,6.63-6.63s6.63,2.97,6.63,6.63v138.4l50.12-50.12c2.59-2.59,6.78-2.59,9.37,0,2.59,2.59,2.59,6.78,0,9.37l-61.44,61.44c-1.27,1.27-2.96,1.94-4.69,1.94Z"/>
    <path class="cls-1" d="M144.09,226.61c-1.73,0-3.42-.67-4.69-1.94l-61.44-61.44c-2.59-2.59-2.59-6.78,0-9.37,2.59-2.59,6.78-2.59,9.37,0l50.12,50.12V65.58c0-3.66,2.97-6.63,6.63-6.63s6.63,2.97,6.63,6.63v154.4c0,2.68-1.61,5.1-4.09,6.12-.82.34-1.68.5-2.54.5Z"/>
  </g>
</svg>