<?xml version="1.0" encoding="UTF-8"?>
<svg id="PROGETTI" xmlns="http://www.w3.org/2000/svg" viewBox="0 0 847.83 527.64">
  <defs>
    <style>
      .cls-1 {
        fill: #fff;
      }

      .cls-2 {
        fill: #ffca6c;
      }
    </style>
  </defs>
  <path class="cls-1" d="M252.32,30.1c0,2.84.31,5.74.93,8.71.62,2.97,1.6,5.71,2.94,8.24,1.34,2.53,3.07,4.55,5.18,6.07,2.12,1.52,4.67,2.28,7.66,2.28,1.13,0,2.39-.14,3.75-.43,1.37-.28,2.55-.77,3.56-1.47,1.01-.7,1.51-1.64,1.51-2.82v-4.02c0-2.94-.41-5.03-1.24-6.27-.83-1.24-1.87-1.99-3.13-2.24-1.26-.26-2.57-.39-3.91-.39h-.54c-.77,0-1.16-.39-1.16-1.16v-2.32c0-.77.39-1.16,1.16-1.16h24.38c.77,0,1.16.39,1.16,1.16v2.32c0,.77-.39,1.16-1.16,1.16h-.62c-1.34,0-2.01.85-2.01,2.55v8.36c-1.75,4.13-4.67,7.53-8.75,10.21-4.08,2.68-9.05,4.02-14.94,4.02-4.33,0-8.23-.75-11.68-2.24-3.46-1.5-6.4-3.58-8.82-6.27-2.43-2.68-4.28-5.8-5.57-9.36-1.29-3.56-1.93-7.4-1.93-11.53,0-2.58.28-5.29.85-8.13.57-2.84,1.51-5.58,2.82-8.24,1.32-2.66,3.07-5.06,5.26-7.2,2.19-2.14,4.9-3.84,8.12-5.11,3.22-1.26,7.05-1.9,11.49-1.9,3.71,0,6.93.46,9.63,1.39,2.71.93,4.96,2.12,6.77,3.56,1.8,1.44,3.24,2.94,4.29,4.49,1.06,1.55,1.82,2.98,2.28,4.29.46,1.32.7,2.31.7,2.98,0,.46-.12.8-.35,1.01-.23.21-.55.39-.97.54l-9.44,3.33c-.21.05-.43.12-.66.19s-.48.12-.74.12c-.21,0-.41-.04-.62-.12s-.31-.3-.31-.66c0-.26.03-.58.08-.97.05-.39.08-.92.08-1.59,0-3.56-.94-6.53-2.82-8.9-1.88-2.37-4.73-3.56-8.55-3.56-2.94,0-5.52.89-7.74,2.67-2.22,1.78-3.93,4.24-5.15,7.39-1.21,3.15-1.82,6.81-1.82,10.99Z"/>
  <path class="cls-1" d="M317.86,31.34c1.39-2.99,3.33-5.26,5.8-6.81,2.48-1.55,5.08-2.32,7.82-2.32,2.42,0,4.49.67,6.19,2.01,1.7,1.34,2.55,3.33,2.55,5.96,0,1.14-.1,2.14-.31,3.02-.21.88-.77,1.52-1.7,1.93l-7.27,2.94c-.31.1-.54.15-.7.15-.46,0-.7-.23-.7-.7,0-.15.05-.39.15-.7.31-.72.5-1.42.58-2.09.08-.67.12-1.26.12-1.78,0-1.39-.35-2.41-1.04-3.06-.7-.64-1.56-.97-2.59-.97-1.19,0-2.3.36-3.33,1.08-1.03.72-1.93,1.6-2.71,2.63-.77,1.03-1.34,2.04-1.7,3.02v14.24c0,2.06.46,3.81,1.39,5.22.93,1.42,2.35,2.13,4.26,2.13h.16c.77,0,1.16.39,1.16,1.16v2.32c0,.77-.39,1.16-1.16,1.16h-22.52c-.77,0-1.16-.39-1.16-1.16v-2.32c0-.77.39-1.16,1.16-1.16h.16c1.91,0,3.33-.71,4.26-2.13.93-1.42,1.39-3.16,1.39-5.22v-9.75c0-1.39-.09-2.73-.27-4.02-.18-1.29-.58-2.39-1.2-3.29-.62-.9-1.65-1.43-3.1-1.59-.62-.05-.93-.39-.93-1.01v-2.63c0-.52.39-.85,1.16-1.01,3.66-.57,6.87-1.47,9.63-2.71s4.63-2.22,5.61-2.94c.15-.1.28-.15.39-.15h.15c.1,0,.16.05.16.15,0,.05-.07.44-.19,1.16-.13.72-.28,1.64-.46,2.75-.18,1.11-.39,2.24-.62,3.41-.23,1.16-.43,2.18-.58,3.06Z"/>
  <path class="cls-1" d="M384.95,47.59c0,1.86.28,3.52.85,4.99.57,1.47,1.81,2.33,3.71,2.59.62.05.93.39.93,1.01v2.55c0,.72-.39,1.08-1.16,1.08-2.53,0-4.63.14-6.31.43-1.68.28-3.12.65-4.33,1.08-1.21.44-2.41.92-3.6,1.43-.21.1-.39.15-.54.15h-.23c-.1,0-.16-.1-.16-.31s.05-.71.16-1.51c.1-.8.22-1.7.35-2.71.13-1.01.25-1.87.35-2.59-.26.67-.81,1.57-1.66,2.71-.85,1.14-2.09,2.15-3.71,3.06-1.62.9-3.75,1.35-6.38,1.35-1.75,0-3.62-.36-5.61-1.08-1.99-.72-3.86-1.88-5.61-3.48-1.75-1.6-3.19-3.7-4.29-6.31-1.11-2.6-1.66-5.79-1.66-9.56,0-4.8.86-8.68,2.59-11.65,1.73-2.97,3.97-5.15,6.73-6.54,2.76-1.39,5.69-2.09,8.78-2.09,2.53,0,4.85.39,6.96,1.16,2.11.77,3.97,1.88,5.57,3.33,1.34-.57,2.49-1.1,3.44-1.59.95-.49,1.77-.99,2.44-1.51.26-.21.53-.41.81-.62.28-.21.61-.41.97-.62.15-.1.28-.15.39-.15h.08c.1,0,.15.05.15.15v25.23ZM374.12,35.44c-.15-1.03-.53-2.18-1.12-3.44-.59-1.26-1.48-2.35-2.67-3.25-1.19-.9-2.79-1.35-4.8-1.35-2.48,0-4.41.61-5.8,1.82-1.39,1.21-2.36,2.77-2.9,4.68-.54,1.91-.81,3.95-.81,6.11,0,4.95.99,8.87,2.98,11.76,1.99,2.89,4.55,4.33,7.7,4.33,1.86,0,3.31-.4,4.37-1.2,1.06-.8,1.82-1.61,2.28-2.44.46-.82.72-1.32.77-1.47v-15.55Z"/>
  <path class="cls-1" d="M449.49,57.27c.77,0,1.16.39,1.16,1.16v2.32c0,.77-.44,1.16-1.32,1.16h-21.9c-.83,0-1.24-.39-1.24-1.16v-2.4c0-.72.39-1.08,1.16-1.08h.08c1.91,0,3.33-.71,4.26-2.13.93-1.42,1.39-3.16,1.39-5.22v-13.62c0-1.19-.12-2.35-.35-3.48-.23-1.13-.76-2.08-1.59-2.82-.83-.75-2.14-1.12-3.95-1.12h-11.14v21.05c0,2.06.46,3.81,1.39,5.22.93,1.42,2.35,2.13,4.26,2.13.77,0,1.16.39,1.16,1.16v2.32c0,.77-.39,1.16-1.16,1.16h-22.21c-.77,0-1.16-.39-1.16-1.16v-2.32c0-.77.39-1.16,1.16-1.16,1.91,0,3.33-.71,4.26-2.13.93-1.42,1.39-3.16,1.39-5.22v-13.23c0-1.39-.08-2.77-.23-4.14-.16-1.37-.62-2.49-1.39-3.37-.77-.88-2.12-1.32-4.02-1.32-.77,0-1.16-.39-1.16-1.16v-2.32c0-.77.39-1.16,1.16-1.16h5.73v-.62c0-2.32.39-4.78,1.16-7.39.77-2.6,2.02-5.06,3.75-7.35,1.73-2.29,3.99-4.18,6.77-5.65,2.79-1.47,6.16-2.21,10.14-2.21,5.42,0,9.54,1.04,12.38,3.13,2.84,2.09,4.26,4.76,4.26,8.01,0,.98-.23,2.06-.7,3.25-.16.36-.38.67-.66.93-.28.26-.71.44-1.28.54l-8.12,1.78c-.52.1-.77-.13-.77-.7,0-.26.08-.54.23-.85.88-1.7,1.32-3.2,1.32-4.49,0-2.42-.72-4.26-2.17-5.49-1.45-1.24-3.33-1.86-5.65-1.86s-4.28.62-5.73,1.86c-1.45,1.24-2.5,2.9-3.17,4.99-.67,2.09-1.01,4.42-1.01,7v5.11h11.22c2.22,0,4.37-.14,6.46-.43,2.09-.28,3.92-.61,5.49-.97,1.57-.36,2.72-.64,3.44-.85.31-.1.54-.15.7-.15h.16c.1,0,.15.05.15.15v28.94c0,2.06.48,3.81,1.43,5.22.95,1.42,2.39,2.13,4.29,2.13h.16Z"/>
  <path class="cls-1" d="M490.43,51.46c.41.31.62.65.62,1.01,0,.1-.05.31-.16.62-1.5,3.3-3.7,5.77-6.62,7.39-2.92,1.62-6.1,2.44-9.56,2.44-2.89,0-5.52-.63-7.89-1.9-2.37-1.26-4.38-2.95-6.04-5.07-1.65-2.11-2.86-4.49-3.64-7.12-.77-2.63-1.06-5.34-.85-8.13.36-4.28,1.55-7.79,3.56-10.52,2.01-2.73,4.45-4.75,7.31-6.04,2.86-1.29,5.74-1.93,8.63-1.93,3.4,0,6.16.52,8.28,1.55,2.11,1.03,3.74,2.37,4.88,4.02,1.13,1.65,1.91,3.38,2.32,5.18.05.21.08.39.08.54,0,.41-.31.7-.93.85l-8.9,2.32c-.31.1-.54.15-.7.15-.36,0-.54-.18-.54-.54,0-.21.01-.41.04-.62.03-.21.04-.49.04-.85,0-1.65-.52-3.12-1.55-4.41-1.03-1.29-2.63-1.93-4.8-1.93-1.96,0-3.51.62-4.64,1.86-1.13,1.24-1.95,2.82-2.44,4.76-.49,1.93-.74,3.96-.74,6.07,0,2.53.33,4.93,1.01,7.2.67,2.27,1.77,4.11,3.29,5.53,1.52,1.42,3.6,2.13,6.23,2.13,2.06,0,3.97-.5,5.73-1.51,1.75-1.01,3.2-2.39,4.33-4.14.21-.36.52-.54.93-.54.26,0,.49.08.7.23l2.01,1.39Z"/>
  <path class="cls-1" d="M537.48,47.59c0,1.86.28,3.52.85,4.99.57,1.47,1.81,2.33,3.71,2.59.62.05.93.39.93,1.01v2.55c0,.72-.39,1.08-1.16,1.08-2.53,0-4.63.14-6.31.43-1.68.28-3.12.65-4.33,1.08-1.21.44-2.41.92-3.6,1.43-.21.1-.39.15-.54.15h-.23c-.1,0-.16-.1-.16-.31s.05-.71.16-1.51c.1-.8.22-1.7.35-2.71.13-1.01.25-1.87.35-2.59-.26.67-.81,1.57-1.66,2.71-.85,1.14-2.09,2.15-3.71,3.06-1.62.9-3.75,1.35-6.38,1.35-1.75,0-3.62-.36-5.61-1.08-1.99-.72-3.86-1.88-5.61-3.48-1.75-1.6-3.19-3.7-4.29-6.31-1.11-2.6-1.66-5.79-1.66-9.56,0-4.8.86-8.68,2.59-11.65,1.73-2.97,3.97-5.15,6.73-6.54,2.76-1.39,5.69-2.09,8.78-2.09,2.53,0,4.85.39,6.96,1.16,2.11.77,3.97,1.88,5.57,3.33,1.34-.57,2.49-1.1,3.44-1.59.95-.49,1.77-.99,2.44-1.51.26-.21.53-.41.81-.62.28-.21.61-.41.97-.62.15-.1.28-.15.39-.15h.08c.1,0,.15.05.15.15v25.23ZM526.65,35.44c-.15-1.03-.53-2.18-1.12-3.44-.59-1.26-1.48-2.35-2.67-3.25-1.19-.9-2.79-1.35-4.8-1.35-2.48,0-4.41.61-5.8,1.82-1.39,1.21-2.36,2.77-2.9,4.68-.54,1.91-.81,3.95-.81,6.11,0,4.95.99,8.87,2.98,11.76,1.99,2.89,4.55,4.33,7.7,4.33,1.86,0,3.31-.4,4.37-1.2,1.06-.8,1.82-1.61,2.28-2.44.46-.82.72-1.32.77-1.47v-15.55Z"/>
  <path class="cls-1" d="M584.76,48.06c.88,2.17,2.28,4.1,4.22,5.8,1.93,1.7,4.4,2.55,7.39,2.55,1.65,0,3.38-.46,5.19-1.39,1.8-.93,3.38-2.37,4.72-4.33.16-.26.36-.39.62-.39s.53.08.81.23,1.04.59,2.28,1.32c.21.15.31.36.31.62,0,.36-.15.8-.46,1.32-1.45,2.68-3.41,4.88-5.88,6.58-2.48,1.7-5.7,2.55-9.67,2.55-4.28,0-7.97-.96-11.07-2.86-3.1-1.91-5.48-4.44-7.16-7.58-1.68-3.15-2.51-6.58-2.51-10.29s.53-6.62,1.59-9.17c1.06-2.55,2.46-4.62,4.22-6.19,1.75-1.57,3.73-2.73,5.92-3.48,2.19-.75,4.42-1.12,6.69-1.12,2.58,0,4.85.5,6.81,1.51,1.96,1.01,3.62,2.28,4.99,3.83,1.37,1.55,2.4,3.19,3.1,4.91.7,1.73,1.04,3.34,1.04,4.84,0,.41-.23.72-.7.93l-22.44,9.83ZM596.29,36.99c0-2.48-.59-4.51-1.78-6.11-1.19-1.6-2.68-2.4-4.49-2.4-2.12,0-3.79.84-5.03,2.51-1.24,1.68-1.86,3.78-1.86,6.31,0,.77.04,1.73.12,2.86.08,1.14.27,2.17.58,3.1l12.46-6.27Z"/>
  <path class="cls-1" d="M130.71,134.27c.77,0,1.16.39,1.16,1.16v2.32c0,.77-.44,1.16-1.32,1.16h-21.9c-.88,0-1.32-.39-1.32-1.16v-2.32c0-.77.39-1.16,1.16-1.16h.16c1.91,0,3.31-.71,4.22-2.13.9-1.42,1.35-3.16,1.35-5.22v-8.2c0-1.19-.09-2.37-.27-3.56-.18-1.19-.58-2.22-1.2-3.1-.62-.88-1.65-1.39-3.09-1.55-.62-.05-.93-.39-.93-1.01v-2.63c0-.31.1-.53.31-.66s.49-.24.85-.35c4.08-1.34,7.21-2.72,9.4-4.14,2.19-1.42,3.8-2.67,4.84-3.75.1-.1.21-.15.31-.15h.23c.1,0,.15.05.15.15v28.86c0,2.06.46,3.82,1.39,5.26.93,1.45,2.35,2.17,4.26,2.17h.23ZM119.64,81.64c1.34,0,2.66.65,3.95,1.93,1.29,1.29,1.93,2.58,1.93,3.87s-.65,2.58-1.93,3.87c-1.29,1.29-2.61,1.93-3.95,1.93-1.24,0-2.53-.64-3.87-1.93-1.29-1.24-1.93-2.53-1.93-3.87s.64-2.58,1.93-3.87c1.29-1.29,2.58-1.93,3.87-1.93Z"/>
  <path class="cls-1" d="M161.43,134.27c.77,0,1.16.39,1.16,1.16v2.32c0,.77-.44,1.16-1.32,1.16h-21.9c-.88,0-1.32-.39-1.32-1.16v-2.32c0-.77.39-1.16,1.16-1.16h.16c1.91,0,3.31-.71,4.22-2.13.9-1.42,1.35-3.16,1.35-5.22v-29.02c0-1.44-.09-2.81-.27-4.1-.18-1.29-.58-2.39-1.2-3.29-.62-.9-1.65-1.43-3.09-1.59-.62-.05-.93-.39-.93-1.01v-2.63c0-.31.1-.51.31-.62.21-.1.49-.23.85-.39,3.66-1.34,6.59-2.59,8.78-3.75,2.19-1.16,4.01-2.28,5.46-3.37.1-.1.21-.15.31-.15h.23c.1,0,.15.05.15.15v49.68c0,2.06.46,3.82,1.39,5.26.93,1.45,2.35,2.17,4.26,2.17h.23Z"/>
  <path class="cls-1" d="M192.15,134.27c.77,0,1.16.39,1.16,1.16v2.32c0,.77-.44,1.16-1.32,1.16h-21.9c-.88,0-1.32-.39-1.32-1.16v-2.32c0-.77.39-1.16,1.16-1.16h.15c1.91,0,3.31-.71,4.22-2.13.9-1.42,1.35-3.16,1.35-5.22v-29.02c0-1.44-.09-2.81-.27-4.1-.18-1.29-.58-2.39-1.2-3.29-.62-.9-1.65-1.43-3.1-1.59-.62-.05-.93-.39-.93-1.01v-2.63c0-.31.1-.51.31-.62.21-.1.49-.23.85-.39,3.66-1.34,6.59-2.59,8.78-3.75,2.19-1.16,4.01-2.28,5.46-3.37.1-.1.21-.15.31-.15h.23c.1,0,.16.05.16.15v49.68c0,2.06.46,3.82,1.39,5.26.93,1.45,2.35,2.17,4.26,2.17h.23Z"/>
  <path class="cls-1" d="M240.28,123.28c0,1.34.09,2.67.27,3.99.18,1.32.59,2.43,1.24,3.33.64.9,1.66,1.43,3.06,1.59.41.05.66.17.74.35.08.18.12.4.12.66v2.55c0,.72-.36,1.08-1.08,1.08-2.53,0-4.63.14-6.31.43-1.68.28-3.12.65-4.33,1.08-1.21.44-2.41.92-3.6,1.43-.21.1-.41.15-.62.15h-.15c-.1,0-.16-.08-.16-.23s.09-.94.27-2.36c.18-1.42.5-3.88.97-7.39-.72,1.45-1.73,2.94-3.02,4.49-1.29,1.55-2.85,2.85-4.68,3.91-1.83,1.06-3.94,1.59-6.31,1.59-2.79,0-5.04-.43-6.77-1.28-1.73-.85-3.06-1.99-3.99-3.41-.93-1.42-1.56-3.02-1.9-4.8-.34-1.78-.5-3.6-.5-5.46v-12.77c0-2.11-.48-3.87-1.43-5.26-.96-1.39-2.39-2.09-4.29-2.09h-.31c-.77,0-1.16-.39-1.16-1.16v-2.32c0-.77.39-1.16,1.16-1.16h15.71c.77,0,1.16.39,1.16,1.16v24.07c0,1.39.13,2.67.39,3.83.26,1.16.79,2.09,1.59,2.79.8.7,2,1.04,3.6,1.04,1.29,0,2.58-.32,3.87-.97,1.29-.64,2.44-1.47,3.44-2.48,1.01-1.01,1.71-2.05,2.13-3.13v-14.32c0-2.11-.48-3.87-1.43-5.26-.96-1.39-2.36-2.09-4.22-2.09h-.15c-.77,0-1.16-.39-1.16-1.16v-2.32c0-.77.39-1.16,1.16-1.16h15.55c.77,0,1.16.39,1.16,1.16v21.9Z"/>
  <path class="cls-1" d="M284.08,112.21c-.31.15-.57.23-.77.23-.36,0-.7-.18-1.01-.54-2.32-2.94-4.75-5-7.27-6.19-2.53-1.19-4.72-1.78-6.58-1.78-1.34,0-2.58.28-3.71.85-1.14.57-1.7,1.6-1.7,3.1,0,1.14.42,2.08,1.28,2.82.85.75,1.95,1.35,3.29,1.82,1.34.46,2.71.88,4.1,1.24,2.01.46,4.04,1.01,6.07,1.62s3.91,1.43,5.61,2.44c1.7,1.01,3.08,2.26,4.14,3.75,1.06,1.5,1.59,3.38,1.59,5.65,0,2.43-.66,4.59-1.97,6.5-1.32,1.91-3.19,3.42-5.61,4.53-2.43,1.11-5.31,1.66-8.67,1.66-1.6,0-3.16-.19-4.68-.58-1.52-.39-2.95-.89-4.29-1.51-.31-.15-.54-.23-.7-.23-.36,0-.54.18-.54.54,0,.1.05.31.16.62.1.31.15.52.15.62,0,.41-.31.62-.93.62h-2.79c-.57,0-1.01-.26-1.32-.77l-6.65-12.46c-.16-.31-.23-.54-.23-.7,0-.36.21-.67.62-.93l2.4-1.39c.31-.15.54-.23.7-.23.31,0,.59.23.85.7,2.53,3.77,5.3,6.45,8.32,8.05,3.02,1.6,6.1,2.4,9.25,2.4,4.95,0,7.43-1.47,7.43-4.41,0-1.34-.61-2.45-1.82-3.33-1.21-.88-2.71-1.6-4.49-2.17-1.78-.57-3.57-1.06-5.38-1.47-3.3-.82-5.93-1.77-7.89-2.82-1.96-1.06-3.43-2.19-4.41-3.41-.98-1.21-1.64-2.42-1.97-3.64-.34-1.21-.5-2.39-.5-3.52,0-3.1,1.19-5.65,3.56-7.66,2.37-2.01,5.6-3.02,9.67-3.02,2.42,0,4.57.32,6.42.97,1.86.65,3.15,1.17,3.87,1.59.21.1.36.15.46.15.15,0,.23-.1.23-.31,0-.15-.08-.46-.23-.93-.05-.26-.09-.45-.12-.58-.03-.13-.04-.24-.04-.35,0-.51.33-.77,1.01-.77h2.01c.67,0,1.11.28,1.32.85l3.87,9.83c.16.31.23.57.23.77,0,.36-.21.65-.62.85l-1.7.93Z"/>
  <path class="cls-1" d="M323.55,133.34c.16.21.23.44.23.7,0,.31-.21.59-.62.85l-2.32,1.47c-1.39.88-3.07,1.69-5.03,2.44-1.96.75-3.92,1.12-5.88,1.12-1.55,0-3.01-.36-4.37-1.08-1.37-.72-2.46-1.95-3.29-3.68-.83-1.73-1.24-4.11-1.24-7.16v-14.32c0-1.39-.08-2.77-.23-4.14-.16-1.37-.63-2.49-1.43-3.37-.8-.88-2.13-1.32-3.99-1.32-.77,0-1.16-.39-1.16-1.16v-2.32c0-.77.39-1.16,1.16-1.16h5.65v-5.18c0-.67.23-1.13.7-1.39,1.13-.62,2.63-1.48,4.49-2.59,1.86-1.11,3.51-2.39,4.95-3.83.1-.1.23-.15.39-.15h.15c.1,0,.16.08.16.23v12.92h10.37c.77,0,1.16.39,1.16,1.16v3.33c0,.77-.39,1.16-1.16,1.16h-10.37v22.13c0,2.01.31,3.39.93,4.14.62.75,1.39,1.12,2.32,1.12.88,0,1.8-.24,2.79-.74s1.88-.99,2.71-1.51c.36-.21.64-.31.85-.31.31,0,.59.21.85.62l1.24,2.01Z"/>
  <path class="cls-1" d="M347.15,108.34c1.39-2.99,3.33-5.26,5.8-6.81,2.48-1.55,5.08-2.32,7.82-2.32,2.42,0,4.49.67,6.19,2.01,1.7,1.34,2.55,3.33,2.55,5.96,0,1.14-.1,2.14-.31,3.02-.21.88-.77,1.52-1.7,1.93l-7.27,2.94c-.31.1-.54.15-.7.15-.46,0-.7-.23-.7-.7,0-.15.05-.39.16-.7.31-.72.5-1.42.58-2.09.08-.67.12-1.26.12-1.78,0-1.39-.35-2.41-1.04-3.06-.7-.64-1.56-.97-2.59-.97-1.19,0-2.3.36-3.33,1.08-1.03.72-1.93,1.6-2.71,2.63-.77,1.03-1.34,2.04-1.7,3.02v14.24c0,2.06.46,3.81,1.39,5.22.93,1.42,2.35,2.13,4.26,2.13h.15c.77,0,1.16.39,1.16,1.16v2.32c0,.77-.39,1.16-1.16,1.16h-22.52c-.77,0-1.16-.39-1.16-1.16v-2.32c0-.77.39-1.16,1.16-1.16h.15c1.91,0,3.33-.71,4.26-2.13.93-1.42,1.39-3.16,1.39-5.22v-9.75c0-1.39-.09-2.73-.27-4.02-.18-1.29-.58-2.39-1.2-3.29-.62-.9-1.65-1.43-3.1-1.59-.62-.05-.93-.39-.93-1.01v-2.63c0-.52.39-.85,1.16-1.01,3.66-.57,6.87-1.47,9.63-2.71,2.76-1.24,4.63-2.22,5.61-2.94.16-.1.28-.15.39-.15h.16c.1,0,.15.05.15.15,0,.05-.07.44-.19,1.16-.13.72-.28,1.64-.46,2.75-.18,1.11-.39,2.24-.62,3.41s-.43,2.18-.58,3.06Z"/>
  <path class="cls-1" d="M414.24,124.59c0,1.86.28,3.52.85,4.99.57,1.47,1.81,2.33,3.71,2.59.62.05.93.39.93,1.01v2.55c0,.72-.39,1.08-1.16,1.08-2.53,0-4.63.14-6.31.43-1.68.28-3.12.65-4.33,1.08-1.21.44-2.41.92-3.6,1.43-.21.1-.39.15-.54.15h-.23c-.1,0-.16-.1-.16-.31s.05-.71.16-1.51c.1-.8.22-1.7.35-2.71.13-1.01.25-1.87.35-2.59-.26.67-.81,1.57-1.66,2.71-.85,1.14-2.09,2.15-3.71,3.06-1.62.9-3.75,1.35-6.38,1.35-1.75,0-3.62-.36-5.61-1.08-1.99-.72-3.86-1.88-5.61-3.48-1.75-1.6-3.19-3.7-4.29-6.31-1.11-2.6-1.66-5.79-1.66-9.56,0-4.8.86-8.68,2.59-11.65,1.73-2.97,3.97-5.15,6.73-6.54,2.76-1.39,5.69-2.09,8.78-2.09,2.53,0,4.85.39,6.96,1.16,2.11.77,3.97,1.88,5.57,3.33,1.34-.57,2.49-1.1,3.44-1.59.95-.49,1.77-.99,2.44-1.51.26-.21.53-.41.81-.62.28-.21.61-.41.97-.62.15-.1.28-.15.39-.15h.08c.1,0,.15.05.15.15v25.23ZM403.41,112.44c-.15-1.03-.53-2.18-1.12-3.44-.59-1.26-1.48-2.35-2.67-3.25-1.19-.9-2.79-1.35-4.8-1.35-2.48,0-4.41.61-5.8,1.82-1.39,1.21-2.36,2.77-2.9,4.68-.54,1.91-.81,3.95-.81,6.11,0,4.95.99,8.87,2.98,11.76,1.99,2.89,4.55,4.33,7.7,4.33,1.86,0,3.31-.4,4.37-1.2,1.06-.8,1.82-1.61,2.28-2.44.46-.82.72-1.32.77-1.47v-15.55Z"/>
  <path class="cls-1" d="M466.63,127.46c.46.21.7.52.7.93,0,.21-.08.44-.23.7l-6.04,10.22c-.26.41-.57.62-.93.62-.21,0-.57-.21-1.08-.62-.21-.21-.42-.32-.66-.35-.23-.03-.48-.04-.74-.04h-29.79c-.77,0-1.16-.39-1.16-1.16v-3.33c0-.36.08-.64.23-.85l24.38-28.01h-7.43c-5.16,0-9.03,2.22-11.61,6.66l-.31.54c-.1.21-.22.39-.35.54-.13.15-.3.23-.5.23-.16,0-.41-.1-.77-.31l-2.63-1.55c-.16-.1-.3-.22-.43-.35-.13-.13-.19-.32-.19-.58,0-.15.08-.39.23-.7l6.35-10.14c.26-.46.57-.7.93-.7.26,0,.59.21,1.01.62.21.21.43.32.66.35.23.03.48.04.74.04h28.63c.67,0,1.01.23,1.01.7,0,.26-.1.49-.31.7l-27.24,31.96h5.96c1.81,0,3.8-.1,6-.31,2.19-.21,4.32-.79,6.38-1.74,2.06-.95,3.74-2.49,5.03-4.6l.23-.39c.26-.41.57-.62.93-.62.31,0,.57.08.77.23l2.24,1.32Z"/>
  <path class="cls-1" d="M496.35,134.27c.77,0,1.16.39,1.16,1.16v2.32c0,.77-.44,1.16-1.32,1.16h-21.9c-.88,0-1.32-.39-1.32-1.16v-2.32c0-.77.39-1.16,1.16-1.16h.15c1.91,0,3.31-.71,4.22-2.13.9-1.42,1.35-3.16,1.35-5.22v-8.2c0-1.19-.09-2.37-.27-3.56-.18-1.19-.58-2.22-1.2-3.1-.62-.88-1.65-1.39-3.1-1.55-.62-.05-.93-.39-.93-1.01v-2.63c0-.31.1-.53.31-.66.21-.13.49-.24.85-.35,4.08-1.34,7.21-2.72,9.4-4.14,2.19-1.42,3.8-2.67,4.84-3.75.1-.1.21-.15.31-.15h.23c.1,0,.16.05.16.15v28.86c0,2.06.46,3.82,1.39,5.26.93,1.45,2.35,2.17,4.26,2.17h.23ZM485.28,81.64c1.34,0,2.66.65,3.95,1.93,1.29,1.29,1.93,2.58,1.93,3.87s-.65,2.58-1.93,3.87c-1.29,1.29-2.61,1.93-3.95,1.93-1.24,0-2.53-.64-3.87-1.93-1.29-1.24-1.93-2.53-1.93-3.87s.64-2.58,1.93-3.87c1.29-1.29,2.58-1.93,3.87-1.93Z"/>
  <path class="cls-1" d="M522.5,99.21c2.94,0,5.66.58,8.16,1.74,2.5,1.16,4.66,2.74,6.46,4.72,1.8,1.99,3.21,4.21,4.22,6.66,1.01,2.45,1.51,4.99,1.51,7.62,0,3.82-.9,7.24-2.71,10.25-1.81,3.02-4.18,5.39-7.12,7.12-2.94,1.73-6.14,2.59-9.6,2.59-2.94,0-5.65-.57-8.13-1.7-2.48-1.13-4.63-2.67-6.46-4.6-1.83-1.93-3.25-4.15-4.26-6.66-1.01-2.5-1.51-5.12-1.51-7.85,0-3.77.88-7.15,2.63-10.14,1.75-2.99,4.1-5.36,7.04-7.12,2.94-1.75,6.19-2.63,9.75-2.63ZM525.83,133.65c.98,0,2.06-.26,3.25-.77,1.19-.52,2.23-1.42,3.13-2.71.9-1.29,1.35-3.07,1.35-5.34,0-1.81-.35-3.8-1.04-6-.7-2.19-1.65-4.31-2.86-6.35-1.21-2.04-2.63-3.71-4.26-5.03-1.62-1.32-3.39-1.97-5.3-1.97-2.12,0-3.95.79-5.49,2.36-1.55,1.57-2.32,3.73-2.32,6.46,0,1.75.35,3.74,1.04,5.96.7,2.22,1.65,4.35,2.86,6.38,1.21,2.04,2.64,3.71,4.29,5.03,1.65,1.32,3.43,1.97,5.34,1.97Z"/>
  <path class="cls-1" d="M593.08,113.68v13.23c0,2.84.45,4.77,1.35,5.8.9,1.03,2.1,1.55,3.6,1.55h.62c.77,0,1.16.39,1.16,1.16v2.32c0,.77-.39,1.16-1.16,1.16h-20.58c-.77,0-1.16-.39-1.16-1.16v-2.32c0-.77.39-1.16,1.16-1.16h.54c1.08,0,1.96-.52,2.63-1.55.67-1.03,1.01-2.97,1.01-5.8v-13.23c0-2.48-.39-4.37-1.16-5.69-.77-1.32-2.24-1.97-4.41-1.97-1.29,0-2.58.32-3.87.97-1.29.65-2.43,1.47-3.41,2.48-.98,1.01-1.7,2.08-2.17,3.21v14.24c0,2.06.45,3.81,1.35,5.22.9,1.42,2.1,2.13,3.6,2.13h.15c.77,0,1.16.39,1.16,1.16v2.32c0,.77-.39,1.16-1.16,1.16h-21.75c-.77,0-1.16-.39-1.16-1.16v-2.32c0-.77.39-1.16,1.16-1.16h.16c1.91,0,3.33-.71,4.26-2.13.93-1.42,1.39-3.16,1.39-5.22v-9.75c0-1.39-.09-2.73-.27-4.02-.18-1.29-.59-2.39-1.24-3.29-.65-.9-1.69-1.43-3.13-1.59-.57-.05-.85-.39-.85-1.01v-2.63c0-.52.36-.85,1.08-1.01,3.71-.57,6.9-1.44,9.56-2.63,2.66-1.19,4.5-2.14,5.53-2.86.26-.21.46-.31.62-.31h.08c.1,0,.16.05.16.15s-.03.31-.08.62l-1.32,9.52c.72-1.19,1.68-2.46,2.86-3.83,1.19-1.37,2.66-2.55,4.41-3.56,1.75-1.01,3.79-1.51,6.11-1.51,2.79,0,5.06.41,6.81,1.24,1.75.83,3.08,1.93,3.99,3.33.9,1.39,1.52,2.94,1.86,4.64.33,1.7.5,3.46.5,5.26Z"/>
  <path class="cls-1" d="M615.37,125.06c.88,2.17,2.28,4.1,4.22,5.8,1.93,1.7,4.4,2.55,7.39,2.55,1.65,0,3.38-.46,5.18-1.39,1.81-.93,3.38-2.37,4.72-4.33.15-.26.36-.39.62-.39s.53.08.81.23c.28.15,1.04.59,2.28,1.32.21.15.31.36.31.62,0,.36-.16.8-.46,1.32-1.44,2.68-3.41,4.88-5.88,6.58-2.48,1.7-5.7,2.55-9.67,2.55-4.28,0-7.97-.96-11.07-2.86-3.09-1.91-5.48-4.44-7.16-7.58-1.68-3.15-2.51-6.58-2.51-10.29s.53-6.62,1.59-9.17c1.06-2.55,2.46-4.62,4.22-6.19,1.75-1.57,3.73-2.73,5.92-3.48,2.19-.75,4.42-1.12,6.69-1.12,2.58,0,4.85.5,6.81,1.51,1.96,1.01,3.62,2.28,4.99,3.83,1.37,1.55,2.4,3.19,3.09,4.91.7,1.73,1.04,3.34,1.04,4.84,0,.41-.23.72-.7.93l-22.44,9.83ZM626.9,113.99c0-2.48-.59-4.51-1.78-6.11-1.19-1.6-2.68-2.4-4.49-2.4-2.12,0-3.79.84-5.03,2.51-1.24,1.68-1.86,3.78-1.86,6.31,0,.77.04,1.73.12,2.86.08,1.14.27,2.17.58,3.1l12.46-6.27Z"/>
  <path class="cls-1" d="M703.74,112.21c-.31.15-.57.23-.77.23-.36,0-.7-.18-1.01-.54-2.32-2.94-4.75-5-7.27-6.19-2.53-1.19-4.72-1.78-6.58-1.78-1.34,0-2.58.28-3.71.85-1.14.57-1.7,1.6-1.7,3.1,0,1.14.42,2.08,1.28,2.82.85.75,1.95,1.35,3.29,1.82,1.34.46,2.71.88,4.1,1.24,2.01.46,4.04,1.01,6.07,1.62s3.91,1.43,5.61,2.44c1.7,1.01,3.08,2.26,4.14,3.75,1.06,1.5,1.59,3.38,1.59,5.65,0,2.43-.66,4.59-1.97,6.5-1.32,1.91-3.19,3.42-5.61,4.53-2.43,1.11-5.31,1.66-8.67,1.66-1.6,0-3.16-.19-4.68-.58-1.52-.39-2.95-.89-4.29-1.51-.31-.15-.54-.23-.7-.23-.36,0-.54.18-.54.54,0,.1.05.31.16.62.1.31.15.52.15.62,0,.41-.31.62-.93.62h-2.79c-.57,0-1.01-.26-1.32-.77l-6.65-12.46c-.16-.31-.23-.54-.23-.7,0-.36.21-.67.62-.93l2.4-1.39c.31-.15.54-.23.7-.23.31,0,.59.23.85.7,2.53,3.77,5.3,6.45,8.32,8.05,3.02,1.6,6.1,2.4,9.25,2.4,4.95,0,7.43-1.47,7.43-4.41,0-1.34-.61-2.45-1.82-3.33-1.21-.88-2.71-1.6-4.49-2.17-1.78-.57-3.57-1.06-5.38-1.47-3.3-.82-5.93-1.77-7.89-2.82-1.96-1.06-3.43-2.19-4.41-3.41-.98-1.21-1.64-2.42-1.97-3.64-.34-1.21-.5-2.39-.5-3.52,0-3.1,1.19-5.65,3.56-7.66,2.37-2.01,5.6-3.02,9.67-3.02,2.42,0,4.57.32,6.42.97,1.86.65,3.15,1.17,3.87,1.59.21.1.36.15.46.15.15,0,.23-.1.23-.31,0-.15-.08-.46-.23-.93-.05-.26-.09-.45-.12-.58-.03-.13-.04-.24-.04-.35,0-.51.33-.77,1.01-.77h2.01c.67,0,1.11.28,1.32.85l3.87,9.83c.16.31.23.57.23.77,0,.36-.21.65-.62.85l-1.7.93Z"/>
  <path class="cls-1" d="M738.95,134.27c.77,0,1.16.39,1.16,1.16v2.32c0,.77-.44,1.16-1.32,1.16h-21.9c-.88,0-1.32-.39-1.32-1.16v-2.32c0-.77.39-1.16,1.16-1.16h.16c1.91,0,3.31-.71,4.22-2.13.9-1.42,1.35-3.16,1.35-5.22v-8.2c0-1.19-.09-2.37-.27-3.56-.18-1.19-.58-2.22-1.2-3.1-.62-.88-1.65-1.39-3.09-1.55-.62-.05-.93-.39-.93-1.01v-2.63c0-.31.1-.53.31-.66s.49-.24.85-.35c4.08-1.34,7.21-2.72,9.4-4.14,2.19-1.42,3.8-2.67,4.84-3.75.1-.1.21-.15.31-.15h.23c.1,0,.15.05.15.15v28.86c0,2.06.46,3.82,1.39,5.26.93,1.45,2.35,2.17,4.26,2.17h.23ZM727.89,81.64c1.34,0,2.66.65,3.95,1.93,1.29,1.29,1.93,2.58,1.93,3.87s-.65,2.58-1.93,3.87c-1.29,1.29-2.61,1.93-3.95,1.93-1.24,0-2.53-.64-3.87-1.93-1.29-1.24-1.93-2.53-1.93-3.87s.64-2.58,1.93-3.87c1.29-1.29,2.58-1.93,3.87-1.93Z"/>
  <path class="cls-1" d="M23.37,211.27c.77,0,1.16.39,1.16,1.16v2.32c0,.77-.44,1.16-1.32,1.16H1.32c-.88,0-1.32-.39-1.32-1.16v-2.32c0-.77.39-1.16,1.16-1.16h.15c1.91,0,3.31-.71,4.22-2.13.9-1.42,1.35-3.16,1.35-5.22v-8.2c0-1.19-.09-2.37-.27-3.56-.18-1.19-.58-2.22-1.2-3.1-.62-.88-1.65-1.39-3.1-1.55-.62-.05-.93-.39-.93-1.01v-2.63c0-.31.1-.53.31-.66.21-.13.49-.24.85-.35,4.08-1.34,7.21-2.72,9.4-4.14,2.19-1.42,3.8-2.67,4.84-3.75.1-.1.21-.15.31-.15h.23c.1,0,.16.05.16.15v28.86c0,2.06.46,3.82,1.39,5.26.93,1.45,2.35,2.17,4.26,2.17h.23ZM12.3,158.64c1.34,0,2.66.65,3.95,1.93,1.29,1.29,1.93,2.58,1.93,3.87s-.65,2.58-1.93,3.87c-1.29,1.29-2.61,1.93-3.95,1.93-1.24,0-2.53-.64-3.87-1.93-1.29-1.24-1.93-2.53-1.93-3.87s.64-2.58,1.93-3.87c1.29-1.29,2.58-1.93,3.87-1.93Z"/>
  <path class="cls-1" d="M75.29,190.68v13.23c0,2.84.45,4.77,1.35,5.8.9,1.03,2.1,1.55,3.6,1.55h.62c.77,0,1.16.39,1.16,1.16v2.32c0,.77-.39,1.16-1.16,1.16h-20.58c-.77,0-1.16-.39-1.16-1.16v-2.32c0-.77.39-1.16,1.16-1.16h.54c1.08,0,1.96-.52,2.63-1.55.67-1.03,1.01-2.97,1.01-5.8v-13.23c0-2.48-.39-4.37-1.16-5.69-.77-1.32-2.24-1.97-4.41-1.97-1.29,0-2.58.32-3.87.97-1.29.65-2.43,1.47-3.41,2.48-.98,1.01-1.7,2.08-2.17,3.21v14.24c0,2.06.45,3.81,1.35,5.22.9,1.42,2.1,2.13,3.6,2.13h.15c.77,0,1.16.39,1.16,1.16v2.32c0,.77-.39,1.16-1.16,1.16h-21.75c-.77,0-1.16-.39-1.16-1.16v-2.32c0-.77.39-1.16,1.16-1.16h.16c1.91,0,3.33-.71,4.26-2.13.93-1.42,1.39-3.16,1.39-5.22v-9.75c0-1.39-.09-2.73-.27-4.02-.18-1.29-.59-2.39-1.24-3.29-.65-.9-1.69-1.43-3.13-1.59-.57-.05-.85-.39-.85-1.01v-2.63c0-.52.36-.85,1.08-1.01,3.71-.57,6.9-1.44,9.56-2.63,2.66-1.19,4.5-2.14,5.53-2.86.26-.21.46-.31.62-.31h.08c.1,0,.16.05.16.15s-.03.31-.08.62l-1.32,9.52c.72-1.19,1.68-2.46,2.86-3.83,1.19-1.37,2.66-2.55,4.41-3.56,1.75-1.01,3.79-1.51,6.11-1.51,2.79,0,5.06.41,6.81,1.24,1.75.83,3.08,1.93,3.99,3.33.9,1.39,1.52,2.94,1.86,4.64.33,1.7.5,3.46.5,5.26Z"/>
  <path class="cls-1" d="M113.91,210.34c.15.21.23.44.23.7,0,.31-.21.59-.62.85l-2.32,1.47c-1.39.88-3.07,1.69-5.03,2.44-1.96.75-3.92,1.12-5.88,1.12-1.55,0-3.01-.36-4.37-1.08-1.37-.72-2.46-1.95-3.29-3.68-.83-1.73-1.24-4.11-1.24-7.16v-14.32c0-1.39-.08-2.77-.23-4.14-.15-1.37-.63-2.49-1.43-3.37-.8-.88-2.13-1.32-3.99-1.32-.77,0-1.16-.39-1.16-1.16v-2.32c0-.77.39-1.16,1.16-1.16h5.65v-5.18c0-.67.23-1.13.7-1.39,1.13-.62,2.63-1.48,4.49-2.59,1.86-1.11,3.51-2.39,4.95-3.83.1-.1.23-.15.39-.15h.16c.1,0,.15.08.15.23v12.92h10.37c.77,0,1.16.39,1.16,1.16v3.33c0,.77-.39,1.16-1.16,1.16h-10.37v22.13c0,2.01.31,3.39.93,4.14.62.75,1.39,1.12,2.32,1.12.88,0,1.81-.24,2.79-.74.98-.49,1.88-.99,2.71-1.51.36-.21.64-.31.85-.31.31,0,.59.21.85.62l1.24,2.01Z"/>
  <path class="cls-1" d="M137.51,185.34c1.39-2.99,3.33-5.26,5.8-6.81,2.48-1.55,5.08-2.32,7.82-2.32,2.42,0,4.49.67,6.19,2.01,1.7,1.34,2.55,3.33,2.55,5.96,0,1.14-.1,2.14-.31,3.02-.21.88-.77,1.52-1.7,1.93l-7.27,2.94c-.31.1-.54.15-.7.15-.46,0-.7-.23-.7-.7,0-.15.05-.39.16-.7.31-.72.5-1.42.58-2.09.08-.67.12-1.26.12-1.78,0-1.39-.35-2.41-1.04-3.06-.7-.64-1.56-.97-2.59-.97-1.19,0-2.3.36-3.33,1.08-1.03.72-1.93,1.6-2.71,2.63-.77,1.03-1.34,2.04-1.7,3.02v14.24c0,2.06.46,3.81,1.39,5.22.93,1.42,2.35,2.13,4.26,2.13h.15c.77,0,1.16.39,1.16,1.16v2.32c0,.77-.39,1.16-1.16,1.16h-22.52c-.77,0-1.16-.39-1.16-1.16v-2.32c0-.77.39-1.16,1.16-1.16h.15c1.91,0,3.33-.71,4.26-2.13.93-1.42,1.39-3.16,1.39-5.22v-9.75c0-1.39-.09-2.73-.27-4.02-.18-1.29-.58-2.39-1.2-3.29-.62-.9-1.65-1.43-3.1-1.59-.62-.05-.93-.39-.93-1.01v-2.63c0-.52.39-.85,1.16-1.01,3.66-.57,6.87-1.47,9.63-2.71,2.76-1.24,4.63-2.22,5.61-2.94.16-.1.28-.15.39-.15h.16c.1,0,.15.05.15.15,0,.05-.07.44-.19,1.16-.13.72-.28,1.64-.46,2.75-.18,1.11-.39,2.24-.62,3.41s-.43,2.18-.58,3.06Z"/>
  <path class="cls-1" d="M176.9,202.06c.88,2.17,2.28,4.1,4.22,5.8,1.93,1.7,4.4,2.55,7.39,2.55,1.65,0,3.38-.46,5.19-1.39,1.8-.93,3.38-2.37,4.72-4.33.16-.26.36-.39.62-.39s.53.08.81.23,1.04.59,2.28,1.32c.21.15.31.36.31.62,0,.36-.15.8-.46,1.32-1.45,2.68-3.41,4.88-5.88,6.58-2.48,1.7-5.7,2.55-9.67,2.55-4.28,0-7.97-.96-11.07-2.86-3.1-1.91-5.48-4.44-7.16-7.58-1.68-3.15-2.51-6.58-2.51-10.29s.53-6.62,1.59-9.17c1.06-2.55,2.46-4.62,4.22-6.19,1.75-1.57,3.73-2.73,5.92-3.48,2.19-.75,4.42-1.12,6.69-1.12,2.58,0,4.85.5,6.81,1.51,1.96,1.01,3.62,2.28,4.99,3.83,1.37,1.55,2.4,3.19,3.1,4.91.7,1.73,1.04,3.34,1.04,4.84,0,.41-.23.72-.7.93l-22.44,9.83ZM188.43,190.99c0-2.48-.59-4.51-1.78-6.11-1.19-1.6-2.68-2.4-4.49-2.4-2.12,0-3.79.84-5.03,2.51-1.24,1.68-1.86,3.78-1.86,6.31,0,.77.04,1.73.12,2.86.08,1.14.27,2.17.58,3.1l12.46-6.27Z"/>
  <path class="cls-1" d="M242.06,205.46c.41.31.62.65.62,1.01,0,.1-.05.31-.15.62-1.5,3.3-3.7,5.77-6.62,7.39-2.92,1.62-6.1,2.44-9.56,2.44-2.89,0-5.52-.63-7.89-1.9-2.37-1.26-4.39-2.95-6.04-5.07-1.65-2.11-2.86-4.49-3.64-7.12-.77-2.63-1.06-5.34-.85-8.13.36-4.28,1.55-7.79,3.56-10.52,2.01-2.73,4.45-4.75,7.31-6.04,2.86-1.29,5.74-1.93,8.63-1.93,3.41,0,6.16.52,8.28,1.55,2.12,1.03,3.74,2.37,4.88,4.02,1.13,1.65,1.91,3.38,2.32,5.18.05.21.08.39.08.54,0,.41-.31.7-.93.85l-8.9,2.32c-.31.1-.54.15-.7.15-.36,0-.54-.18-.54-.54,0-.21.01-.41.04-.62.03-.21.04-.49.04-.85,0-1.65-.52-3.12-1.55-4.41-1.03-1.29-2.63-1.93-4.8-1.93-1.96,0-3.51.62-4.64,1.86-1.14,1.24-1.95,2.82-2.44,4.76-.49,1.93-.74,3.96-.74,6.07,0,2.53.33,4.93,1.01,7.2.67,2.27,1.77,4.11,3.29,5.53,1.52,1.42,3.6,2.13,6.23,2.13,2.06,0,3.97-.5,5.73-1.51,1.75-1.01,3.2-2.39,4.33-4.14.21-.36.51-.54.93-.54.26,0,.49.08.7.23l2.01,1.39Z"/>
  <path class="cls-1" d="M284.39,205.46c.41.31.62.65.62,1.01,0,.1-.05.31-.16.62-1.5,3.3-3.7,5.77-6.62,7.39-2.92,1.62-6.1,2.44-9.56,2.44-2.89,0-5.52-.63-7.89-1.9-2.37-1.26-4.38-2.95-6.04-5.07-1.65-2.11-2.86-4.49-3.64-7.12-.77-2.63-1.06-5.34-.85-8.13.36-4.28,1.55-7.79,3.56-10.52,2.01-2.73,4.45-4.75,7.31-6.04,2.86-1.29,5.74-1.93,8.63-1.93,3.4,0,6.16.52,8.28,1.55,2.11,1.03,3.74,2.37,4.88,4.02,1.13,1.65,1.91,3.38,2.32,5.18.05.21.08.39.08.54,0,.41-.31.7-.93.85l-8.9,2.32c-.31.1-.54.15-.7.15-.36,0-.54-.18-.54-.54,0-.21.01-.41.04-.62.03-.21.04-.49.04-.85,0-1.65-.52-3.12-1.55-4.41-1.03-1.29-2.63-1.93-4.8-1.93-1.96,0-3.51.62-4.64,1.86-1.13,1.24-1.95,2.82-2.44,4.76-.49,1.93-.74,3.96-.74,6.07,0,2.53.33,4.93,1.01,7.2.67,2.27,1.77,4.11,3.29,5.53,1.52,1.42,3.6,2.13,6.23,2.13,2.06,0,3.97-.5,5.73-1.51,1.75-1.01,3.2-2.39,4.33-4.14.21-.36.52-.54.93-.54.26,0,.49.08.7.23l2.01,1.39Z"/>
  <path class="cls-1" d="M315.66,211.27c.77,0,1.16.39,1.16,1.16v2.32c0,.77-.44,1.16-1.32,1.16h-21.9c-.88,0-1.32-.39-1.32-1.16v-2.32c0-.77.39-1.16,1.16-1.16h.15c1.91,0,3.31-.71,4.22-2.13.9-1.42,1.35-3.16,1.35-5.22v-8.2c0-1.19-.09-2.37-.27-3.56-.18-1.19-.58-2.22-1.2-3.1-.62-.88-1.65-1.39-3.1-1.55-.62-.05-.93-.39-.93-1.01v-2.63c0-.31.1-.53.31-.66.21-.13.49-.24.85-.35,4.08-1.34,7.21-2.72,9.4-4.14,2.19-1.42,3.8-2.67,4.84-3.75.1-.1.21-.15.31-.15h.23c.1,0,.16.05.16.15v28.86c0,2.06.46,3.82,1.39,5.26.93,1.45,2.35,2.17,4.26,2.17h.23ZM304.59,158.64c1.34,0,2.66.65,3.95,1.93,1.29,1.29,1.93,2.58,1.93,3.87s-.65,2.58-1.93,3.87c-1.29,1.29-2.61,1.93-3.95,1.93-1.24,0-2.53-.64-3.87-1.93-1.29-1.24-1.93-2.53-1.93-3.87s.64-2.58,1.93-3.87c1.29-1.29,2.58-1.93,3.87-1.93Z"/>
  <path class="cls-1" d="M361.31,201.59c0,1.86.28,3.52.85,4.99.57,1.47,1.8,2.33,3.71,2.59.62.05.93.39.93,1.01v2.55c0,.72-.39,1.08-1.16,1.08-2.53,0-4.63.14-6.31.43-1.68.28-3.12.65-4.33,1.08-1.21.44-2.41.92-3.6,1.43-.21.1-.39.15-.54.15h-.23c-.1,0-.15-.1-.15-.31s.05-.71.15-1.51c.1-.8.22-1.7.35-2.71.13-1.01.24-1.87.35-2.59-.26.67-.81,1.57-1.66,2.71-.85,1.14-2.09,2.15-3.71,3.06-1.62.9-3.75,1.35-6.38,1.35-1.75,0-3.62-.36-5.61-1.08s-3.86-1.88-5.61-3.48c-1.75-1.6-3.19-3.7-4.29-6.31-1.11-2.6-1.66-5.79-1.66-9.56,0-4.8.86-8.68,2.59-11.65,1.73-2.97,3.97-5.15,6.73-6.54,2.76-1.39,5.69-2.09,8.78-2.09,2.53,0,4.85.39,6.96,1.16,2.12.77,3.97,1.88,5.57,3.33,1.34-.57,2.49-1.1,3.44-1.59.95-.49,1.77-.99,2.44-1.51.26-.21.53-.41.81-.62.28-.21.61-.41.97-.62.15-.1.28-.15.39-.15h.08c.1,0,.16.05.16.15v25.23ZM350.48,189.44c-.16-1.03-.53-2.18-1.12-3.44-.59-1.26-1.48-2.35-2.67-3.25-1.19-.9-2.79-1.35-4.8-1.35-2.48,0-4.41.61-5.8,1.82-1.39,1.21-2.36,2.77-2.9,4.68-.54,1.91-.81,3.95-.81,6.11,0,4.95.99,8.87,2.98,11.76,1.99,2.89,4.55,4.33,7.7,4.33,1.86,0,3.31-.4,4.37-1.2,1.06-.8,1.82-1.61,2.28-2.44.46-.82.72-1.32.77-1.47v-15.55Z"/>
  <path class="cls-1" d="M417.57,190.68v13.23c0,2.84.45,4.77,1.35,5.8.9,1.03,2.1,1.55,3.6,1.55h.62c.77,0,1.16.39,1.16,1.16v2.32c0,.77-.39,1.16-1.16,1.16h-20.58c-.77,0-1.16-.39-1.16-1.16v-2.32c0-.77.39-1.16,1.16-1.16h.54c1.08,0,1.96-.52,2.63-1.55.67-1.03,1.01-2.97,1.01-5.8v-13.23c0-2.48-.39-4.37-1.16-5.69-.77-1.32-2.24-1.97-4.41-1.97-1.29,0-2.58.32-3.87.97-1.29.65-2.42,1.47-3.4,2.48-.98,1.01-1.7,2.08-2.17,3.21v14.24c0,2.06.45,3.81,1.35,5.22.9,1.42,2.1,2.13,3.6,2.13h.16c.77,0,1.16.39,1.16,1.16v2.32c0,.77-.39,1.16-1.16,1.16h-21.75c-.77,0-1.16-.39-1.16-1.16v-2.32c0-.77.39-1.16,1.16-1.16h.15c1.91,0,3.33-.71,4.26-2.13.93-1.42,1.39-3.16,1.39-5.22v-9.75c0-1.39-.09-2.73-.27-4.02-.18-1.29-.59-2.39-1.24-3.29-.65-.9-1.69-1.43-3.13-1.59-.57-.05-.85-.39-.85-1.01v-2.63c0-.52.36-.85,1.08-1.01,3.71-.57,6.9-1.44,9.56-2.63,2.66-1.19,4.5-2.14,5.53-2.86.26-.21.46-.31.62-.31h.08c.1,0,.15.05.15.15s-.03.31-.08.62l-1.32,9.52c.72-1.19,1.68-2.46,2.86-3.83,1.19-1.37,2.66-2.55,4.41-3.56,1.75-1.01,3.79-1.51,6.11-1.51,2.79,0,5.06.41,6.81,1.24,1.75.83,3.08,1.93,3.99,3.33.9,1.39,1.52,2.94,1.86,4.64.33,1.7.5,3.46.5,5.26Z"/>
  <path class="cls-1" d="M448.06,176.21c2.94,0,5.66.58,8.16,1.74,2.5,1.16,4.66,2.74,6.46,4.72,1.8,1.99,3.21,4.21,4.22,6.66,1.01,2.45,1.51,4.99,1.51,7.62,0,3.82-.9,7.24-2.71,10.25-1.81,3.02-4.18,5.39-7.12,7.12-2.94,1.73-6.14,2.59-9.6,2.59-2.94,0-5.65-.57-8.13-1.7-2.48-1.13-4.63-2.67-6.46-4.6-1.83-1.93-3.25-4.15-4.26-6.66-1.01-2.5-1.51-5.12-1.51-7.85,0-3.77.88-7.15,2.63-10.14,1.75-2.99,4.1-5.36,7.04-7.12,2.94-1.75,6.19-2.63,9.75-2.63ZM451.39,210.65c.98,0,2.06-.26,3.25-.77,1.19-.52,2.23-1.42,3.13-2.71.9-1.29,1.35-3.07,1.35-5.34,0-1.81-.35-3.8-1.04-6-.7-2.19-1.65-4.31-2.86-6.35-1.21-2.04-2.63-3.71-4.26-5.03-1.62-1.32-3.39-1.97-5.3-1.97-2.12,0-3.95.79-5.49,2.36-1.55,1.57-2.32,3.73-2.32,6.46,0,1.75.35,3.74,1.04,5.96.7,2.22,1.65,4.35,2.86,6.38,1.21,2.04,2.64,3.71,4.29,5.03,1.65,1.32,3.43,1.97,5.34,1.97Z"/>
  <path class="cls-1" d="M515.39,183.25c.31-.72.88-1.64,1.7-2.75.83-1.11,2.06-2.1,3.71-2.98,1.65-.88,3.79-1.32,6.42-1.32,1.75,0,3.61.36,5.57,1.08,1.96.72,3.82,1.88,5.57,3.48,1.75,1.6,3.19,3.69,4.29,6.27,1.11,2.58,1.66,5.75,1.66,9.52,0,4.75-.85,8.63-2.55,11.65s-3.92,5.22-6.66,6.62c-2.74,1.39-5.68,2.09-8.82,2.09-3.92,0-7.27-1.24-10.06-3.71v6.19c0,2.06.46,3.8,1.39,5.22.93,1.42,2.35,2.13,4.26,2.13.77,0,1.16.39,1.16,1.16v2.32c0,.77-.39,1.16-1.16,1.16h-22.13c-.77,0-1.16-.39-1.16-1.16v-2.32c0-.77.41-1.16,1.24-1.16,1.91,0,3.31-.71,4.22-2.13.9-1.42,1.35-3.16,1.35-5.22v-26.62c0-1.39-.08-2.73-.23-4.02-.16-1.29-.55-2.39-1.2-3.29-.65-.9-1.69-1.43-3.13-1.59-.36-.05-.59-.17-.7-.35-.1-.18-.15-.4-.15-.66v-2.63c0-.67.36-1.01,1.08-1.01,2.58,0,4.69-.12,6.35-.35,1.65-.23,3.08-.58,4.29-1.04,1.21-.46,2.41-.98,3.6-1.55.15-.1.3-.15.43-.15h.35c.1,0,.16.08.16.23,0,.05-.01.18-.04.39-.03.21-.09.79-.19,1.74-.1.96-.31,2.54-.62,4.76ZM516.24,202.13c.21,1.6.66,3.15,1.35,4.64.7,1.5,1.66,2.71,2.9,3.64s2.71,1.39,4.41,1.39c2.48,0,4.41-.62,5.8-1.86,1.39-1.24,2.36-2.84,2.9-4.8.54-1.96.81-4,.81-6.11,0-4.95-.99-8.87-2.98-11.76-1.99-2.89-4.58-4.33-7.78-4.33-2.06,0-3.73.58-4.99,1.74-1.26,1.16-2.08,2.28-2.44,3.37v14.08Z"/>
  <path class="cls-1" d="M564.06,202.06c.88,2.17,2.28,4.1,4.22,5.8,1.93,1.7,4.4,2.55,7.39,2.55,1.65,0,3.38-.46,5.19-1.39,1.8-.93,3.38-2.37,4.72-4.33.16-.26.36-.39.62-.39s.53.08.81.23,1.04.59,2.28,1.32c.21.15.31.36.31.62,0,.36-.15.8-.46,1.32-1.45,2.68-3.41,4.88-5.88,6.58-2.48,1.7-5.7,2.55-9.67,2.55-4.28,0-7.97-.96-11.07-2.86-3.1-1.91-5.48-4.44-7.16-7.58-1.68-3.15-2.51-6.58-2.51-10.29s.53-6.62,1.59-9.17c1.06-2.55,2.46-4.62,4.22-6.19,1.75-1.57,3.73-2.73,5.92-3.48,2.19-.75,4.42-1.12,6.69-1.12,2.58,0,4.85.5,6.81,1.51,1.96,1.01,3.62,2.28,4.99,3.83,1.37,1.55,2.4,3.19,3.1,4.91.7,1.73,1.04,3.34,1.04,4.84,0,.41-.23.72-.7.93l-22.44,9.83ZM575.59,190.99c0-2.48-.59-4.51-1.78-6.11-1.19-1.6-2.68-2.4-4.49-2.4-2.12,0-3.79.84-5.03,2.51-1.24,1.68-1.86,3.78-1.86,6.31,0,.77.04,1.73.12,2.86.08,1.14.27,2.17.58,3.1l12.46-6.27Z"/>
  <path class="cls-1" d="M612.12,185.34c1.39-2.99,3.33-5.26,5.8-6.81,2.48-1.55,5.08-2.32,7.82-2.32,2.42,0,4.49.67,6.19,2.01,1.7,1.34,2.55,3.33,2.55,5.96,0,1.14-.1,2.14-.31,3.02-.21.88-.77,1.52-1.7,1.93l-7.27,2.94c-.31.1-.54.15-.7.15-.46,0-.7-.23-.7-.7,0-.15.05-.39.16-.7.31-.72.5-1.42.58-2.09.08-.67.12-1.26.12-1.78,0-1.39-.35-2.41-1.04-3.06-.7-.64-1.56-.97-2.59-.97-1.19,0-2.3.36-3.33,1.08-1.03.72-1.93,1.6-2.71,2.63-.77,1.03-1.34,2.04-1.7,3.02v14.24c0,2.06.46,3.81,1.39,5.22.93,1.42,2.35,2.13,4.26,2.13h.15c.77,0,1.16.39,1.16,1.16v2.32c0,.77-.39,1.16-1.16,1.16h-22.52c-.77,0-1.16-.39-1.16-1.16v-2.32c0-.77.39-1.16,1.16-1.16h.15c1.91,0,3.33-.71,4.26-2.13.93-1.42,1.39-3.16,1.39-5.22v-9.75c0-1.39-.09-2.73-.27-4.02-.18-1.29-.58-2.39-1.2-3.29-.62-.9-1.65-1.43-3.1-1.59-.62-.05-.93-.39-.93-1.01v-2.63c0-.52.39-.85,1.16-1.01,3.66-.57,6.87-1.47,9.63-2.71,2.76-1.24,4.63-2.22,5.61-2.94.16-.1.28-.15.39-.15h.16c.1,0,.15.05.15.15,0,.05-.07.44-.19,1.16-.13.72-.28,1.64-.46,2.75-.18,1.11-.39,2.24-.62,3.41s-.43,2.18-.58,3.06Z"/>
  <path class="cls-1" d="M703.59,201.59c0,1.86.28,3.52.85,4.99.57,1.47,1.8,2.33,3.71,2.59.62.05.93.39.93,1.01v2.55c0,.72-.39,1.08-1.16,1.08-2.53,0-4.63.14-6.31.43-1.68.28-3.12.65-4.33,1.08-1.21.44-2.41.92-3.6,1.43-.21.1-.39.15-.54.15h-.15c-.16,0-.23-.08-.23-.23.1-1.19.22-2.35.35-3.48.13-1.13.3-2.27.5-3.41-.26.67-.81,1.57-1.66,2.71-.85,1.14-2.09,2.15-3.71,3.06-1.62.9-3.75,1.35-6.38,1.35-1.75,0-3.62-.36-5.61-1.08s-3.86-1.88-5.61-3.48c-1.75-1.6-3.19-3.7-4.29-6.31-1.11-2.6-1.66-5.79-1.66-9.56,0-4.8.86-8.68,2.59-11.65,1.73-2.97,3.97-5.15,6.73-6.54,2.76-1.39,5.69-2.09,8.78-2.09,3.92,0,7.25,1.21,9.98,3.64v-4.95c0-1.39-.09-2.73-.27-4.02-.18-1.29-.58-2.39-1.2-3.29-.62-.9-1.65-1.43-3.09-1.59-.62-.05-.93-.39-.93-1.01v-2.63c0-.31.1-.53.31-.66s.49-.24.85-.35c4.08-1.34,7.26-2.68,9.56-4.02,2.29-1.34,3.96-2.4,4.99-3.17.15-.1.28-.15.39-.15h.08c.1,0,.16.05.16.15v47.44ZM692.76,190.84c0-2.42-.79-4.49-2.36-6.19-1.57-1.7-3.65-2.55-6.23-2.55s-4.41.54-5.8,1.62c-1.39,1.08-2.36,2.53-2.9,4.33-.54,1.81-.81,3.79-.81,5.96,0,4.95.99,8.87,2.98,11.76,1.99,2.89,4.55,4.33,7.7,4.33,1.39,0,2.6-.35,3.64-1.04,1.03-.7,1.87-1.56,2.51-2.59.64-1.03,1.07-2.01,1.28-2.94v-12.69Z"/>
  <path class="cls-1" d="M753.58,201.59c0,1.86.28,3.52.85,4.99.57,1.47,1.8,2.33,3.71,2.59.62.05.93.39.93,1.01v2.55c0,.72-.39,1.08-1.16,1.08-2.53,0-4.63.14-6.31.43-1.68.28-3.12.65-4.33,1.08-1.21.44-2.41.92-3.6,1.43-.21.1-.39.15-.54.15h-.23c-.1,0-.15-.1-.15-.31s.05-.71.15-1.51c.1-.8.22-1.7.35-2.71.13-1.01.24-1.87.35-2.59-.26.67-.81,1.57-1.66,2.71-.85,1.14-2.09,2.15-3.71,3.06-1.62.9-3.75,1.35-6.38,1.35-1.75,0-3.62-.36-5.61-1.08s-3.86-1.88-5.61-3.48c-1.75-1.6-3.19-3.7-4.29-6.31-1.11-2.6-1.66-5.79-1.66-9.56,0-4.8.86-8.68,2.59-11.65,1.73-2.97,3.97-5.15,6.73-6.54,2.76-1.39,5.69-2.09,8.78-2.09,2.53,0,4.85.39,6.96,1.16,2.12.77,3.97,1.88,5.57,3.33,1.34-.57,2.49-1.1,3.44-1.59.95-.49,1.77-.99,2.44-1.51.26-.21.53-.41.81-.62.28-.21.61-.41.97-.62.15-.1.28-.15.39-.15h.08c.1,0,.16.05.16.15v25.23ZM742.75,189.44c-.16-1.03-.53-2.18-1.12-3.44-.59-1.26-1.48-2.35-2.67-3.25-1.19-.9-2.79-1.35-4.8-1.35-2.48,0-4.41.61-5.8,1.82-1.39,1.21-2.36,2.77-2.9,4.68-.54,1.91-.81,3.95-.81,6.11,0,4.95.99,8.87,2.98,11.76,1.99,2.89,4.55,4.33,7.7,4.33,1.86,0,3.31-.4,4.37-1.2,1.06-.8,1.82-1.61,2.28-2.44.46-.82.72-1.32.77-1.47v-15.55Z"/>
  <path class="cls-1" d="M782.91,185.34c1.39-2.99,3.33-5.26,5.8-6.81,2.48-1.55,5.08-2.32,7.82-2.32,2.42,0,4.49.67,6.19,2.01,1.7,1.34,2.55,3.33,2.55,5.96,0,1.14-.1,2.14-.31,3.02-.21.88-.77,1.52-1.7,1.93l-7.27,2.94c-.31.1-.54.15-.7.15-.46,0-.7-.23-.7-.7,0-.15.05-.39.16-.7.31-.72.5-1.42.58-2.09.08-.67.12-1.26.12-1.78,0-1.39-.35-2.41-1.04-3.06-.7-.64-1.56-.97-2.59-.97-1.19,0-2.3.36-3.33,1.08-1.03.72-1.93,1.6-2.71,2.63-.77,1.03-1.34,2.04-1.7,3.02v14.24c0,2.06.46,3.81,1.39,5.22.93,1.42,2.35,2.13,4.26,2.13h.15c.77,0,1.16.39,1.16,1.16v2.32c0,.77-.39,1.16-1.16,1.16h-22.52c-.77,0-1.16-.39-1.16-1.16v-2.32c0-.77.39-1.16,1.16-1.16h.15c1.91,0,3.33-.71,4.26-2.13.93-1.42,1.39-3.16,1.39-5.22v-9.75c0-1.39-.09-2.73-.27-4.02-.18-1.29-.58-2.39-1.2-3.29-.62-.9-1.65-1.43-3.1-1.59-.62-.05-.93-.39-.93-1.01v-2.63c0-.52.39-.85,1.16-1.01,3.66-.57,6.87-1.47,9.63-2.71,2.76-1.24,4.63-2.22,5.61-2.94.16-.1.28-.15.39-.15h.16c.1,0,.15.05.15.15,0,.05-.07.44-.19,1.16-.13.72-.28,1.64-.46,2.75-.18,1.11-.39,2.24-.62,3.41s-.43,2.18-.58,3.06Z"/>
  <path class="cls-1" d="M822.3,202.06c.88,2.17,2.28,4.1,4.22,5.8,1.93,1.7,4.4,2.55,7.39,2.55,1.65,0,3.38-.46,5.19-1.39,1.8-.93,3.38-2.37,4.72-4.33.16-.26.36-.39.62-.39s.53.08.81.23,1.04.59,2.28,1.32c.21.15.31.36.31.62,0,.36-.15.8-.46,1.32-1.45,2.68-3.41,4.88-5.88,6.58-2.48,1.7-5.7,2.55-9.67,2.55-4.28,0-7.97-.96-11.07-2.86-3.1-1.91-5.48-4.44-7.16-7.58-1.68-3.15-2.51-6.58-2.51-10.29s.53-6.62,1.59-9.17c1.06-2.55,2.46-4.62,4.22-6.19,1.75-1.57,3.73-2.73,5.92-3.48,2.19-.75,4.42-1.12,6.69-1.12,2.58,0,4.85.5,6.81,1.51,1.96,1.01,3.62,2.28,4.99,3.83,1.37,1.55,2.4,3.19,3.1,4.91.7,1.73,1.04,3.34,1.04,4.84,0,.41-.23.72-.7.93l-22.44,9.83ZM833.83,190.99c0-2.48-.59-4.51-1.78-6.11-1.19-1.6-2.68-2.4-4.49-2.4-2.12,0-3.79.84-5.03,2.51-1.24,1.68-1.86,3.78-1.86,6.31,0,.77.04,1.73.12,2.86.08,1.14.27,2.17.58,3.1l12.46-6.27Z"/>
  <path class="cls-2" d="M42.21,282.46c.41.31.62.65.62,1.01,0,.1-.05.31-.15.62-1.5,3.3-3.7,5.77-6.62,7.39-2.92,1.62-6.1,2.44-9.56,2.44-2.89,0-5.52-.63-7.89-1.9-2.37-1.26-4.39-2.95-6.04-5.07-1.65-2.11-2.86-4.49-3.64-7.12-.77-2.63-1.06-5.34-.85-8.13.36-4.28,1.55-7.79,3.56-10.52,2.01-2.73,4.45-4.75,7.31-6.04,2.86-1.29,5.74-1.93,8.63-1.93,3.41,0,6.16.52,8.28,1.55,2.12,1.03,3.74,2.37,4.88,4.02,1.13,1.65,1.91,3.38,2.32,5.18.05.21.08.39.08.54,0,.41-.31.7-.93.85l-8.9,2.32c-.31.1-.54.15-.7.15-.36,0-.54-.18-.54-.54,0-.21.01-.41.04-.62.03-.21.04-.49.04-.85,0-1.65-.52-3.12-1.55-4.41-1.03-1.29-2.63-1.93-4.8-1.93-1.96,0-3.51.62-4.64,1.86-1.14,1.24-1.95,2.82-2.44,4.76-.49,1.93-.74,3.96-.74,6.07,0,2.53.33,4.93,1.01,7.2.67,2.27,1.77,4.11,3.29,5.53,1.52,1.42,3.6,2.13,6.23,2.13,2.06,0,3.97-.5,5.73-1.51,1.75-1.01,3.2-2.39,4.33-4.14.21-.36.51-.54.93-.54.26,0,.49.08.7.23l2.01,1.39Z"/>
  <path class="cls-2" d="M69.76,253.21c2.94,0,5.66.58,8.16,1.74,2.5,1.16,4.66,2.74,6.46,4.72,1.81,1.99,3.21,4.21,4.22,6.66,1.01,2.45,1.51,4.99,1.51,7.62,0,3.82-.9,7.24-2.71,10.25-1.81,3.02-4.18,5.39-7.12,7.12s-6.14,2.59-9.6,2.59c-2.94,0-5.65-.57-8.13-1.7-2.48-1.13-4.63-2.67-6.46-4.6-1.83-1.93-3.25-4.15-4.26-6.66-1.01-2.5-1.51-5.12-1.51-7.85,0-3.77.88-7.15,2.63-10.14,1.75-2.99,4.1-5.36,7.04-7.12,2.94-1.75,6.19-2.63,9.75-2.63ZM73.09,287.65c.98,0,2.06-.26,3.25-.77,1.19-.52,2.23-1.42,3.13-2.71.9-1.29,1.35-3.07,1.35-5.34,0-1.81-.35-3.8-1.04-6-.7-2.19-1.65-4.31-2.86-6.35-1.21-2.04-2.63-3.71-4.26-5.03-1.62-1.32-3.39-1.97-5.3-1.97-2.12,0-3.95.79-5.5,2.36-1.55,1.57-2.32,3.73-2.32,6.46,0,1.75.35,3.74,1.04,5.96.7,2.22,1.65,4.35,2.86,6.38,1.21,2.04,2.64,3.71,4.29,5.03,1.65,1.32,3.43,1.97,5.34,1.97Z"/>
  <path class="cls-2" d="M118.9,288.27c.77,0,1.16.39,1.16,1.16v2.32c0,.77-.44,1.16-1.32,1.16h-21.9c-.88,0-1.32-.39-1.32-1.16v-2.32c0-.77.39-1.16,1.16-1.16h.16c1.91,0,3.31-.71,4.22-2.13.9-1.42,1.35-3.16,1.35-5.22v-29.02c0-1.44-.09-2.81-.27-4.1-.18-1.29-.58-2.39-1.2-3.29-.62-.9-1.65-1.43-3.09-1.59-.62-.05-.93-.39-.93-1.01v-2.63c0-.31.1-.51.31-.62.21-.1.49-.23.85-.39,3.66-1.34,6.59-2.59,8.78-3.75,2.19-1.16,4.01-2.28,5.46-3.37.1-.1.21-.15.31-.15h.23c.1,0,.15.05.15.15v49.68c0,2.06.46,3.82,1.39,5.26.93,1.45,2.35,2.17,4.26,2.17h.23Z"/>
  <path class="cls-2" d="M145.06,253.21c2.94,0,5.66.58,8.16,1.74,2.5,1.16,4.66,2.74,6.46,4.72,1.8,1.99,3.21,4.21,4.22,6.66,1.01,2.45,1.51,4.99,1.51,7.62,0,3.82-.9,7.24-2.71,10.25-1.81,3.02-4.18,5.39-7.12,7.12-2.94,1.73-6.14,2.59-9.6,2.59-2.94,0-5.65-.57-8.13-1.7-2.48-1.13-4.63-2.67-6.46-4.6-1.83-1.93-3.25-4.15-4.26-6.66-1.01-2.5-1.51-5.12-1.51-7.85,0-3.77.88-7.15,2.63-10.14,1.75-2.99,4.1-5.36,7.04-7.12,2.94-1.75,6.19-2.63,9.75-2.63ZM148.39,287.65c.98,0,2.06-.26,3.25-.77,1.19-.52,2.23-1.42,3.13-2.71.9-1.29,1.35-3.07,1.35-5.34,0-1.81-.35-3.8-1.04-6-.7-2.19-1.65-4.31-2.86-6.35-1.21-2.04-2.63-3.71-4.26-5.03-1.62-1.32-3.39-1.97-5.3-1.97-2.12,0-3.95.79-5.49,2.36-1.55,1.57-2.32,3.73-2.32,6.46,0,1.75.35,3.74,1.04,5.96.7,2.22,1.65,4.35,2.86,6.38,1.21,2.04,2.64,3.71,4.29,5.03,1.65,1.32,3.43,1.97,5.34,1.97Z"/>
  <path class="cls-2" d="M188.7,262.34c1.39-2.99,3.33-5.26,5.8-6.81,2.48-1.55,5.08-2.32,7.82-2.32,2.42,0,4.49.67,6.19,2.01,1.7,1.34,2.55,3.33,2.55,5.96,0,1.14-.1,2.14-.31,3.02-.21.88-.77,1.52-1.7,1.93l-7.27,2.94c-.31.1-.54.15-.7.15-.46,0-.7-.23-.7-.7,0-.15.05-.39.16-.7.31-.72.5-1.42.58-2.09.08-.67.12-1.26.12-1.78,0-1.39-.35-2.41-1.04-3.06-.7-.64-1.56-.97-2.59-.97-1.19,0-2.3.36-3.33,1.08-1.03.72-1.93,1.6-2.71,2.63-.77,1.03-1.34,2.04-1.7,3.02v14.24c0,2.06.46,3.81,1.39,5.22.93,1.42,2.35,2.13,4.26,2.13h.15c.77,0,1.16.39,1.16,1.16v2.32c0,.77-.39,1.16-1.16,1.16h-22.52c-.77,0-1.16-.39-1.16-1.16v-2.32c0-.77.39-1.16,1.16-1.16h.15c1.91,0,3.33-.71,4.26-2.13.93-1.42,1.39-3.16,1.39-5.22v-9.75c0-1.39-.09-2.73-.27-4.02-.18-1.29-.58-2.39-1.2-3.29-.62-.9-1.65-1.43-3.1-1.59-.62-.05-.93-.39-.93-1.01v-2.63c0-.52.39-.85,1.16-1.01,3.66-.57,6.87-1.47,9.63-2.71,2.76-1.24,4.63-2.22,5.61-2.94.16-.1.28-.15.39-.15h.16c.1,0,.15.05.15.15,0,.05-.07.44-.19,1.16-.13.72-.28,1.64-.46,2.75-.18,1.11-.39,2.24-.62,3.41s-.43,2.18-.58,3.06Z"/>
  <path class="cls-2" d="M228.09,279.06c.88,2.17,2.28,4.1,4.22,5.8,1.93,1.7,4.4,2.55,7.39,2.55,1.65,0,3.38-.46,5.19-1.39,1.8-.93,3.38-2.37,4.72-4.33.16-.26.36-.39.62-.39s.53.08.81.23,1.04.59,2.28,1.32c.21.15.31.36.31.62,0,.36-.15.8-.46,1.32-1.45,2.68-3.41,4.88-5.88,6.58-2.48,1.7-5.7,2.55-9.67,2.55-4.28,0-7.97-.96-11.07-2.86-3.1-1.91-5.48-4.44-7.16-7.58-1.68-3.15-2.51-6.58-2.51-10.29s.53-6.62,1.59-9.17c1.06-2.55,2.46-4.62,4.22-6.19,1.75-1.57,3.73-2.73,5.92-3.48,2.19-.75,4.42-1.12,6.69-1.12,2.58,0,4.85.5,6.81,1.51,1.96,1.01,3.62,2.28,4.99,3.83,1.37,1.55,2.4,3.19,3.1,4.91.7,1.73,1.04,3.34,1.04,4.84,0,.41-.23.72-.7.93l-22.44,9.83ZM239.62,267.99c0-2.48-.59-4.51-1.78-6.11-1.19-1.6-2.68-2.4-4.49-2.4-2.12,0-3.79.84-5.03,2.51-1.24,1.68-1.86,3.78-1.86,6.31,0,.77.04,1.73.12,2.86.08,1.14.27,2.17.58,3.1l12.46-6.27Z"/>
  <path class="cls-2" d="M295.03,279.06c.88,2.17,2.28,4.1,4.22,5.8,1.93,1.7,4.4,2.55,7.39,2.55,1.65,0,3.38-.46,5.18-1.39,1.81-.93,3.38-2.37,4.72-4.33.15-.26.36-.39.62-.39s.53.08.81.23c.28.15,1.04.59,2.28,1.32.21.15.31.36.31.62,0,.36-.16.8-.46,1.32-1.44,2.68-3.41,4.88-5.88,6.58-2.48,1.7-5.7,2.55-9.67,2.55-4.28,0-7.97-.96-11.07-2.86-3.09-1.91-5.48-4.44-7.16-7.58-1.68-3.15-2.51-6.58-2.51-10.29s.53-6.62,1.59-9.17c1.06-2.55,2.46-4.62,4.22-6.19,1.75-1.57,3.73-2.73,5.92-3.48,2.19-.75,4.42-1.12,6.69-1.12,2.58,0,4.85.5,6.81,1.51,1.96,1.01,3.62,2.28,4.99,3.83,1.37,1.55,2.4,3.19,3.09,4.91.7,1.73,1.04,3.34,1.04,4.84,0,.41-.23.72-.7.93l-22.44,9.83ZM306.56,267.99c0-2.48-.59-4.51-1.78-6.11-1.19-1.6-2.68-2.4-4.49-2.4-2.12,0-3.79.84-5.03,2.51-1.24,1.68-1.86,3.78-1.86,6.31,0,.77.04,1.73.12,2.86.08,1.14.27,2.17.58,3.1l12.46-6.27Z"/>
  <path class="cls-2" d="M384.96,282.46c.41.31.62.65.62,1.01,0,.1-.05.31-.16.62-1.5,3.3-3.7,5.77-6.62,7.39-2.92,1.62-6.1,2.44-9.56,2.44-2.89,0-5.52-.63-7.89-1.9-2.37-1.26-4.38-2.95-6.04-5.07-1.65-2.11-2.86-4.49-3.64-7.12-.77-2.63-1.06-5.34-.85-8.13.36-4.28,1.55-7.79,3.56-10.52,2.01-2.73,4.45-4.75,7.31-6.04,2.86-1.29,5.74-1.93,8.63-1.93,3.4,0,6.16.52,8.28,1.55,2.11,1.03,3.74,2.37,4.88,4.02,1.13,1.65,1.91,3.38,2.32,5.18.05.21.08.39.08.54,0,.41-.31.7-.93.85l-8.9,2.32c-.31.1-.54.15-.7.15-.36,0-.54-.18-.54-.54,0-.21.01-.41.04-.62.03-.21.04-.49.04-.85,0-1.65-.52-3.12-1.55-4.41-1.03-1.29-2.63-1.93-4.8-1.93-1.96,0-3.51.62-4.64,1.86-1.13,1.24-1.95,2.82-2.44,4.76-.49,1.93-.74,3.96-.74,6.07,0,2.53.33,4.93,1.01,7.2.67,2.27,1.77,4.11,3.29,5.53,1.52,1.42,3.6,2.13,6.23,2.13,2.06,0,3.97-.5,5.73-1.51,1.75-1.01,3.2-2.39,4.33-4.14.21-.36.52-.54.93-.54.26,0,.49.08.7.23l2.01,1.39Z"/>
  <path class="cls-2" d="M432.01,278.59c0,1.86.28,3.52.85,4.99.57,1.47,1.8,2.33,3.71,2.59.62.05.93.39.93,1.01v2.55c0,.72-.39,1.08-1.16,1.08-2.53,0-4.63.14-6.31.43-1.68.28-3.12.65-4.33,1.08-1.21.44-2.41.92-3.6,1.43-.21.1-.39.15-.54.15h-.23c-.1,0-.15-.1-.15-.31s.05-.71.15-1.51c.1-.8.22-1.7.35-2.71.13-1.01.24-1.87.35-2.59-.26.67-.81,1.57-1.66,2.71-.85,1.14-2.09,2.15-3.71,3.06-1.62.9-3.75,1.35-6.38,1.35-1.75,0-3.62-.36-5.61-1.08s-3.86-1.88-5.61-3.48c-1.75-1.6-3.19-3.7-4.29-6.31-1.11-2.6-1.66-5.79-1.66-9.56,0-4.8.86-8.68,2.59-11.65,1.73-2.97,3.97-5.15,6.73-6.54,2.76-1.39,5.69-2.09,8.78-2.09,2.53,0,4.85.39,6.96,1.16,2.12.77,3.97,1.88,5.57,3.33,1.34-.57,2.49-1.1,3.44-1.59.95-.49,1.77-.99,2.44-1.51.26-.21.53-.41.81-.62.28-.21.61-.41.97-.62.15-.1.28-.15.39-.15h.08c.1,0,.16.05.16.15v25.23ZM421.17,266.44c-.16-1.03-.53-2.18-1.12-3.44-.59-1.26-1.48-2.35-2.67-3.25-1.19-.9-2.79-1.35-4.8-1.35-2.48,0-4.41.61-5.8,1.82-1.39,1.21-2.36,2.77-2.9,4.68-.54,1.91-.81,3.95-.81,6.11,0,4.95.99,8.87,2.98,11.76,1.99,2.89,4.55,4.33,7.7,4.33,1.86,0,3.31-.4,4.37-1.2,1.06-.8,1.82-1.61,2.28-2.44.46-.82.72-1.32.77-1.47v-15.55Z"/>
  <path class="cls-2" d="M461.33,262.34c1.39-2.99,3.33-5.26,5.8-6.81,2.48-1.55,5.08-2.32,7.82-2.32,2.42,0,4.49.67,6.19,2.01,1.7,1.34,2.55,3.33,2.55,5.96,0,1.14-.1,2.14-.31,3.02-.21.88-.77,1.52-1.7,1.93l-7.27,2.94c-.31.1-.54.15-.7.15-.46,0-.7-.23-.7-.7,0-.15.05-.39.15-.7.31-.72.5-1.42.58-2.09.08-.67.12-1.26.12-1.78,0-1.39-.35-2.41-1.04-3.06-.7-.64-1.56-.97-2.59-.97-1.19,0-2.3.36-3.33,1.08-1.03.72-1.93,1.6-2.71,2.63-.77,1.03-1.34,2.04-1.7,3.02v14.24c0,2.06.46,3.81,1.39,5.22.93,1.42,2.35,2.13,4.26,2.13h.16c.77,0,1.16.39,1.16,1.16v2.32c0,.77-.39,1.16-1.16,1.16h-22.52c-.77,0-1.16-.39-1.16-1.16v-2.32c0-.77.39-1.16,1.16-1.16h.16c1.91,0,3.33-.71,4.26-2.13.93-1.42,1.39-3.16,1.39-5.22v-9.75c0-1.39-.09-2.73-.27-4.02-.18-1.29-.58-2.39-1.2-3.29-.62-.9-1.65-1.43-3.1-1.59-.62-.05-.93-.39-.93-1.01v-2.63c0-.52.39-.85,1.16-1.01,3.66-.57,6.87-1.47,9.63-2.71s4.63-2.22,5.61-2.94c.15-.1.28-.15.39-.15h.15c.1,0,.16.05.16.15,0,.05-.07.44-.19,1.16-.13.72-.28,1.64-.46,2.75-.18,1.11-.39,2.24-.62,3.41-.23,1.16-.43,2.18-.58,3.06Z"/>
  <path class="cls-2" d="M528.43,278.59c0,1.86.28,3.52.85,4.99.57,1.47,1.8,2.33,3.71,2.59.62.05.93.39.93,1.01v2.55c0,.72-.39,1.08-1.16,1.08-2.53,0-4.63.14-6.31.43-1.68.28-3.12.65-4.33,1.08-1.21.44-2.41.92-3.6,1.43-.21.1-.39.15-.54.15h-.23c-.1,0-.15-.1-.15-.31s.05-.71.15-1.51c.1-.8.22-1.7.35-2.71.13-1.01.24-1.87.35-2.59-.26.67-.81,1.57-1.66,2.71-.85,1.14-2.09,2.15-3.71,3.06-1.62.9-3.75,1.35-6.38,1.35-1.75,0-3.62-.36-5.61-1.08s-3.86-1.88-5.61-3.48c-1.75-1.6-3.19-3.7-4.29-6.31-1.11-2.6-1.66-5.79-1.66-9.56,0-4.8.86-8.68,2.59-11.65,1.73-2.97,3.97-5.15,6.73-6.54,2.76-1.39,5.69-2.09,8.78-2.09,2.53,0,4.85.39,6.96,1.16,2.12.77,3.97,1.88,5.57,3.33,1.34-.57,2.49-1.1,3.44-1.59.95-.49,1.77-.99,2.44-1.51.26-.21.53-.41.81-.62.28-.21.61-.41.97-.62.15-.1.28-.15.39-.15h.08c.1,0,.16.05.16.15v25.23ZM517.59,266.44c-.16-1.03-.53-2.18-1.12-3.44-.59-1.26-1.48-2.35-2.67-3.25-1.19-.9-2.79-1.35-4.8-1.35-2.48,0-4.41.61-5.8,1.82-1.39,1.21-2.36,2.77-2.9,4.68-.54,1.91-.81,3.95-.81,6.11,0,4.95.99,8.87,2.98,11.76,1.99,2.89,4.55,4.33,7.7,4.33,1.86,0,3.31-.4,4.37-1.2,1.06-.8,1.82-1.61,2.28-2.44.46-.82.72-1.32.77-1.47v-15.55Z"/>
  <path class="cls-2" d="M568.13,287.34c.16.21.23.44.23.7,0,.31-.21.59-.62.85l-2.32,1.47c-1.39.88-3.07,1.69-5.03,2.44-1.96.75-3.92,1.12-5.88,1.12-1.55,0-3.01-.36-4.37-1.08-1.37-.72-2.46-1.95-3.29-3.68-.83-1.73-1.24-4.11-1.24-7.16v-14.32c0-1.39-.08-2.77-.23-4.14-.16-1.37-.63-2.49-1.43-3.37-.8-.88-2.13-1.32-3.99-1.32-.77,0-1.16-.39-1.16-1.16v-2.32c0-.77.39-1.16,1.16-1.16h5.65v-5.18c0-.67.23-1.13.7-1.39,1.13-.62,2.63-1.48,4.49-2.59,1.86-1.11,3.51-2.39,4.95-3.83.1-.1.23-.15.39-.15h.15c.1,0,.16.08.16.23v12.92h10.37c.77,0,1.16.39,1.16,1.16v3.33c0,.77-.39,1.16-1.16,1.16h-10.37v22.13c0,2.01.31,3.39.93,4.14.62.75,1.39,1.12,2.32,1.12.88,0,1.8-.24,2.79-.74s1.88-.99,2.71-1.51c.36-.21.64-.31.85-.31.31,0,.59.21.85.62l1.24,2.01Z"/>
  <path class="cls-2" d="M604.5,287.34c.15.21.23.44.23.7,0,.31-.21.59-.62.85l-2.32,1.47c-1.39.88-3.07,1.69-5.03,2.44-1.96.75-3.92,1.12-5.88,1.12-1.55,0-3.01-.36-4.37-1.08-1.37-.72-2.46-1.95-3.29-3.68-.83-1.73-1.24-4.11-1.24-7.16v-14.32c0-1.39-.08-2.77-.23-4.14-.15-1.37-.63-2.49-1.43-3.37-.8-.88-2.13-1.32-3.99-1.32-.77,0-1.16-.39-1.16-1.16v-2.32c0-.77.39-1.16,1.16-1.16h5.65v-5.18c0-.67.23-1.13.7-1.39,1.13-.62,2.63-1.48,4.49-2.59,1.86-1.11,3.51-2.39,4.95-3.83.1-.1.23-.15.39-.15h.16c.1,0,.15.08.15.23v12.92h10.37c.77,0,1.16.39,1.16,1.16v3.33c0,.77-.39,1.16-1.16,1.16h-10.37v22.13c0,2.01.31,3.39.93,4.14.62.75,1.39,1.12,2.32,1.12.88,0,1.81-.24,2.79-.74.98-.49,1.88-.99,2.71-1.51.36-.21.64-.31.85-.31.31,0,.59.21.85.62l1.24,2.01Z"/>
  <path class="cls-2" d="M622.3,279.06c.88,2.17,2.28,4.1,4.22,5.8,1.93,1.7,4.4,2.55,7.39,2.55,1.65,0,3.38-.46,5.18-1.39,1.81-.93,3.38-2.37,4.72-4.33.15-.26.36-.39.62-.39s.53.08.81.23c.28.15,1.04.59,2.28,1.32.21.15.31.36.31.62,0,.36-.16.8-.46,1.32-1.44,2.68-3.41,4.88-5.88,6.58-2.48,1.7-5.7,2.55-9.67,2.55-4.28,0-7.97-.96-11.07-2.86-3.09-1.91-5.48-4.44-7.16-7.58-1.68-3.15-2.51-6.58-2.51-10.29s.53-6.62,1.59-9.17c1.06-2.55,2.46-4.62,4.22-6.19,1.75-1.57,3.73-2.73,5.92-3.48,2.19-.75,4.42-1.12,6.69-1.12,2.58,0,4.85.5,6.81,1.51,1.96,1.01,3.62,2.28,4.99,3.83,1.37,1.55,2.4,3.19,3.09,4.91.7,1.73,1.04,3.34,1.04,4.84,0,.41-.23.72-.7.93l-22.44,9.83ZM633.83,267.99c0-2.48-.59-4.51-1.78-6.11-1.19-1.6-2.68-2.4-4.49-2.4-2.12,0-3.79.84-5.03,2.51-1.24,1.68-1.86,3.78-1.86,6.31,0,.77.04,1.73.12,2.86.08,1.14.27,2.17.58,3.1l12.46-6.27Z"/>
  <path class="cls-2" d="M670.35,262.34c1.39-2.99,3.33-5.26,5.8-6.81,2.48-1.55,5.08-2.32,7.82-2.32,2.42,0,4.49.67,6.19,2.01,1.7,1.34,2.55,3.33,2.55,5.96,0,1.14-.1,2.14-.31,3.02-.21.88-.77,1.52-1.7,1.93l-7.27,2.94c-.31.1-.54.15-.7.15-.46,0-.7-.23-.7-.7,0-.15.05-.39.16-.7.31-.72.5-1.42.58-2.09.08-.67.12-1.26.12-1.78,0-1.39-.35-2.41-1.04-3.06-.7-.64-1.56-.97-2.59-.97-1.19,0-2.3.36-3.33,1.08-1.03.72-1.93,1.6-2.71,2.63-.77,1.03-1.34,2.04-1.7,3.02v14.24c0,2.06.46,3.81,1.39,5.22.93,1.42,2.35,2.13,4.26,2.13h.15c.77,0,1.16.39,1.16,1.16v2.32c0,.77-.39,1.16-1.16,1.16h-22.52c-.77,0-1.16-.39-1.16-1.16v-2.32c0-.77.39-1.16,1.16-1.16h.15c1.91,0,3.33-.71,4.26-2.13.93-1.42,1.39-3.16,1.39-5.22v-9.75c0-1.39-.09-2.73-.27-4.02-.18-1.29-.58-2.39-1.2-3.29-.62-.9-1.65-1.43-3.1-1.59-.62-.05-.93-.39-.93-1.01v-2.63c0-.52.39-.85,1.16-1.01,3.66-.57,6.87-1.47,9.63-2.71,2.76-1.24,4.63-2.22,5.61-2.94.16-.1.28-.15.39-.15h.16c.1,0,.15.05.15.15,0,.05-.07.44-.19,1.16-.13.72-.28,1.64-.46,2.75-.18,1.11-.39,2.24-.62,3.41s-.43,2.18-.58,3.06Z"/>
  <path class="cls-2" d="M709.74,279.06c.88,2.17,2.28,4.1,4.22,5.8,1.93,1.7,4.4,2.55,7.39,2.55,1.65,0,3.38-.46,5.18-1.39,1.81-.93,3.38-2.37,4.72-4.33.15-.26.36-.39.62-.39s.53.08.81.23c.28.15,1.04.59,2.28,1.32.21.15.31.36.31.62,0,.36-.16.8-.46,1.32-1.44,2.68-3.41,4.88-5.88,6.58-2.48,1.7-5.7,2.55-9.67,2.55-4.28,0-7.97-.96-11.07-2.86-3.09-1.91-5.48-4.44-7.16-7.58-1.68-3.15-2.51-6.58-2.51-10.29s.53-6.62,1.59-9.17c1.06-2.55,2.46-4.62,4.22-6.19,1.75-1.57,3.73-2.73,5.92-3.48,2.19-.75,4.42-1.12,6.69-1.12,2.58,0,4.85.5,6.81,1.51,1.96,1.01,3.62,2.28,4.99,3.83,1.37,1.55,2.4,3.19,3.09,4.91.7,1.73,1.04,3.34,1.04,4.84,0,.41-.23.72-.7.93l-22.44,9.83ZM721.27,267.99c0-2.48-.59-4.51-1.78-6.11-1.19-1.6-2.68-2.4-4.49-2.4-2.12,0-3.79.84-5.03,2.51-1.24,1.68-1.86,3.78-1.86,6.31,0,.77.04,1.73.12,2.86.08,1.14.27,2.17.58,3.1l12.46-6.27Z"/>
  <path class="cls-2" d="M804.39,278.59c0,1.86.28,3.52.85,4.99.57,1.47,1.81,2.33,3.71,2.59.62.05.93.39.93,1.01v2.55c0,.72-.39,1.08-1.16,1.08-2.53,0-4.63.14-6.31.43-1.68.28-3.12.65-4.33,1.08-1.21.44-2.41.92-3.6,1.43-.21.1-.39.15-.54.15h-.23c-.1,0-.16-.1-.16-.31s.05-.71.16-1.51c.1-.8.22-1.7.35-2.71.13-1.01.25-1.87.35-2.59-.26.67-.81,1.57-1.66,2.71-.85,1.14-2.09,2.15-3.71,3.06-1.62.9-3.75,1.35-6.38,1.35-1.75,0-3.62-.36-5.61-1.08-1.99-.72-3.86-1.88-5.61-3.48-1.75-1.6-3.19-3.7-4.29-6.31-1.11-2.6-1.66-5.79-1.66-9.56,0-4.8.86-8.68,2.59-11.65,1.73-2.97,3.97-5.15,6.73-6.54,2.76-1.39,5.69-2.09,8.78-2.09,2.53,0,4.85.39,6.96,1.16,2.11.77,3.97,1.88,5.57,3.33,1.34-.57,2.49-1.1,3.44-1.59.95-.49,1.77-.99,2.44-1.51.26-.21.53-.41.81-.62.28-.21.61-.41.97-.62.15-.1.28-.15.39-.15h.08c.1,0,.15.05.15.15v25.23ZM793.55,266.44c-.15-1.03-.53-2.18-1.12-3.44-.59-1.26-1.48-2.35-2.67-3.25-1.19-.9-2.79-1.35-4.8-1.35-2.48,0-4.41.61-5.8,1.82-1.39,1.21-2.36,2.77-2.9,4.68-.54,1.91-.81,3.95-.81,6.11,0,4.95.99,8.87,2.98,11.76,1.99,2.89,4.55,4.33,7.7,4.33,1.86,0,3.31-.4,4.37-1.2,1.06-.8,1.82-1.61,2.28-2.44.46-.82.72-1.32.77-1.47v-15.55Z"/>
  <path class="cls-2" d="M839.44,288.27c.77,0,1.16.39,1.16,1.16v2.32c0,.77-.44,1.16-1.32,1.16h-21.9c-.88,0-1.32-.39-1.32-1.16v-2.32c0-.77.39-1.16,1.16-1.16h.15c1.91,0,3.31-.71,4.22-2.13.9-1.42,1.35-3.16,1.35-5.22v-8.2c0-1.19-.09-2.37-.27-3.56-.18-1.19-.58-2.22-1.2-3.1-.62-.88-1.65-1.39-3.1-1.55-.62-.05-.93-.39-.93-1.01v-2.63c0-.31.1-.53.31-.66.21-.13.49-.24.85-.35,4.08-1.34,7.21-2.72,9.4-4.14,2.19-1.42,3.8-2.67,4.84-3.75.1-.1.21-.15.31-.15h.23c.1,0,.16.05.16.15v28.86c0,2.06.46,3.82,1.39,5.26.93,1.45,2.35,2.17,4.26,2.17h.23ZM828.38,235.64c1.34,0,2.66.65,3.95,1.93,1.29,1.29,1.93,2.58,1.93,3.87s-.65,2.58-1.93,3.87c-1.29,1.29-2.61,1.93-3.95,1.93-1.24,0-2.53-.64-3.87-1.93-1.29-1.24-1.93-2.53-1.93-3.87s.64-2.58,1.93-3.87c1.29-1.29,2.58-1.93,3.87-1.93Z"/>
  <path class="cls-2" d="M291.51,328.89c0-1.39-.09-2.73-.27-4.02-.18-1.29-.58-2.39-1.2-3.29-.62-.9-1.65-1.43-3.1-1.59-.62-.05-.93-.39-.93-1.01v-2.63c0-.31.09-.53.27-.66.18-.13.45-.24.81-.35,4.13-1.34,7.33-2.68,9.6-4.02,2.27-1.34,3.92-2.4,4.95-3.17.16-.1.28-.15.39-.15h.08c.1,0,.15.05.15.15v25.85c.72-1.03,1.92-1.92,3.6-2.67,1.68-.75,3.6-1.12,5.77-1.12s4.27.36,6.46,1.08c2.19.72,4.22,1.88,6.08,3.48,1.86,1.6,3.37,3.7,4.53,6.31,1.16,2.61,1.74,5.79,1.74,9.56s-.81,7.42-2.44,10.49c-1.62,3.07-3.96,5.47-7,7.2-3.04,1.73-6.66,2.59-10.83,2.59-3.41,0-6.53-.58-9.36-1.74-2.84-1.16-5.09-3.04-6.77-5.65-1.68-2.6-2.52-6.02-2.52-10.25v-24.38ZM302.27,354.9c0,2.53.41,4.59,1.24,6.19.82,1.6,1.91,2.79,3.25,3.56,1.34.77,2.73,1.16,4.18,1.16,2.53,0,4.48-.61,5.84-1.82,1.37-1.21,2.32-2.8,2.86-4.76.54-1.96.81-4,.81-6.11,0-4.95-1.04-8.87-3.13-11.76-2.09-2.89-5.12-4.33-9.09-4.33-2.17,0-4.15.67-5.96,2.01v15.86Z"/>
  <path class="cls-2" d="M353.73,339.34c1.39-2.99,3.33-5.26,5.8-6.81,2.48-1.55,5.08-2.32,7.82-2.32,2.42,0,4.49.67,6.19,2.01,1.7,1.34,2.55,3.33,2.55,5.96,0,1.14-.1,2.14-.31,3.02-.21.88-.77,1.52-1.7,1.93l-7.27,2.94c-.31.1-.54.15-.7.15-.46,0-.7-.23-.7-.7,0-.15.05-.39.16-.7.31-.72.5-1.42.58-2.09.08-.67.12-1.26.12-1.78,0-1.39-.35-2.41-1.04-3.06-.7-.64-1.56-.97-2.59-.97-1.19,0-2.3.36-3.33,1.08-1.03.72-1.93,1.6-2.71,2.63-.77,1.03-1.34,2.04-1.7,3.02v14.24c0,2.06.46,3.81,1.39,5.22.93,1.42,2.35,2.13,4.26,2.13h.15c.77,0,1.16.39,1.16,1.16v2.32c0,.77-.39,1.16-1.16,1.16h-22.52c-.77,0-1.16-.39-1.16-1.16v-2.32c0-.77.39-1.16,1.16-1.16h.15c1.91,0,3.33-.71,4.26-2.13.93-1.42,1.39-3.16,1.39-5.22v-9.75c0-1.39-.09-2.73-.27-4.02-.18-1.29-.58-2.39-1.2-3.29-.62-.9-1.65-1.43-3.1-1.59-.62-.05-.93-.39-.93-1.01v-2.63c0-.52.39-.85,1.16-1.01,3.66-.57,6.87-1.47,9.63-2.71,2.76-1.24,4.63-2.22,5.61-2.94.16-.1.28-.15.39-.15h.16c.1,0,.15.05.15.15,0,.05-.07.44-.19,1.16-.13.72-.28,1.64-.46,2.75-.18,1.11-.39,2.24-.62,3.41s-.43,2.18-.58,3.06Z"/>
  <path class="cls-2" d="M420.82,355.59c0,1.86.28,3.52.85,4.99.57,1.47,1.8,2.33,3.71,2.59.62.05.93.39.93,1.01v2.55c0,.72-.39,1.08-1.16,1.08-2.53,0-4.63.14-6.31.43-1.68.28-3.12.65-4.33,1.08-1.21.44-2.41.92-3.6,1.43-.21.1-.39.15-.54.15h-.23c-.1,0-.15-.1-.15-.31s.05-.71.15-1.51c.1-.8.22-1.7.35-2.71.13-1.01.24-1.87.35-2.59-.26.67-.81,1.57-1.66,2.71-.85,1.14-2.09,2.15-3.71,3.06-1.62.9-3.75,1.35-6.38,1.35-1.75,0-3.62-.36-5.61-1.08s-3.86-1.88-5.61-3.48c-1.75-1.6-3.19-3.7-4.29-6.31-1.11-2.6-1.66-5.79-1.66-9.56,0-4.8.86-8.68,2.59-11.65,1.73-2.97,3.97-5.15,6.73-6.54,2.76-1.39,5.69-2.09,8.78-2.09,2.53,0,4.85.39,6.96,1.16,2.12.77,3.97,1.88,5.57,3.33,1.34-.57,2.49-1.1,3.44-1.59.95-.49,1.77-.99,2.44-1.51.26-.21.53-.41.81-.62.28-.21.61-.41.97-.62.15-.1.28-.15.39-.15h.08c.1,0,.16.05.16.15v25.23ZM409.99,343.44c-.16-1.03-.53-2.18-1.12-3.44-.59-1.26-1.48-2.35-2.67-3.25-1.19-.9-2.79-1.35-4.8-1.35-2.48,0-4.41.61-5.8,1.82-1.39,1.21-2.36,2.77-2.9,4.68-.54,1.91-.81,3.95-.81,6.11,0,4.95.99,8.87,2.98,11.76,1.99,2.89,4.55,4.33,7.7,4.33,1.86,0,3.31-.4,4.37-1.2,1.06-.8,1.82-1.61,2.28-2.44.46-.82.72-1.32.77-1.47v-15.55Z"/>
  <path class="cls-2" d="M477.08,344.68v13.23c0,2.84.45,4.77,1.35,5.8.9,1.03,2.1,1.55,3.6,1.55h.62c.77,0,1.16.39,1.16,1.16v2.32c0,.77-.39,1.16-1.16,1.16h-20.58c-.77,0-1.16-.39-1.16-1.16v-2.32c0-.77.39-1.16,1.16-1.16h.54c1.08,0,1.96-.52,2.63-1.55.67-1.03,1.01-2.97,1.01-5.8v-13.23c0-2.48-.39-4.37-1.16-5.69-.77-1.32-2.24-1.97-4.41-1.97-1.29,0-2.58.32-3.87.97-1.29.65-2.42,1.47-3.4,2.48-.98,1.01-1.7,2.08-2.17,3.21v14.24c0,2.06.45,3.81,1.35,5.22.9,1.42,2.1,2.13,3.6,2.13h.16c.77,0,1.16.39,1.16,1.16v2.32c0,.77-.39,1.16-1.16,1.16h-21.75c-.77,0-1.16-.39-1.16-1.16v-2.32c0-.77.39-1.16,1.16-1.16h.15c1.91,0,3.33-.71,4.26-2.13.93-1.42,1.39-3.16,1.39-5.22v-9.75c0-1.39-.09-2.73-.27-4.02-.18-1.29-.59-2.39-1.24-3.29-.65-.9-1.69-1.43-3.13-1.59-.57-.05-.85-.39-.85-1.01v-2.63c0-.52.36-.85,1.08-1.01,3.71-.57,6.9-1.44,9.56-2.63,2.66-1.19,4.5-2.14,5.53-2.86.26-.21.46-.31.62-.31h.08c.1,0,.15.05.15.15s-.03.31-.08.62l-1.32,9.52c.72-1.19,1.68-2.46,2.86-3.83,1.19-1.37,2.66-2.55,4.41-3.56,1.75-1.01,3.79-1.51,6.11-1.51,2.79,0,5.06.41,6.81,1.24,1.75.83,3.08,1.93,3.99,3.33.9,1.39,1.52,2.94,1.86,4.64.33,1.7.5,3.46.5,5.26Z"/>
  <path class="cls-2" d="M527.07,355.59c0,1.86.28,3.52.85,4.99.57,1.47,1.8,2.33,3.71,2.59.62.05.93.39.93,1.01v2.55c0,.72-.39,1.08-1.16,1.08-2.53,0-4.63.14-6.31.43-1.68.28-3.12.65-4.33,1.08-1.21.44-2.41.92-3.6,1.43-.21.1-.39.15-.54.15h-.15c-.16,0-.23-.08-.23-.23.1-1.19.22-2.35.35-3.48.13-1.13.3-2.27.5-3.41-.26.67-.81,1.57-1.66,2.71-.85,1.14-2.09,2.15-3.71,3.06-1.62.9-3.75,1.35-6.38,1.35-1.75,0-3.62-.36-5.61-1.08s-3.86-1.88-5.61-3.48c-1.75-1.6-3.19-3.7-4.29-6.31-1.11-2.6-1.66-5.79-1.66-9.56,0-4.8.86-8.68,2.59-11.65,1.73-2.97,3.97-5.15,6.73-6.54,2.76-1.39,5.69-2.09,8.78-2.09,3.92,0,7.25,1.21,9.98,3.64v-4.95c0-1.39-.09-2.73-.27-4.02-.18-1.29-.58-2.39-1.2-3.29-.62-.9-1.65-1.43-3.09-1.59-.62-.05-.93-.39-.93-1.01v-2.63c0-.31.1-.53.31-.66s.49-.24.85-.35c4.08-1.34,7.26-2.68,9.56-4.02,2.29-1.34,3.96-2.4,4.99-3.17.15-.1.28-.15.39-.15h.08c.1,0,.16.05.16.15v47.44ZM516.24,344.84c0-2.42-.79-4.49-2.36-6.19-1.57-1.7-3.65-2.55-6.23-2.55s-4.41.54-5.8,1.62c-1.39,1.08-2.36,2.53-2.9,4.33-.54,1.81-.81,3.79-.81,5.96,0,4.95.99,8.87,2.98,11.76,1.99,2.89,4.55,4.33,7.7,4.33,1.39,0,2.6-.35,3.64-1.04,1.03-.7,1.87-1.56,2.51-2.59.64-1.03,1.07-2.01,1.28-2.94v-12.69Z"/>
  <path class="cls-2" d="M546.73,357.84c.98-.98,1.96-1.47,2.94-1.47,1.03,0,2.04.49,3.02,1.47l3.02,3.02c.98.98,1.47,1.99,1.47,3.02s-.49,2.04-1.47,3.02l-3.02,3.02c-.98.98-1.99,1.47-3.02,1.47s-1.96-.49-2.94-1.47l-3.1-3.02c-.93-.93-1.39-1.93-1.39-3.02s.46-2.09,1.39-3.02l3.1-3.02Z"/>
  <path class="cls-1" d="M117.16,496.35c2.67,0,4.97.54,6.9,1.63,1.93,1.09,3.54,2.69,4.83,4.81l-3.08,2.39c-1.13-1.96-2.42-3.35-3.84-4.16-1.43-.81-3.15-1.22-5.17-1.22-1.63,0-2.97.23-4.03.69s-1.83,1.07-2.32,1.82c-.49.75-.74,1.6-.74,2.55,0,1.07.34,2.02,1.01,2.83.67.81,2.02,1.45,4.05,1.91l6.58,1.47c2.91.64,4.95,1.62,6.09,2.92,1.15,1.3,1.73,2.92,1.73,4.85,0,1.72-.48,3.24-1.45,4.58s-2.32,2.37-4.07,3.1-3.8,1.1-6.16,1.1c-2.21,0-4.15-.3-5.82-.9-1.67-.6-3.11-1.4-4.3-2.42-1.2-1.01-2.18-2.15-2.94-3.4l3.22-2.62c.58,1.17,1.33,2.19,2.25,3.08.92.89,2.03,1.58,3.33,2.07,1.3.49,2.8.74,4.49.74,1.56,0,2.92-.19,4.07-.57,1.15-.38,2.03-.95,2.65-1.7.61-.75.92-1.66.92-2.74,0-.98-.32-1.86-.97-2.65-.64-.78-1.86-1.37-3.63-1.77l-7.13-1.61c-1.87-.43-3.38-1.02-4.53-1.77-1.15-.75-1.98-1.64-2.48-2.67-.51-1.03-.76-2.14-.76-3.33,0-1.63.45-3.12,1.36-4.49.9-1.36,2.21-2.46,3.91-3.29,1.7-.83,3.72-1.24,6.05-1.24Z"/>
  <path class="cls-1" d="M140.34,527.18v-30.36h10.81c3.59,0,6.21.75,7.87,2.25,1.66,1.5,2.48,3.54,2.48,6.12,0,1.53-.45,2.92-1.33,4.16-.89,1.24-2.15,2.03-3.77,2.37v.05c1.81.34,3.24,1.16,4.3,2.46,1.06,1.3,1.59,2.78,1.59,4.44,0,2.58-.97,4.64-2.9,6.19-1.93,1.55-4.69,2.32-8.28,2.32h-10.76ZM144.02,510.16h7.18c4.29,0,6.44-1.66,6.44-4.97s-2.15-4.92-6.44-4.92h-7.18v9.89ZM144.02,523.73h7.96c2.18,0,3.79-.44,4.85-1.33,1.06-.89,1.59-2.13,1.59-3.73s-.53-2.88-1.59-3.75c-1.06-.87-2.68-1.31-4.85-1.31h-7.96v10.12Z"/>
  <path class="cls-1" d="M177.51,496.81v30.36h-3.68v-30.36h3.68Z"/>
  <path class="cls-1" d="M202.4,496.81c3.1,0,5.58.8,7.45,2.39,1.87,1.59,2.81,3.76,2.81,6.49s-.94,4.85-2.83,6.37c-1.89,1.52-4.38,2.28-7.47,2.28l-.32.23h-7.45v12.6h-3.68v-30.36h11.5ZM202.35,511.12c2.18,0,3.79-.45,4.85-1.36,1.06-.9,1.59-2.26,1.59-4.07s-.53-3.17-1.59-4.07c-1.06-.9-2.68-1.36-4.85-1.36h-7.77v10.86h7.77ZM204.47,511.86l10.03,15.32h-4.37l-8.74-13.29,3.08-2.02Z"/>
  <path class="cls-1" d="M249.13,519.4c-.64,1.72-1.56,3.2-2.76,4.44-1.2,1.24-2.6,2.19-4.21,2.83-1.61.64-3.37.97-5.27.97-2.88,0-5.38-.64-7.48-1.91-2.1-1.27-3.73-3.07-4.88-5.41-1.15-2.33-1.72-5.11-1.72-8.33s.58-6,1.72-8.33c1.15-2.33,2.78-4.13,4.88-5.4,2.1-1.27,4.56-1.91,7.38-1.91,1.96,0,3.71.27,5.24.81,1.53.54,2.84,1.33,3.93,2.39,1.09,1.06,1.96,2.35,2.6,3.89l-3.63,1.7c-.67-1.75-1.65-3.07-2.92-3.98-1.27-.9-2.92-1.36-4.95-1.36s-3.86.48-5.43,1.45c-1.56.97-2.78,2.35-3.66,4.16-.87,1.81-1.31,4-1.31,6.58s.41,4.73,1.24,6.55c.83,1.82,2.01,3.22,3.54,4.19,1.53.97,3.34,1.45,5.43,1.45s3.79-.51,5.29-1.54c1.5-1.03,2.59-2.57,3.27-4.62l3.68,1.38Z"/>
  <path class="cls-1" d="M263.35,496.81v30.36h-3.68v-30.36h3.68Z"/>
  <path class="cls-1" d="M300.93,527.18h-3.91l-3.22-8.42h-13.75l-3.22,8.42h-3.86l11.82-30.36h4.37l11.78,30.36ZM281.38,515.31h11.09l-5.57-14.95-5.52,14.95Z"/>
  <path class="cls-1" d="M331.52,496.81v30.36h-3.68v-30.36h3.68Z"/>
  <path class="cls-1" d="M393.39,496.81v30.36h-3.5v-19.09l.41-8h-.05l-9.98,27.09h-3.13l-9.98-27.09h-.05l.41,8v19.09h-3.5v-30.36h5.66l6.67,18.45,2.3,7.59h.09l2.35-7.54,6.62-18.49h5.66Z"/>
  <path class="cls-1" d="M410.45,496.81v30.36h-3.68v-30.36h3.68Z"/>
  <path class="cls-1" d="M423.84,527.18v-30.36h21.3v3.45h-17.62v9.8h13.71v3.45h-13.71v10.21h18.31v3.45h-21.99Z"/>
  <path class="cls-1" d="M460.32,496.81v30.36h-3.68v-30.36h3.68Z"/>
  <path class="cls-1" d="M505.17,496.81c2.48,0,4.6.4,6.35,1.2,1.75.8,3.08,1.95,4,3.45.92,1.5,1.38,3.33,1.38,5.47s-.46,3.97-1.38,5.47c-.92,1.5-2.25,2.65-4,3.45-1.75.8-3.86,1.2-6.35,1.2h-6.03v10.12h-7.91v-30.36h13.94ZM503.92,511.12c1.66,0,2.91-.34,3.75-1.04.84-.69,1.26-1.74,1.26-3.15s-.42-2.46-1.26-3.15c-.84-.69-2.09-1.03-3.75-1.03h-4.78v8.37h4.78Z"/>
  <path class="cls-1" d="M539.9,496.81c3.62,0,6.43.85,8.44,2.55,2.01,1.7,3.01,3.96,3.01,6.78,0,3.1-1,5.46-2.99,7.08-1.99,1.63-4.8,2.44-8.42,2.44l-.74.41h-6.03v11.09h-7.77v-30.36h14.49ZM538.79,510.48c1.53,0,2.68-.31,3.45-.92.77-.61,1.15-1.59,1.15-2.94s-.38-2.28-1.15-2.9c-.77-.61-1.92-.92-3.45-.92h-5.61v7.68h5.61ZM543.44,512.13l9.71,15.04h-8.74l-7.77-13.29,6.81-1.75Z"/>
  <path class="cls-1" d="M573.84,496.35c3.07,0,5.71.62,7.93,1.86s3.93,3.03,5.13,5.36c1.2,2.33,1.79,5.14,1.79,8.42s-.6,6.09-1.79,8.42c-1.2,2.33-2.91,4.12-5.13,5.36-2.22,1.24-4.87,1.86-7.93,1.86s-5.72-.62-7.96-1.86c-2.24-1.24-3.96-3.03-5.15-5.36-1.2-2.33-1.79-5.14-1.79-8.42s.6-6.09,1.79-8.42c1.2-2.33,2.91-4.12,5.15-5.36,2.24-1.24,4.89-1.86,7.96-1.86ZM573.84,502.56c-1.47,0-2.71.35-3.73,1.06-1.01.71-1.78,1.76-2.3,3.15-.52,1.4-.78,3.14-.78,5.22s.26,3.79.78,5.2c.52,1.41,1.29,2.47,2.3,3.17,1.01.71,2.25,1.06,3.73,1.06s2.71-.35,3.7-1.06c1-.71,1.76-1.76,2.28-3.17.52-1.41.78-3.14.78-5.2s-.26-3.83-.78-5.22c-.52-1.4-1.28-2.45-2.28-3.15-1-.71-2.23-1.06-3.7-1.06Z"/>
  <path class="cls-1" d="M610.14,527.64c-2.7,0-5.1-.6-7.2-1.79-2.1-1.2-3.73-2.96-4.9-5.29-1.17-2.33-1.75-5.17-1.75-8.51s.61-6.09,1.84-8.42c1.23-2.33,2.98-4.12,5.27-5.38,2.28-1.26,4.98-1.89,8.07-1.89,3.43,0,6.21.62,8.33,1.86,2.12,1.24,3.76,3.21,4.92,5.91l-7.31,2.9c-.4-1.56-1.1-2.7-2.12-3.4-1.01-.71-2.27-1.06-3.77-1.06s-2.79.36-3.86,1.08c-1.07.72-1.89,1.78-2.44,3.17-.55,1.4-.83,3.12-.83,5.18s.28,3.94.85,5.38c.57,1.44,1.41,2.51,2.53,3.2,1.12.69,2.51,1.04,4.16,1.04.89,0,1.7-.11,2.44-.32.74-.21,1.38-.53,1.93-.94.55-.41.98-.94,1.29-1.56.31-.63.46-1.37.46-2.23v-.46h-6.95v-5.29h13.66v16.38h-5.38l-.6-7.13,1.29,1.1c-.64,2.09-1.8,3.69-3.47,4.81-1.67,1.12-3.83,1.68-6.46,1.68Z"/>
  <path class="cls-1" d="M634.29,527.18v-30.36h23.64v6.12h-15.73v6.16h12.51v5.75h-12.51v6.21h16.33v6.12h-24.24Z"/>
  <path class="cls-1" d="M692.29,496.81v6.12h-9.89v24.24h-7.91v-24.24h-9.94v-6.12h27.74Z"/>
  <path class="cls-1" d="M725.78,496.81v6.12h-9.89v24.24h-7.91v-24.24h-9.94v-6.12h27.74Z"/>
  <path class="cls-1" d="M741.65,496.81v30.36h-7.91v-30.36h7.91Z"/>
</svg>